%TF.GenerationSoftware,KiCad,Pcbnew,9.0.2+dfsg-1*%
%TF.CreationDate,2026-01-13T19:23:52+00:00*%
%TF.ProjectId,spectrum_one_v0.1.0,73706563-7472-4756-9d5f-6f6e655f7630,rev?*%
%TF.SameCoordinates,Original*%
%TF.FileFunction,Legend,Bot*%
%TF.FilePolarity,Positive*%
%FSLAX46Y46*%
G04 Gerber Fmt 4.6, Leading zero omitted, Abs format (unit mm)*
G04 Created by KiCad (PCBNEW 9.0.2+dfsg-1) date 2026-01-13 19:23:52*
%MOMM*%
%LPD*%
G01*
G04 APERTURE LIST*
G04 Aperture macros list*
%AMRoundRect*
0 Rectangle with rounded corners*
0 $1 Rounding radius*
0 $2 $3 $4 $5 $6 $7 $8 $9 X,Y pos of 4 corners*
0 Add a 4 corners polygon primitive as box body*
4,1,4,$2,$3,$4,$5,$6,$7,$8,$9,$2,$3,0*
0 Add four circle primitives for the rounded corners*
1,1,$1+$1,$2,$3*
1,1,$1+$1,$4,$5*
1,1,$1+$1,$6,$7*
1,1,$1+$1,$8,$9*
0 Add four rect primitives between the rounded corners*
20,1,$1+$1,$2,$3,$4,$5,0*
20,1,$1+$1,$4,$5,$6,$7,0*
20,1,$1+$1,$6,$7,$8,$9,0*
20,1,$1+$1,$8,$9,$2,$3,0*%
G04 Aperture macros list end*
%ADD10C,3.200000*%
%ADD11C,2.000000*%
%ADD12C,1.600000*%
%ADD13RoundRect,0.250000X-0.725000X0.600000X-0.725000X-0.600000X0.725000X-0.600000X0.725000X0.600000X0*%
%ADD14O,1.950000X1.700000*%
%ADD15R,1.700000X1.700000*%
%ADD16C,1.700000*%
%ADD17R,2.032000X2.032000*%
%ADD18C,2.032000*%
G04 APERTURE END LIST*
%LPC*%
D10*
%TO.C,REF\u002A\u002A*%
X43500000Y-91500000D03*
%TD*%
D11*
%TO.C,SW1*%
X27743689Y-119005522D03*
X34243689Y-119005522D03*
X27743689Y-123505522D03*
X34243689Y-123505522D03*
%TD*%
D10*
%TO.C,REF\u002A\u002A*%
X118500000Y-122500000D03*
%TD*%
D12*
%TO.C,C1*%
X33947772Y-91585829D03*
X33947772Y-94085829D03*
%TD*%
D10*
%TO.C,REF\u002A\u002A*%
X26000000Y-78000000D03*
%TD*%
D12*
%TO.C,R3*%
X161000000Y-98500000D03*
X168620000Y-98500000D03*
%TD*%
D13*
%TO.C,J1*%
X30000000Y-91586209D03*
D14*
X30000000Y-94086209D03*
X30000000Y-96586209D03*
X30000000Y-99086209D03*
%TD*%
D12*
%TO.C,R2*%
X161000000Y-103500000D03*
X168620000Y-103500000D03*
%TD*%
%TO.C,R10*%
X184500000Y-108500000D03*
X176880000Y-108500000D03*
%TD*%
%TO.C,R1*%
X161000000Y-108500000D03*
X168620000Y-108500000D03*
%TD*%
D10*
%TO.C,REF\u002A\u002A*%
X71413282Y-122500000D03*
%TD*%
D12*
%TO.C,R8*%
X184500000Y-98500000D03*
X176880000Y-98500000D03*
%TD*%
D15*
%TO.C,ESP32*%
X127883279Y-78982594D03*
D16*
X127883279Y-81522594D03*
X127883279Y-84062594D03*
X127883279Y-86602594D03*
X127883279Y-89142594D03*
X127883279Y-91682594D03*
X127883279Y-94222594D03*
X127883279Y-96762594D03*
X127883279Y-99302594D03*
X127883279Y-101842594D03*
X127883279Y-104382594D03*
X127883279Y-106922594D03*
X127883279Y-109462594D03*
X127883279Y-112002594D03*
X127883279Y-114542594D03*
X153283279Y-78982594D03*
X153283279Y-81522594D03*
X153283279Y-84062594D03*
X153283279Y-86602594D03*
X153283279Y-89142594D03*
X153283279Y-91682594D03*
X153283279Y-94222594D03*
X153283279Y-96762594D03*
X153283279Y-99302594D03*
X153283279Y-101842594D03*
X153283279Y-104382594D03*
X153283279Y-106922594D03*
X153283279Y-109462594D03*
X153283279Y-112002594D03*
X153283279Y-114542594D03*
%TD*%
D12*
%TO.C,R6*%
X184500000Y-88500000D03*
X176880000Y-88500000D03*
%TD*%
D10*
%TO.C,REF\u002A\u002A*%
X140500000Y-122500000D03*
%TD*%
D12*
%TO.C,R7*%
X184500000Y-93500000D03*
X176880000Y-93500000D03*
%TD*%
%TO.C,R9*%
X184500000Y-103500000D03*
X176880000Y-103500000D03*
%TD*%
D10*
%TO.C,REF\u002A\u002A*%
X186000000Y-78000000D03*
%TD*%
%TO.C,REF\u002A\u002A*%
X118500000Y-91500000D03*
%TD*%
D12*
%TO.C,R4*%
X161000000Y-93500000D03*
X168620000Y-93500000D03*
%TD*%
D17*
%TO.C,10 LED ARRAY*%
X161300000Y-123500000D03*
D18*
X163840000Y-123500000D03*
X166380000Y-123500000D03*
X168920000Y-123500000D03*
X171460000Y-123500000D03*
X174000000Y-123500000D03*
X176540000Y-123500000D03*
X179080000Y-123500000D03*
X181620000Y-123500000D03*
X184160000Y-123500000D03*
X184160000Y-115880000D03*
X181620000Y-115880000D03*
X179080000Y-115880000D03*
X176540000Y-115880000D03*
X174000000Y-115880000D03*
X171460000Y-115880000D03*
X168920000Y-115880000D03*
X166380000Y-115880000D03*
X163840000Y-115880000D03*
X161300000Y-115880000D03*
%TD*%
D12*
%TO.C,R5*%
X161000000Y-88500000D03*
X168620000Y-88500000D03*
%TD*%
D10*
%TO.C,REF\u002A\u002A*%
X43500000Y-122500000D03*
%TD*%
%LPD*%
M02*
