M48
; DRILL file {KiCad 9.0.2+dfsg-1} date 2026-01-13T19:25:19+0000
; FORMAT={-:-/ absolute / metric / decimal}
; #@! TF.CreationDate,2026-01-13T19:25:19+00:00
; #@! TF.GenerationSoftware,Kicad,Pcbnew,9.0.2+dfsg-1
; #@! TF.FileFunction,Plated,1,2,PTH
FMAT,2
METRIC
; #@! TA.AperFunction,Plated,PTH,ViaDrill
T1C0.400
; #@! TA.AperFunction,Plated,PTH,ViaDrill
T2C0.500
; #@! TA.AperFunction,Plated,PTH,ComponentDrill
T3C0.800
; #@! TA.AperFunction,Plated,PTH,ComponentDrill
T4C0.914
; #@! TA.AperFunction,Plated,PTH,ComponentDrill
T5C0.950
; #@! TA.AperFunction,Plated,PTH,ComponentDrill
T6C1.000
; #@! TA.AperFunction,Plated,PTH,ComponentDrill
T7C1.100
%
G90
G05
T1
X23.5Y-111.0
X25.249Y-126.0
X78.0Y-121.5
X78.0Y-124.5
X117.5Y-117.0
X134.5Y-121.5
X134.5Y-124.0
X138.0Y-96.0
X143.0Y-96.0
X173.0Y-85.0
X186.5Y-125.0
T2
X114.0Y-111.0
X135.5Y-115.0
X150.503Y-112.003
T3
X33.948Y-91.586
X33.948Y-94.086
X161.0Y-88.5
X161.0Y-93.5
X161.0Y-98.5
X161.0Y-103.5
X161.0Y-108.5
X168.62Y-88.5
X168.62Y-93.5
X168.62Y-98.5
X168.62Y-103.5
X168.62Y-108.5
X176.88Y-88.5
X176.88Y-93.5
X176.88Y-98.5
X176.88Y-103.5
X176.88Y-108.5
X184.5Y-88.5
X184.5Y-93.5
X184.5Y-98.5
X184.5Y-103.5
X184.5Y-108.5
T4
X161.3Y-115.88
X161.3Y-123.5
X163.84Y-115.88
X163.84Y-123.5
X166.38Y-115.88
X166.38Y-123.5
X168.92Y-115.88
X168.92Y-123.5
X171.46Y-115.88
X171.46Y-123.5
X174.0Y-115.88
X174.0Y-123.5
X176.54Y-115.88
X176.54Y-123.5
X179.08Y-115.88
X179.08Y-123.5
X181.62Y-115.88
X181.62Y-123.5
X184.16Y-115.88
X184.16Y-123.5
T5
X30.0Y-91.586
X30.0Y-94.086
X30.0Y-96.586
X30.0Y-99.086
T6
X127.883Y-78.983
X127.883Y-81.523
X127.883Y-84.063
X127.883Y-86.603
X127.883Y-89.143
X127.883Y-91.683
X127.883Y-94.223
X127.883Y-96.763
X127.883Y-99.303
X127.883Y-101.843
X127.883Y-104.383
X127.883Y-106.923
X127.883Y-109.463
X127.883Y-112.003
X127.883Y-114.543
X153.283Y-78.983
X153.283Y-81.523
X153.283Y-84.063
X153.283Y-86.603
X153.283Y-89.143
X153.283Y-91.683
X153.283Y-94.223
X153.283Y-96.763
X153.283Y-99.303
X153.283Y-101.843
X153.283Y-104.383
X153.283Y-106.923
X153.283Y-109.463
X153.283Y-112.003
X153.283Y-114.543
T7
X27.744Y-119.006
X27.744Y-123.506
X34.244Y-119.006
X34.244Y-123.506
M30
