%TF.GenerationSoftware,KiCad,Pcbnew,9.0.2+dfsg-1*%
%TF.CreationDate,2026-01-13T19:23:52+00:00*%
%TF.ProjectId,spectrum_one_v0.1.0,73706563-7472-4756-9d5f-6f6e655f7630,rev?*%
%TF.SameCoordinates,Original*%
%TF.FileFunction,Copper,L1,Top*%
%TF.FilePolarity,Positive*%
%FSLAX46Y46*%
G04 Gerber Fmt 4.6, Leading zero omitted, Abs format (unit mm)*
G04 Created by KiCad (PCBNEW 9.0.2+dfsg-1) date 2026-01-13 19:23:52*
%MOMM*%
%LPD*%
G01*
G04 APERTURE LIST*
G04 Aperture macros list*
%AMRoundRect*
0 Rectangle with rounded corners*
0 $1 Rounding radius*
0 $2 $3 $4 $5 $6 $7 $8 $9 X,Y pos of 4 corners*
0 Add a 4 corners polygon primitive as box body*
4,1,4,$2,$3,$4,$5,$6,$7,$8,$9,$2,$3,0*
0 Add four circle primitives for the rounded corners*
1,1,$1+$1,$2,$3*
1,1,$1+$1,$4,$5*
1,1,$1+$1,$6,$7*
1,1,$1+$1,$8,$9*
0 Add four rect primitives between the rounded corners*
20,1,$1+$1,$2,$3,$4,$5,0*
20,1,$1+$1,$4,$5,$6,$7,0*
20,1,$1+$1,$6,$7,$8,$9,0*
20,1,$1+$1,$8,$9,$2,$3,0*%
G04 Aperture macros list end*
%TA.AperFunction,ComponentPad*%
%ADD10C,2.000000*%
%TD*%
%TA.AperFunction,ComponentPad*%
%ADD11C,1.600000*%
%TD*%
%TA.AperFunction,ComponentPad*%
%ADD12RoundRect,0.250000X-0.725000X0.600000X-0.725000X-0.600000X0.725000X-0.600000X0.725000X0.600000X0*%
%TD*%
%TA.AperFunction,ComponentPad*%
%ADD13O,1.950000X1.700000*%
%TD*%
%TA.AperFunction,ComponentPad*%
%ADD14R,1.700000X1.700000*%
%TD*%
%TA.AperFunction,ComponentPad*%
%ADD15C,1.700000*%
%TD*%
%TA.AperFunction,ComponentPad*%
%ADD16R,2.032000X2.032000*%
%TD*%
%TA.AperFunction,ComponentPad*%
%ADD17C,2.032000*%
%TD*%
%TA.AperFunction,ViaPad*%
%ADD18C,0.800000*%
%TD*%
%TA.AperFunction,ViaPad*%
%ADD19C,1.000000*%
%TD*%
%TA.AperFunction,Conductor*%
%ADD20C,0.250000*%
%TD*%
%TA.AperFunction,Conductor*%
%ADD21C,0.500000*%
%TD*%
G04 APERTURE END LIST*
D10*
%TO.P,SW1,1,1*%
%TO.N,Net-(U1-GPIO13)*%
X27743689Y-119005522D03*
X34243689Y-119005522D03*
%TO.P,SW1,2,2*%
%TO.N,GND*%
X27743689Y-123505522D03*
X34243689Y-123505522D03*
%TD*%
D11*
%TO.P,C1,1*%
%TO.N,GND*%
X33947772Y-91585829D03*
%TO.P,C1,2*%
%TO.N,/VCC*%
X33947772Y-94085829D03*
%TD*%
%TO.P,R3,1*%
%TO.N,GND*%
X161000000Y-98500000D03*
%TO.P,R3,2*%
%TO.N,Net-(BAR1-K-Pad18)*%
X168620000Y-98500000D03*
%TD*%
D12*
%TO.P,J1,1,GND*%
%TO.N,GND*%
X30000000Y-91586209D03*
D13*
%TO.P,J1,2,VCC*%
%TO.N,/VCC*%
X30000000Y-94086209D03*
%TO.P,J1,3,SDA*%
%TO.N,Net-(J1-SDA)*%
X30000000Y-96586209D03*
%TO.P,J1,4,SCL*%
%TO.N,Net-(J1-SCL)*%
X30000000Y-99086209D03*
%TD*%
D11*
%TO.P,R2,1*%
%TO.N,GND*%
X161000000Y-103500000D03*
%TO.P,R2,2*%
%TO.N,Net-(BAR1-K-Pad19)*%
X168620000Y-103500000D03*
%TD*%
%TO.P,R10,1*%
%TO.N,GND*%
X184500000Y-108500000D03*
%TO.P,R10,2*%
%TO.N,Net-(BAR1-K-Pad11)*%
X176880000Y-108500000D03*
%TD*%
%TO.P,R1,1*%
%TO.N,GND*%
X161000000Y-108500000D03*
%TO.P,R1,2*%
%TO.N,Net-(BAR1-K-Pad20)*%
X168620000Y-108500000D03*
%TD*%
%TO.P,R8,1*%
%TO.N,GND*%
X184500000Y-98500000D03*
%TO.P,R8,2*%
%TO.N,Net-(BAR1-K-Pad13)*%
X176880000Y-98500000D03*
%TD*%
D14*
%TO.P,ESP32,1,EN*%
%TO.N,unconnected-(U1-EN-Pad1)*%
X127883279Y-78982594D03*
D15*
%TO.P,ESP32,2,GPIO36*%
%TO.N,unconnected-(U1-GPIO36-Pad2)*%
X127883279Y-81522594D03*
%TO.P,ESP32,3,GPIO39*%
%TO.N,unconnected-(U1-GPIO39-Pad3)*%
X127883279Y-84062594D03*
%TO.P,ESP32,4,GPIO34*%
%TO.N,unconnected-(U1-GPIO34-Pad4)*%
X127883279Y-86602594D03*
%TO.P,ESP32,5,GPIO35*%
%TO.N,unconnected-(U1-GPIO35-Pad5)*%
X127883279Y-89142594D03*
%TO.P,ESP32,6,GPIO32*%
%TO.N,Net-(U1-GPIO32)*%
X127883279Y-91682594D03*
%TO.P,ESP32,7,GPIO33*%
%TO.N,Net-(U1-GPIO33)*%
X127883279Y-94222594D03*
%TO.P,ESP32,8,GPIO25*%
%TO.N,Net-(U1-GPIO25)*%
X127883279Y-96762594D03*
%TO.P,ESP32,9,GPIO26*%
%TO.N,Net-(U1-GPIO26)*%
X127883279Y-99302594D03*
%TO.P,ESP32,10,GPIO27*%
%TO.N,Net-(U1-GPIO27)*%
X127883279Y-101842594D03*
%TO.P,ESP32,11,GPIO14*%
%TO.N,unconnected-(U1-GPIO14-Pad11)*%
X127883279Y-104382594D03*
%TO.P,ESP32,12,GPIO12*%
%TO.N,unconnected-(U1-GPIO12-Pad12)*%
X127883279Y-106922594D03*
%TO.P,ESP32,13,GPIO13*%
%TO.N,Net-(U1-GPIO13)*%
X127883279Y-109462594D03*
%TO.P,ESP32,14,GND*%
%TO.N,GND*%
X127883279Y-112002594D03*
%TO.P,ESP32,15,VIN*%
%TO.N,/VCC*%
X127883279Y-114542594D03*
%TO.P,ESP32,16,GPIO23*%
%TO.N,Net-(U1-GPIO23)*%
X153283279Y-78982594D03*
%TO.P,ESP32,17,GPIO22*%
%TO.N,Net-(U1-GPIO22)*%
X153283279Y-81522594D03*
%TO.P,ESP32,18,GPIO1*%
%TO.N,unconnected-(U1-GPIO1-Pad18)*%
X153283279Y-84062594D03*
%TO.P,ESP32,19,GPIO3*%
%TO.N,unconnected-(U1-GPIO3-Pad19)*%
X153283279Y-86602594D03*
%TO.P,ESP32,20,GPIO21*%
%TO.N,Net-(U1-GPIO21)*%
X153283279Y-89142594D03*
%TO.P,ESP32,21,GPIO19*%
%TO.N,Net-(U1-GPIO19)*%
X153283279Y-91682594D03*
%TO.P,ESP32,22,GPIO18*%
%TO.N,Net-(U1-GPIO18)*%
X153283279Y-94222594D03*
%TO.P,ESP32,23,GPIO5*%
%TO.N,unconnected-(U1-GPIO5-Pad23)*%
X153283279Y-96762594D03*
%TO.P,ESP32,24,GPIO17*%
%TO.N,Net-(J1-SCL)*%
X153283279Y-99302594D03*
%TO.P,ESP32,25,GPIO16*%
%TO.N,Net-(J1-SDA)*%
X153283279Y-101842594D03*
%TO.P,ESP32,26,GPIO4*%
%TO.N,unconnected-(U1-GPIO4-Pad26)*%
X153283279Y-104382594D03*
%TO.P,ESP32,27,GPIO2*%
%TO.N,unconnected-(U1-GPIO2-Pad27)*%
X153283279Y-106922594D03*
%TO.P,ESP32,28,GPIO15*%
%TO.N,unconnected-(U1-GPIO15-Pad28)*%
X153283279Y-109462594D03*
%TO.P,ESP32,29,GND*%
%TO.N,GND*%
X153283279Y-112002594D03*
%TO.P,ESP32,30,3V3*%
%TO.N,unconnected-(U1-3V3-Pad30)*%
X153283279Y-114542594D03*
%TD*%
D11*
%TO.P,R6,1*%
%TO.N,GND*%
X184500000Y-88500000D03*
%TO.P,R6,2*%
%TO.N,Net-(BAR1-K-Pad15)*%
X176880000Y-88500000D03*
%TD*%
%TO.P,R7,1*%
%TO.N,GND*%
X184500000Y-93500000D03*
%TO.P,R7,2*%
%TO.N,Net-(BAR1-K-Pad14)*%
X176880000Y-93500000D03*
%TD*%
%TO.P,R9,1*%
%TO.N,GND*%
X184500000Y-103500000D03*
%TO.P,R9,2*%
%TO.N,Net-(BAR1-K-Pad12)*%
X176880000Y-103500000D03*
%TD*%
%TO.P,R4,1*%
%TO.N,GND*%
X161000000Y-93500000D03*
%TO.P,R4,2*%
%TO.N,Net-(BAR1-K-Pad17)*%
X168620000Y-93500000D03*
%TD*%
D16*
%TO.P,10 LED ARRAY,1,A*%
%TO.N,Net-(U1-GPIO32)*%
X161300000Y-123500000D03*
D17*
%TO.P,10 LED ARRAY,2,A*%
%TO.N,Net-(U1-GPIO33)*%
X163840000Y-123500000D03*
%TO.P,10 LED ARRAY,3,A*%
%TO.N,Net-(U1-GPIO25)*%
X166380000Y-123500000D03*
%TO.P,10 LED ARRAY,4,A*%
%TO.N,Net-(U1-GPIO26)*%
X168920000Y-123500000D03*
%TO.P,10 LED ARRAY,5,A*%
%TO.N,Net-(U1-GPIO27)*%
X171460000Y-123500000D03*
%TO.P,10 LED ARRAY,6,A*%
%TO.N,Net-(U1-GPIO18)*%
X174000000Y-123500000D03*
%TO.P,10 LED ARRAY,7,A*%
%TO.N,Net-(U1-GPIO19)*%
X176540000Y-123500000D03*
%TO.P,10 LED ARRAY,8,A*%
%TO.N,Net-(U1-GPIO21)*%
X179080000Y-123500000D03*
%TO.P,10 LED ARRAY,9,A*%
%TO.N,Net-(U1-GPIO22)*%
X181620000Y-123500000D03*
%TO.P,10 LED ARRAY,10,A*%
%TO.N,Net-(U1-GPIO23)*%
X184160000Y-123500000D03*
%TO.P,10 LED ARRAY,11,K*%
%TO.N,Net-(BAR1-K-Pad11)*%
X184160000Y-115880000D03*
%TO.P,10 LED ARRAY,12,K*%
%TO.N,Net-(BAR1-K-Pad12)*%
X181620000Y-115880000D03*
%TO.P,10 LED ARRAY,13,K*%
%TO.N,Net-(BAR1-K-Pad13)*%
X179080000Y-115880000D03*
%TO.P,10 LED ARRAY,14,K*%
%TO.N,Net-(BAR1-K-Pad14)*%
X176540000Y-115880000D03*
%TO.P,10 LED ARRAY,15,K*%
%TO.N,Net-(BAR1-K-Pad15)*%
X174000000Y-115880000D03*
%TO.P,10 LED ARRAY,16,K*%
%TO.N,Net-(BAR1-K-Pad16)*%
X171460000Y-115880000D03*
%TO.P,10 LED ARRAY,17,K*%
%TO.N,Net-(BAR1-K-Pad17)*%
X168920000Y-115880000D03*
%TO.P,10 LED ARRAY,18,K*%
%TO.N,Net-(BAR1-K-Pad18)*%
X166380000Y-115880000D03*
%TO.P,10 LED ARRAY,19,K*%
%TO.N,Net-(BAR1-K-Pad19)*%
X163840000Y-115880000D03*
%TO.P,10 LED ARRAY,20,K*%
%TO.N,Net-(BAR1-K-Pad20)*%
X161300000Y-115880000D03*
%TD*%
D11*
%TO.P,R5,1*%
%TO.N,GND*%
X161000000Y-88500000D03*
%TO.P,R5,2*%
%TO.N,Net-(BAR1-K-Pad16)*%
X168620000Y-88500000D03*
%TD*%
D18*
%TO.N,GND*%
X78000000Y-124500000D03*
X134500000Y-124000000D03*
X134500000Y-121500000D03*
X78000000Y-121500000D03*
X186500000Y-125000000D03*
X143000000Y-96000000D03*
X173000000Y-85000000D03*
X25249211Y-126000000D03*
D19*
X150502594Y-112002594D03*
X135500000Y-115000000D03*
D18*
X138000000Y-96000000D03*
%TO.N,Net-(U1-GPIO13)*%
X23500000Y-111000000D03*
D19*
%TO.N,/VCC*%
X114000000Y-111000000D03*
D18*
%TO.N,Net-(J1-SCL)*%
X117500000Y-117000000D03*
%TD*%
D20*
%TO.N,Net-(BAR1-K-Pad19)*%
X168620000Y-103500000D02*
X170500000Y-105380000D01*
X170500000Y-109220000D02*
X163840000Y-115880000D01*
X170500000Y-105380000D02*
X170500000Y-109220000D01*
%TO.N,Net-(BAR1-K-Pad11)*%
X176880000Y-108500000D02*
X184160000Y-115780000D01*
X184160000Y-115780000D02*
X184160000Y-115880000D01*
%TO.N,Net-(BAR1-K-Pad15)*%
X173500000Y-113000000D02*
X173500000Y-90500000D01*
X174000000Y-115880000D02*
X174000000Y-113500000D01*
X174000000Y-113500000D02*
X173500000Y-113000000D01*
X175500000Y-88500000D02*
X176880000Y-88500000D01*
X173500000Y-90500000D02*
X175500000Y-88500000D01*
%TO.N,Net-(U1-GPIO26)*%
X166500000Y-128923000D02*
X132000000Y-128923000D01*
X132000000Y-103419315D02*
X127883279Y-99302594D01*
X168920000Y-123500000D02*
X168920000Y-126503000D01*
X168920000Y-126503000D02*
X166500000Y-128923000D01*
X132000000Y-128923000D02*
X132000000Y-103419315D01*
%TO.N,Net-(U1-GPIO23)*%
X156982594Y-78982594D02*
X153283279Y-78982594D01*
X184160000Y-123500000D02*
X184160000Y-121660000D01*
X158000000Y-80000000D02*
X156982594Y-78982594D01*
X158000000Y-119000000D02*
X158000000Y-80000000D01*
X184160000Y-121660000D02*
X181500000Y-119000000D01*
X181500000Y-119000000D02*
X158000000Y-119000000D01*
%TO.N,Net-(U1-GPIO32)*%
X144500000Y-116000000D02*
X156000000Y-127500000D01*
X156000000Y-127500000D02*
X159500000Y-127500000D01*
X127883279Y-91682594D02*
X133500000Y-97299315D01*
X133500000Y-97299315D02*
X133500000Y-115000000D01*
X134500000Y-116000000D02*
X144500000Y-116000000D01*
X159500000Y-127500000D02*
X161300000Y-125700000D01*
X161300000Y-125700000D02*
X161300000Y-123500000D01*
X133500000Y-115000000D02*
X134500000Y-116000000D01*
%TO.N,Net-(BAR1-K-Pad18)*%
X171000000Y-111260000D02*
X166380000Y-115880000D01*
X171000000Y-100880000D02*
X171000000Y-111260000D01*
X168620000Y-98500000D02*
X171000000Y-100880000D01*
%TO.N,Net-(BAR1-K-Pad12)*%
X175000000Y-105380000D02*
X175000000Y-109260000D01*
X176880000Y-103500000D02*
X175000000Y-105380000D01*
X175000000Y-109260000D02*
X181620000Y-115880000D01*
%TO.N,Net-(U1-GPIO22)*%
X181620000Y-123500000D02*
X181620000Y-121620000D01*
X157500000Y-119500000D02*
X157500000Y-82500000D01*
X181620000Y-121620000D02*
X179500000Y-119500000D01*
X179500000Y-119500000D02*
X157500000Y-119500000D01*
X157500000Y-82500000D02*
X156522594Y-81522594D01*
X156522594Y-81522594D02*
X153283279Y-81522594D01*
%TO.N,Net-(U1-GPIO25)*%
X166380000Y-126620000D02*
X164528000Y-128472000D01*
X164528000Y-128472000D02*
X152472000Y-128472000D01*
X166380000Y-123500000D02*
X166380000Y-126620000D01*
X132500000Y-117000000D02*
X132500000Y-101379315D01*
X132500000Y-101379315D02*
X127883279Y-96762594D01*
X141000000Y-117000000D02*
X132500000Y-117000000D01*
X152472000Y-128472000D02*
X141000000Y-117000000D01*
%TO.N,Net-(BAR1-K-Pad20)*%
X168620000Y-108500000D02*
X161300000Y-115820000D01*
X161300000Y-115820000D02*
X161300000Y-115880000D01*
%TO.N,Net-(U1-GPIO27)*%
X123657406Y-101842594D02*
X127883279Y-101842594D01*
X171460000Y-123500000D02*
X171460000Y-126414000D01*
X168500000Y-129374000D02*
X127874000Y-129374000D01*
X123500000Y-102000000D02*
X123657406Y-101842594D01*
X127874000Y-129374000D02*
X123500000Y-125000000D01*
X171460000Y-126414000D02*
X168500000Y-129374000D01*
X123500000Y-125000000D02*
X123500000Y-102000000D01*
%TO.N,Net-(BAR1-K-Pad17)*%
X168920000Y-115880000D02*
X168920000Y-114580000D01*
X171500000Y-112000000D02*
X171500000Y-96380000D01*
X168920000Y-114580000D02*
X171500000Y-112000000D01*
X171500000Y-96380000D02*
X168620000Y-93500000D01*
%TO.N,Net-(U1-GPIO18)*%
X156000000Y-95000000D02*
X155222594Y-94222594D01*
X155222594Y-94222594D02*
X153283279Y-94222594D01*
X156000000Y-121000000D02*
X156000000Y-95000000D01*
X174000000Y-122000000D02*
X173000000Y-121000000D01*
X173000000Y-121000000D02*
X156000000Y-121000000D01*
X174000000Y-123500000D02*
X174000000Y-122000000D01*
%TO.N,Net-(U1-GPIO19)*%
X156500000Y-93697234D02*
X154485360Y-91682594D01*
X176540000Y-121540000D02*
X175500000Y-120500000D01*
X154485360Y-91682594D02*
X153283279Y-91682594D01*
X156500000Y-120500000D02*
X156500000Y-93697234D01*
X175500000Y-120500000D02*
X156500000Y-120500000D01*
X176540000Y-123500000D02*
X176540000Y-121540000D01*
%TO.N,Net-(BAR1-K-Pad14)*%
X174000000Y-112000000D02*
X176540000Y-114540000D01*
X176880000Y-93500000D02*
X174000000Y-96380000D01*
X176540000Y-114540000D02*
X176540000Y-115880000D01*
X174000000Y-96380000D02*
X174000000Y-112000000D01*
%TO.N,Net-(BAR1-K-Pad16)*%
X170000000Y-88500000D02*
X168620000Y-88500000D01*
X172000000Y-113000000D02*
X172000000Y-90500000D01*
X171460000Y-115880000D02*
X171460000Y-113540000D01*
X172000000Y-90500000D02*
X170000000Y-88500000D01*
X171460000Y-113540000D02*
X172000000Y-113000000D01*
%TO.N,Net-(BAR1-K-Pad13)*%
X174500000Y-111300000D02*
X179080000Y-115880000D01*
X174500000Y-100880000D02*
X174500000Y-111300000D01*
X176880000Y-98500000D02*
X174500000Y-100880000D01*
%TO.N,Net-(U1-GPIO33)*%
X133000000Y-116500000D02*
X133000000Y-99339315D01*
X154000000Y-128000000D02*
X142500000Y-116500000D01*
X162000000Y-128021000D02*
X161979000Y-128000000D01*
X163840000Y-126181000D02*
X162000000Y-128021000D01*
X133000000Y-99339315D02*
X127883279Y-94222594D01*
X161979000Y-128000000D02*
X154000000Y-128000000D01*
X142500000Y-116500000D02*
X133000000Y-116500000D01*
X163840000Y-123500000D02*
X163840000Y-126181000D01*
%TO.N,Net-(U1-GPIO21)*%
X157000000Y-120000000D02*
X157000000Y-91000000D01*
X179080000Y-123500000D02*
X179000000Y-123420000D01*
X157000000Y-91000000D02*
X155142594Y-89142594D01*
X179000000Y-123420000D02*
X179000000Y-121500000D01*
X177500000Y-120000000D02*
X157000000Y-120000000D01*
X155142594Y-89142594D02*
X153283279Y-89142594D01*
X179000000Y-121500000D02*
X177500000Y-120000000D01*
D21*
%TO.N,GND*%
X150500000Y-112000000D02*
X144000000Y-112000000D01*
X184500000Y-86000000D02*
X183500000Y-85000000D01*
X144000000Y-112000000D02*
X141000000Y-115000000D01*
X141000000Y-115000000D02*
X135500000Y-115000000D01*
X150502594Y-112002594D02*
X150500000Y-112000000D01*
X25249211Y-126000000D02*
X27743689Y-123505522D01*
X134500000Y-124000000D02*
X134500000Y-121500000D01*
X184500000Y-88500000D02*
X184500000Y-86000000D01*
X186500000Y-125000000D02*
X186500000Y-110500000D01*
X161000000Y-86000000D02*
X161000000Y-88500000D01*
X162000000Y-85000000D02*
X161000000Y-86000000D01*
X143000000Y-96000000D02*
X138000000Y-96000000D01*
X186500000Y-110500000D02*
X184500000Y-108500000D01*
X78000000Y-124500000D02*
X78000000Y-121500000D01*
X183500000Y-85000000D02*
X162000000Y-85000000D01*
D20*
%TO.N,Net-(U1-GPIO13)*%
X23500000Y-115000000D02*
X23500000Y-111000000D01*
X27505522Y-119005522D02*
X23500000Y-115000000D01*
X34243689Y-119005522D02*
X27743689Y-119005522D01*
X27743689Y-119005522D02*
X27505522Y-119005522D01*
D21*
%TO.N,/VCC*%
X52000000Y-111000000D02*
X35085829Y-94085829D01*
X33947392Y-94086209D02*
X33947772Y-94085829D01*
X30000000Y-94086209D02*
X33947392Y-94086209D01*
X35085829Y-94085829D02*
X33947772Y-94085829D01*
X114000000Y-111000000D02*
X52000000Y-111000000D01*
D20*
%TO.N,Net-(J1-SCL)*%
X47913791Y-117000000D02*
X30000000Y-99086209D01*
X117500000Y-117000000D02*
X47913791Y-117000000D01*
%TD*%
M02*
