%TF.GenerationSoftware,KiCad,Pcbnew,9.0.2+dfsg-1*%
%TF.CreationDate,2026-01-13T19:23:52+00:00*%
%TF.ProjectId,spectrum_one_v0.1.0,73706563-7472-4756-9d5f-6f6e655f7630,rev?*%
%TF.SameCoordinates,Original*%
%TF.FileFunction,Copper,L2,Bot*%
%TF.FilePolarity,Positive*%
%FSLAX46Y46*%
G04 Gerber Fmt 4.6, Leading zero omitted, Abs format (unit mm)*
G04 Created by KiCad (PCBNEW 9.0.2+dfsg-1) date 2026-01-13 19:23:52*
%MOMM*%
%LPD*%
G01*
G04 APERTURE LIST*
G04 Aperture macros list*
%AMRoundRect*
0 Rectangle with rounded corners*
0 $1 Rounding radius*
0 $2 $3 $4 $5 $6 $7 $8 $9 X,Y pos of 4 corners*
0 Add a 4 corners polygon primitive as box body*
4,1,4,$2,$3,$4,$5,$6,$7,$8,$9,$2,$3,0*
0 Add four circle primitives for the rounded corners*
1,1,$1+$1,$2,$3*
1,1,$1+$1,$4,$5*
1,1,$1+$1,$6,$7*
1,1,$1+$1,$8,$9*
0 Add four rect primitives between the rounded corners*
20,1,$1+$1,$2,$3,$4,$5,0*
20,1,$1+$1,$4,$5,$6,$7,0*
20,1,$1+$1,$6,$7,$8,$9,0*
20,1,$1+$1,$8,$9,$2,$3,0*%
G04 Aperture macros list end*
%TA.AperFunction,ComponentPad*%
%ADD10C,2.000000*%
%TD*%
%TA.AperFunction,ComponentPad*%
%ADD11C,1.600000*%
%TD*%
%TA.AperFunction,ComponentPad*%
%ADD12RoundRect,0.250000X-0.725000X0.600000X-0.725000X-0.600000X0.725000X-0.600000X0.725000X0.600000X0*%
%TD*%
%TA.AperFunction,ComponentPad*%
%ADD13O,1.950000X1.700000*%
%TD*%
%TA.AperFunction,ComponentPad*%
%ADD14R,1.700000X1.700000*%
%TD*%
%TA.AperFunction,ComponentPad*%
%ADD15C,1.700000*%
%TD*%
%TA.AperFunction,ComponentPad*%
%ADD16R,2.032000X2.032000*%
%TD*%
%TA.AperFunction,ComponentPad*%
%ADD17C,2.032000*%
%TD*%
%TA.AperFunction,ViaPad*%
%ADD18C,0.800000*%
%TD*%
%TA.AperFunction,ViaPad*%
%ADD19C,1.000000*%
%TD*%
%TA.AperFunction,Conductor*%
%ADD20C,0.500000*%
%TD*%
%TA.AperFunction,Conductor*%
%ADD21C,0.250000*%
%TD*%
G04 APERTURE END LIST*
D10*
%TO.P,SW1,1,1*%
%TO.N,Net-(U1-GPIO13)*%
X27743689Y-119005522D03*
X34243689Y-119005522D03*
%TO.P,SW1,2,2*%
%TO.N,GND*%
X27743689Y-123505522D03*
X34243689Y-123505522D03*
%TD*%
D11*
%TO.P,C1,1*%
%TO.N,GND*%
X33947772Y-91585829D03*
%TO.P,C1,2*%
%TO.N,/VCC*%
X33947772Y-94085829D03*
%TD*%
%TO.P,R3,1*%
%TO.N,GND*%
X161000000Y-98500000D03*
%TO.P,R3,2*%
%TO.N,Net-(BAR1-K-Pad18)*%
X168620000Y-98500000D03*
%TD*%
D12*
%TO.P,J1,1,GND*%
%TO.N,GND*%
X30000000Y-91586209D03*
D13*
%TO.P,J1,2,VCC*%
%TO.N,/VCC*%
X30000000Y-94086209D03*
%TO.P,J1,3,SDA*%
%TO.N,Net-(J1-SDA)*%
X30000000Y-96586209D03*
%TO.P,J1,4,SCL*%
%TO.N,Net-(J1-SCL)*%
X30000000Y-99086209D03*
%TD*%
D11*
%TO.P,R2,1*%
%TO.N,GND*%
X161000000Y-103500000D03*
%TO.P,R2,2*%
%TO.N,Net-(BAR1-K-Pad19)*%
X168620000Y-103500000D03*
%TD*%
%TO.P,R10,1*%
%TO.N,GND*%
X184500000Y-108500000D03*
%TO.P,R10,2*%
%TO.N,Net-(BAR1-K-Pad11)*%
X176880000Y-108500000D03*
%TD*%
%TO.P,R1,1*%
%TO.N,GND*%
X161000000Y-108500000D03*
%TO.P,R1,2*%
%TO.N,Net-(BAR1-K-Pad20)*%
X168620000Y-108500000D03*
%TD*%
%TO.P,R8,1*%
%TO.N,GND*%
X184500000Y-98500000D03*
%TO.P,R8,2*%
%TO.N,Net-(BAR1-K-Pad13)*%
X176880000Y-98500000D03*
%TD*%
D14*
%TO.P,ESP32,1,EN*%
%TO.N,unconnected-(U1-EN-Pad1)*%
X127883279Y-78982594D03*
D15*
%TO.P,ESP32,2,GPIO36*%
%TO.N,unconnected-(U1-GPIO36-Pad2)*%
X127883279Y-81522594D03*
%TO.P,ESP32,3,GPIO39*%
%TO.N,unconnected-(U1-GPIO39-Pad3)*%
X127883279Y-84062594D03*
%TO.P,ESP32,4,GPIO34*%
%TO.N,unconnected-(U1-GPIO34-Pad4)*%
X127883279Y-86602594D03*
%TO.P,ESP32,5,GPIO35*%
%TO.N,unconnected-(U1-GPIO35-Pad5)*%
X127883279Y-89142594D03*
%TO.P,ESP32,6,GPIO32*%
%TO.N,Net-(U1-GPIO32)*%
X127883279Y-91682594D03*
%TO.P,ESP32,7,GPIO33*%
%TO.N,Net-(U1-GPIO33)*%
X127883279Y-94222594D03*
%TO.P,ESP32,8,GPIO25*%
%TO.N,Net-(U1-GPIO25)*%
X127883279Y-96762594D03*
%TO.P,ESP32,9,GPIO26*%
%TO.N,Net-(U1-GPIO26)*%
X127883279Y-99302594D03*
%TO.P,ESP32,10,GPIO27*%
%TO.N,Net-(U1-GPIO27)*%
X127883279Y-101842594D03*
%TO.P,ESP32,11,GPIO14*%
%TO.N,unconnected-(U1-GPIO14-Pad11)*%
X127883279Y-104382594D03*
%TO.P,ESP32,12,GPIO12*%
%TO.N,unconnected-(U1-GPIO12-Pad12)*%
X127883279Y-106922594D03*
%TO.P,ESP32,13,GPIO13*%
%TO.N,Net-(U1-GPIO13)*%
X127883279Y-109462594D03*
%TO.P,ESP32,14,GND*%
%TO.N,GND*%
X127883279Y-112002594D03*
%TO.P,ESP32,15,VIN*%
%TO.N,/VCC*%
X127883279Y-114542594D03*
%TO.P,ESP32,16,GPIO23*%
%TO.N,Net-(U1-GPIO23)*%
X153283279Y-78982594D03*
%TO.P,ESP32,17,GPIO22*%
%TO.N,Net-(U1-GPIO22)*%
X153283279Y-81522594D03*
%TO.P,ESP32,18,GPIO1*%
%TO.N,unconnected-(U1-GPIO1-Pad18)*%
X153283279Y-84062594D03*
%TO.P,ESP32,19,GPIO3*%
%TO.N,unconnected-(U1-GPIO3-Pad19)*%
X153283279Y-86602594D03*
%TO.P,ESP32,20,GPIO21*%
%TO.N,Net-(U1-GPIO21)*%
X153283279Y-89142594D03*
%TO.P,ESP32,21,GPIO19*%
%TO.N,Net-(U1-GPIO19)*%
X153283279Y-91682594D03*
%TO.P,ESP32,22,GPIO18*%
%TO.N,Net-(U1-GPIO18)*%
X153283279Y-94222594D03*
%TO.P,ESP32,23,GPIO5*%
%TO.N,unconnected-(U1-GPIO5-Pad23)*%
X153283279Y-96762594D03*
%TO.P,ESP32,24,GPIO17*%
%TO.N,Net-(J1-SCL)*%
X153283279Y-99302594D03*
%TO.P,ESP32,25,GPIO16*%
%TO.N,Net-(J1-SDA)*%
X153283279Y-101842594D03*
%TO.P,ESP32,26,GPIO4*%
%TO.N,unconnected-(U1-GPIO4-Pad26)*%
X153283279Y-104382594D03*
%TO.P,ESP32,27,GPIO2*%
%TO.N,unconnected-(U1-GPIO2-Pad27)*%
X153283279Y-106922594D03*
%TO.P,ESP32,28,GPIO15*%
%TO.N,unconnected-(U1-GPIO15-Pad28)*%
X153283279Y-109462594D03*
%TO.P,ESP32,29,GND*%
%TO.N,GND*%
X153283279Y-112002594D03*
%TO.P,ESP32,30,3V3*%
%TO.N,unconnected-(U1-3V3-Pad30)*%
X153283279Y-114542594D03*
%TD*%
D11*
%TO.P,R6,1*%
%TO.N,GND*%
X184500000Y-88500000D03*
%TO.P,R6,2*%
%TO.N,Net-(BAR1-K-Pad15)*%
X176880000Y-88500000D03*
%TD*%
%TO.P,R7,1*%
%TO.N,GND*%
X184500000Y-93500000D03*
%TO.P,R7,2*%
%TO.N,Net-(BAR1-K-Pad14)*%
X176880000Y-93500000D03*
%TD*%
%TO.P,R9,1*%
%TO.N,GND*%
X184500000Y-103500000D03*
%TO.P,R9,2*%
%TO.N,Net-(BAR1-K-Pad12)*%
X176880000Y-103500000D03*
%TD*%
%TO.P,R4,1*%
%TO.N,GND*%
X161000000Y-93500000D03*
%TO.P,R4,2*%
%TO.N,Net-(BAR1-K-Pad17)*%
X168620000Y-93500000D03*
%TD*%
D16*
%TO.P,10 LED ARRAY,1,A*%
%TO.N,Net-(U1-GPIO32)*%
X161300000Y-123500000D03*
D17*
%TO.P,10 LED ARRAY,2,A*%
%TO.N,Net-(U1-GPIO33)*%
X163840000Y-123500000D03*
%TO.P,10 LED ARRAY,3,A*%
%TO.N,Net-(U1-GPIO25)*%
X166380000Y-123500000D03*
%TO.P,10 LED ARRAY,4,A*%
%TO.N,Net-(U1-GPIO26)*%
X168920000Y-123500000D03*
%TO.P,10 LED ARRAY,5,A*%
%TO.N,Net-(U1-GPIO27)*%
X171460000Y-123500000D03*
%TO.P,10 LED ARRAY,6,A*%
%TO.N,Net-(U1-GPIO18)*%
X174000000Y-123500000D03*
%TO.P,10 LED ARRAY,7,A*%
%TO.N,Net-(U1-GPIO19)*%
X176540000Y-123500000D03*
%TO.P,10 LED ARRAY,8,A*%
%TO.N,Net-(U1-GPIO21)*%
X179080000Y-123500000D03*
%TO.P,10 LED ARRAY,9,A*%
%TO.N,Net-(U1-GPIO22)*%
X181620000Y-123500000D03*
%TO.P,10 LED ARRAY,10,A*%
%TO.N,Net-(U1-GPIO23)*%
X184160000Y-123500000D03*
%TO.P,10 LED ARRAY,11,K*%
%TO.N,Net-(BAR1-K-Pad11)*%
X184160000Y-115880000D03*
%TO.P,10 LED ARRAY,12,K*%
%TO.N,Net-(BAR1-K-Pad12)*%
X181620000Y-115880000D03*
%TO.P,10 LED ARRAY,13,K*%
%TO.N,Net-(BAR1-K-Pad13)*%
X179080000Y-115880000D03*
%TO.P,10 LED ARRAY,14,K*%
%TO.N,Net-(BAR1-K-Pad14)*%
X176540000Y-115880000D03*
%TO.P,10 LED ARRAY,15,K*%
%TO.N,Net-(BAR1-K-Pad15)*%
X174000000Y-115880000D03*
%TO.P,10 LED ARRAY,16,K*%
%TO.N,Net-(BAR1-K-Pad16)*%
X171460000Y-115880000D03*
%TO.P,10 LED ARRAY,17,K*%
%TO.N,Net-(BAR1-K-Pad17)*%
X168920000Y-115880000D03*
%TO.P,10 LED ARRAY,18,K*%
%TO.N,Net-(BAR1-K-Pad18)*%
X166380000Y-115880000D03*
%TO.P,10 LED ARRAY,19,K*%
%TO.N,Net-(BAR1-K-Pad19)*%
X163840000Y-115880000D03*
%TO.P,10 LED ARRAY,20,K*%
%TO.N,Net-(BAR1-K-Pad20)*%
X161300000Y-115880000D03*
%TD*%
D11*
%TO.P,R5,1*%
%TO.N,GND*%
X161000000Y-88500000D03*
%TO.P,R5,2*%
%TO.N,Net-(BAR1-K-Pad16)*%
X168620000Y-88500000D03*
%TD*%
D18*
%TO.N,GND*%
X78000000Y-124500000D03*
X134500000Y-124000000D03*
X134500000Y-121500000D03*
X78000000Y-121500000D03*
X186500000Y-125000000D03*
X143000000Y-96000000D03*
X173000000Y-85000000D03*
X25249211Y-126000000D03*
D19*
X150502594Y-112002594D03*
X135500000Y-115000000D03*
D18*
X138000000Y-96000000D03*
%TO.N,Net-(U1-GPIO13)*%
X23500000Y-111000000D03*
D19*
%TO.N,/VCC*%
X114000000Y-111000000D03*
D18*
%TO.N,Net-(J1-SCL)*%
X117500000Y-117000000D03*
%TD*%
D20*
%TO.N,GND*%
X33947772Y-88947772D02*
X33000000Y-88000000D01*
X27743689Y-123505522D02*
X34243689Y-123505522D01*
X184500000Y-98500000D02*
X184500000Y-103500000D01*
X30000000Y-91586209D02*
X33947392Y-91586209D01*
X150500000Y-112000000D02*
X150502594Y-112002594D01*
X130000000Y-112000000D02*
X129997406Y-112002594D01*
X25500000Y-107500000D02*
X25500000Y-121261833D01*
X158997406Y-112002594D02*
X153283279Y-112002594D01*
X129997406Y-112002594D02*
X127883279Y-112002594D01*
X127883279Y-112002594D02*
X120502594Y-112002594D01*
X133000000Y-115000000D02*
X130000000Y-112000000D01*
X34243689Y-123505522D02*
X34494478Y-123505522D01*
X184500000Y-88500000D02*
X184500000Y-86000000D01*
X25500000Y-88000000D02*
X25500000Y-107000000D01*
X162000000Y-85000000D02*
X161000000Y-86000000D01*
X25500000Y-107000000D02*
X25500000Y-107500000D01*
X33947392Y-91586209D02*
X33947772Y-91585829D01*
X161000000Y-110000000D02*
X158997406Y-112002594D01*
X161000000Y-108500000D02*
X161000000Y-110000000D01*
X25500000Y-121261833D02*
X27743689Y-123505522D01*
X184500000Y-86000000D02*
X183500000Y-85000000D01*
X117000000Y-108500000D02*
X50861943Y-108500000D01*
X184500000Y-103500000D02*
X184500000Y-108500000D01*
X161000000Y-98500000D02*
X161000000Y-93500000D01*
X184500000Y-93500000D02*
X184500000Y-98500000D01*
X161000000Y-103500000D02*
X161000000Y-98500000D01*
X33000000Y-88000000D02*
X25500000Y-88000000D01*
X50861943Y-108500000D02*
X33947772Y-91585829D01*
X153283279Y-112002594D02*
X150502594Y-112002594D01*
X120502594Y-112002594D02*
X117000000Y-108500000D01*
X161000000Y-86000000D02*
X161000000Y-88500000D01*
X161000000Y-93500000D02*
X161000000Y-88500000D01*
X33947772Y-91585829D02*
X33947772Y-88947772D01*
X135500000Y-115000000D02*
X133000000Y-115000000D01*
X161000000Y-108500000D02*
X161000000Y-103500000D01*
X183500000Y-85000000D02*
X173000000Y-85000000D01*
X173000000Y-85000000D02*
X162000000Y-85000000D01*
X184500000Y-88500000D02*
X184500000Y-93500000D01*
D21*
%TO.N,Net-(U1-GPIO13)*%
X24500000Y-86000000D02*
X23500000Y-87000000D01*
X52000000Y-106000000D02*
X39500000Y-93500000D01*
X39000000Y-86000000D02*
X24500000Y-86000000D01*
X39500000Y-93500000D02*
X39500000Y-86500000D01*
X23500000Y-87000000D02*
X23500000Y-111000000D01*
X56500000Y-106000000D02*
X52000000Y-106000000D01*
X39500000Y-86500000D02*
X39000000Y-86000000D01*
X124420685Y-106000000D02*
X56500000Y-106000000D01*
X127883279Y-109462594D02*
X124420685Y-106000000D01*
D20*
%TO.N,/VCC*%
X117542594Y-114542594D02*
X117500000Y-114500000D01*
X117500000Y-114500000D02*
X114000000Y-111000000D01*
X127883279Y-114542594D02*
X117542594Y-114542594D01*
D21*
%TO.N,Net-(J1-SCL)*%
X153283279Y-99302594D02*
X147500000Y-105085873D01*
X141500000Y-117000000D02*
X117500000Y-117000000D01*
X147500000Y-105085873D02*
X147500000Y-111000000D01*
X147500000Y-111000000D02*
X141500000Y-117000000D01*
%TO.N,Net-(J1-SDA)*%
X53000000Y-118000000D02*
X31586209Y-96586209D01*
X149000000Y-111500000D02*
X142500000Y-118000000D01*
X142500000Y-118000000D02*
X53000000Y-118000000D01*
X31586209Y-96586209D02*
X30000000Y-96586209D01*
X149000000Y-106125873D02*
X149000000Y-111500000D01*
X153283279Y-101842594D02*
X149000000Y-106125873D01*
%TD*%
%TA.AperFunction,Conductor*%
%TO.N,GND*%
G36*
X24026363Y-78008901D02*
G01*
X24093341Y-78028781D01*
X24138940Y-78081719D01*
X24147880Y-78117406D01*
X24148970Y-78117263D01*
X24181161Y-78361785D01*
X24243947Y-78596104D01*
X24297295Y-78724896D01*
X24336776Y-78820212D01*
X24458064Y-79030289D01*
X24458066Y-79030292D01*
X24458067Y-79030293D01*
X24605733Y-79222736D01*
X24605739Y-79222743D01*
X24777256Y-79394260D01*
X24777263Y-79394266D01*
X24890321Y-79481018D01*
X24969711Y-79541936D01*
X25179788Y-79663224D01*
X25403900Y-79756054D01*
X25638211Y-79818838D01*
X25818586Y-79842584D01*
X25878711Y-79850500D01*
X25878712Y-79850500D01*
X26121289Y-79850500D01*
X26169388Y-79844167D01*
X26361789Y-79818838D01*
X26596100Y-79756054D01*
X26820212Y-79663224D01*
X27030289Y-79541936D01*
X27222738Y-79394265D01*
X27394265Y-79222738D01*
X27541936Y-79030289D01*
X27663224Y-78820212D01*
X27756054Y-78596100D01*
X27818838Y-78361789D01*
X27849574Y-78128320D01*
X27877840Y-78064424D01*
X27936165Y-78025953D01*
X27972868Y-78020508D01*
X126659148Y-78310762D01*
X126726125Y-78330642D01*
X126771724Y-78383581D01*
X126782779Y-78434760D01*
X126782779Y-79857272D01*
X126797311Y-79930329D01*
X126797312Y-79930333D01*
X126797313Y-79930334D01*
X126852678Y-80013195D01*
X126935539Y-80068560D01*
X126935543Y-80068561D01*
X127008600Y-80083093D01*
X127008603Y-80083094D01*
X127008605Y-80083094D01*
X128757955Y-80083094D01*
X128757956Y-80083093D01*
X128831019Y-80068560D01*
X128913880Y-80013195D01*
X128969245Y-79930334D01*
X128983779Y-79857268D01*
X128983779Y-78441963D01*
X129003464Y-78374924D01*
X129056268Y-78329169D01*
X129108138Y-78317965D01*
X152150441Y-78385736D01*
X152217417Y-78405616D01*
X152263016Y-78458555D01*
X152272756Y-78527742D01*
X152264639Y-78557170D01*
X152263409Y-78560140D01*
X152263406Y-78560148D01*
X152263406Y-78560149D01*
X152256068Y-78582732D01*
X152209876Y-78724896D01*
X152182779Y-78895983D01*
X152182779Y-79069205D01*
X152209877Y-79240295D01*
X152263406Y-79405039D01*
X152342047Y-79559382D01*
X152443865Y-79699522D01*
X152566351Y-79822008D01*
X152706491Y-79923826D01*
X152860834Y-80002467D01*
X153025578Y-80055996D01*
X153196668Y-80083094D01*
X153196669Y-80083094D01*
X153369889Y-80083094D01*
X153369890Y-80083094D01*
X153540980Y-80055996D01*
X153705724Y-80002467D01*
X153860067Y-79923826D01*
X154000207Y-79822008D01*
X154122693Y-79699522D01*
X154224511Y-79559382D01*
X154303152Y-79405039D01*
X154356681Y-79240295D01*
X154383779Y-79069205D01*
X154383779Y-78895983D01*
X154356681Y-78724893D01*
X154303152Y-78560149D01*
X154303151Y-78560147D01*
X154301646Y-78555515D01*
X154303723Y-78554839D01*
X154297216Y-78494416D01*
X154328478Y-78431930D01*
X154388560Y-78396266D01*
X154419602Y-78392410D01*
X184117990Y-78479758D01*
X184184969Y-78499639D01*
X184230568Y-78552578D01*
X184237397Y-78571661D01*
X184243945Y-78596097D01*
X184243946Y-78596101D01*
X184336770Y-78820200D01*
X184336773Y-78820205D01*
X184336776Y-78820212D01*
X184458064Y-79030289D01*
X184458066Y-79030292D01*
X184458067Y-79030293D01*
X184605733Y-79222736D01*
X184605739Y-79222743D01*
X184777256Y-79394260D01*
X184777263Y-79394266D01*
X184890321Y-79481018D01*
X184969711Y-79541936D01*
X185179788Y-79663224D01*
X185403900Y-79756054D01*
X185638211Y-79818838D01*
X185818586Y-79842584D01*
X185878711Y-79850500D01*
X185878712Y-79850500D01*
X186121289Y-79850500D01*
X186169388Y-79844167D01*
X186361789Y-79818838D01*
X186596100Y-79756054D01*
X186820212Y-79663224D01*
X187030289Y-79541936D01*
X187222738Y-79394265D01*
X187394265Y-79222738D01*
X187541936Y-79030289D01*
X187663224Y-78820212D01*
X187756054Y-78596100D01*
X187759636Y-78582729D01*
X187795998Y-78523070D01*
X187858844Y-78492539D01*
X187879765Y-78490822D01*
X190375869Y-78498164D01*
X190442846Y-78518044D01*
X190488445Y-78570982D01*
X190499500Y-78622162D01*
X190499500Y-129375500D01*
X190479815Y-129442539D01*
X190427011Y-129488294D01*
X190375500Y-129499500D01*
X21624500Y-129499500D01*
X21557461Y-129479815D01*
X21511706Y-129427011D01*
X21500500Y-129375500D01*
X21500500Y-123387469D01*
X26243689Y-123387469D01*
X26243689Y-123623574D01*
X26280623Y-123856769D01*
X26353586Y-124081324D01*
X26460776Y-124291696D01*
X26521027Y-124374626D01*
X26521029Y-124374627D01*
X27219901Y-123675755D01*
X27231171Y-123717814D01*
X27303579Y-123843230D01*
X27405981Y-123945632D01*
X27531397Y-124018040D01*
X27573454Y-124029309D01*
X26874582Y-124728180D01*
X26957517Y-124788436D01*
X27167886Y-124895624D01*
X27392441Y-124968587D01*
X27392440Y-124968587D01*
X27625637Y-125005522D01*
X27861741Y-125005522D01*
X28094936Y-124968587D01*
X28319491Y-124895624D01*
X28529852Y-124788440D01*
X28529858Y-124788436D01*
X28612793Y-124728180D01*
X28612794Y-124728180D01*
X27913922Y-124029309D01*
X27955981Y-124018040D01*
X28081397Y-123945632D01*
X28183799Y-123843230D01*
X28256207Y-123717814D01*
X28267476Y-123675755D01*
X28966347Y-124374627D01*
X28966347Y-124374626D01*
X29026603Y-124291691D01*
X29026607Y-124291685D01*
X29133791Y-124081324D01*
X29206754Y-123856769D01*
X29243689Y-123623574D01*
X29243689Y-123387469D01*
X32743689Y-123387469D01*
X32743689Y-123623574D01*
X32780623Y-123856769D01*
X32853586Y-124081324D01*
X32960776Y-124291696D01*
X33021027Y-124374626D01*
X33021029Y-124374627D01*
X33719901Y-123675755D01*
X33731171Y-123717814D01*
X33803579Y-123843230D01*
X33905981Y-123945632D01*
X34031397Y-124018040D01*
X34073454Y-124029309D01*
X33374582Y-124728180D01*
X33457517Y-124788436D01*
X33667886Y-124895624D01*
X33892441Y-124968587D01*
X33892440Y-124968587D01*
X34125637Y-125005522D01*
X34361741Y-125005522D01*
X34594936Y-124968587D01*
X34819491Y-124895624D01*
X35029852Y-124788440D01*
X35029858Y-124788436D01*
X35112793Y-124728180D01*
X35112794Y-124728180D01*
X34413922Y-124029309D01*
X34455981Y-124018040D01*
X34581397Y-123945632D01*
X34683799Y-123843230D01*
X34756207Y-123717814D01*
X34767476Y-123675755D01*
X35466347Y-124374627D01*
X35466347Y-124374626D01*
X35526603Y-124291691D01*
X35526607Y-124291685D01*
X35633791Y-124081324D01*
X35706754Y-123856769D01*
X35743689Y-123623574D01*
X35743689Y-123387469D01*
X35706754Y-123154274D01*
X35633791Y-122929719D01*
X35526603Y-122719350D01*
X35466347Y-122636416D01*
X35466347Y-122636415D01*
X34767476Y-123335287D01*
X34756207Y-123293230D01*
X34683799Y-123167814D01*
X34581397Y-123065412D01*
X34455981Y-122993004D01*
X34413923Y-122981734D01*
X35016946Y-122378711D01*
X41649500Y-122378711D01*
X41649500Y-122621288D01*
X41681161Y-122861785D01*
X41743947Y-123096104D01*
X41788402Y-123203427D01*
X41836776Y-123320212D01*
X41958064Y-123530289D01*
X41958066Y-123530292D01*
X41958067Y-123530293D01*
X42105733Y-123722736D01*
X42105739Y-123722743D01*
X42277256Y-123894260D01*
X42277262Y-123894265D01*
X42469711Y-124041936D01*
X42679788Y-124163224D01*
X42903900Y-124256054D01*
X43138211Y-124318838D01*
X43318586Y-124342584D01*
X43378711Y-124350500D01*
X43378712Y-124350500D01*
X43621289Y-124350500D01*
X43669388Y-124344167D01*
X43861789Y-124318838D01*
X44096100Y-124256054D01*
X44320212Y-124163224D01*
X44530289Y-124041936D01*
X44722738Y-123894265D01*
X44894265Y-123722738D01*
X45041936Y-123530289D01*
X45163224Y-123320212D01*
X45256054Y-123096100D01*
X45318838Y-122861789D01*
X45350500Y-122621288D01*
X45350500Y-122378712D01*
X45350500Y-122378711D01*
X69562782Y-122378711D01*
X69562782Y-122621288D01*
X69594443Y-122861785D01*
X69657229Y-123096104D01*
X69701684Y-123203427D01*
X69750058Y-123320212D01*
X69871346Y-123530289D01*
X69871348Y-123530292D01*
X69871349Y-123530293D01*
X70019015Y-123722736D01*
X70019021Y-123722743D01*
X70190538Y-123894260D01*
X70190544Y-123894265D01*
X70382993Y-124041936D01*
X70593070Y-124163224D01*
X70817182Y-124256054D01*
X71051493Y-124318838D01*
X71231868Y-124342584D01*
X71291993Y-124350500D01*
X71291994Y-124350500D01*
X71534571Y-124350500D01*
X71582670Y-124344167D01*
X71775071Y-124318838D01*
X72009382Y-124256054D01*
X72233494Y-124163224D01*
X72443571Y-124041936D01*
X72636020Y-123894265D01*
X72807547Y-123722738D01*
X72955218Y-123530289D01*
X73076506Y-123320212D01*
X73169336Y-123096100D01*
X73232120Y-122861789D01*
X73263782Y-122621288D01*
X73263782Y-122378712D01*
X73263782Y-122378711D01*
X116649500Y-122378711D01*
X116649500Y-122621288D01*
X116681161Y-122861785D01*
X116743947Y-123096104D01*
X116788402Y-123203427D01*
X116836776Y-123320212D01*
X116958064Y-123530289D01*
X116958066Y-123530292D01*
X116958067Y-123530293D01*
X117105733Y-123722736D01*
X117105739Y-123722743D01*
X117277256Y-123894260D01*
X117277262Y-123894265D01*
X117469711Y-124041936D01*
X117679788Y-124163224D01*
X117903900Y-124256054D01*
X118138211Y-124318838D01*
X118318586Y-124342584D01*
X118378711Y-124350500D01*
X118378712Y-124350500D01*
X118621289Y-124350500D01*
X118669388Y-124344167D01*
X118861789Y-124318838D01*
X119096100Y-124256054D01*
X119320212Y-124163224D01*
X119530289Y-124041936D01*
X119722738Y-123894265D01*
X119894265Y-123722738D01*
X120041936Y-123530289D01*
X120163224Y-123320212D01*
X120256054Y-123096100D01*
X120318838Y-122861789D01*
X120350500Y-122621288D01*
X120350500Y-122378712D01*
X120350500Y-122378711D01*
X138649500Y-122378711D01*
X138649500Y-122621288D01*
X138681161Y-122861785D01*
X138743947Y-123096104D01*
X138788402Y-123203427D01*
X138836776Y-123320212D01*
X138958064Y-123530289D01*
X138958066Y-123530292D01*
X138958067Y-123530293D01*
X139105733Y-123722736D01*
X139105739Y-123722743D01*
X139277256Y-123894260D01*
X139277262Y-123894265D01*
X139469711Y-124041936D01*
X139679788Y-124163224D01*
X139903900Y-124256054D01*
X140138211Y-124318838D01*
X140318586Y-124342584D01*
X140378711Y-124350500D01*
X140378712Y-124350500D01*
X140621289Y-124350500D01*
X140669388Y-124344167D01*
X140861789Y-124318838D01*
X141096100Y-124256054D01*
X141320212Y-124163224D01*
X141530289Y-124041936D01*
X141722738Y-123894265D01*
X141894265Y-123722738D01*
X142041936Y-123530289D01*
X142163224Y-123320212D01*
X142256054Y-123096100D01*
X142318838Y-122861789D01*
X142350500Y-122621288D01*
X142350500Y-122459321D01*
X160033500Y-122459321D01*
X160033500Y-124540678D01*
X160048032Y-124613735D01*
X160048033Y-124613739D01*
X160048034Y-124613740D01*
X160103399Y-124696601D01*
X160186260Y-124751966D01*
X160186264Y-124751967D01*
X160259321Y-124766499D01*
X160259324Y-124766500D01*
X160259326Y-124766500D01*
X162340676Y-124766500D01*
X162340677Y-124766499D01*
X162413740Y-124751966D01*
X162496601Y-124696601D01*
X162551966Y-124613740D01*
X162566500Y-124540674D01*
X162566500Y-124283509D01*
X162586185Y-124216470D01*
X162638989Y-124170715D01*
X162708147Y-124160771D01*
X162771703Y-124189796D01*
X162790816Y-124210621D01*
X162873968Y-124325069D01*
X163014931Y-124466032D01*
X163176209Y-124583208D01*
X163353833Y-124673711D01*
X163543427Y-124735314D01*
X163740324Y-124766500D01*
X163740325Y-124766500D01*
X163939675Y-124766500D01*
X163939676Y-124766500D01*
X164136573Y-124735314D01*
X164326167Y-124673711D01*
X164503791Y-124583208D01*
X164665069Y-124466032D01*
X164806032Y-124325069D01*
X164923208Y-124163791D01*
X164999515Y-124014029D01*
X165047489Y-123963232D01*
X165115310Y-123946437D01*
X165181445Y-123968974D01*
X165220485Y-124014029D01*
X165296790Y-124163789D01*
X165315686Y-124189796D01*
X165413968Y-124325069D01*
X165554931Y-124466032D01*
X165716209Y-124583208D01*
X165893833Y-124673711D01*
X166083427Y-124735314D01*
X166280324Y-124766500D01*
X166280325Y-124766500D01*
X166479675Y-124766500D01*
X166479676Y-124766500D01*
X166676573Y-124735314D01*
X166866167Y-124673711D01*
X167043791Y-124583208D01*
X167205069Y-124466032D01*
X167346032Y-124325069D01*
X167463208Y-124163791D01*
X167539515Y-124014029D01*
X167587489Y-123963232D01*
X167655310Y-123946437D01*
X167721445Y-123968974D01*
X167760485Y-124014029D01*
X167836790Y-124163789D01*
X167855686Y-124189796D01*
X167953968Y-124325069D01*
X168094931Y-124466032D01*
X168256209Y-124583208D01*
X168433833Y-124673711D01*
X168623427Y-124735314D01*
X168820324Y-124766500D01*
X168820325Y-124766500D01*
X169019675Y-124766500D01*
X169019676Y-124766500D01*
X169216573Y-124735314D01*
X169406167Y-124673711D01*
X169583791Y-124583208D01*
X169745069Y-124466032D01*
X169886032Y-124325069D01*
X170003208Y-124163791D01*
X170079515Y-124014029D01*
X170127489Y-123963232D01*
X170195310Y-123946437D01*
X170261445Y-123968974D01*
X170300485Y-124014029D01*
X170376790Y-124163789D01*
X170395686Y-124189796D01*
X170493968Y-124325069D01*
X170634931Y-124466032D01*
X170796209Y-124583208D01*
X170973833Y-124673711D01*
X171163427Y-124735314D01*
X171360324Y-124766500D01*
X171360325Y-124766500D01*
X171559675Y-124766500D01*
X171559676Y-124766500D01*
X171756573Y-124735314D01*
X171946167Y-124673711D01*
X172123791Y-124583208D01*
X172285069Y-124466032D01*
X172426032Y-124325069D01*
X172543208Y-124163791D01*
X172619515Y-124014029D01*
X172667489Y-123963232D01*
X172735310Y-123946437D01*
X172801445Y-123968974D01*
X172840485Y-124014029D01*
X172916790Y-124163789D01*
X172935686Y-124189796D01*
X173033968Y-124325069D01*
X173174931Y-124466032D01*
X173336209Y-124583208D01*
X173513833Y-124673711D01*
X173703427Y-124735314D01*
X173900324Y-124766500D01*
X173900325Y-124766500D01*
X174099675Y-124766500D01*
X174099676Y-124766500D01*
X174296573Y-124735314D01*
X174486167Y-124673711D01*
X174663791Y-124583208D01*
X174825069Y-124466032D01*
X174966032Y-124325069D01*
X175083208Y-124163791D01*
X175159515Y-124014029D01*
X175207489Y-123963232D01*
X175275310Y-123946437D01*
X175341445Y-123968974D01*
X175380485Y-124014029D01*
X175456790Y-124163789D01*
X175475686Y-124189796D01*
X175573968Y-124325069D01*
X175714931Y-124466032D01*
X175876209Y-124583208D01*
X176053833Y-124673711D01*
X176243427Y-124735314D01*
X176440324Y-124766500D01*
X176440325Y-124766500D01*
X176639675Y-124766500D01*
X176639676Y-124766500D01*
X176836573Y-124735314D01*
X177026167Y-124673711D01*
X177203791Y-124583208D01*
X177365069Y-124466032D01*
X177506032Y-124325069D01*
X177623208Y-124163791D01*
X177699515Y-124014029D01*
X177747489Y-123963232D01*
X177815310Y-123946437D01*
X177881445Y-123968974D01*
X177920485Y-124014029D01*
X177996790Y-124163789D01*
X178015686Y-124189796D01*
X178113968Y-124325069D01*
X178254931Y-124466032D01*
X178416209Y-124583208D01*
X178593833Y-124673711D01*
X178783427Y-124735314D01*
X178980324Y-124766500D01*
X178980325Y-124766500D01*
X179179675Y-124766500D01*
X179179676Y-124766500D01*
X179376573Y-124735314D01*
X179566167Y-124673711D01*
X179743791Y-124583208D01*
X179905069Y-124466032D01*
X180046032Y-124325069D01*
X180163208Y-124163791D01*
X180239515Y-124014029D01*
X180287489Y-123963232D01*
X180355310Y-123946437D01*
X180421445Y-123968974D01*
X180460485Y-124014029D01*
X180536790Y-124163789D01*
X180555686Y-124189796D01*
X180653968Y-124325069D01*
X180794931Y-124466032D01*
X180956209Y-124583208D01*
X181133833Y-124673711D01*
X181323427Y-124735314D01*
X181520324Y-124766500D01*
X181520325Y-124766500D01*
X181719675Y-124766500D01*
X181719676Y-124766500D01*
X181916573Y-124735314D01*
X182106167Y-124673711D01*
X182283791Y-124583208D01*
X182445069Y-124466032D01*
X182586032Y-124325069D01*
X182703208Y-124163791D01*
X182779515Y-124014029D01*
X182827489Y-123963232D01*
X182895310Y-123946437D01*
X182961445Y-123968974D01*
X183000485Y-124014029D01*
X183076790Y-124163789D01*
X183095686Y-124189796D01*
X183193968Y-124325069D01*
X183334931Y-124466032D01*
X183496209Y-124583208D01*
X183673833Y-124673711D01*
X183863427Y-124735314D01*
X184060324Y-124766500D01*
X184060325Y-124766500D01*
X184259675Y-124766500D01*
X184259676Y-124766500D01*
X184456573Y-124735314D01*
X184646167Y-124673711D01*
X184823791Y-124583208D01*
X184985069Y-124466032D01*
X185126032Y-124325069D01*
X185243208Y-124163791D01*
X185333711Y-123986167D01*
X185395314Y-123796573D01*
X185426500Y-123599676D01*
X185426500Y-123400324D01*
X185395314Y-123203427D01*
X185333711Y-123013833D01*
X185243208Y-122836209D01*
X185126032Y-122674931D01*
X184985069Y-122533968D01*
X184823791Y-122416792D01*
X184646167Y-122326289D01*
X184456573Y-122264686D01*
X184456571Y-122264685D01*
X184456569Y-122264685D01*
X184319094Y-122242911D01*
X184259676Y-122233500D01*
X184060324Y-122233500D01*
X184014680Y-122240729D01*
X183863430Y-122264685D01*
X183673830Y-122326290D01*
X183496208Y-122416792D01*
X183437673Y-122459321D01*
X183334931Y-122533968D01*
X183334929Y-122533970D01*
X183334928Y-122533970D01*
X183193970Y-122674928D01*
X183193970Y-122674929D01*
X183193968Y-122674931D01*
X183161696Y-122719350D01*
X183076792Y-122836208D01*
X183000485Y-122985971D01*
X182952511Y-123036767D01*
X182884690Y-123053562D01*
X182818555Y-123031025D01*
X182779515Y-122985971D01*
X182750853Y-122929719D01*
X182703208Y-122836209D01*
X182586032Y-122674931D01*
X182445069Y-122533968D01*
X182283791Y-122416792D01*
X182106167Y-122326289D01*
X181916573Y-122264686D01*
X181916571Y-122264685D01*
X181916569Y-122264685D01*
X181779094Y-122242911D01*
X181719676Y-122233500D01*
X181520324Y-122233500D01*
X181474680Y-122240729D01*
X181323430Y-122264685D01*
X181133830Y-122326290D01*
X180956208Y-122416792D01*
X180897673Y-122459321D01*
X180794931Y-122533968D01*
X180794929Y-122533970D01*
X180794928Y-122533970D01*
X180653970Y-122674928D01*
X180653970Y-122674929D01*
X180653968Y-122674931D01*
X180621696Y-122719350D01*
X180536792Y-122836208D01*
X180460485Y-122985971D01*
X180412511Y-123036767D01*
X180344690Y-123053562D01*
X180278555Y-123031025D01*
X180239515Y-122985971D01*
X180210853Y-122929719D01*
X180163208Y-122836209D01*
X180046032Y-122674931D01*
X179905069Y-122533968D01*
X179743791Y-122416792D01*
X179566167Y-122326289D01*
X179376573Y-122264686D01*
X179376571Y-122264685D01*
X179376569Y-122264685D01*
X179239094Y-122242911D01*
X179179676Y-122233500D01*
X178980324Y-122233500D01*
X178934680Y-122240729D01*
X178783430Y-122264685D01*
X178593830Y-122326290D01*
X178416208Y-122416792D01*
X178357673Y-122459321D01*
X178254931Y-122533968D01*
X178254929Y-122533970D01*
X178254928Y-122533970D01*
X178113970Y-122674928D01*
X178113970Y-122674929D01*
X178113968Y-122674931D01*
X178081696Y-122719350D01*
X177996792Y-122836208D01*
X177920485Y-122985971D01*
X177872511Y-123036767D01*
X177804690Y-123053562D01*
X177738555Y-123031025D01*
X177699515Y-122985971D01*
X177670853Y-122929719D01*
X177623208Y-122836209D01*
X177506032Y-122674931D01*
X177365069Y-122533968D01*
X177203791Y-122416792D01*
X177026167Y-122326289D01*
X176836573Y-122264686D01*
X176836571Y-122264685D01*
X176836569Y-122264685D01*
X176699094Y-122242911D01*
X176639676Y-122233500D01*
X176440324Y-122233500D01*
X176394680Y-122240729D01*
X176243430Y-122264685D01*
X176053830Y-122326290D01*
X175876208Y-122416792D01*
X175817673Y-122459321D01*
X175714931Y-122533968D01*
X175714929Y-122533970D01*
X175714928Y-122533970D01*
X175573970Y-122674928D01*
X175573970Y-122674929D01*
X175573968Y-122674931D01*
X175541696Y-122719350D01*
X175456792Y-122836208D01*
X175380485Y-122985971D01*
X175332511Y-123036767D01*
X175264690Y-123053562D01*
X175198555Y-123031025D01*
X175159515Y-122985971D01*
X175130853Y-122929719D01*
X175083208Y-122836209D01*
X174966032Y-122674931D01*
X174825069Y-122533968D01*
X174663791Y-122416792D01*
X174486167Y-122326289D01*
X174296573Y-122264686D01*
X174296571Y-122264685D01*
X174296569Y-122264685D01*
X174159094Y-122242911D01*
X174099676Y-122233500D01*
X173900324Y-122233500D01*
X173854680Y-122240729D01*
X173703430Y-122264685D01*
X173513830Y-122326290D01*
X173336208Y-122416792D01*
X173277673Y-122459321D01*
X173174931Y-122533968D01*
X173174929Y-122533970D01*
X173174928Y-122533970D01*
X173033970Y-122674928D01*
X173033970Y-122674929D01*
X173033968Y-122674931D01*
X173001696Y-122719350D01*
X172916792Y-122836208D01*
X172840485Y-122985971D01*
X172792511Y-123036767D01*
X172724690Y-123053562D01*
X172658555Y-123031025D01*
X172619515Y-122985971D01*
X172590853Y-122929719D01*
X172543208Y-122836209D01*
X172426032Y-122674931D01*
X172285069Y-122533968D01*
X172123791Y-122416792D01*
X171946167Y-122326289D01*
X171756573Y-122264686D01*
X171756571Y-122264685D01*
X171756569Y-122264685D01*
X171619094Y-122242911D01*
X171559676Y-122233500D01*
X171360324Y-122233500D01*
X171314680Y-122240729D01*
X171163430Y-122264685D01*
X170973830Y-122326290D01*
X170796208Y-122416792D01*
X170737673Y-122459321D01*
X170634931Y-122533968D01*
X170634929Y-122533970D01*
X170634928Y-122533970D01*
X170493970Y-122674928D01*
X170493970Y-122674929D01*
X170493968Y-122674931D01*
X170461696Y-122719350D01*
X170376792Y-122836208D01*
X170300485Y-122985971D01*
X170252511Y-123036767D01*
X170184690Y-123053562D01*
X170118555Y-123031025D01*
X170079515Y-122985971D01*
X170050853Y-122929719D01*
X170003208Y-122836209D01*
X169886032Y-122674931D01*
X169745069Y-122533968D01*
X169583791Y-122416792D01*
X169406167Y-122326289D01*
X169216573Y-122264686D01*
X169216571Y-122264685D01*
X169216569Y-122264685D01*
X169079094Y-122242911D01*
X169019676Y-122233500D01*
X168820324Y-122233500D01*
X168774680Y-122240729D01*
X168623430Y-122264685D01*
X168433830Y-122326290D01*
X168256208Y-122416792D01*
X168197673Y-122459321D01*
X168094931Y-122533968D01*
X168094929Y-122533970D01*
X168094928Y-122533970D01*
X167953970Y-122674928D01*
X167953970Y-122674929D01*
X167953968Y-122674931D01*
X167921696Y-122719350D01*
X167836792Y-122836208D01*
X167760485Y-122985971D01*
X167712511Y-123036767D01*
X167644690Y-123053562D01*
X167578555Y-123031025D01*
X167539515Y-122985971D01*
X167510853Y-122929719D01*
X167463208Y-122836209D01*
X167346032Y-122674931D01*
X167205069Y-122533968D01*
X167043791Y-122416792D01*
X166866167Y-122326289D01*
X166676573Y-122264686D01*
X166676571Y-122264685D01*
X166676569Y-122264685D01*
X166539094Y-122242911D01*
X166479676Y-122233500D01*
X166280324Y-122233500D01*
X166234680Y-122240729D01*
X166083430Y-122264685D01*
X165893830Y-122326290D01*
X165716208Y-122416792D01*
X165657673Y-122459321D01*
X165554931Y-122533968D01*
X165554929Y-122533970D01*
X165554928Y-122533970D01*
X165413970Y-122674928D01*
X165413970Y-122674929D01*
X165413968Y-122674931D01*
X165381696Y-122719350D01*
X165296792Y-122836208D01*
X165220485Y-122985971D01*
X165172511Y-123036767D01*
X165104690Y-123053562D01*
X165038555Y-123031025D01*
X164999515Y-122985971D01*
X164970853Y-122929719D01*
X164923208Y-122836209D01*
X164806032Y-122674931D01*
X164665069Y-122533968D01*
X164503791Y-122416792D01*
X164326167Y-122326289D01*
X164136573Y-122264686D01*
X164136571Y-122264685D01*
X164136569Y-122264685D01*
X163999094Y-122242911D01*
X163939676Y-122233500D01*
X163740324Y-122233500D01*
X163694680Y-122240729D01*
X163543430Y-122264685D01*
X163353830Y-122326290D01*
X163176208Y-122416792D01*
X163117673Y-122459321D01*
X163014931Y-122533968D01*
X163014929Y-122533970D01*
X163014928Y-122533970D01*
X162873970Y-122674928D01*
X162873963Y-122674937D01*
X162790817Y-122789376D01*
X162735487Y-122832042D01*
X162665874Y-122838020D01*
X162604079Y-122805414D01*
X162569722Y-122744575D01*
X162566500Y-122716490D01*
X162566500Y-122459323D01*
X162566499Y-122459321D01*
X162551967Y-122386264D01*
X162551966Y-122386260D01*
X162546922Y-122378711D01*
X162496601Y-122303399D01*
X162413740Y-122248034D01*
X162413739Y-122248033D01*
X162413735Y-122248032D01*
X162340677Y-122233500D01*
X162340674Y-122233500D01*
X160259326Y-122233500D01*
X160259323Y-122233500D01*
X160186264Y-122248032D01*
X160186260Y-122248033D01*
X160103399Y-122303399D01*
X160048033Y-122386260D01*
X160048032Y-122386264D01*
X160033500Y-122459321D01*
X142350500Y-122459321D01*
X142350500Y-122378712D01*
X142318838Y-122138211D01*
X142256054Y-121903900D01*
X142163224Y-121679788D01*
X142041936Y-121469711D01*
X141894265Y-121277262D01*
X141894260Y-121277256D01*
X141722743Y-121105739D01*
X141722736Y-121105733D01*
X141530293Y-120958067D01*
X141530292Y-120958066D01*
X141530289Y-120958064D01*
X141320212Y-120836776D01*
X141320205Y-120836773D01*
X141096104Y-120743947D01*
X140861785Y-120681161D01*
X140621289Y-120649500D01*
X140621288Y-120649500D01*
X140378712Y-120649500D01*
X140378711Y-120649500D01*
X140138214Y-120681161D01*
X139903895Y-120743947D01*
X139679794Y-120836773D01*
X139679785Y-120836777D01*
X139469706Y-120958067D01*
X139277263Y-121105733D01*
X139277256Y-121105739D01*
X139105739Y-121277256D01*
X139105733Y-121277263D01*
X138958067Y-121469706D01*
X138836777Y-121679785D01*
X138836773Y-121679794D01*
X138743947Y-121903895D01*
X138681161Y-122138214D01*
X138649500Y-122378711D01*
X120350500Y-122378711D01*
X120318838Y-122138211D01*
X120256054Y-121903900D01*
X120163224Y-121679788D01*
X120041936Y-121469711D01*
X119894265Y-121277262D01*
X119894260Y-121277256D01*
X119722743Y-121105739D01*
X119722736Y-121105733D01*
X119530293Y-120958067D01*
X119530292Y-120958066D01*
X119530289Y-120958064D01*
X119320212Y-120836776D01*
X119320205Y-120836773D01*
X119096104Y-120743947D01*
X118861785Y-120681161D01*
X118621289Y-120649500D01*
X118621288Y-120649500D01*
X118378712Y-120649500D01*
X118378711Y-120649500D01*
X118138214Y-120681161D01*
X117903895Y-120743947D01*
X117679794Y-120836773D01*
X117679785Y-120836777D01*
X117469706Y-120958067D01*
X117277263Y-121105733D01*
X117277256Y-121105739D01*
X117105739Y-121277256D01*
X117105733Y-121277263D01*
X116958067Y-121469706D01*
X116836777Y-121679785D01*
X116836773Y-121679794D01*
X116743947Y-121903895D01*
X116681161Y-122138214D01*
X116649500Y-122378711D01*
X73263782Y-122378711D01*
X73232120Y-122138211D01*
X73169336Y-121903900D01*
X73076506Y-121679788D01*
X72955218Y-121469711D01*
X72807547Y-121277262D01*
X72807542Y-121277256D01*
X72636025Y-121105739D01*
X72636018Y-121105733D01*
X72443575Y-120958067D01*
X72443574Y-120958066D01*
X72443571Y-120958064D01*
X72233494Y-120836776D01*
X72233487Y-120836773D01*
X72009386Y-120743947D01*
X71775067Y-120681161D01*
X71534571Y-120649500D01*
X71534570Y-120649500D01*
X71291994Y-120649500D01*
X71291993Y-120649500D01*
X71051496Y-120681161D01*
X70817177Y-120743947D01*
X70593076Y-120836773D01*
X70593067Y-120836777D01*
X70382988Y-120958067D01*
X70190545Y-121105733D01*
X70190538Y-121105739D01*
X70019021Y-121277256D01*
X70019015Y-121277263D01*
X69871349Y-121469706D01*
X69750059Y-121679785D01*
X69750055Y-121679794D01*
X69657229Y-121903895D01*
X69594443Y-122138214D01*
X69562782Y-122378711D01*
X45350500Y-122378711D01*
X45318838Y-122138211D01*
X45256054Y-121903900D01*
X45163224Y-121679788D01*
X45041936Y-121469711D01*
X44894265Y-121277262D01*
X44894260Y-121277256D01*
X44722743Y-121105739D01*
X44722736Y-121105733D01*
X44530293Y-120958067D01*
X44530292Y-120958066D01*
X44530289Y-120958064D01*
X44320212Y-120836776D01*
X44320205Y-120836773D01*
X44096104Y-120743947D01*
X43861785Y-120681161D01*
X43621289Y-120649500D01*
X43621288Y-120649500D01*
X43378712Y-120649500D01*
X43378711Y-120649500D01*
X43138214Y-120681161D01*
X42903895Y-120743947D01*
X42679794Y-120836773D01*
X42679785Y-120836777D01*
X42469706Y-120958067D01*
X42277263Y-121105733D01*
X42277256Y-121105739D01*
X42105739Y-121277256D01*
X42105733Y-121277263D01*
X41958067Y-121469706D01*
X41836777Y-121679785D01*
X41836773Y-121679794D01*
X41743947Y-121903895D01*
X41681161Y-122138214D01*
X41649500Y-122378711D01*
X35016946Y-122378711D01*
X35108685Y-122286972D01*
X35112794Y-122282862D01*
X35112793Y-122282860D01*
X35029863Y-122222609D01*
X34819491Y-122115419D01*
X34594936Y-122042456D01*
X34594937Y-122042456D01*
X34361741Y-122005522D01*
X34125637Y-122005522D01*
X33892441Y-122042456D01*
X33667886Y-122115419D01*
X33457519Y-122222606D01*
X33374583Y-122282862D01*
X34073455Y-122981734D01*
X34031397Y-122993004D01*
X33905981Y-123065412D01*
X33803579Y-123167814D01*
X33731171Y-123293230D01*
X33719901Y-123335288D01*
X33021029Y-122636416D01*
X32960773Y-122719352D01*
X32853586Y-122929719D01*
X32780623Y-123154274D01*
X32743689Y-123387469D01*
X29243689Y-123387469D01*
X29206754Y-123154274D01*
X29133791Y-122929719D01*
X29026603Y-122719350D01*
X28966347Y-122636416D01*
X28966347Y-122636415D01*
X28267476Y-123335287D01*
X28256207Y-123293230D01*
X28183799Y-123167814D01*
X28081397Y-123065412D01*
X27955981Y-122993004D01*
X27913923Y-122981734D01*
X28612794Y-122282862D01*
X28612793Y-122282861D01*
X28529863Y-122222609D01*
X28319491Y-122115419D01*
X28094936Y-122042456D01*
X28094937Y-122042456D01*
X27861741Y-122005522D01*
X27625637Y-122005522D01*
X27392441Y-122042456D01*
X27167886Y-122115419D01*
X26957519Y-122222606D01*
X26874583Y-122282862D01*
X27573455Y-122981734D01*
X27531397Y-122993004D01*
X27405981Y-123065412D01*
X27303579Y-123167814D01*
X27231171Y-123293230D01*
X27219901Y-123335288D01*
X26521029Y-122636416D01*
X26460773Y-122719352D01*
X26353586Y-122929719D01*
X26280623Y-123154274D01*
X26243689Y-123387469D01*
X21500500Y-123387469D01*
X21500500Y-118907099D01*
X26493189Y-118907099D01*
X26493189Y-119103944D01*
X26523979Y-119298348D01*
X26584806Y-119485551D01*
X26674165Y-119660927D01*
X26789861Y-119820168D01*
X26929043Y-119959350D01*
X27088284Y-120075046D01*
X27171144Y-120117265D01*
X27263659Y-120164404D01*
X27263661Y-120164404D01*
X27263664Y-120164406D01*
X27364006Y-120197009D01*
X27450862Y-120225231D01*
X27645267Y-120256022D01*
X27645272Y-120256022D01*
X27842111Y-120256022D01*
X28036515Y-120225231D01*
X28223714Y-120164406D01*
X28399094Y-120075046D01*
X28558335Y-119959350D01*
X28697517Y-119820168D01*
X28813213Y-119660927D01*
X28902573Y-119485547D01*
X28963398Y-119298348D01*
X28994189Y-119103944D01*
X28994189Y-118907099D01*
X32993189Y-118907099D01*
X32993189Y-119103944D01*
X33023979Y-119298348D01*
X33084806Y-119485551D01*
X33174165Y-119660927D01*
X33289861Y-119820168D01*
X33429043Y-119959350D01*
X33588284Y-120075046D01*
X33671144Y-120117265D01*
X33763659Y-120164404D01*
X33763661Y-120164404D01*
X33763664Y-120164406D01*
X33864006Y-120197009D01*
X33950862Y-120225231D01*
X34145267Y-120256022D01*
X34145272Y-120256022D01*
X34342111Y-120256022D01*
X34536515Y-120225231D01*
X34723714Y-120164406D01*
X34899094Y-120075046D01*
X35058335Y-119959350D01*
X35197517Y-119820168D01*
X35313213Y-119660927D01*
X35402573Y-119485547D01*
X35463398Y-119298348D01*
X35494189Y-119103944D01*
X35494189Y-118907099D01*
X35463398Y-118712695D01*
X35402571Y-118525492D01*
X35326146Y-118375500D01*
X35313213Y-118350117D01*
X35197517Y-118190876D01*
X35058335Y-118051694D01*
X34899094Y-117935998D01*
X34723718Y-117846639D01*
X34536515Y-117785812D01*
X34342111Y-117755022D01*
X34342106Y-117755022D01*
X34145272Y-117755022D01*
X34145267Y-117755022D01*
X33950862Y-117785812D01*
X33763659Y-117846639D01*
X33588283Y-117935998D01*
X33497430Y-118002007D01*
X33429043Y-118051694D01*
X33429041Y-118051696D01*
X33429040Y-118051696D01*
X33289863Y-118190873D01*
X33289863Y-118190874D01*
X33289861Y-118190876D01*
X33240174Y-118259263D01*
X33174165Y-118350116D01*
X33084806Y-118525492D01*
X33023979Y-118712695D01*
X32993189Y-118907099D01*
X28994189Y-118907099D01*
X28963398Y-118712695D01*
X28902571Y-118525492D01*
X28826146Y-118375500D01*
X28813213Y-118350117D01*
X28697517Y-118190876D01*
X28558335Y-118051694D01*
X28399094Y-117935998D01*
X28223718Y-117846639D01*
X28036515Y-117785812D01*
X27842111Y-117755022D01*
X27842106Y-117755022D01*
X27645272Y-117755022D01*
X27645267Y-117755022D01*
X27450862Y-117785812D01*
X27263659Y-117846639D01*
X27088283Y-117935998D01*
X26997430Y-118002007D01*
X26929043Y-118051694D01*
X26929041Y-118051696D01*
X26929040Y-118051696D01*
X26789863Y-118190873D01*
X26789863Y-118190874D01*
X26789861Y-118190876D01*
X26740174Y-118259263D01*
X26674165Y-118350116D01*
X26584806Y-118525492D01*
X26523979Y-118712695D01*
X26493189Y-118907099D01*
X21500500Y-118907099D01*
X21500500Y-111064071D01*
X22849499Y-111064071D01*
X22874497Y-111189738D01*
X22874499Y-111189744D01*
X22923533Y-111308124D01*
X22923538Y-111308133D01*
X22994723Y-111414668D01*
X22994726Y-111414672D01*
X23085327Y-111505273D01*
X23085331Y-111505276D01*
X23191866Y-111576461D01*
X23191875Y-111576466D01*
X23218692Y-111587574D01*
X23310256Y-111625501D01*
X23310260Y-111625501D01*
X23310261Y-111625502D01*
X23435928Y-111650500D01*
X23435931Y-111650500D01*
X23564071Y-111650500D01*
X23648615Y-111633682D01*
X23689744Y-111625501D01*
X23808127Y-111576465D01*
X23914669Y-111505276D01*
X24005276Y-111414669D01*
X24076465Y-111308127D01*
X24125501Y-111189744D01*
X24147529Y-111079005D01*
X24150500Y-111064071D01*
X24150500Y-110935928D01*
X24125502Y-110810261D01*
X24125501Y-110810260D01*
X24125501Y-110810256D01*
X24076465Y-110691873D01*
X24076464Y-110691872D01*
X24076461Y-110691866D01*
X24005276Y-110585331D01*
X24005273Y-110585327D01*
X23911819Y-110491873D01*
X23878334Y-110430550D01*
X23875500Y-110404192D01*
X23875500Y-98999598D01*
X28774500Y-98999598D01*
X28774500Y-99172820D01*
X28781336Y-99215983D01*
X28797173Y-99315975D01*
X28801598Y-99343910D01*
X28855127Y-99508654D01*
X28933768Y-99662997D01*
X29035586Y-99803137D01*
X29158072Y-99925623D01*
X29298212Y-100027441D01*
X29452555Y-100106082D01*
X29617299Y-100159611D01*
X29788389Y-100186709D01*
X29788390Y-100186709D01*
X30211610Y-100186709D01*
X30211611Y-100186709D01*
X30382701Y-100159611D01*
X30547445Y-100106082D01*
X30701788Y-100027441D01*
X30841928Y-99925623D01*
X30964414Y-99803137D01*
X31066232Y-99662997D01*
X31144873Y-99508654D01*
X31198402Y-99343910D01*
X31225500Y-99172820D01*
X31225500Y-98999598D01*
X31198402Y-98828508D01*
X31144873Y-98663764D01*
X31066232Y-98509421D01*
X30964414Y-98369281D01*
X30841928Y-98246795D01*
X30701788Y-98144977D01*
X30547445Y-98066336D01*
X30382701Y-98012807D01*
X30382699Y-98012806D01*
X30382698Y-98012806D01*
X30251271Y-97991990D01*
X30211611Y-97985709D01*
X29788389Y-97985709D01*
X29748728Y-97991990D01*
X29617302Y-98012806D01*
X29452552Y-98066337D01*
X29298211Y-98144977D01*
X29250117Y-98179920D01*
X29158072Y-98246795D01*
X29158070Y-98246797D01*
X29158069Y-98246797D01*
X29035588Y-98369278D01*
X29035588Y-98369279D01*
X29035586Y-98369281D01*
X29014946Y-98397690D01*
X28933768Y-98509420D01*
X28855128Y-98663761D01*
X28855127Y-98663763D01*
X28855127Y-98663764D01*
X28834968Y-98725806D01*
X28801597Y-98828511D01*
X28774817Y-98997596D01*
X28774500Y-98999598D01*
X23875500Y-98999598D01*
X23875500Y-96499598D01*
X28774500Y-96499598D01*
X28774500Y-96672820D01*
X28801598Y-96843910D01*
X28855127Y-97008654D01*
X28933768Y-97162997D01*
X29035586Y-97303137D01*
X29158072Y-97425623D01*
X29298212Y-97527441D01*
X29452555Y-97606082D01*
X29617299Y-97659611D01*
X29788389Y-97686709D01*
X29788390Y-97686709D01*
X30211610Y-97686709D01*
X30211611Y-97686709D01*
X30382701Y-97659611D01*
X30547445Y-97606082D01*
X30701788Y-97527441D01*
X30841928Y-97425623D01*
X30964414Y-97303137D01*
X31066232Y-97162997D01*
X31134295Y-97029415D01*
X31144744Y-97018350D01*
X31151067Y-97004506D01*
X31168246Y-96993465D01*
X31182269Y-96978618D01*
X31197950Y-96974376D01*
X31209845Y-96966732D01*
X31244780Y-96961709D01*
X31379310Y-96961709D01*
X31446349Y-96981394D01*
X31466990Y-96998027D01*
X52769437Y-118300475D01*
X52855063Y-118349911D01*
X52950564Y-118375500D01*
X52950565Y-118375500D01*
X52950566Y-118375500D01*
X142549435Y-118375500D01*
X142549436Y-118375500D01*
X142597186Y-118362705D01*
X142644938Y-118349910D01*
X142730562Y-118300475D01*
X142800475Y-118230562D01*
X145250713Y-115780324D01*
X160033500Y-115780324D01*
X160033500Y-115979676D01*
X160064686Y-116176573D01*
X160126289Y-116366167D01*
X160216792Y-116543791D01*
X160333968Y-116705069D01*
X160474931Y-116846032D01*
X160636209Y-116963208D01*
X160813833Y-117053711D01*
X161003427Y-117115314D01*
X161200324Y-117146500D01*
X161200325Y-117146500D01*
X161399675Y-117146500D01*
X161399676Y-117146500D01*
X161596573Y-117115314D01*
X161786167Y-117053711D01*
X161963791Y-116963208D01*
X162125069Y-116846032D01*
X162266032Y-116705069D01*
X162383208Y-116543791D01*
X162408209Y-116494723D01*
X162459515Y-116394029D01*
X162507489Y-116343232D01*
X162575310Y-116326437D01*
X162641445Y-116348974D01*
X162680485Y-116394029D01*
X162756790Y-116543789D01*
X162786970Y-116585327D01*
X162873968Y-116705069D01*
X163014931Y-116846032D01*
X163176209Y-116963208D01*
X163353833Y-117053711D01*
X163543427Y-117115314D01*
X163740324Y-117146500D01*
X163740325Y-117146500D01*
X163939675Y-117146500D01*
X163939676Y-117146500D01*
X164136573Y-117115314D01*
X164326167Y-117053711D01*
X164503791Y-116963208D01*
X164665069Y-116846032D01*
X164806032Y-116705069D01*
X164923208Y-116543791D01*
X164948209Y-116494723D01*
X164999515Y-116394029D01*
X165047489Y-116343232D01*
X165115310Y-116326437D01*
X165181445Y-116348974D01*
X165220485Y-116394029D01*
X165296790Y-116543789D01*
X165326970Y-116585327D01*
X165413968Y-116705069D01*
X165554931Y-116846032D01*
X165716209Y-116963208D01*
X165893833Y-117053711D01*
X166083427Y-117115314D01*
X166280324Y-117146500D01*
X166280325Y-117146500D01*
X166479675Y-117146500D01*
X166479676Y-117146500D01*
X166676573Y-117115314D01*
X166866167Y-117053711D01*
X167043791Y-116963208D01*
X167205069Y-116846032D01*
X167346032Y-116705069D01*
X167463208Y-116543791D01*
X167488209Y-116494723D01*
X167539515Y-116394029D01*
X167587489Y-116343232D01*
X167655310Y-116326437D01*
X167721445Y-116348974D01*
X167760485Y-116394029D01*
X167836790Y-116543789D01*
X167866970Y-116585327D01*
X167953968Y-116705069D01*
X168094931Y-116846032D01*
X168256209Y-116963208D01*
X168433833Y-117053711D01*
X168623427Y-117115314D01*
X168820324Y-117146500D01*
X168820325Y-117146500D01*
X169019675Y-117146500D01*
X169019676Y-117146500D01*
X169216573Y-117115314D01*
X169406167Y-117053711D01*
X169583791Y-116963208D01*
X169745069Y-116846032D01*
X169886032Y-116705069D01*
X170003208Y-116543791D01*
X170028209Y-116494723D01*
X170079515Y-116394029D01*
X170127489Y-116343232D01*
X170195310Y-116326437D01*
X170261445Y-116348974D01*
X170300485Y-116394029D01*
X170376790Y-116543789D01*
X170406970Y-116585327D01*
X170493968Y-116705069D01*
X170634931Y-116846032D01*
X170796209Y-116963208D01*
X170973833Y-117053711D01*
X171163427Y-117115314D01*
X171360324Y-117146500D01*
X171360325Y-117146500D01*
X171559675Y-117146500D01*
X171559676Y-117146500D01*
X171756573Y-117115314D01*
X171946167Y-117053711D01*
X172123791Y-116963208D01*
X172285069Y-116846032D01*
X172426032Y-116705069D01*
X172543208Y-116543791D01*
X172568209Y-116494723D01*
X172619515Y-116394029D01*
X172667489Y-116343232D01*
X172735310Y-116326437D01*
X172801445Y-116348974D01*
X172840485Y-116394029D01*
X172916790Y-116543789D01*
X172946970Y-116585327D01*
X173033968Y-116705069D01*
X173174931Y-116846032D01*
X173336209Y-116963208D01*
X173513833Y-117053711D01*
X173703427Y-117115314D01*
X173900324Y-117146500D01*
X173900325Y-117146500D01*
X174099675Y-117146500D01*
X174099676Y-117146500D01*
X174296573Y-117115314D01*
X174486167Y-117053711D01*
X174663791Y-116963208D01*
X174825069Y-116846032D01*
X174966032Y-116705069D01*
X175083208Y-116543791D01*
X175108209Y-116494723D01*
X175159515Y-116394029D01*
X175207489Y-116343232D01*
X175275310Y-116326437D01*
X175341445Y-116348974D01*
X175380485Y-116394029D01*
X175456790Y-116543789D01*
X175486970Y-116585327D01*
X175573968Y-116705069D01*
X175714931Y-116846032D01*
X175876209Y-116963208D01*
X176053833Y-117053711D01*
X176243427Y-117115314D01*
X176440324Y-117146500D01*
X176440325Y-117146500D01*
X176639675Y-117146500D01*
X176639676Y-117146500D01*
X176836573Y-117115314D01*
X177026167Y-117053711D01*
X177203791Y-116963208D01*
X177365069Y-116846032D01*
X177506032Y-116705069D01*
X177623208Y-116543791D01*
X177648209Y-116494723D01*
X177699515Y-116394029D01*
X177747489Y-116343232D01*
X177815310Y-116326437D01*
X177881445Y-116348974D01*
X177920485Y-116394029D01*
X177996790Y-116543789D01*
X178026970Y-116585327D01*
X178113968Y-116705069D01*
X178254931Y-116846032D01*
X178416209Y-116963208D01*
X178593833Y-117053711D01*
X178783427Y-117115314D01*
X178980324Y-117146500D01*
X178980325Y-117146500D01*
X179179675Y-117146500D01*
X179179676Y-117146500D01*
X179376573Y-117115314D01*
X179566167Y-117053711D01*
X179743791Y-116963208D01*
X179905069Y-116846032D01*
X180046032Y-116705069D01*
X180163208Y-116543791D01*
X180188209Y-116494723D01*
X180239515Y-116394029D01*
X180287489Y-116343232D01*
X180355310Y-116326437D01*
X180421445Y-116348974D01*
X180460485Y-116394029D01*
X180536790Y-116543789D01*
X180566970Y-116585327D01*
X180653968Y-116705069D01*
X180794931Y-116846032D01*
X180956209Y-116963208D01*
X181133833Y-117053711D01*
X181323427Y-117115314D01*
X181520324Y-117146500D01*
X181520325Y-117146500D01*
X181719675Y-117146500D01*
X181719676Y-117146500D01*
X181916573Y-117115314D01*
X182106167Y-117053711D01*
X182283791Y-116963208D01*
X182445069Y-116846032D01*
X182586032Y-116705069D01*
X182703208Y-116543791D01*
X182728209Y-116494723D01*
X182779515Y-116394029D01*
X182827489Y-116343232D01*
X182895310Y-116326437D01*
X182961445Y-116348974D01*
X183000485Y-116394029D01*
X183076790Y-116543789D01*
X183106970Y-116585327D01*
X183193968Y-116705069D01*
X183334931Y-116846032D01*
X183496209Y-116963208D01*
X183673833Y-117053711D01*
X183863427Y-117115314D01*
X184060324Y-117146500D01*
X184060325Y-117146500D01*
X184259675Y-117146500D01*
X184259676Y-117146500D01*
X184456573Y-117115314D01*
X184646167Y-117053711D01*
X184823791Y-116963208D01*
X184985069Y-116846032D01*
X185126032Y-116705069D01*
X185243208Y-116543791D01*
X185333711Y-116366167D01*
X185395314Y-116176573D01*
X185426500Y-115979676D01*
X185426500Y-115780324D01*
X185395314Y-115583427D01*
X185333711Y-115393833D01*
X185243208Y-115216209D01*
X185126032Y-115054931D01*
X184985069Y-114913968D01*
X184823791Y-114796792D01*
X184646167Y-114706289D01*
X184456573Y-114644686D01*
X184456571Y-114644685D01*
X184456569Y-114644685D01*
X184319094Y-114622911D01*
X184259676Y-114613500D01*
X184060324Y-114613500D01*
X184014680Y-114620729D01*
X183863430Y-114644685D01*
X183673830Y-114706290D01*
X183496208Y-114796792D01*
X183404193Y-114863645D01*
X183334931Y-114913968D01*
X183334929Y-114913970D01*
X183334928Y-114913970D01*
X183193970Y-115054928D01*
X183193970Y-115054929D01*
X183193968Y-115054931D01*
X183147145Y-115119377D01*
X183076792Y-115216208D01*
X183000485Y-115365971D01*
X182952511Y-115416767D01*
X182884690Y-115433562D01*
X182818555Y-115411025D01*
X182779515Y-115365971D01*
X182703207Y-115216208D01*
X182586032Y-115054931D01*
X182445069Y-114913968D01*
X182283791Y-114796792D01*
X182106167Y-114706289D01*
X181916573Y-114644686D01*
X181916571Y-114644685D01*
X181916569Y-114644685D01*
X181779094Y-114622911D01*
X181719676Y-114613500D01*
X181520324Y-114613500D01*
X181474680Y-114620729D01*
X181323430Y-114644685D01*
X181133830Y-114706290D01*
X180956208Y-114796792D01*
X180864193Y-114863645D01*
X180794931Y-114913968D01*
X180794929Y-114913970D01*
X180794928Y-114913970D01*
X180653970Y-115054928D01*
X180653970Y-115054929D01*
X180653968Y-115054931D01*
X180607145Y-115119377D01*
X180536792Y-115216208D01*
X180460485Y-115365971D01*
X180412511Y-115416767D01*
X180344690Y-115433562D01*
X180278555Y-115411025D01*
X180239515Y-115365971D01*
X180163207Y-115216208D01*
X180046032Y-115054931D01*
X179905069Y-114913968D01*
X179743791Y-114796792D01*
X179566167Y-114706289D01*
X179376573Y-114644686D01*
X179376571Y-114644685D01*
X179376569Y-114644685D01*
X179239094Y-114622911D01*
X179179676Y-114613500D01*
X178980324Y-114613500D01*
X178934680Y-114620729D01*
X178783430Y-114644685D01*
X178593830Y-114706290D01*
X178416208Y-114796792D01*
X178324193Y-114863645D01*
X178254931Y-114913968D01*
X178254929Y-114913970D01*
X178254928Y-114913970D01*
X178113970Y-115054928D01*
X178113970Y-115054929D01*
X178113968Y-115054931D01*
X178067145Y-115119377D01*
X177996792Y-115216208D01*
X177920485Y-115365971D01*
X177872511Y-115416767D01*
X177804690Y-115433562D01*
X177738555Y-115411025D01*
X177699515Y-115365971D01*
X177623207Y-115216208D01*
X177506032Y-115054931D01*
X177365069Y-114913968D01*
X177203791Y-114796792D01*
X177026167Y-114706289D01*
X176836573Y-114644686D01*
X176836571Y-114644685D01*
X176836569Y-114644685D01*
X176699094Y-114622911D01*
X176639676Y-114613500D01*
X176440324Y-114613500D01*
X176394680Y-114620729D01*
X176243430Y-114644685D01*
X176053830Y-114706290D01*
X175876208Y-114796792D01*
X175784193Y-114863645D01*
X175714931Y-114913968D01*
X175714929Y-114913970D01*
X175714928Y-114913970D01*
X175573970Y-115054928D01*
X175573970Y-115054929D01*
X175573968Y-115054931D01*
X175527145Y-115119377D01*
X175456792Y-115216208D01*
X175380485Y-115365971D01*
X175332511Y-115416767D01*
X175264690Y-115433562D01*
X175198555Y-115411025D01*
X175159515Y-115365971D01*
X175083207Y-115216208D01*
X174966032Y-115054931D01*
X174825069Y-114913968D01*
X174663791Y-114796792D01*
X174486167Y-114706289D01*
X174296573Y-114644686D01*
X174296571Y-114644685D01*
X174296569Y-114644685D01*
X174159094Y-114622911D01*
X174099676Y-114613500D01*
X173900324Y-114613500D01*
X173854680Y-114620729D01*
X173703430Y-114644685D01*
X173513830Y-114706290D01*
X173336208Y-114796792D01*
X173244193Y-114863645D01*
X173174931Y-114913968D01*
X173174929Y-114913970D01*
X173174928Y-114913970D01*
X173033970Y-115054928D01*
X173033970Y-115054929D01*
X173033968Y-115054931D01*
X172987145Y-115119377D01*
X172916792Y-115216208D01*
X172840485Y-115365971D01*
X172792511Y-115416767D01*
X172724690Y-115433562D01*
X172658555Y-115411025D01*
X172619515Y-115365971D01*
X172543207Y-115216208D01*
X172426032Y-115054931D01*
X172285069Y-114913968D01*
X172123791Y-114796792D01*
X171946167Y-114706289D01*
X171756573Y-114644686D01*
X171756571Y-114644685D01*
X171756569Y-114644685D01*
X171619094Y-114622911D01*
X171559676Y-114613500D01*
X171360324Y-114613500D01*
X171314680Y-114620729D01*
X171163430Y-114644685D01*
X170973830Y-114706290D01*
X170796208Y-114796792D01*
X170704193Y-114863645D01*
X170634931Y-114913968D01*
X170634929Y-114913970D01*
X170634928Y-114913970D01*
X170493970Y-115054928D01*
X170493970Y-115054929D01*
X170493968Y-115054931D01*
X170447145Y-115119377D01*
X170376792Y-115216208D01*
X170300485Y-115365971D01*
X170252511Y-115416767D01*
X170184690Y-115433562D01*
X170118555Y-115411025D01*
X170079515Y-115365971D01*
X170003207Y-115216208D01*
X169886032Y-115054931D01*
X169745069Y-114913968D01*
X169583791Y-114796792D01*
X169406167Y-114706289D01*
X169216573Y-114644686D01*
X169216571Y-114644685D01*
X169216569Y-114644685D01*
X169079094Y-114622911D01*
X169019676Y-114613500D01*
X168820324Y-114613500D01*
X168774680Y-114620729D01*
X168623430Y-114644685D01*
X168433830Y-114706290D01*
X168256208Y-114796792D01*
X168164193Y-114863645D01*
X168094931Y-114913968D01*
X168094929Y-114913970D01*
X168094928Y-114913970D01*
X167953970Y-115054928D01*
X167953970Y-115054929D01*
X167953968Y-115054931D01*
X167907145Y-115119377D01*
X167836792Y-115216208D01*
X167760485Y-115365971D01*
X167712511Y-115416767D01*
X167644690Y-115433562D01*
X167578555Y-115411025D01*
X167539515Y-115365971D01*
X167463207Y-115216208D01*
X167346032Y-115054931D01*
X167205069Y-114913968D01*
X167043791Y-114796792D01*
X166866167Y-114706289D01*
X166676573Y-114644686D01*
X166676571Y-114644685D01*
X166676569Y-114644685D01*
X166539094Y-114622911D01*
X166479676Y-114613500D01*
X166280324Y-114613500D01*
X166234680Y-114620729D01*
X166083430Y-114644685D01*
X165893830Y-114706290D01*
X165716208Y-114796792D01*
X165624193Y-114863645D01*
X165554931Y-114913968D01*
X165554929Y-114913970D01*
X165554928Y-114913970D01*
X165413970Y-115054928D01*
X165413970Y-115054929D01*
X165413968Y-115054931D01*
X165367145Y-115119377D01*
X165296792Y-115216208D01*
X165220485Y-115365971D01*
X165172511Y-115416767D01*
X165104690Y-115433562D01*
X165038555Y-115411025D01*
X164999515Y-115365971D01*
X164923207Y-115216208D01*
X164806032Y-115054931D01*
X164665069Y-114913968D01*
X164503791Y-114796792D01*
X164326167Y-114706289D01*
X164136573Y-114644686D01*
X164136571Y-114644685D01*
X164136569Y-114644685D01*
X163999094Y-114622911D01*
X163939676Y-114613500D01*
X163740324Y-114613500D01*
X163694680Y-114620729D01*
X163543430Y-114644685D01*
X163353830Y-114706290D01*
X163176208Y-114796792D01*
X163084193Y-114863645D01*
X163014931Y-114913968D01*
X163014929Y-114913970D01*
X163014928Y-114913970D01*
X162873970Y-115054928D01*
X162873970Y-115054929D01*
X162873968Y-115054931D01*
X162827145Y-115119377D01*
X162756792Y-115216208D01*
X162680485Y-115365971D01*
X162632511Y-115416767D01*
X162564690Y-115433562D01*
X162498555Y-115411025D01*
X162459515Y-115365971D01*
X162383207Y-115216208D01*
X162266032Y-115054931D01*
X162125069Y-114913968D01*
X161963791Y-114796792D01*
X161786167Y-114706289D01*
X161596573Y-114644686D01*
X161596571Y-114644685D01*
X161596569Y-114644685D01*
X161459094Y-114622911D01*
X161399676Y-114613500D01*
X161200324Y-114613500D01*
X161154680Y-114620729D01*
X161003430Y-114644685D01*
X160813830Y-114706290D01*
X160636208Y-114796792D01*
X160544193Y-114863645D01*
X160474931Y-114913968D01*
X160474929Y-114913970D01*
X160474928Y-114913970D01*
X160333970Y-115054928D01*
X160333970Y-115054929D01*
X160333968Y-115054931D01*
X160287145Y-115119377D01*
X160216792Y-115216208D01*
X160126290Y-115393830D01*
X160064685Y-115583430D01*
X160048159Y-115687771D01*
X160033500Y-115780324D01*
X145250713Y-115780324D01*
X149134690Y-111896347D01*
X151933279Y-111896347D01*
X151933279Y-112108840D01*
X151966521Y-112318721D01*
X151966521Y-112318724D01*
X152032183Y-112520811D01*
X152128654Y-112710144D01*
X152168007Y-112764310D01*
X152800316Y-112132002D01*
X152817354Y-112195587D01*
X152883180Y-112309601D01*
X152976272Y-112402693D01*
X153090286Y-112468519D01*
X153153869Y-112485556D01*
X152521561Y-113117863D01*
X152521561Y-113117864D01*
X152575728Y-113157218D01*
X152765063Y-113253690D01*
X152863990Y-113285833D01*
X152921666Y-113325270D01*
X152948865Y-113389628D01*
X152936951Y-113458475D01*
X152889707Y-113509951D01*
X152864001Y-113521691D01*
X152862801Y-113522081D01*
X152860829Y-113522722D01*
X152706490Y-113601362D01*
X152626535Y-113659453D01*
X152566351Y-113703180D01*
X152566349Y-113703182D01*
X152566348Y-113703182D01*
X152443867Y-113825663D01*
X152443867Y-113825664D01*
X152443865Y-113825666D01*
X152400138Y-113885850D01*
X152342047Y-113965805D01*
X152263407Y-114120146D01*
X152209876Y-114284896D01*
X152182779Y-114455983D01*
X152182779Y-114629205D01*
X152209877Y-114800295D01*
X152263406Y-114965039D01*
X152342047Y-115119382D01*
X152443865Y-115259522D01*
X152566351Y-115382008D01*
X152706491Y-115483826D01*
X152860834Y-115562467D01*
X153025578Y-115615996D01*
X153196668Y-115643094D01*
X153196669Y-115643094D01*
X153369889Y-115643094D01*
X153369890Y-115643094D01*
X153540980Y-115615996D01*
X153705724Y-115562467D01*
X153860067Y-115483826D01*
X154000207Y-115382008D01*
X154122693Y-115259522D01*
X154224511Y-115119382D01*
X154303152Y-114965039D01*
X154356681Y-114800295D01*
X154383779Y-114629205D01*
X154383779Y-114455983D01*
X154356681Y-114284893D01*
X154303152Y-114120149D01*
X154224511Y-113965806D01*
X154122693Y-113825666D01*
X154000207Y-113703180D01*
X153860067Y-113601362D01*
X153705725Y-113522721D01*
X153702563Y-113521694D01*
X153701515Y-113520977D01*
X153701231Y-113520860D01*
X153701255Y-113520800D01*
X153644888Y-113482255D01*
X153617692Y-113417896D01*
X153629608Y-113349050D01*
X153676853Y-113297575D01*
X153702567Y-113285833D01*
X153801494Y-113253690D01*
X153990833Y-113157216D01*
X154044995Y-113117864D01*
X154044996Y-113117864D01*
X153412687Y-112485556D01*
X153476272Y-112468519D01*
X153590286Y-112402693D01*
X153683378Y-112309601D01*
X153749204Y-112195587D01*
X153766241Y-112132002D01*
X154398549Y-112764311D01*
X154398549Y-112764310D01*
X154437901Y-112710148D01*
X154534374Y-112520811D01*
X154600036Y-112318724D01*
X154600036Y-112318721D01*
X154633279Y-112108840D01*
X154633279Y-111896347D01*
X154600036Y-111686466D01*
X154600036Y-111686463D01*
X154534374Y-111484376D01*
X154437903Y-111295043D01*
X154398549Y-111240876D01*
X154398548Y-111240876D01*
X153766241Y-111873184D01*
X153749204Y-111809601D01*
X153683378Y-111695587D01*
X153590286Y-111602495D01*
X153476272Y-111536669D01*
X153412688Y-111519631D01*
X154044995Y-110887322D01*
X153990829Y-110847969D01*
X153801496Y-110751498D01*
X153702566Y-110719354D01*
X153644890Y-110679917D01*
X153617692Y-110615558D01*
X153629607Y-110546712D01*
X153676851Y-110495236D01*
X153702569Y-110483491D01*
X153705724Y-110482467D01*
X153860067Y-110403826D01*
X154000207Y-110302008D01*
X154122693Y-110179522D01*
X154224511Y-110039382D01*
X154303152Y-109885039D01*
X154356681Y-109720295D01*
X154383779Y-109549205D01*
X154383779Y-109375983D01*
X154356681Y-109204893D01*
X154303152Y-109040149D01*
X154224511Y-108885806D01*
X154122693Y-108745666D01*
X154000207Y-108623180D01*
X153860067Y-108521362D01*
X153705724Y-108442721D01*
X153567109Y-108397682D01*
X159700000Y-108397682D01*
X159700000Y-108602317D01*
X159732009Y-108804417D01*
X159795244Y-108999031D01*
X159888141Y-109181350D01*
X159888147Y-109181359D01*
X159920523Y-109225921D01*
X159920524Y-109225922D01*
X160600000Y-108546446D01*
X160600000Y-108552661D01*
X160627259Y-108654394D01*
X160679920Y-108745606D01*
X160754394Y-108820080D01*
X160845606Y-108872741D01*
X160947339Y-108900000D01*
X160953553Y-108900000D01*
X160274076Y-109579474D01*
X160318650Y-109611859D01*
X160500968Y-109704755D01*
X160695582Y-109767990D01*
X160897683Y-109800000D01*
X161102317Y-109800000D01*
X161304417Y-109767990D01*
X161499031Y-109704755D01*
X161681349Y-109611859D01*
X161725921Y-109579474D01*
X161046447Y-108900000D01*
X161052661Y-108900000D01*
X161154394Y-108872741D01*
X161245606Y-108820080D01*
X161320080Y-108745606D01*
X161372741Y-108654394D01*
X161400000Y-108552661D01*
X161400000Y-108546447D01*
X162079474Y-109225921D01*
X162111859Y-109181349D01*
X162204755Y-108999031D01*
X162267990Y-108804417D01*
X162300000Y-108602317D01*
X162300000Y-108397690D01*
X162299998Y-108397674D01*
X162299817Y-108396530D01*
X167569500Y-108396530D01*
X167569500Y-108603469D01*
X167609868Y-108806412D01*
X167609870Y-108806420D01*
X167642752Y-108885805D01*
X167689059Y-108997598D01*
X167732296Y-109062307D01*
X167804024Y-109169657D01*
X167950342Y-109315975D01*
X167950345Y-109315977D01*
X168122402Y-109430941D01*
X168313580Y-109510130D01*
X168510020Y-109549204D01*
X168516530Y-109550499D01*
X168516534Y-109550500D01*
X168516535Y-109550500D01*
X168723466Y-109550500D01*
X168723467Y-109550499D01*
X168926420Y-109510130D01*
X169117598Y-109430941D01*
X169289655Y-109315977D01*
X169435977Y-109169655D01*
X169550941Y-108997598D01*
X169630130Y-108806420D01*
X169670500Y-108603465D01*
X169670500Y-108396535D01*
X169670499Y-108396530D01*
X175829500Y-108396530D01*
X175829500Y-108603469D01*
X175869868Y-108806412D01*
X175869870Y-108806420D01*
X175902752Y-108885805D01*
X175949059Y-108997598D01*
X175992296Y-109062307D01*
X176064024Y-109169657D01*
X176210342Y-109315975D01*
X176210345Y-109315977D01*
X176382402Y-109430941D01*
X176573580Y-109510130D01*
X176770020Y-109549204D01*
X176776530Y-109550499D01*
X176776534Y-109550500D01*
X176776535Y-109550500D01*
X176983466Y-109550500D01*
X176983467Y-109550499D01*
X177186420Y-109510130D01*
X177377598Y-109430941D01*
X177549655Y-109315977D01*
X177695977Y-109169655D01*
X177810941Y-108997598D01*
X177890130Y-108806420D01*
X177930500Y-108603465D01*
X177930500Y-108397682D01*
X183200000Y-108397682D01*
X183200000Y-108602317D01*
X183232009Y-108804417D01*
X183295244Y-108999031D01*
X183388141Y-109181350D01*
X183388147Y-109181359D01*
X183420523Y-109225921D01*
X183420524Y-109225922D01*
X184100000Y-108546446D01*
X184100000Y-108552661D01*
X184127259Y-108654394D01*
X184179920Y-108745606D01*
X184254394Y-108820080D01*
X184345606Y-108872741D01*
X184447339Y-108900000D01*
X184453553Y-108900000D01*
X183774076Y-109579474D01*
X183818650Y-109611859D01*
X184000968Y-109704755D01*
X184195582Y-109767990D01*
X184397683Y-109800000D01*
X184602317Y-109800000D01*
X184804417Y-109767990D01*
X184999031Y-109704755D01*
X185181349Y-109611859D01*
X185225921Y-109579474D01*
X184546447Y-108900000D01*
X184552661Y-108900000D01*
X184654394Y-108872741D01*
X184745606Y-108820080D01*
X184820080Y-108745606D01*
X184872741Y-108654394D01*
X184900000Y-108552661D01*
X184900000Y-108546448D01*
X185579474Y-109225922D01*
X185579474Y-109225921D01*
X185611859Y-109181349D01*
X185704755Y-108999031D01*
X185767990Y-108804417D01*
X185800000Y-108602317D01*
X185800000Y-108397682D01*
X185767990Y-108195582D01*
X185704755Y-108000968D01*
X185611859Y-107818650D01*
X185579474Y-107774077D01*
X185579474Y-107774076D01*
X184900000Y-108453551D01*
X184900000Y-108447339D01*
X184872741Y-108345606D01*
X184820080Y-108254394D01*
X184745606Y-108179920D01*
X184654394Y-108127259D01*
X184552661Y-108100000D01*
X184546446Y-108100000D01*
X185225922Y-107420524D01*
X185225921Y-107420523D01*
X185181359Y-107388147D01*
X185181350Y-107388141D01*
X184999031Y-107295244D01*
X184804417Y-107232009D01*
X184602317Y-107200000D01*
X184397683Y-107200000D01*
X184195582Y-107232009D01*
X184000968Y-107295244D01*
X183818644Y-107388143D01*
X183774077Y-107420523D01*
X183774077Y-107420524D01*
X184453554Y-108100000D01*
X184447339Y-108100000D01*
X184345606Y-108127259D01*
X184254394Y-108179920D01*
X184179920Y-108254394D01*
X184127259Y-108345606D01*
X184100000Y-108447339D01*
X184100000Y-108453553D01*
X183420524Y-107774077D01*
X183420523Y-107774077D01*
X183388143Y-107818644D01*
X183295244Y-108000968D01*
X183232009Y-108195582D01*
X183200000Y-108397682D01*
X177930500Y-108397682D01*
X177930500Y-108396535D01*
X177890130Y-108193580D01*
X177810941Y-108002402D01*
X177695977Y-107830345D01*
X177695975Y-107830342D01*
X177549657Y-107684024D01*
X177380332Y-107570886D01*
X177377598Y-107569059D01*
X177186420Y-107489870D01*
X177186412Y-107489868D01*
X176983469Y-107449500D01*
X176983465Y-107449500D01*
X176776535Y-107449500D01*
X176776530Y-107449500D01*
X176573587Y-107489868D01*
X176573579Y-107489870D01*
X176382403Y-107569058D01*
X176210342Y-107684024D01*
X176064024Y-107830342D01*
X175949058Y-108002403D01*
X175869870Y-108193579D01*
X175869868Y-108193587D01*
X175829500Y-108396530D01*
X169670499Y-108396530D01*
X169630130Y-108193580D01*
X169550941Y-108002402D01*
X169435977Y-107830345D01*
X169435975Y-107830342D01*
X169289657Y-107684024D01*
X169120332Y-107570886D01*
X169117598Y-107569059D01*
X168926420Y-107489870D01*
X168926412Y-107489868D01*
X168723469Y-107449500D01*
X168723465Y-107449500D01*
X168516535Y-107449500D01*
X168516530Y-107449500D01*
X168313587Y-107489868D01*
X168313579Y-107489870D01*
X168122403Y-107569058D01*
X167950342Y-107684024D01*
X167804024Y-107830342D01*
X167689058Y-108002403D01*
X167609870Y-108193579D01*
X167609868Y-108193587D01*
X167569500Y-108396530D01*
X162299817Y-108396530D01*
X162267990Y-108195582D01*
X162204755Y-108000968D01*
X162111859Y-107818650D01*
X162079474Y-107774077D01*
X162079474Y-107774076D01*
X161400000Y-108453551D01*
X161400000Y-108447339D01*
X161372741Y-108345606D01*
X161320080Y-108254394D01*
X161245606Y-108179920D01*
X161154394Y-108127259D01*
X161052661Y-108100000D01*
X161046446Y-108100000D01*
X161725922Y-107420524D01*
X161725921Y-107420523D01*
X161681359Y-107388147D01*
X161681350Y-107388141D01*
X161499031Y-107295244D01*
X161304417Y-107232009D01*
X161102317Y-107200000D01*
X160897683Y-107200000D01*
X160695582Y-107232009D01*
X160500968Y-107295244D01*
X160318644Y-107388143D01*
X160274077Y-107420523D01*
X160274077Y-107420524D01*
X160953554Y-108100000D01*
X160947339Y-108100000D01*
X160845606Y-108127259D01*
X160754394Y-108179920D01*
X160679920Y-108254394D01*
X160627259Y-108345606D01*
X160600000Y-108447339D01*
X160600000Y-108453553D01*
X159920524Y-107774077D01*
X159920523Y-107774077D01*
X159888143Y-107818644D01*
X159795244Y-108000968D01*
X159732009Y-108195582D01*
X159700000Y-108397682D01*
X153567109Y-108397682D01*
X153540980Y-108389192D01*
X153540978Y-108389191D01*
X153540977Y-108389191D01*
X153409550Y-108368375D01*
X153369890Y-108362094D01*
X153196668Y-108362094D01*
X153157007Y-108368375D01*
X153025581Y-108389191D01*
X152860831Y-108442722D01*
X152706490Y-108521362D01*
X152626535Y-108579453D01*
X152566351Y-108623180D01*
X152566349Y-108623182D01*
X152566348Y-108623182D01*
X152443867Y-108745663D01*
X152443867Y-108745664D01*
X152443865Y-108745666D01*
X152401180Y-108804417D01*
X152342047Y-108885805D01*
X152263407Y-109040146D01*
X152209876Y-109204896D01*
X152182779Y-109375983D01*
X152182779Y-109549204D01*
X152207415Y-109704755D01*
X152209877Y-109720295D01*
X152263406Y-109885039D01*
X152342047Y-110039382D01*
X152443865Y-110179522D01*
X152566351Y-110302008D01*
X152706491Y-110403826D01*
X152860834Y-110482467D01*
X152863987Y-110483491D01*
X152865031Y-110484205D01*
X152865327Y-110484328D01*
X152865301Y-110484389D01*
X152921662Y-110522924D01*
X152948864Y-110587282D01*
X152936953Y-110656129D01*
X152889712Y-110707607D01*
X152863991Y-110719354D01*
X152765062Y-110751498D01*
X152575718Y-110847974D01*
X152521561Y-110887321D01*
X152521561Y-110887322D01*
X153153870Y-111519631D01*
X153090286Y-111536669D01*
X152976272Y-111602495D01*
X152883180Y-111695587D01*
X152817354Y-111809601D01*
X152800316Y-111873185D01*
X152168007Y-111240876D01*
X152168006Y-111240876D01*
X152128659Y-111295033D01*
X152032183Y-111484376D01*
X151966521Y-111686463D01*
X151966521Y-111686466D01*
X151933279Y-111896347D01*
X149134690Y-111896347D01*
X149300474Y-111730563D01*
X149300475Y-111730562D01*
X149349910Y-111644938D01*
X149375500Y-111549435D01*
X149375500Y-106835983D01*
X152182779Y-106835983D01*
X152182779Y-107009205D01*
X152209877Y-107180295D01*
X152263406Y-107345039D01*
X152342047Y-107499382D01*
X152443865Y-107639522D01*
X152566351Y-107762008D01*
X152706491Y-107863826D01*
X152860834Y-107942467D01*
X153025578Y-107995996D01*
X153196668Y-108023094D01*
X153196669Y-108023094D01*
X153369889Y-108023094D01*
X153369890Y-108023094D01*
X153540980Y-107995996D01*
X153705724Y-107942467D01*
X153860067Y-107863826D01*
X154000207Y-107762008D01*
X154122693Y-107639522D01*
X154224511Y-107499382D01*
X154303152Y-107345039D01*
X154356681Y-107180295D01*
X154383779Y-107009205D01*
X154383779Y-106835983D01*
X154356681Y-106664893D01*
X154303152Y-106500149D01*
X154224511Y-106345806D01*
X154122693Y-106205666D01*
X154000207Y-106083180D01*
X153860067Y-105981362D01*
X153705724Y-105902721D01*
X153540980Y-105849192D01*
X153540978Y-105849191D01*
X153540977Y-105849191D01*
X153409550Y-105828375D01*
X153369890Y-105822094D01*
X153196668Y-105822094D01*
X153157007Y-105828375D01*
X153025581Y-105849191D01*
X153025578Y-105849192D01*
X152883640Y-105895311D01*
X152860831Y-105902722D01*
X152706490Y-105981362D01*
X152626535Y-106039453D01*
X152566351Y-106083180D01*
X152566349Y-106083182D01*
X152566348Y-106083182D01*
X152443867Y-106205663D01*
X152443867Y-106205664D01*
X152443865Y-106205666D01*
X152415222Y-106245090D01*
X152342047Y-106345805D01*
X152263407Y-106500146D01*
X152209876Y-106664896D01*
X152182779Y-106835983D01*
X149375500Y-106835983D01*
X149375500Y-106332771D01*
X149395185Y-106265732D01*
X149411814Y-106245095D01*
X151360925Y-104295983D01*
X152182779Y-104295983D01*
X152182779Y-104469205D01*
X152209877Y-104640295D01*
X152263406Y-104805039D01*
X152342047Y-104959382D01*
X152443865Y-105099522D01*
X152566351Y-105222008D01*
X152706491Y-105323826D01*
X152860834Y-105402467D01*
X153025578Y-105455996D01*
X153196668Y-105483094D01*
X153196669Y-105483094D01*
X153369889Y-105483094D01*
X153369890Y-105483094D01*
X153540980Y-105455996D01*
X153705724Y-105402467D01*
X153860067Y-105323826D01*
X154000207Y-105222008D01*
X154122693Y-105099522D01*
X154224511Y-104959382D01*
X154303152Y-104805039D01*
X154356681Y-104640295D01*
X154383779Y-104469205D01*
X154383779Y-104295983D01*
X154356681Y-104124893D01*
X154303152Y-103960149D01*
X154224511Y-103805806D01*
X154122693Y-103665666D01*
X154000207Y-103543180D01*
X153860067Y-103441362D01*
X153774339Y-103397682D01*
X159700000Y-103397682D01*
X159700000Y-103602317D01*
X159732009Y-103804417D01*
X159795244Y-103999031D01*
X159888141Y-104181350D01*
X159888147Y-104181359D01*
X159920523Y-104225921D01*
X159920524Y-104225922D01*
X160600000Y-103546446D01*
X160600000Y-103552661D01*
X160627259Y-103654394D01*
X160679920Y-103745606D01*
X160754394Y-103820080D01*
X160845606Y-103872741D01*
X160947339Y-103900000D01*
X160953553Y-103900000D01*
X160274076Y-104579474D01*
X160318650Y-104611859D01*
X160500968Y-104704755D01*
X160695582Y-104767990D01*
X160897683Y-104800000D01*
X161102317Y-104800000D01*
X161304417Y-104767990D01*
X161499031Y-104704755D01*
X161681349Y-104611859D01*
X161725921Y-104579474D01*
X161046447Y-103900000D01*
X161052661Y-103900000D01*
X161154394Y-103872741D01*
X161245606Y-103820080D01*
X161320080Y-103745606D01*
X161372741Y-103654394D01*
X161400000Y-103552661D01*
X161400000Y-103546447D01*
X162079474Y-104225921D01*
X162111859Y-104181349D01*
X162204755Y-103999031D01*
X162267990Y-103804417D01*
X162300000Y-103602317D01*
X162300000Y-103397690D01*
X162299998Y-103397674D01*
X162299817Y-103396530D01*
X167569500Y-103396530D01*
X167569500Y-103603469D01*
X167609868Y-103806412D01*
X167609870Y-103806420D01*
X167689059Y-103997598D01*
X167746541Y-104083626D01*
X167804024Y-104169657D01*
X167950342Y-104315975D01*
X167950345Y-104315977D01*
X168122402Y-104430941D01*
X168313580Y-104510130D01*
X168516530Y-104550499D01*
X168516534Y-104550500D01*
X168516535Y-104550500D01*
X168723466Y-104550500D01*
X168723467Y-104550499D01*
X168926420Y-104510130D01*
X169117598Y-104430941D01*
X169289655Y-104315977D01*
X169435977Y-104169655D01*
X169550941Y-103997598D01*
X169630130Y-103806420D01*
X169670500Y-103603465D01*
X169670500Y-103396535D01*
X169670499Y-103396530D01*
X175829500Y-103396530D01*
X175829500Y-103603469D01*
X175869868Y-103806412D01*
X175869870Y-103806420D01*
X175949059Y-103997598D01*
X176006541Y-104083626D01*
X176064024Y-104169657D01*
X176210342Y-104315975D01*
X176210345Y-104315977D01*
X176382402Y-104430941D01*
X176573580Y-104510130D01*
X176776530Y-104550499D01*
X176776534Y-104550500D01*
X176776535Y-104550500D01*
X176983466Y-104550500D01*
X176983467Y-104550499D01*
X177186420Y-104510130D01*
X177377598Y-104430941D01*
X177549655Y-104315977D01*
X177695977Y-104169655D01*
X177810941Y-103997598D01*
X177890130Y-103806420D01*
X177930500Y-103603465D01*
X177930500Y-103397682D01*
X183200000Y-103397682D01*
X183200000Y-103602317D01*
X183232009Y-103804417D01*
X183295244Y-103999031D01*
X183388141Y-104181350D01*
X183388147Y-104181359D01*
X183420523Y-104225921D01*
X183420524Y-104225922D01*
X184100000Y-103546446D01*
X184100000Y-103552661D01*
X184127259Y-103654394D01*
X184179920Y-103745606D01*
X184254394Y-103820080D01*
X184345606Y-103872741D01*
X184447339Y-103900000D01*
X184453553Y-103900000D01*
X183774076Y-104579474D01*
X183818650Y-104611859D01*
X184000968Y-104704755D01*
X184195582Y-104767990D01*
X184397683Y-104800000D01*
X184602317Y-104800000D01*
X184804417Y-104767990D01*
X184999031Y-104704755D01*
X185181349Y-104611859D01*
X185225921Y-104579474D01*
X184546447Y-103900000D01*
X184552661Y-103900000D01*
X184654394Y-103872741D01*
X184745606Y-103820080D01*
X184820080Y-103745606D01*
X184872741Y-103654394D01*
X184900000Y-103552661D01*
X184900000Y-103546448D01*
X185579474Y-104225922D01*
X185579474Y-104225921D01*
X185611859Y-104181349D01*
X185704755Y-103999031D01*
X185767990Y-103804417D01*
X185800000Y-103602317D01*
X185800000Y-103397682D01*
X185767990Y-103195582D01*
X185704755Y-103000968D01*
X185611859Y-102818650D01*
X185579474Y-102774077D01*
X185579474Y-102774076D01*
X184900000Y-103453551D01*
X184900000Y-103447339D01*
X184872741Y-103345606D01*
X184820080Y-103254394D01*
X184745606Y-103179920D01*
X184654394Y-103127259D01*
X184552661Y-103100000D01*
X184546446Y-103100000D01*
X185225922Y-102420524D01*
X185225921Y-102420523D01*
X185181359Y-102388147D01*
X185181350Y-102388141D01*
X184999031Y-102295244D01*
X184804417Y-102232009D01*
X184602317Y-102200000D01*
X184397683Y-102200000D01*
X184195582Y-102232009D01*
X184000968Y-102295244D01*
X183818644Y-102388143D01*
X183774077Y-102420523D01*
X183774077Y-102420524D01*
X184453554Y-103100000D01*
X184447339Y-103100000D01*
X184345606Y-103127259D01*
X184254394Y-103179920D01*
X184179920Y-103254394D01*
X184127259Y-103345606D01*
X184100000Y-103447339D01*
X184100000Y-103453553D01*
X183420524Y-102774077D01*
X183420523Y-102774077D01*
X183388143Y-102818644D01*
X183295244Y-103000968D01*
X183232009Y-103195582D01*
X183200000Y-103397682D01*
X177930500Y-103397682D01*
X177930500Y-103396535D01*
X177890130Y-103193580D01*
X177810941Y-103002402D01*
X177695977Y-102830345D01*
X177695975Y-102830342D01*
X177549657Y-102684024D01*
X177380332Y-102570886D01*
X177377598Y-102569059D01*
X177354576Y-102559523D01*
X177186420Y-102489870D01*
X177186412Y-102489868D01*
X176983469Y-102449500D01*
X176983465Y-102449500D01*
X176776535Y-102449500D01*
X176776530Y-102449500D01*
X176573587Y-102489868D01*
X176573579Y-102489870D01*
X176382403Y-102569058D01*
X176210342Y-102684024D01*
X176064024Y-102830342D01*
X175949058Y-103002403D01*
X175869870Y-103193579D01*
X175869868Y-103193587D01*
X175829500Y-103396530D01*
X169670499Y-103396530D01*
X169630130Y-103193580D01*
X169550941Y-103002402D01*
X169435977Y-102830345D01*
X169435975Y-102830342D01*
X169289657Y-102684024D01*
X169120332Y-102570886D01*
X169117598Y-102569059D01*
X169094576Y-102559523D01*
X168926420Y-102489870D01*
X168926412Y-102489868D01*
X168723469Y-102449500D01*
X168723465Y-102449500D01*
X168516535Y-102449500D01*
X168516530Y-102449500D01*
X168313587Y-102489868D01*
X168313579Y-102489870D01*
X168122403Y-102569058D01*
X167950342Y-102684024D01*
X167804024Y-102830342D01*
X167689058Y-103002403D01*
X167609870Y-103193579D01*
X167609868Y-103193587D01*
X167569500Y-103396530D01*
X162299817Y-103396530D01*
X162267990Y-103195582D01*
X162204755Y-103000968D01*
X162111859Y-102818650D01*
X162079474Y-102774077D01*
X162079474Y-102774076D01*
X161400000Y-103453551D01*
X161400000Y-103447339D01*
X161372741Y-103345606D01*
X161320080Y-103254394D01*
X161245606Y-103179920D01*
X161154394Y-103127259D01*
X161052661Y-103100000D01*
X161046446Y-103100000D01*
X161725922Y-102420524D01*
X161725921Y-102420523D01*
X161681359Y-102388147D01*
X161681350Y-102388141D01*
X161499031Y-102295244D01*
X161304417Y-102232009D01*
X161102317Y-102200000D01*
X160897683Y-102200000D01*
X160695582Y-102232009D01*
X160500968Y-102295244D01*
X160318644Y-102388143D01*
X160274077Y-102420523D01*
X160274077Y-102420524D01*
X160953554Y-103100000D01*
X160947339Y-103100000D01*
X160845606Y-103127259D01*
X160754394Y-103179920D01*
X160679920Y-103254394D01*
X160627259Y-103345606D01*
X160600000Y-103447339D01*
X160600000Y-103453553D01*
X159920524Y-102774077D01*
X159920523Y-102774077D01*
X159888143Y-102818644D01*
X159795244Y-103000968D01*
X159732009Y-103195582D01*
X159700000Y-103397682D01*
X153774339Y-103397682D01*
X153705724Y-103362721D01*
X153540980Y-103309192D01*
X153540978Y-103309191D01*
X153540977Y-103309191D01*
X153409550Y-103288375D01*
X153369890Y-103282094D01*
X153196668Y-103282094D01*
X153157007Y-103288375D01*
X153025581Y-103309191D01*
X152860831Y-103362722D01*
X152706490Y-103441362D01*
X152635233Y-103493134D01*
X152566351Y-103543180D01*
X152566349Y-103543182D01*
X152566348Y-103543182D01*
X152443867Y-103665663D01*
X152443867Y-103665664D01*
X152443865Y-103665666D01*
X152400138Y-103725850D01*
X152342047Y-103805805D01*
X152263407Y-103960146D01*
X152209876Y-104124896D01*
X152182779Y-104295983D01*
X151360925Y-104295983D01*
X152756994Y-102899914D01*
X152818315Y-102866431D01*
X152882989Y-102869665D01*
X153025578Y-102915996D01*
X153196668Y-102943094D01*
X153196669Y-102943094D01*
X153369889Y-102943094D01*
X153369890Y-102943094D01*
X153540980Y-102915996D01*
X153705724Y-102862467D01*
X153860067Y-102783826D01*
X154000207Y-102682008D01*
X154122693Y-102559522D01*
X154224511Y-102419382D01*
X154303152Y-102265039D01*
X154356681Y-102100295D01*
X154383779Y-101929205D01*
X154383779Y-101755983D01*
X154356681Y-101584893D01*
X154303152Y-101420149D01*
X154224511Y-101265806D01*
X154122693Y-101125666D01*
X154000207Y-101003180D01*
X153860067Y-100901362D01*
X153705724Y-100822721D01*
X153540980Y-100769192D01*
X153540978Y-100769191D01*
X153540977Y-100769191D01*
X153409550Y-100748375D01*
X153369890Y-100742094D01*
X153196668Y-100742094D01*
X153157007Y-100748375D01*
X153025581Y-100769191D01*
X152860831Y-100822722D01*
X152706490Y-100901362D01*
X152626535Y-100959453D01*
X152566351Y-101003180D01*
X152566349Y-101003182D01*
X152566348Y-101003182D01*
X152443867Y-101125663D01*
X152443867Y-101125664D01*
X152443865Y-101125666D01*
X152400138Y-101185850D01*
X152342047Y-101265805D01*
X152263407Y-101420146D01*
X152209876Y-101584896D01*
X152182779Y-101755983D01*
X152182779Y-101929205D01*
X152209877Y-102100295D01*
X152252674Y-102232009D01*
X152256206Y-102242879D01*
X152258201Y-102312720D01*
X152225956Y-102368878D01*
X148769438Y-105825398D01*
X148699526Y-105895309D01*
X148650091Y-105980932D01*
X148650091Y-105980933D01*
X148650090Y-105980935D01*
X148624500Y-106076438D01*
X148624500Y-106076440D01*
X148624500Y-111293101D01*
X148604815Y-111360140D01*
X148588181Y-111380782D01*
X142380782Y-117588181D01*
X142319459Y-117621666D01*
X142293101Y-117624500D01*
X118094808Y-117624500D01*
X118073562Y-117618261D01*
X118051474Y-117616682D01*
X118040690Y-117608609D01*
X118027769Y-117604815D01*
X118013269Y-117588081D01*
X117995541Y-117574810D01*
X117990833Y-117562189D01*
X117982014Y-117552011D01*
X117978862Y-117530093D01*
X117971124Y-117509346D01*
X117973986Y-117496185D01*
X117972070Y-117482853D01*
X117981269Y-117462709D01*
X117985976Y-117441073D01*
X117999244Y-117423347D01*
X118001095Y-117419297D01*
X118007127Y-117412819D01*
X118008127Y-117411819D01*
X118069450Y-117378334D01*
X118095808Y-117375500D01*
X141549434Y-117375500D01*
X141549436Y-117375500D01*
X141595684Y-117363107D01*
X141605458Y-117360489D01*
X141618617Y-117356962D01*
X141644938Y-117349910D01*
X141730562Y-117300475D01*
X141800475Y-117230562D01*
X147800474Y-111230563D01*
X147800475Y-111230562D01*
X147849910Y-111144938D01*
X147857953Y-111114919D01*
X147868941Y-111073917D01*
X147875499Y-111049439D01*
X147875500Y-111049434D01*
X147875500Y-105292771D01*
X147895185Y-105225732D01*
X147911814Y-105205095D01*
X152756994Y-100359914D01*
X152818315Y-100326431D01*
X152882989Y-100329665D01*
X153025578Y-100375996D01*
X153196668Y-100403094D01*
X153196669Y-100403094D01*
X153369889Y-100403094D01*
X153369890Y-100403094D01*
X153540980Y-100375996D01*
X153705724Y-100322467D01*
X153860067Y-100243826D01*
X154000207Y-100142008D01*
X154122693Y-100019522D01*
X154224511Y-99879382D01*
X154303152Y-99725039D01*
X154356681Y-99560295D01*
X154364627Y-99510130D01*
X154383779Y-99389204D01*
X154383779Y-99215983D01*
X154378294Y-99181350D01*
X154356681Y-99044893D01*
X154303152Y-98880149D01*
X154224511Y-98725806D01*
X154122693Y-98585666D01*
X154000207Y-98463180D01*
X153910057Y-98397682D01*
X159700000Y-98397682D01*
X159700000Y-98602317D01*
X159732009Y-98804417D01*
X159795244Y-98999031D01*
X159888141Y-99181350D01*
X159888147Y-99181359D01*
X159920523Y-99225921D01*
X159920524Y-99225922D01*
X160600000Y-98546446D01*
X160600000Y-98552661D01*
X160627259Y-98654394D01*
X160679920Y-98745606D01*
X160754394Y-98820080D01*
X160845606Y-98872741D01*
X160947339Y-98900000D01*
X160953553Y-98900000D01*
X160274076Y-99579474D01*
X160318650Y-99611859D01*
X160500968Y-99704755D01*
X160695582Y-99767990D01*
X160897683Y-99800000D01*
X161102317Y-99800000D01*
X161304417Y-99767990D01*
X161499031Y-99704755D01*
X161681349Y-99611859D01*
X161725921Y-99579474D01*
X161046447Y-98900000D01*
X161052661Y-98900000D01*
X161154394Y-98872741D01*
X161245606Y-98820080D01*
X161320080Y-98745606D01*
X161372741Y-98654394D01*
X161400000Y-98552661D01*
X161400000Y-98546447D01*
X162079474Y-99225921D01*
X162111859Y-99181349D01*
X162204755Y-98999031D01*
X162267990Y-98804417D01*
X162300000Y-98602317D01*
X162300000Y-98397690D01*
X162299998Y-98397674D01*
X162299817Y-98396530D01*
X167569500Y-98396530D01*
X167569500Y-98603469D01*
X167609868Y-98806412D01*
X167609870Y-98806420D01*
X167689059Y-98997598D01*
X167720660Y-99044893D01*
X167804024Y-99169657D01*
X167950342Y-99315975D01*
X167950345Y-99315977D01*
X168122402Y-99430941D01*
X168313580Y-99510130D01*
X168516530Y-99550499D01*
X168516534Y-99550500D01*
X168516535Y-99550500D01*
X168723466Y-99550500D01*
X168723467Y-99550499D01*
X168926420Y-99510130D01*
X169117598Y-99430941D01*
X169289655Y-99315977D01*
X169435977Y-99169655D01*
X169550941Y-98997598D01*
X169630130Y-98806420D01*
X169670500Y-98603465D01*
X169670500Y-98396535D01*
X169670499Y-98396530D01*
X175829500Y-98396530D01*
X175829500Y-98603469D01*
X175869868Y-98806412D01*
X175869870Y-98806420D01*
X175949059Y-98997598D01*
X175980660Y-99044893D01*
X176064024Y-99169657D01*
X176210342Y-99315975D01*
X176210345Y-99315977D01*
X176382402Y-99430941D01*
X176573580Y-99510130D01*
X176776530Y-99550499D01*
X176776534Y-99550500D01*
X176776535Y-99550500D01*
X176983466Y-99550500D01*
X176983467Y-99550499D01*
X177186420Y-99510130D01*
X177377598Y-99430941D01*
X177549655Y-99315977D01*
X177695977Y-99169655D01*
X177810941Y-98997598D01*
X177890130Y-98806420D01*
X177930500Y-98603465D01*
X177930500Y-98397682D01*
X183200000Y-98397682D01*
X183200000Y-98602317D01*
X183232009Y-98804417D01*
X183295244Y-98999031D01*
X183388141Y-99181350D01*
X183388147Y-99181359D01*
X183420523Y-99225921D01*
X183420524Y-99225922D01*
X184100000Y-98546446D01*
X184100000Y-98552661D01*
X184127259Y-98654394D01*
X184179920Y-98745606D01*
X184254394Y-98820080D01*
X184345606Y-98872741D01*
X184447339Y-98900000D01*
X184453553Y-98900000D01*
X183774076Y-99579474D01*
X183818650Y-99611859D01*
X184000968Y-99704755D01*
X184195582Y-99767990D01*
X184397683Y-99800000D01*
X184602317Y-99800000D01*
X184804417Y-99767990D01*
X184999031Y-99704755D01*
X185181349Y-99611859D01*
X185225922Y-99579474D01*
X184546447Y-98900000D01*
X184552661Y-98900000D01*
X184654394Y-98872741D01*
X184745606Y-98820080D01*
X184820080Y-98745606D01*
X184872741Y-98654394D01*
X184900000Y-98552661D01*
X184900000Y-98546448D01*
X185579474Y-99225922D01*
X185579474Y-99225921D01*
X185611859Y-99181349D01*
X185704755Y-98999031D01*
X185767990Y-98804417D01*
X185800000Y-98602317D01*
X185800000Y-98397682D01*
X185767990Y-98195582D01*
X185704755Y-98000968D01*
X185611859Y-97818650D01*
X185579474Y-97774077D01*
X185579474Y-97774076D01*
X184900000Y-98453551D01*
X184900000Y-98447339D01*
X184872741Y-98345606D01*
X184820080Y-98254394D01*
X184745606Y-98179920D01*
X184654394Y-98127259D01*
X184552661Y-98100000D01*
X184546446Y-98100000D01*
X185225922Y-97420524D01*
X185225921Y-97420523D01*
X185181359Y-97388147D01*
X185181350Y-97388141D01*
X184999031Y-97295244D01*
X184804417Y-97232009D01*
X184602317Y-97200000D01*
X184397683Y-97200000D01*
X184195582Y-97232009D01*
X184000968Y-97295244D01*
X183818644Y-97388143D01*
X183774077Y-97420523D01*
X183774077Y-97420524D01*
X184453554Y-98100000D01*
X184447339Y-98100000D01*
X184345606Y-98127259D01*
X184254394Y-98179920D01*
X184179920Y-98254394D01*
X184127259Y-98345606D01*
X184100000Y-98447339D01*
X184100000Y-98453553D01*
X183420524Y-97774077D01*
X183420523Y-97774077D01*
X183388143Y-97818644D01*
X183295244Y-98000968D01*
X183232009Y-98195582D01*
X183200000Y-98397682D01*
X177930500Y-98397682D01*
X177930500Y-98396535D01*
X177890130Y-98193580D01*
X177810941Y-98002402D01*
X177695977Y-97830345D01*
X177695975Y-97830342D01*
X177549657Y-97684024D01*
X177426910Y-97602008D01*
X177377598Y-97569059D01*
X177277121Y-97527440D01*
X177186420Y-97489870D01*
X177186412Y-97489868D01*
X176983469Y-97449500D01*
X176983465Y-97449500D01*
X176776535Y-97449500D01*
X176776530Y-97449500D01*
X176573587Y-97489868D01*
X176573579Y-97489870D01*
X176382403Y-97569058D01*
X176210342Y-97684024D01*
X176064024Y-97830342D01*
X175949058Y-98002403D01*
X175869870Y-98193579D01*
X175869868Y-98193587D01*
X175829500Y-98396530D01*
X169670499Y-98396530D01*
X169630130Y-98193580D01*
X169550941Y-98002402D01*
X169435977Y-97830345D01*
X169435975Y-97830342D01*
X169289657Y-97684024D01*
X169166910Y-97602008D01*
X169117598Y-97569059D01*
X169017121Y-97527440D01*
X168926420Y-97489870D01*
X168926412Y-97489868D01*
X168723469Y-97449500D01*
X168723465Y-97449500D01*
X168516535Y-97449500D01*
X168516530Y-97449500D01*
X168313587Y-97489868D01*
X168313579Y-97489870D01*
X168122403Y-97569058D01*
X167950342Y-97684024D01*
X167804024Y-97830342D01*
X167689058Y-98002403D01*
X167609870Y-98193579D01*
X167609868Y-98193587D01*
X167569500Y-98396530D01*
X162299817Y-98396530D01*
X162267990Y-98195582D01*
X162204755Y-98000968D01*
X162111859Y-97818650D01*
X162079474Y-97774077D01*
X162079474Y-97774076D01*
X161400000Y-98453551D01*
X161400000Y-98447339D01*
X161372741Y-98345606D01*
X161320080Y-98254394D01*
X161245606Y-98179920D01*
X161154394Y-98127259D01*
X161052661Y-98100000D01*
X161046446Y-98100000D01*
X161725922Y-97420524D01*
X161725921Y-97420523D01*
X161681359Y-97388147D01*
X161681350Y-97388141D01*
X161499031Y-97295244D01*
X161304417Y-97232009D01*
X161102317Y-97200000D01*
X160897683Y-97200000D01*
X160695582Y-97232009D01*
X160500968Y-97295244D01*
X160318644Y-97388143D01*
X160274077Y-97420523D01*
X160274077Y-97420524D01*
X160953554Y-98100000D01*
X160947339Y-98100000D01*
X160845606Y-98127259D01*
X160754394Y-98179920D01*
X160679920Y-98254394D01*
X160627259Y-98345606D01*
X160600000Y-98447339D01*
X160600000Y-98453553D01*
X159920524Y-97774077D01*
X159920523Y-97774077D01*
X159888143Y-97818644D01*
X159795244Y-98000968D01*
X159732009Y-98195582D01*
X159700000Y-98397682D01*
X153910057Y-98397682D01*
X153860067Y-98361362D01*
X153705724Y-98282721D01*
X153540980Y-98229192D01*
X153540978Y-98229191D01*
X153540977Y-98229191D01*
X153409550Y-98208375D01*
X153369890Y-98202094D01*
X153196668Y-98202094D01*
X153157007Y-98208375D01*
X153025581Y-98229191D01*
X152860831Y-98282722D01*
X152706490Y-98361362D01*
X152656512Y-98397674D01*
X152566351Y-98463180D01*
X152566349Y-98463182D01*
X152566348Y-98463182D01*
X152443867Y-98585663D01*
X152443867Y-98585664D01*
X152443865Y-98585666D01*
X152400138Y-98645850D01*
X152342047Y-98725805D01*
X152263407Y-98880146D01*
X152209876Y-99044896D01*
X152182779Y-99215983D01*
X152182779Y-99389204D01*
X152208325Y-99550500D01*
X152209877Y-99560295D01*
X152243247Y-99662997D01*
X152256206Y-99702879D01*
X152258201Y-99772720D01*
X152225956Y-99828878D01*
X147269438Y-104785398D01*
X147199526Y-104855309D01*
X147150091Y-104940932D01*
X147150091Y-104940933D01*
X147150090Y-104940935D01*
X147124500Y-105036438D01*
X147124500Y-105036440D01*
X147124500Y-110793101D01*
X147104815Y-110860140D01*
X147088181Y-110880782D01*
X141380782Y-116588181D01*
X141319459Y-116621666D01*
X141293101Y-116624500D01*
X118095808Y-116624500D01*
X118028769Y-116604815D01*
X118008127Y-116588181D01*
X117914672Y-116494726D01*
X117914668Y-116494723D01*
X117808133Y-116423538D01*
X117808124Y-116423533D01*
X117689744Y-116374499D01*
X117689738Y-116374497D01*
X117564071Y-116349500D01*
X117564069Y-116349500D01*
X117435931Y-116349500D01*
X117435929Y-116349500D01*
X117310261Y-116374497D01*
X117310255Y-116374499D01*
X117191875Y-116423533D01*
X117191866Y-116423538D01*
X117085331Y-116494723D01*
X117085327Y-116494726D01*
X116994726Y-116585327D01*
X116994723Y-116585331D01*
X116923538Y-116691866D01*
X116923533Y-116691875D01*
X116874499Y-116810255D01*
X116874497Y-116810261D01*
X116849500Y-116935928D01*
X116849500Y-116935931D01*
X116849500Y-117064069D01*
X116849500Y-117064071D01*
X116849499Y-117064071D01*
X116874497Y-117189738D01*
X116874499Y-117189744D01*
X116923533Y-117308124D01*
X116923538Y-117308133D01*
X116994723Y-117414668D01*
X116998589Y-117419379D01*
X116997115Y-117420588D01*
X117026358Y-117474142D01*
X117021374Y-117543834D01*
X116979502Y-117599767D01*
X116914038Y-117624184D01*
X116905192Y-117624500D01*
X53206900Y-117624500D01*
X53139861Y-117604815D01*
X53119219Y-117588181D01*
X46538709Y-111007671D01*
X31831031Y-96299994D01*
X31816772Y-96285735D01*
X31816771Y-96285734D01*
X31731147Y-96236299D01*
X31683395Y-96223504D01*
X31671308Y-96220265D01*
X31671304Y-96220263D01*
X31635645Y-96210709D01*
X31635644Y-96210709D01*
X31244780Y-96210709D01*
X31177741Y-96191024D01*
X31134295Y-96143003D01*
X31066233Y-96009422D01*
X31003575Y-95923182D01*
X30964414Y-95869281D01*
X30841928Y-95746795D01*
X30701788Y-95644977D01*
X30547445Y-95566336D01*
X30382701Y-95512807D01*
X30382699Y-95512806D01*
X30382698Y-95512806D01*
X30251271Y-95491990D01*
X30211611Y-95485709D01*
X29788389Y-95485709D01*
X29748728Y-95491990D01*
X29617302Y-95512806D01*
X29452552Y-95566337D01*
X29298211Y-95644977D01*
X29237357Y-95689191D01*
X29158072Y-95746795D01*
X29158070Y-95746797D01*
X29158069Y-95746797D01*
X29035588Y-95869278D01*
X29035588Y-95869279D01*
X29035586Y-95869281D01*
X28996426Y-95923180D01*
X28933768Y-96009420D01*
X28855128Y-96163761D01*
X28801597Y-96328511D01*
X28799754Y-96340149D01*
X28774500Y-96499598D01*
X23875500Y-96499598D01*
X23875500Y-90936222D01*
X28525000Y-90936222D01*
X28525000Y-91336209D01*
X29595854Y-91336209D01*
X29557370Y-91402866D01*
X29525000Y-91523674D01*
X29525000Y-91648744D01*
X29557370Y-91769552D01*
X29595854Y-91836209D01*
X28525001Y-91836209D01*
X28525001Y-92236195D01*
X28535494Y-92338906D01*
X28590641Y-92505328D01*
X28590643Y-92505333D01*
X28682684Y-92654554D01*
X28806654Y-92778524D01*
X28955875Y-92870565D01*
X28955880Y-92870567D01*
X29122302Y-92925714D01*
X29122310Y-92925715D01*
X29218347Y-92935527D01*
X29283039Y-92961923D01*
X29323191Y-93019104D01*
X29326054Y-93088915D01*
X29290720Y-93149191D01*
X29278631Y-93159203D01*
X29158070Y-93246796D01*
X29035588Y-93369278D01*
X29035588Y-93369279D01*
X29035586Y-93369281D01*
X29014946Y-93397690D01*
X28933768Y-93509420D01*
X28855128Y-93663761D01*
X28801597Y-93828511D01*
X28779997Y-93964893D01*
X28774500Y-93999598D01*
X28774500Y-94172820D01*
X28777109Y-94189294D01*
X28797173Y-94315975D01*
X28801598Y-94343910D01*
X28855127Y-94508654D01*
X28933768Y-94662997D01*
X29035586Y-94803137D01*
X29158072Y-94925623D01*
X29298212Y-95027441D01*
X29452555Y-95106082D01*
X29617299Y-95159611D01*
X29788389Y-95186709D01*
X29788390Y-95186709D01*
X30211610Y-95186709D01*
X30211611Y-95186709D01*
X30382701Y-95159611D01*
X30547445Y-95106082D01*
X30701788Y-95027441D01*
X30841928Y-94925623D01*
X30964414Y-94803137D01*
X31066232Y-94662997D01*
X31144873Y-94508654D01*
X31198402Y-94343910D01*
X31225500Y-94172820D01*
X31225500Y-93999598D01*
X31198402Y-93828508D01*
X31144873Y-93663764D01*
X31066232Y-93509421D01*
X30964414Y-93369281D01*
X30841928Y-93246795D01*
X30721367Y-93159202D01*
X30678702Y-93103872D01*
X30672723Y-93034258D01*
X30705329Y-92972463D01*
X30766168Y-92938106D01*
X30781652Y-92935526D01*
X30877696Y-92925714D01*
X31044119Y-92870567D01*
X31044124Y-92870565D01*
X31193345Y-92778524D01*
X31317315Y-92654554D01*
X31409356Y-92505333D01*
X31409358Y-92505328D01*
X31464505Y-92338906D01*
X31464506Y-92338899D01*
X31474999Y-92236195D01*
X31475000Y-92236182D01*
X31475000Y-91836209D01*
X30404146Y-91836209D01*
X30442630Y-91769552D01*
X30475000Y-91648744D01*
X30475000Y-91523674D01*
X30464238Y-91483511D01*
X32647772Y-91483511D01*
X32647772Y-91688146D01*
X32679781Y-91890246D01*
X32743016Y-92084860D01*
X32835913Y-92267179D01*
X32835919Y-92267188D01*
X32868295Y-92311750D01*
X32868296Y-92311751D01*
X33547772Y-91632275D01*
X33547772Y-91638490D01*
X33575031Y-91740223D01*
X33627692Y-91831435D01*
X33702166Y-91905909D01*
X33793378Y-91958570D01*
X33895111Y-91985829D01*
X33901325Y-91985829D01*
X33221848Y-92665303D01*
X33266422Y-92697688D01*
X33448740Y-92790584D01*
X33622756Y-92847126D01*
X33680431Y-92886564D01*
X33707629Y-92950923D01*
X33695714Y-93019769D01*
X33648470Y-93071245D01*
X33631890Y-93079618D01*
X33450175Y-93154886D01*
X33278114Y-93269853D01*
X33131796Y-93416171D01*
X33016830Y-93588232D01*
X32937642Y-93779408D01*
X32937640Y-93779416D01*
X32897272Y-93982359D01*
X32897272Y-94189298D01*
X32937640Y-94392241D01*
X32937642Y-94392249D01*
X33016830Y-94583425D01*
X33131796Y-94755486D01*
X33278114Y-94901804D01*
X33278117Y-94901806D01*
X33450174Y-95016770D01*
X33641352Y-95095959D01*
X33844302Y-95136328D01*
X33844306Y-95136329D01*
X33844307Y-95136329D01*
X34051238Y-95136329D01*
X34051239Y-95136328D01*
X34254192Y-95095959D01*
X34445370Y-95016770D01*
X34617427Y-94901806D01*
X34763749Y-94755484D01*
X34878713Y-94583427D01*
X34957902Y-94392249D01*
X34998272Y-94189294D01*
X34998272Y-93982364D01*
X34957902Y-93779409D01*
X34878713Y-93588231D01*
X34763749Y-93416174D01*
X34763747Y-93416171D01*
X34617429Y-93269853D01*
X34445368Y-93154886D01*
X34263653Y-93079618D01*
X34209250Y-93035777D01*
X34187185Y-92969483D01*
X34204464Y-92901783D01*
X34255602Y-92854173D01*
X34272787Y-92847126D01*
X34446803Y-92790583D01*
X34629121Y-92697688D01*
X34673693Y-92665303D01*
X33994219Y-91985829D01*
X34000433Y-91985829D01*
X34102166Y-91958570D01*
X34193378Y-91905909D01*
X34267852Y-91831435D01*
X34320513Y-91740223D01*
X34347772Y-91638490D01*
X34347772Y-91632276D01*
X35027246Y-92311750D01*
X35059631Y-92267178D01*
X35152527Y-92084860D01*
X35215762Y-91890246D01*
X35247772Y-91688146D01*
X35247772Y-91483511D01*
X35215762Y-91281411D01*
X35152527Y-91086797D01*
X35059631Y-90904479D01*
X35027246Y-90859906D01*
X35027246Y-90859905D01*
X34347772Y-91539380D01*
X34347772Y-91533168D01*
X34320513Y-91431435D01*
X34267852Y-91340223D01*
X34193378Y-91265749D01*
X34102166Y-91213088D01*
X34000433Y-91185829D01*
X33994218Y-91185829D01*
X34673694Y-90506353D01*
X34673693Y-90506352D01*
X34629131Y-90473976D01*
X34629122Y-90473970D01*
X34446803Y-90381073D01*
X34252189Y-90317838D01*
X34050089Y-90285829D01*
X33845455Y-90285829D01*
X33643354Y-90317838D01*
X33448740Y-90381073D01*
X33266416Y-90473972D01*
X33221849Y-90506352D01*
X33221849Y-90506353D01*
X33901326Y-91185829D01*
X33895111Y-91185829D01*
X33793378Y-91213088D01*
X33702166Y-91265749D01*
X33627692Y-91340223D01*
X33575031Y-91431435D01*
X33547772Y-91533168D01*
X33547772Y-91539382D01*
X32868296Y-90859906D01*
X32868295Y-90859906D01*
X32835915Y-90904473D01*
X32743016Y-91086797D01*
X32679781Y-91281411D01*
X32647772Y-91483511D01*
X30464238Y-91483511D01*
X30442630Y-91402866D01*
X30404146Y-91336209D01*
X31474999Y-91336209D01*
X31474999Y-90936237D01*
X31474998Y-90936222D01*
X31464505Y-90833511D01*
X31409358Y-90667089D01*
X31409354Y-90667080D01*
X31379518Y-90618708D01*
X31379517Y-90618706D01*
X31317319Y-90517868D01*
X31317316Y-90517864D01*
X31193345Y-90393893D01*
X31044124Y-90301852D01*
X31044119Y-90301850D01*
X30877697Y-90246703D01*
X30877690Y-90246702D01*
X30774986Y-90236209D01*
X30250000Y-90236209D01*
X30250000Y-91182063D01*
X30183343Y-91143579D01*
X30062535Y-91111209D01*
X29937465Y-91111209D01*
X29816657Y-91143579D01*
X29750000Y-91182063D01*
X29750000Y-90236209D01*
X29225028Y-90236209D01*
X29225012Y-90236210D01*
X29122302Y-90246703D01*
X28955880Y-90301850D01*
X28955875Y-90301852D01*
X28806654Y-90393893D01*
X28682684Y-90517863D01*
X28590643Y-90667084D01*
X28590641Y-90667089D01*
X28535494Y-90833511D01*
X28535493Y-90833518D01*
X28525000Y-90936222D01*
X23875500Y-90936222D01*
X23875500Y-87206899D01*
X23895185Y-87139860D01*
X23911819Y-87119218D01*
X24619218Y-86411819D01*
X24680541Y-86378334D01*
X24706899Y-86375500D01*
X38793101Y-86375500D01*
X38860140Y-86395185D01*
X38880782Y-86411819D01*
X39088181Y-86619218D01*
X39121666Y-86680541D01*
X39124500Y-86706899D01*
X39124500Y-93549438D01*
X39128420Y-93564068D01*
X39128421Y-93564068D01*
X39128421Y-93564069D01*
X39150090Y-93644938D01*
X39150091Y-93644940D01*
X39150092Y-93644943D01*
X39160959Y-93663764D01*
X39175959Y-93689744D01*
X39199526Y-93730563D01*
X51769438Y-106300475D01*
X51855063Y-106349911D01*
X51950564Y-106375500D01*
X51950565Y-106375500D01*
X56450565Y-106375500D01*
X124213786Y-106375500D01*
X124280825Y-106395185D01*
X124301467Y-106411819D01*
X126825956Y-108936308D01*
X126859441Y-108997631D01*
X126856206Y-109062307D01*
X126809876Y-109204895D01*
X126782779Y-109375983D01*
X126782779Y-109549204D01*
X126807415Y-109704755D01*
X126809877Y-109720295D01*
X126863406Y-109885039D01*
X126942047Y-110039382D01*
X127043865Y-110179522D01*
X127166351Y-110302008D01*
X127306491Y-110403826D01*
X127460834Y-110482467D01*
X127463987Y-110483491D01*
X127465031Y-110484205D01*
X127465327Y-110484328D01*
X127465301Y-110484389D01*
X127521662Y-110522924D01*
X127548864Y-110587282D01*
X127536953Y-110656129D01*
X127489712Y-110707607D01*
X127463991Y-110719354D01*
X127365062Y-110751498D01*
X127175718Y-110847974D01*
X127121561Y-110887321D01*
X127121561Y-110887322D01*
X127753870Y-111519631D01*
X127690286Y-111536669D01*
X127576272Y-111602495D01*
X127483180Y-111695587D01*
X127417354Y-111809601D01*
X127400316Y-111873185D01*
X126768007Y-111240876D01*
X126768006Y-111240876D01*
X126728659Y-111295033D01*
X126632183Y-111484376D01*
X126566521Y-111686463D01*
X126566521Y-111686466D01*
X126533279Y-111896347D01*
X126533279Y-112108840D01*
X126566521Y-112318721D01*
X126566521Y-112318724D01*
X126632183Y-112520811D01*
X126728654Y-112710144D01*
X126768007Y-112764310D01*
X127400316Y-112132002D01*
X127417354Y-112195587D01*
X127483180Y-112309601D01*
X127576272Y-112402693D01*
X127690286Y-112468519D01*
X127753869Y-112485556D01*
X127121561Y-113117863D01*
X127121561Y-113117864D01*
X127175728Y-113157218D01*
X127365063Y-113253690D01*
X127463990Y-113285833D01*
X127521666Y-113325270D01*
X127548865Y-113389628D01*
X127536951Y-113458475D01*
X127489707Y-113509951D01*
X127464001Y-113521691D01*
X127462801Y-113522081D01*
X127460829Y-113522722D01*
X127306490Y-113601362D01*
X127226535Y-113659453D01*
X127166351Y-113703180D01*
X127166349Y-113703182D01*
X127166348Y-113703182D01*
X127043867Y-113825663D01*
X127043867Y-113825664D01*
X127043865Y-113825666D01*
X127018319Y-113860826D01*
X126942049Y-113965801D01*
X126942044Y-113965810D01*
X126937672Y-113974392D01*
X126889697Y-114025186D01*
X126827189Y-114042094D01*
X117801270Y-114042094D01*
X117734231Y-114022409D01*
X117713589Y-114005775D01*
X114786819Y-111079005D01*
X114753334Y-111017682D01*
X114750500Y-110991324D01*
X114750500Y-110926079D01*
X114721659Y-110781092D01*
X114721658Y-110781091D01*
X114721658Y-110781087D01*
X114709402Y-110751498D01*
X114665087Y-110644511D01*
X114665080Y-110644498D01*
X114582951Y-110521584D01*
X114582948Y-110521580D01*
X114478419Y-110417051D01*
X114478415Y-110417048D01*
X114355501Y-110334919D01*
X114355488Y-110334912D01*
X114218917Y-110278343D01*
X114218907Y-110278340D01*
X114073920Y-110249500D01*
X114073918Y-110249500D01*
X113926082Y-110249500D01*
X113926080Y-110249500D01*
X113781092Y-110278340D01*
X113781082Y-110278343D01*
X113644511Y-110334912D01*
X113644498Y-110334919D01*
X113521584Y-110417048D01*
X113521580Y-110417051D01*
X113417051Y-110521580D01*
X113417048Y-110521584D01*
X113334919Y-110644498D01*
X113334912Y-110644511D01*
X113278343Y-110781082D01*
X113278340Y-110781092D01*
X113249500Y-110926079D01*
X113249500Y-111073917D01*
X113249499Y-111073920D01*
X113278340Y-111218907D01*
X113278343Y-111218917D01*
X113334912Y-111355488D01*
X113334919Y-111355501D01*
X113417048Y-111478415D01*
X113417051Y-111478419D01*
X113521580Y-111582948D01*
X113521584Y-111582951D01*
X113644498Y-111665080D01*
X113644511Y-111665087D01*
X113781082Y-111721656D01*
X113781087Y-111721658D01*
X113781091Y-111721658D01*
X113781092Y-111721659D01*
X113926079Y-111750500D01*
X113926082Y-111750500D01*
X113991324Y-111750500D01*
X114058363Y-111770185D01*
X114079005Y-111786819D01*
X117099500Y-114807314D01*
X117142094Y-114849908D01*
X117235280Y-114943094D01*
X117349408Y-115008986D01*
X117476702Y-115043094D01*
X126827189Y-115043094D01*
X126894228Y-115062779D01*
X126937672Y-115110796D01*
X126942044Y-115119377D01*
X126942049Y-115119386D01*
X126984379Y-115177647D01*
X127043865Y-115259522D01*
X127166351Y-115382008D01*
X127306491Y-115483826D01*
X127460834Y-115562467D01*
X127625578Y-115615996D01*
X127796668Y-115643094D01*
X127796669Y-115643094D01*
X127969889Y-115643094D01*
X127969890Y-115643094D01*
X128140980Y-115615996D01*
X128305724Y-115562467D01*
X128460067Y-115483826D01*
X128600207Y-115382008D01*
X128722693Y-115259522D01*
X128824511Y-115119382D01*
X128903152Y-114965039D01*
X128956681Y-114800295D01*
X128983779Y-114629205D01*
X128983779Y-114455983D01*
X128956681Y-114284893D01*
X128903152Y-114120149D01*
X128824511Y-113965806D01*
X128722693Y-113825666D01*
X128600207Y-113703180D01*
X128460067Y-113601362D01*
X128305725Y-113522721D01*
X128302563Y-113521694D01*
X128301515Y-113520977D01*
X128301231Y-113520860D01*
X128301255Y-113520800D01*
X128244888Y-113482255D01*
X128217692Y-113417896D01*
X128229608Y-113349050D01*
X128276853Y-113297575D01*
X128302567Y-113285833D01*
X128401494Y-113253690D01*
X128590833Y-113157216D01*
X128644995Y-113117864D01*
X128644996Y-113117864D01*
X128012687Y-112485556D01*
X128076272Y-112468519D01*
X128190286Y-112402693D01*
X128283378Y-112309601D01*
X128349204Y-112195587D01*
X128366241Y-112132002D01*
X128998549Y-112764311D01*
X128998549Y-112764310D01*
X129037901Y-112710148D01*
X129134374Y-112520811D01*
X129200036Y-112318724D01*
X129200036Y-112318721D01*
X129233279Y-112108840D01*
X129233279Y-111896347D01*
X129200036Y-111686466D01*
X129200036Y-111686463D01*
X129134374Y-111484376D01*
X129037903Y-111295043D01*
X128998549Y-111240876D01*
X128998548Y-111240876D01*
X128366241Y-111873184D01*
X128349204Y-111809601D01*
X128283378Y-111695587D01*
X128190286Y-111602495D01*
X128076272Y-111536669D01*
X128012688Y-111519631D01*
X128644995Y-110887322D01*
X128590829Y-110847969D01*
X128401496Y-110751498D01*
X128302566Y-110719354D01*
X128244890Y-110679917D01*
X128217692Y-110615558D01*
X128229607Y-110546712D01*
X128276851Y-110495236D01*
X128302569Y-110483491D01*
X128305724Y-110482467D01*
X128460067Y-110403826D01*
X128600207Y-110302008D01*
X128722693Y-110179522D01*
X128824511Y-110039382D01*
X128903152Y-109885039D01*
X128956681Y-109720295D01*
X128983779Y-109549205D01*
X128983779Y-109375983D01*
X128956681Y-109204893D01*
X128903152Y-109040149D01*
X128824511Y-108885806D01*
X128722693Y-108745666D01*
X128600207Y-108623180D01*
X128460067Y-108521362D01*
X128305724Y-108442721D01*
X128140980Y-108389192D01*
X128140978Y-108389191D01*
X128140977Y-108389191D01*
X128009550Y-108368375D01*
X127969890Y-108362094D01*
X127796668Y-108362094D01*
X127764471Y-108367193D01*
X127625580Y-108389191D01*
X127482992Y-108435521D01*
X127413151Y-108437516D01*
X127356993Y-108405271D01*
X125787705Y-106835983D01*
X126782779Y-106835983D01*
X126782779Y-107009205D01*
X126809877Y-107180295D01*
X126863406Y-107345039D01*
X126942047Y-107499382D01*
X127043865Y-107639522D01*
X127166351Y-107762008D01*
X127306491Y-107863826D01*
X127460834Y-107942467D01*
X127625578Y-107995996D01*
X127796668Y-108023094D01*
X127796669Y-108023094D01*
X127969889Y-108023094D01*
X127969890Y-108023094D01*
X128140980Y-107995996D01*
X128305724Y-107942467D01*
X128460067Y-107863826D01*
X128600207Y-107762008D01*
X128722693Y-107639522D01*
X128824511Y-107499382D01*
X128903152Y-107345039D01*
X128956681Y-107180295D01*
X128983779Y-107009205D01*
X128983779Y-106835983D01*
X128956681Y-106664893D01*
X128903152Y-106500149D01*
X128824511Y-106345806D01*
X128722693Y-106205666D01*
X128600207Y-106083180D01*
X128460067Y-105981362D01*
X128305724Y-105902721D01*
X128140980Y-105849192D01*
X128140978Y-105849191D01*
X128140977Y-105849191D01*
X128009550Y-105828375D01*
X127969890Y-105822094D01*
X127796668Y-105822094D01*
X127757007Y-105828375D01*
X127625581Y-105849191D01*
X127625578Y-105849192D01*
X127483640Y-105895311D01*
X127460831Y-105902722D01*
X127306490Y-105981362D01*
X127226535Y-106039453D01*
X127166351Y-106083180D01*
X127166349Y-106083182D01*
X127166348Y-106083182D01*
X127043867Y-106205663D01*
X127043867Y-106205664D01*
X127043865Y-106205666D01*
X127015222Y-106245090D01*
X126942047Y-106345805D01*
X126863407Y-106500146D01*
X126809876Y-106664896D01*
X126782779Y-106835983D01*
X125787705Y-106835983D01*
X124651248Y-105699526D01*
X124651247Y-105699525D01*
X124565623Y-105650090D01*
X124517871Y-105637295D01*
X124517869Y-105637294D01*
X124517867Y-105637293D01*
X124470121Y-105624500D01*
X124470120Y-105624500D01*
X56549435Y-105624500D01*
X52206899Y-105624500D01*
X52139860Y-105604815D01*
X52119218Y-105588181D01*
X50827020Y-104295983D01*
X126782779Y-104295983D01*
X126782779Y-104469205D01*
X126809877Y-104640295D01*
X126863406Y-104805039D01*
X126942047Y-104959382D01*
X127043865Y-105099522D01*
X127166351Y-105222008D01*
X127306491Y-105323826D01*
X127460834Y-105402467D01*
X127625578Y-105455996D01*
X127796668Y-105483094D01*
X127796669Y-105483094D01*
X127969889Y-105483094D01*
X127969890Y-105483094D01*
X128140980Y-105455996D01*
X128305724Y-105402467D01*
X128460067Y-105323826D01*
X128600207Y-105222008D01*
X128722693Y-105099522D01*
X128824511Y-104959382D01*
X128903152Y-104805039D01*
X128956681Y-104640295D01*
X128983779Y-104469205D01*
X128983779Y-104295983D01*
X128956681Y-104124893D01*
X128903152Y-103960149D01*
X128824511Y-103805806D01*
X128722693Y-103665666D01*
X128600207Y-103543180D01*
X128460067Y-103441362D01*
X128305724Y-103362721D01*
X128140980Y-103309192D01*
X128140978Y-103309191D01*
X128140977Y-103309191D01*
X128009550Y-103288375D01*
X127969890Y-103282094D01*
X127796668Y-103282094D01*
X127757007Y-103288375D01*
X127625581Y-103309191D01*
X127460831Y-103362722D01*
X127306490Y-103441362D01*
X127235233Y-103493134D01*
X127166351Y-103543180D01*
X127166349Y-103543182D01*
X127166348Y-103543182D01*
X127043867Y-103665663D01*
X127043867Y-103665664D01*
X127043865Y-103665666D01*
X127000138Y-103725850D01*
X126942047Y-103805805D01*
X126863407Y-103960146D01*
X126809876Y-104124896D01*
X126782779Y-104295983D01*
X50827020Y-104295983D01*
X48287020Y-101755983D01*
X126782779Y-101755983D01*
X126782779Y-101929205D01*
X126809877Y-102100295D01*
X126863406Y-102265039D01*
X126942047Y-102419382D01*
X127043865Y-102559522D01*
X127166351Y-102682008D01*
X127306491Y-102783826D01*
X127460834Y-102862467D01*
X127625578Y-102915996D01*
X127796668Y-102943094D01*
X127796669Y-102943094D01*
X127969889Y-102943094D01*
X127969890Y-102943094D01*
X128140980Y-102915996D01*
X128305724Y-102862467D01*
X128460067Y-102783826D01*
X128600207Y-102682008D01*
X128722693Y-102559522D01*
X128824511Y-102419382D01*
X128903152Y-102265039D01*
X128956681Y-102100295D01*
X128983779Y-101929205D01*
X128983779Y-101755983D01*
X128956681Y-101584893D01*
X128903152Y-101420149D01*
X128824511Y-101265806D01*
X128722693Y-101125666D01*
X128600207Y-101003180D01*
X128460067Y-100901362D01*
X128305724Y-100822721D01*
X128140980Y-100769192D01*
X128140978Y-100769191D01*
X128140977Y-100769191D01*
X128009550Y-100748375D01*
X127969890Y-100742094D01*
X127796668Y-100742094D01*
X127757007Y-100748375D01*
X127625581Y-100769191D01*
X127460831Y-100822722D01*
X127306490Y-100901362D01*
X127226535Y-100959453D01*
X127166351Y-101003180D01*
X127166349Y-101003182D01*
X127166348Y-101003182D01*
X127043867Y-101125663D01*
X127043867Y-101125664D01*
X127043865Y-101125666D01*
X127000138Y-101185850D01*
X126942047Y-101265805D01*
X126863407Y-101420146D01*
X126809876Y-101584896D01*
X126782779Y-101755983D01*
X48287020Y-101755983D01*
X45747020Y-99215983D01*
X126782779Y-99215983D01*
X126782779Y-99389204D01*
X126808325Y-99550500D01*
X126809877Y-99560295D01*
X126863406Y-99725039D01*
X126942047Y-99879382D01*
X127043865Y-100019522D01*
X127166351Y-100142008D01*
X127306491Y-100243826D01*
X127460834Y-100322467D01*
X127625578Y-100375996D01*
X127796668Y-100403094D01*
X127796669Y-100403094D01*
X127969889Y-100403094D01*
X127969890Y-100403094D01*
X128140980Y-100375996D01*
X128305724Y-100322467D01*
X128460067Y-100243826D01*
X128600207Y-100142008D01*
X128722693Y-100019522D01*
X128824511Y-99879382D01*
X128903152Y-99725039D01*
X128956681Y-99560295D01*
X128983779Y-99389205D01*
X128983779Y-99215983D01*
X128956681Y-99044893D01*
X128903152Y-98880149D01*
X128824511Y-98725806D01*
X128722693Y-98585666D01*
X128600207Y-98463180D01*
X128460067Y-98361362D01*
X128305724Y-98282721D01*
X128140980Y-98229192D01*
X128140978Y-98229191D01*
X128140977Y-98229191D01*
X128009550Y-98208375D01*
X127969890Y-98202094D01*
X127796668Y-98202094D01*
X127757007Y-98208375D01*
X127625581Y-98229191D01*
X127460831Y-98282722D01*
X127306490Y-98361362D01*
X127256512Y-98397674D01*
X127166351Y-98463180D01*
X127166349Y-98463182D01*
X127166348Y-98463182D01*
X127043867Y-98585663D01*
X127043867Y-98585664D01*
X127043865Y-98585666D01*
X127000138Y-98645850D01*
X126942047Y-98725805D01*
X126863407Y-98880146D01*
X126809876Y-99044896D01*
X126782779Y-99215983D01*
X45747020Y-99215983D01*
X43207020Y-96675983D01*
X126782779Y-96675983D01*
X126782779Y-96849204D01*
X126808033Y-97008656D01*
X126809877Y-97020295D01*
X126863406Y-97185039D01*
X126942047Y-97339382D01*
X127043865Y-97479522D01*
X127166351Y-97602008D01*
X127306491Y-97703826D01*
X127460834Y-97782467D01*
X127625578Y-97835996D01*
X127796668Y-97863094D01*
X127796669Y-97863094D01*
X127969889Y-97863094D01*
X127969890Y-97863094D01*
X128140980Y-97835996D01*
X128305724Y-97782467D01*
X128460067Y-97703826D01*
X128600207Y-97602008D01*
X128722693Y-97479522D01*
X128824511Y-97339382D01*
X128903152Y-97185039D01*
X128956681Y-97020295D01*
X128983779Y-96849205D01*
X128983779Y-96675983D01*
X152182779Y-96675983D01*
X152182779Y-96849204D01*
X152208033Y-97008656D01*
X152209877Y-97020295D01*
X152263406Y-97185039D01*
X152342047Y-97339382D01*
X152443865Y-97479522D01*
X152566351Y-97602008D01*
X152706491Y-97703826D01*
X152860834Y-97782467D01*
X153025578Y-97835996D01*
X153196668Y-97863094D01*
X153196669Y-97863094D01*
X153369889Y-97863094D01*
X153369890Y-97863094D01*
X153540980Y-97835996D01*
X153705724Y-97782467D01*
X153860067Y-97703826D01*
X154000207Y-97602008D01*
X154122693Y-97479522D01*
X154224511Y-97339382D01*
X154303152Y-97185039D01*
X154356681Y-97020295D01*
X154383779Y-96849205D01*
X154383779Y-96675983D01*
X154356681Y-96504893D01*
X154303152Y-96340149D01*
X154224511Y-96185806D01*
X154122693Y-96045666D01*
X154000207Y-95923180D01*
X153860067Y-95821362D01*
X153705724Y-95742721D01*
X153540980Y-95689192D01*
X153540978Y-95689191D01*
X153540977Y-95689191D01*
X153409550Y-95668375D01*
X153369890Y-95662094D01*
X153196668Y-95662094D01*
X153157007Y-95668375D01*
X153025581Y-95689191D01*
X152860831Y-95742722D01*
X152706490Y-95821362D01*
X152640540Y-95869278D01*
X152566351Y-95923180D01*
X152566349Y-95923182D01*
X152566348Y-95923182D01*
X152443867Y-96045663D01*
X152443867Y-96045664D01*
X152443865Y-96045666D01*
X152400138Y-96105850D01*
X152342047Y-96185805D01*
X152263407Y-96340146D01*
X152209876Y-96504896D01*
X152182779Y-96675983D01*
X128983779Y-96675983D01*
X128956681Y-96504893D01*
X128903152Y-96340149D01*
X128824511Y-96185806D01*
X128722693Y-96045666D01*
X128600207Y-95923180D01*
X128460067Y-95821362D01*
X128305724Y-95742721D01*
X128140980Y-95689192D01*
X128140978Y-95689191D01*
X128140977Y-95689191D01*
X128009550Y-95668375D01*
X127969890Y-95662094D01*
X127796668Y-95662094D01*
X127757007Y-95668375D01*
X127625581Y-95689191D01*
X127460831Y-95742722D01*
X127306490Y-95821362D01*
X127240540Y-95869278D01*
X127166351Y-95923180D01*
X127166349Y-95923182D01*
X127166348Y-95923182D01*
X127043867Y-96045663D01*
X127043867Y-96045664D01*
X127043865Y-96045666D01*
X127000138Y-96105850D01*
X126942047Y-96185805D01*
X126863407Y-96340146D01*
X126809876Y-96504896D01*
X126782779Y-96675983D01*
X43207020Y-96675983D01*
X40667020Y-94135983D01*
X126782779Y-94135983D01*
X126782779Y-94309205D01*
X126809877Y-94480295D01*
X126863406Y-94645039D01*
X126942047Y-94799382D01*
X127043865Y-94939522D01*
X127166351Y-95062008D01*
X127306491Y-95163826D01*
X127460834Y-95242467D01*
X127625578Y-95295996D01*
X127796668Y-95323094D01*
X127796669Y-95323094D01*
X127969889Y-95323094D01*
X127969890Y-95323094D01*
X128140980Y-95295996D01*
X128305724Y-95242467D01*
X128460067Y-95163826D01*
X128600207Y-95062008D01*
X128722693Y-94939522D01*
X128824511Y-94799382D01*
X128903152Y-94645039D01*
X128956681Y-94480295D01*
X128983779Y-94309205D01*
X128983779Y-94135983D01*
X152182779Y-94135983D01*
X152182779Y-94309205D01*
X152209877Y-94480295D01*
X152263406Y-94645039D01*
X152342047Y-94799382D01*
X152443865Y-94939522D01*
X152566351Y-95062008D01*
X152706491Y-95163826D01*
X152860834Y-95242467D01*
X153025578Y-95295996D01*
X153196668Y-95323094D01*
X153196669Y-95323094D01*
X153369889Y-95323094D01*
X153369890Y-95323094D01*
X153540980Y-95295996D01*
X153705724Y-95242467D01*
X153860067Y-95163826D01*
X154000207Y-95062008D01*
X154122693Y-94939522D01*
X154224511Y-94799382D01*
X154303152Y-94645039D01*
X154356681Y-94480295D01*
X154383779Y-94309205D01*
X154383779Y-94135983D01*
X154356681Y-93964893D01*
X154303152Y-93800149D01*
X154224511Y-93645806D01*
X154122693Y-93505666D01*
X154014709Y-93397682D01*
X159700000Y-93397682D01*
X159700000Y-93602317D01*
X159732009Y-93804417D01*
X159795244Y-93999031D01*
X159888141Y-94181350D01*
X159888147Y-94181359D01*
X159920523Y-94225921D01*
X159920524Y-94225922D01*
X160600000Y-93546446D01*
X160600000Y-93552661D01*
X160627259Y-93654394D01*
X160679920Y-93745606D01*
X160754394Y-93820080D01*
X160845606Y-93872741D01*
X160947339Y-93900000D01*
X160953553Y-93900000D01*
X160274076Y-94579474D01*
X160318650Y-94611859D01*
X160500968Y-94704755D01*
X160695582Y-94767990D01*
X160897683Y-94800000D01*
X161102317Y-94800000D01*
X161304417Y-94767990D01*
X161499031Y-94704755D01*
X161681349Y-94611859D01*
X161725922Y-94579474D01*
X161046447Y-93900000D01*
X161052661Y-93900000D01*
X161154394Y-93872741D01*
X161245606Y-93820080D01*
X161320080Y-93745606D01*
X161372741Y-93654394D01*
X161400000Y-93552661D01*
X161400000Y-93546447D01*
X162079474Y-94225921D01*
X162111859Y-94181349D01*
X162204755Y-93999031D01*
X162267990Y-93804417D01*
X162300000Y-93602317D01*
X162300000Y-93397690D01*
X162299998Y-93397674D01*
X162299817Y-93396530D01*
X167569500Y-93396530D01*
X167569500Y-93603469D01*
X167609868Y-93806412D01*
X167609870Y-93806420D01*
X167689059Y-93997598D01*
X167690397Y-93999600D01*
X167804024Y-94169657D01*
X167950342Y-94315975D01*
X167950345Y-94315977D01*
X168122402Y-94430941D01*
X168313580Y-94510130D01*
X168516530Y-94550499D01*
X168516534Y-94550500D01*
X168516535Y-94550500D01*
X168723466Y-94550500D01*
X168723467Y-94550499D01*
X168926420Y-94510130D01*
X169117598Y-94430941D01*
X169289655Y-94315977D01*
X169435977Y-94169655D01*
X169550941Y-93997598D01*
X169630130Y-93806420D01*
X169670500Y-93603465D01*
X169670500Y-93396535D01*
X169670499Y-93396530D01*
X175829500Y-93396530D01*
X175829500Y-93603469D01*
X175869868Y-93806412D01*
X175869870Y-93806420D01*
X175949059Y-93997598D01*
X175950397Y-93999600D01*
X176064024Y-94169657D01*
X176210342Y-94315975D01*
X176210345Y-94315977D01*
X176382402Y-94430941D01*
X176573580Y-94510130D01*
X176776530Y-94550499D01*
X176776534Y-94550500D01*
X176776535Y-94550500D01*
X176983466Y-94550500D01*
X176983467Y-94550499D01*
X177186420Y-94510130D01*
X177377598Y-94430941D01*
X177549655Y-94315977D01*
X177695977Y-94169655D01*
X177810941Y-93997598D01*
X177890130Y-93806420D01*
X177930500Y-93603465D01*
X177930500Y-93397682D01*
X183200000Y-93397682D01*
X183200000Y-93602317D01*
X183232009Y-93804417D01*
X183295244Y-93999031D01*
X183388141Y-94181350D01*
X183388147Y-94181359D01*
X183420523Y-94225921D01*
X183420524Y-94225922D01*
X184100000Y-93546446D01*
X184100000Y-93552661D01*
X184127259Y-93654394D01*
X184179920Y-93745606D01*
X184254394Y-93820080D01*
X184345606Y-93872741D01*
X184447339Y-93900000D01*
X184453553Y-93900000D01*
X183774076Y-94579474D01*
X183818650Y-94611859D01*
X184000968Y-94704755D01*
X184195582Y-94767990D01*
X184397683Y-94800000D01*
X184602317Y-94800000D01*
X184804417Y-94767990D01*
X184999031Y-94704755D01*
X185181349Y-94611859D01*
X185225922Y-94579474D01*
X184546447Y-93900000D01*
X184552661Y-93900000D01*
X184654394Y-93872741D01*
X184745606Y-93820080D01*
X184820080Y-93745606D01*
X184872741Y-93654394D01*
X184900000Y-93552661D01*
X184900000Y-93546448D01*
X185579474Y-94225922D01*
X185579474Y-94225921D01*
X185611859Y-94181349D01*
X185704755Y-93999031D01*
X185767990Y-93804417D01*
X185800000Y-93602317D01*
X185800000Y-93397682D01*
X185767990Y-93195582D01*
X185704755Y-93000968D01*
X185611859Y-92818650D01*
X185579474Y-92774077D01*
X185579474Y-92774076D01*
X184900000Y-93453551D01*
X184900000Y-93447339D01*
X184872741Y-93345606D01*
X184820080Y-93254394D01*
X184745606Y-93179920D01*
X184654394Y-93127259D01*
X184552661Y-93100000D01*
X184546446Y-93100000D01*
X185225922Y-92420524D01*
X185225921Y-92420523D01*
X185181359Y-92388147D01*
X185181350Y-92388141D01*
X184999031Y-92295244D01*
X184804417Y-92232009D01*
X184602317Y-92200000D01*
X184397683Y-92200000D01*
X184195582Y-92232009D01*
X184000968Y-92295244D01*
X183818644Y-92388143D01*
X183774077Y-92420523D01*
X183774077Y-92420524D01*
X184453554Y-93100000D01*
X184447339Y-93100000D01*
X184345606Y-93127259D01*
X184254394Y-93179920D01*
X184179920Y-93254394D01*
X184127259Y-93345606D01*
X184100000Y-93447339D01*
X184100000Y-93453553D01*
X183420524Y-92774077D01*
X183420523Y-92774077D01*
X183388143Y-92818644D01*
X183295244Y-93000968D01*
X183232009Y-93195582D01*
X183200000Y-93397682D01*
X177930500Y-93397682D01*
X177930500Y-93396535D01*
X177890130Y-93193580D01*
X177810941Y-93002402D01*
X177695977Y-92830345D01*
X177695975Y-92830342D01*
X177549657Y-92684024D01*
X177380332Y-92570886D01*
X177377598Y-92569059D01*
X177186420Y-92489870D01*
X177186412Y-92489868D01*
X176983469Y-92449500D01*
X176983465Y-92449500D01*
X176776535Y-92449500D01*
X176776530Y-92449500D01*
X176573587Y-92489868D01*
X176573579Y-92489870D01*
X176382403Y-92569058D01*
X176210342Y-92684024D01*
X176064024Y-92830342D01*
X175949058Y-93002403D01*
X175869870Y-93193579D01*
X175869868Y-93193587D01*
X175829500Y-93396530D01*
X169670499Y-93396530D01*
X169630130Y-93193580D01*
X169550941Y-93002402D01*
X169435977Y-92830345D01*
X169435975Y-92830342D01*
X169289657Y-92684024D01*
X169120332Y-92570886D01*
X169117598Y-92569059D01*
X168926420Y-92489870D01*
X168926412Y-92489868D01*
X168723469Y-92449500D01*
X168723465Y-92449500D01*
X168516535Y-92449500D01*
X168516530Y-92449500D01*
X168313587Y-92489868D01*
X168313579Y-92489870D01*
X168122403Y-92569058D01*
X167950342Y-92684024D01*
X167804024Y-92830342D01*
X167689058Y-93002403D01*
X167609870Y-93193579D01*
X167609868Y-93193587D01*
X167569500Y-93396530D01*
X162299817Y-93396530D01*
X162267990Y-93195582D01*
X162204755Y-93000968D01*
X162111859Y-92818650D01*
X162079474Y-92774077D01*
X162079474Y-92774076D01*
X161400000Y-93453551D01*
X161400000Y-93447339D01*
X161372741Y-93345606D01*
X161320080Y-93254394D01*
X161245606Y-93179920D01*
X161154394Y-93127259D01*
X161052661Y-93100000D01*
X161046446Y-93100000D01*
X161725922Y-92420524D01*
X161725921Y-92420523D01*
X161681359Y-92388147D01*
X161681350Y-92388141D01*
X161499031Y-92295244D01*
X161304417Y-92232009D01*
X161102317Y-92200000D01*
X160897683Y-92200000D01*
X160695582Y-92232009D01*
X160500968Y-92295244D01*
X160318644Y-92388143D01*
X160274077Y-92420523D01*
X160274077Y-92420524D01*
X160953554Y-93100000D01*
X160947339Y-93100000D01*
X160845606Y-93127259D01*
X160754394Y-93179920D01*
X160679920Y-93254394D01*
X160627259Y-93345606D01*
X160600000Y-93447339D01*
X160600000Y-93453553D01*
X159920524Y-92774077D01*
X159920523Y-92774077D01*
X159888143Y-92818644D01*
X159795244Y-93000968D01*
X159732009Y-93195582D01*
X159700000Y-93397682D01*
X154014709Y-93397682D01*
X154000207Y-93383180D01*
X153860067Y-93281362D01*
X153705724Y-93202721D01*
X153540980Y-93149192D01*
X153540978Y-93149191D01*
X153540977Y-93149191D01*
X153409550Y-93128375D01*
X153369890Y-93122094D01*
X153196668Y-93122094D01*
X153164471Y-93127193D01*
X153025580Y-93149191D01*
X153025581Y-93149191D01*
X152860831Y-93202722D01*
X152706490Y-93281362D01*
X152654910Y-93318838D01*
X152566351Y-93383180D01*
X152566349Y-93383182D01*
X152566348Y-93383182D01*
X152443867Y-93505663D01*
X152443867Y-93505664D01*
X152443865Y-93505666D01*
X152441138Y-93509420D01*
X152342047Y-93645805D01*
X152263407Y-93800146D01*
X152209876Y-93964896D01*
X152205003Y-93995664D01*
X152182779Y-94135983D01*
X128983779Y-94135983D01*
X128956681Y-93964893D01*
X128903152Y-93800149D01*
X128824511Y-93645806D01*
X128722693Y-93505666D01*
X128600207Y-93383180D01*
X128460067Y-93281362D01*
X128305724Y-93202721D01*
X128140980Y-93149192D01*
X128140978Y-93149191D01*
X128140977Y-93149191D01*
X128009550Y-93128375D01*
X127969890Y-93122094D01*
X127796668Y-93122094D01*
X127764471Y-93127193D01*
X127625580Y-93149191D01*
X127625581Y-93149191D01*
X127460831Y-93202722D01*
X127306490Y-93281362D01*
X127254910Y-93318838D01*
X127166351Y-93383180D01*
X127166349Y-93383182D01*
X127166348Y-93383182D01*
X127043867Y-93505663D01*
X127043867Y-93505664D01*
X127043865Y-93505666D01*
X127041138Y-93509420D01*
X126942047Y-93645805D01*
X126863407Y-93800146D01*
X126809876Y-93964896D01*
X126805003Y-93995664D01*
X126782779Y-94135983D01*
X40667020Y-94135983D01*
X39911819Y-93380782D01*
X39878334Y-93319459D01*
X39875500Y-93293101D01*
X39875500Y-91378711D01*
X41649500Y-91378711D01*
X41649500Y-91621288D01*
X41681161Y-91861785D01*
X41743947Y-92096104D01*
X41814809Y-92267179D01*
X41836776Y-92320212D01*
X41958064Y-92530289D01*
X41958066Y-92530292D01*
X41958067Y-92530293D01*
X42105733Y-92722736D01*
X42105739Y-92722743D01*
X42277256Y-92894260D01*
X42277263Y-92894266D01*
X42331034Y-92935526D01*
X42469711Y-93041936D01*
X42679788Y-93163224D01*
X42903900Y-93256054D01*
X43138211Y-93318838D01*
X43318586Y-93342584D01*
X43378711Y-93350500D01*
X43378712Y-93350500D01*
X43621289Y-93350500D01*
X43669388Y-93344167D01*
X43861789Y-93318838D01*
X44096100Y-93256054D01*
X44320212Y-93163224D01*
X44530289Y-93041936D01*
X44722738Y-92894265D01*
X44894265Y-92722738D01*
X45041936Y-92530289D01*
X45163224Y-92320212D01*
X45256054Y-92096100D01*
X45318838Y-91861789D01*
X45350500Y-91621288D01*
X45350500Y-91378712D01*
X45350500Y-91378711D01*
X116649500Y-91378711D01*
X116649500Y-91621288D01*
X116681161Y-91861785D01*
X116743947Y-92096104D01*
X116814809Y-92267179D01*
X116836776Y-92320212D01*
X116958064Y-92530289D01*
X116958066Y-92530292D01*
X116958067Y-92530293D01*
X117105733Y-92722736D01*
X117105739Y-92722743D01*
X117277256Y-92894260D01*
X117277263Y-92894266D01*
X117331034Y-92935526D01*
X117469711Y-93041936D01*
X117679788Y-93163224D01*
X117903900Y-93256054D01*
X118138211Y-93318838D01*
X118318586Y-93342584D01*
X118378711Y-93350500D01*
X118378712Y-93350500D01*
X118621289Y-93350500D01*
X118669388Y-93344167D01*
X118861789Y-93318838D01*
X119096100Y-93256054D01*
X119320212Y-93163224D01*
X119530289Y-93041936D01*
X119722738Y-92894265D01*
X119894265Y-92722738D01*
X120041936Y-92530289D01*
X120163224Y-92320212D01*
X120256054Y-92096100D01*
X120318838Y-91861789D01*
X120350500Y-91621288D01*
X120350500Y-91595983D01*
X126782779Y-91595983D01*
X126782779Y-91769205D01*
X126809877Y-91940295D01*
X126863406Y-92105039D01*
X126942047Y-92259382D01*
X127043865Y-92399522D01*
X127166351Y-92522008D01*
X127306491Y-92623826D01*
X127460834Y-92702467D01*
X127625578Y-92755996D01*
X127796668Y-92783094D01*
X127796669Y-92783094D01*
X127969889Y-92783094D01*
X127969890Y-92783094D01*
X128140980Y-92755996D01*
X128305724Y-92702467D01*
X128460067Y-92623826D01*
X128600207Y-92522008D01*
X128722693Y-92399522D01*
X128824511Y-92259382D01*
X128903152Y-92105039D01*
X128956681Y-91940295D01*
X128983779Y-91769205D01*
X128983779Y-91595983D01*
X152182779Y-91595983D01*
X152182779Y-91769205D01*
X152209877Y-91940295D01*
X152263406Y-92105039D01*
X152342047Y-92259382D01*
X152443865Y-92399522D01*
X152566351Y-92522008D01*
X152706491Y-92623826D01*
X152860834Y-92702467D01*
X153025578Y-92755996D01*
X153196668Y-92783094D01*
X153196669Y-92783094D01*
X153369889Y-92783094D01*
X153369890Y-92783094D01*
X153540980Y-92755996D01*
X153705724Y-92702467D01*
X153860067Y-92623826D01*
X154000207Y-92522008D01*
X154122693Y-92399522D01*
X154224511Y-92259382D01*
X154303152Y-92105039D01*
X154356681Y-91940295D01*
X154383779Y-91769205D01*
X154383779Y-91595983D01*
X154356681Y-91424893D01*
X154303152Y-91260149D01*
X154224511Y-91105806D01*
X154122693Y-90965666D01*
X154000207Y-90843180D01*
X153860067Y-90741362D01*
X153705724Y-90662721D01*
X153540980Y-90609192D01*
X153540978Y-90609191D01*
X153540977Y-90609191D01*
X153409550Y-90588375D01*
X153369890Y-90582094D01*
X153196668Y-90582094D01*
X153157007Y-90588375D01*
X153025581Y-90609191D01*
X152860831Y-90662722D01*
X152706490Y-90741362D01*
X152626535Y-90799453D01*
X152566351Y-90843180D01*
X152566349Y-90843182D01*
X152566348Y-90843182D01*
X152443867Y-90965663D01*
X152443867Y-90965664D01*
X152443865Y-90965666D01*
X152400138Y-91025850D01*
X152342047Y-91105805D01*
X152263407Y-91260146D01*
X152209876Y-91424896D01*
X152192728Y-91533168D01*
X152182779Y-91595983D01*
X128983779Y-91595983D01*
X128956681Y-91424893D01*
X128903152Y-91260149D01*
X128824511Y-91105806D01*
X128722693Y-90965666D01*
X128600207Y-90843180D01*
X128460067Y-90741362D01*
X128305724Y-90662721D01*
X128140980Y-90609192D01*
X128140978Y-90609191D01*
X128140977Y-90609191D01*
X128009550Y-90588375D01*
X127969890Y-90582094D01*
X127796668Y-90582094D01*
X127757007Y-90588375D01*
X127625581Y-90609191D01*
X127460831Y-90662722D01*
X127306490Y-90741362D01*
X127226535Y-90799453D01*
X127166351Y-90843180D01*
X127166349Y-90843182D01*
X127166348Y-90843182D01*
X127043867Y-90965663D01*
X127043867Y-90965664D01*
X127043865Y-90965666D01*
X127000138Y-91025850D01*
X126942047Y-91105805D01*
X126863407Y-91260146D01*
X126809876Y-91424896D01*
X126792728Y-91533168D01*
X126782779Y-91595983D01*
X120350500Y-91595983D01*
X120350500Y-91378712D01*
X120344904Y-91336209D01*
X120334891Y-91260146D01*
X120318838Y-91138211D01*
X120256054Y-90903900D01*
X120163224Y-90679788D01*
X120041936Y-90469711D01*
X119894265Y-90277262D01*
X119894260Y-90277256D01*
X119722743Y-90105739D01*
X119722736Y-90105733D01*
X119530293Y-89958067D01*
X119530292Y-89958066D01*
X119530289Y-89958064D01*
X119320212Y-89836776D01*
X119231427Y-89800000D01*
X119096104Y-89743947D01*
X118861785Y-89681161D01*
X118621289Y-89649500D01*
X118621288Y-89649500D01*
X118378712Y-89649500D01*
X118378711Y-89649500D01*
X118138214Y-89681161D01*
X117903895Y-89743947D01*
X117679794Y-89836773D01*
X117679785Y-89836777D01*
X117469706Y-89958067D01*
X117277263Y-90105733D01*
X117277256Y-90105739D01*
X117105739Y-90277256D01*
X117105733Y-90277263D01*
X116958067Y-90469706D01*
X116836777Y-90679785D01*
X116836773Y-90679794D01*
X116743947Y-90903895D01*
X116681161Y-91138214D01*
X116649500Y-91378711D01*
X45350500Y-91378711D01*
X45344904Y-91336209D01*
X45334891Y-91260146D01*
X45318838Y-91138211D01*
X45256054Y-90903900D01*
X45163224Y-90679788D01*
X45041936Y-90469711D01*
X44894265Y-90277262D01*
X44894260Y-90277256D01*
X44722743Y-90105739D01*
X44722736Y-90105733D01*
X44530293Y-89958067D01*
X44530292Y-89958066D01*
X44530289Y-89958064D01*
X44320212Y-89836776D01*
X44231427Y-89800000D01*
X44096104Y-89743947D01*
X43861785Y-89681161D01*
X43621289Y-89649500D01*
X43621288Y-89649500D01*
X43378712Y-89649500D01*
X43378711Y-89649500D01*
X43138214Y-89681161D01*
X42903895Y-89743947D01*
X42679794Y-89836773D01*
X42679785Y-89836777D01*
X42469706Y-89958067D01*
X42277263Y-90105733D01*
X42277256Y-90105739D01*
X42105739Y-90277256D01*
X42105733Y-90277263D01*
X41958067Y-90469706D01*
X41836777Y-90679785D01*
X41836773Y-90679794D01*
X41743947Y-90903895D01*
X41681161Y-91138214D01*
X41649500Y-91378711D01*
X39875500Y-91378711D01*
X39875500Y-89055983D01*
X126782779Y-89055983D01*
X126782779Y-89229205D01*
X126809877Y-89400295D01*
X126863406Y-89565039D01*
X126942047Y-89719382D01*
X127043865Y-89859522D01*
X127166351Y-89982008D01*
X127306491Y-90083826D01*
X127460834Y-90162467D01*
X127625578Y-90215996D01*
X127796668Y-90243094D01*
X127796669Y-90243094D01*
X127969889Y-90243094D01*
X127969890Y-90243094D01*
X128140980Y-90215996D01*
X128305724Y-90162467D01*
X128460067Y-90083826D01*
X128600207Y-89982008D01*
X128722693Y-89859522D01*
X128824511Y-89719382D01*
X128903152Y-89565039D01*
X128956681Y-89400295D01*
X128983779Y-89229205D01*
X128983779Y-89055983D01*
X152182779Y-89055983D01*
X152182779Y-89229205D01*
X152209877Y-89400295D01*
X152263406Y-89565039D01*
X152342047Y-89719382D01*
X152443865Y-89859522D01*
X152566351Y-89982008D01*
X152706491Y-90083826D01*
X152860834Y-90162467D01*
X153025578Y-90215996D01*
X153196668Y-90243094D01*
X153196669Y-90243094D01*
X153369889Y-90243094D01*
X153369890Y-90243094D01*
X153540980Y-90215996D01*
X153705724Y-90162467D01*
X153860067Y-90083826D01*
X154000207Y-89982008D01*
X154122693Y-89859522D01*
X154224511Y-89719382D01*
X154303152Y-89565039D01*
X154356681Y-89400295D01*
X154383779Y-89229205D01*
X154383779Y-89055983D01*
X154356681Y-88884893D01*
X154303152Y-88720149D01*
X154224511Y-88565806D01*
X154122693Y-88425666D01*
X154094709Y-88397682D01*
X159700000Y-88397682D01*
X159700000Y-88602317D01*
X159732009Y-88804417D01*
X159795244Y-88999031D01*
X159888141Y-89181350D01*
X159888147Y-89181359D01*
X159920523Y-89225921D01*
X159920524Y-89225922D01*
X160600000Y-88546446D01*
X160600000Y-88552661D01*
X160627259Y-88654394D01*
X160679920Y-88745606D01*
X160754394Y-88820080D01*
X160845606Y-88872741D01*
X160947339Y-88900000D01*
X160953553Y-88900000D01*
X160274076Y-89579474D01*
X160318650Y-89611859D01*
X160500968Y-89704755D01*
X160695582Y-89767990D01*
X160897683Y-89800000D01*
X161102317Y-89800000D01*
X161304417Y-89767990D01*
X161499031Y-89704755D01*
X161681349Y-89611859D01*
X161725921Y-89579474D01*
X161046447Y-88900000D01*
X161052661Y-88900000D01*
X161154394Y-88872741D01*
X161245606Y-88820080D01*
X161320080Y-88745606D01*
X161372741Y-88654394D01*
X161400000Y-88552661D01*
X161400000Y-88546447D01*
X162079474Y-89225921D01*
X162111859Y-89181349D01*
X162204755Y-88999031D01*
X162267990Y-88804417D01*
X162300000Y-88602317D01*
X162300000Y-88397690D01*
X162299998Y-88397674D01*
X162299817Y-88396530D01*
X167569500Y-88396530D01*
X167569500Y-88603469D01*
X167609868Y-88806412D01*
X167609870Y-88806420D01*
X167689059Y-88997598D01*
X167728070Y-89055983D01*
X167804024Y-89169657D01*
X167950342Y-89315975D01*
X167950345Y-89315977D01*
X168122402Y-89430941D01*
X168313580Y-89510130D01*
X168516530Y-89550499D01*
X168516534Y-89550500D01*
X168516535Y-89550500D01*
X168723466Y-89550500D01*
X168723467Y-89550499D01*
X168926420Y-89510130D01*
X169117598Y-89430941D01*
X169289655Y-89315977D01*
X169435977Y-89169655D01*
X169550941Y-88997598D01*
X169630130Y-88806420D01*
X169670500Y-88603465D01*
X169670500Y-88396535D01*
X169670499Y-88396530D01*
X175829500Y-88396530D01*
X175829500Y-88603469D01*
X175869868Y-88806412D01*
X175869870Y-88806420D01*
X175949059Y-88997598D01*
X175988070Y-89055983D01*
X176064024Y-89169657D01*
X176210342Y-89315975D01*
X176210345Y-89315977D01*
X176382402Y-89430941D01*
X176573580Y-89510130D01*
X176776530Y-89550499D01*
X176776534Y-89550500D01*
X176776535Y-89550500D01*
X176983466Y-89550500D01*
X176983467Y-89550499D01*
X177186420Y-89510130D01*
X177377598Y-89430941D01*
X177549655Y-89315977D01*
X177695977Y-89169655D01*
X177810941Y-88997598D01*
X177890130Y-88806420D01*
X177930500Y-88603465D01*
X177930500Y-88397682D01*
X183200000Y-88397682D01*
X183200000Y-88602317D01*
X183232009Y-88804417D01*
X183295244Y-88999031D01*
X183388141Y-89181350D01*
X183388147Y-89181359D01*
X183420523Y-89225921D01*
X183420524Y-89225922D01*
X184100000Y-88546446D01*
X184100000Y-88552661D01*
X184127259Y-88654394D01*
X184179920Y-88745606D01*
X184254394Y-88820080D01*
X184345606Y-88872741D01*
X184447339Y-88900000D01*
X184453553Y-88900000D01*
X183774076Y-89579474D01*
X183818650Y-89611859D01*
X184000968Y-89704755D01*
X184195582Y-89767990D01*
X184397683Y-89800000D01*
X184602317Y-89800000D01*
X184804417Y-89767990D01*
X184999031Y-89704755D01*
X185181349Y-89611859D01*
X185225921Y-89579474D01*
X184546447Y-88900000D01*
X184552661Y-88900000D01*
X184654394Y-88872741D01*
X184745606Y-88820080D01*
X184820080Y-88745606D01*
X184872741Y-88654394D01*
X184900000Y-88552661D01*
X184900000Y-88546448D01*
X185579474Y-89225922D01*
X185579474Y-89225921D01*
X185611859Y-89181349D01*
X185704755Y-88999031D01*
X185767990Y-88804417D01*
X185800000Y-88602317D01*
X185800000Y-88397682D01*
X185767990Y-88195582D01*
X185704755Y-88000968D01*
X185611859Y-87818650D01*
X185579474Y-87774077D01*
X185579474Y-87774076D01*
X184900000Y-88453551D01*
X184900000Y-88447339D01*
X184872741Y-88345606D01*
X184820080Y-88254394D01*
X184745606Y-88179920D01*
X184654394Y-88127259D01*
X184552661Y-88100000D01*
X184546446Y-88100000D01*
X185225922Y-87420524D01*
X185225921Y-87420523D01*
X185181359Y-87388147D01*
X185181350Y-87388141D01*
X184999031Y-87295244D01*
X184804417Y-87232009D01*
X184602317Y-87200000D01*
X184397683Y-87200000D01*
X184195582Y-87232009D01*
X184000968Y-87295244D01*
X183818644Y-87388143D01*
X183774077Y-87420523D01*
X183774077Y-87420524D01*
X184453554Y-88100000D01*
X184447339Y-88100000D01*
X184345606Y-88127259D01*
X184254394Y-88179920D01*
X184179920Y-88254394D01*
X184127259Y-88345606D01*
X184100000Y-88447339D01*
X184100000Y-88453553D01*
X183420524Y-87774077D01*
X183420523Y-87774077D01*
X183388143Y-87818644D01*
X183295244Y-88000968D01*
X183232009Y-88195582D01*
X183200000Y-88397682D01*
X177930500Y-88397682D01*
X177930500Y-88396535D01*
X177890130Y-88193580D01*
X177810941Y-88002402D01*
X177695977Y-87830345D01*
X177695975Y-87830342D01*
X177549657Y-87684024D01*
X177380332Y-87570886D01*
X177377598Y-87569059D01*
X177186420Y-87489870D01*
X177186412Y-87489868D01*
X176983469Y-87449500D01*
X176983465Y-87449500D01*
X176776535Y-87449500D01*
X176776530Y-87449500D01*
X176573587Y-87489868D01*
X176573579Y-87489870D01*
X176382403Y-87569058D01*
X176210342Y-87684024D01*
X176064024Y-87830342D01*
X175949058Y-88002403D01*
X175869870Y-88193579D01*
X175869868Y-88193587D01*
X175829500Y-88396530D01*
X169670499Y-88396530D01*
X169630130Y-88193580D01*
X169550941Y-88002402D01*
X169435977Y-87830345D01*
X169435975Y-87830342D01*
X169289657Y-87684024D01*
X169120332Y-87570886D01*
X169117598Y-87569059D01*
X168926420Y-87489870D01*
X168926412Y-87489868D01*
X168723469Y-87449500D01*
X168723465Y-87449500D01*
X168516535Y-87449500D01*
X168516530Y-87449500D01*
X168313587Y-87489868D01*
X168313579Y-87489870D01*
X168122403Y-87569058D01*
X167950342Y-87684024D01*
X167804024Y-87830342D01*
X167689058Y-88002403D01*
X167609870Y-88193579D01*
X167609868Y-88193587D01*
X167569500Y-88396530D01*
X162299817Y-88396530D01*
X162267990Y-88195582D01*
X162204755Y-88000968D01*
X162111859Y-87818650D01*
X162079474Y-87774077D01*
X162079474Y-87774076D01*
X161400000Y-88453551D01*
X161400000Y-88447339D01*
X161372741Y-88345606D01*
X161320080Y-88254394D01*
X161245606Y-88179920D01*
X161154394Y-88127259D01*
X161052661Y-88100000D01*
X161046446Y-88100000D01*
X161725922Y-87420524D01*
X161725921Y-87420523D01*
X161681359Y-87388147D01*
X161681350Y-87388141D01*
X161499031Y-87295244D01*
X161304417Y-87232009D01*
X161102317Y-87200000D01*
X160897683Y-87200000D01*
X160695582Y-87232009D01*
X160500968Y-87295244D01*
X160318644Y-87388143D01*
X160274077Y-87420523D01*
X160274077Y-87420524D01*
X160953554Y-88100000D01*
X160947339Y-88100000D01*
X160845606Y-88127259D01*
X160754394Y-88179920D01*
X160679920Y-88254394D01*
X160627259Y-88345606D01*
X160600000Y-88447339D01*
X160600000Y-88453553D01*
X159920524Y-87774077D01*
X159920523Y-87774077D01*
X159888143Y-87818644D01*
X159795244Y-88000968D01*
X159732009Y-88195582D01*
X159700000Y-88397682D01*
X154094709Y-88397682D01*
X154000207Y-88303180D01*
X153860067Y-88201362D01*
X153705724Y-88122721D01*
X153540980Y-88069192D01*
X153540978Y-88069191D01*
X153540977Y-88069191D01*
X153409550Y-88048375D01*
X153369890Y-88042094D01*
X153196668Y-88042094D01*
X153157007Y-88048375D01*
X153025581Y-88069191D01*
X152860831Y-88122722D01*
X152706490Y-88201362D01*
X152633499Y-88254394D01*
X152566351Y-88303180D01*
X152566349Y-88303182D01*
X152566348Y-88303182D01*
X152443867Y-88425663D01*
X152443867Y-88425664D01*
X152443865Y-88425666D01*
X152443863Y-88425669D01*
X152342047Y-88565805D01*
X152263407Y-88720146D01*
X152209876Y-88884896D01*
X152192026Y-88997598D01*
X152182779Y-89055983D01*
X128983779Y-89055983D01*
X128956681Y-88884893D01*
X128903152Y-88720149D01*
X128824511Y-88565806D01*
X128722693Y-88425666D01*
X128600207Y-88303180D01*
X128460067Y-88201362D01*
X128305724Y-88122721D01*
X128140980Y-88069192D01*
X128140978Y-88069191D01*
X128140977Y-88069191D01*
X128009550Y-88048375D01*
X127969890Y-88042094D01*
X127796668Y-88042094D01*
X127757007Y-88048375D01*
X127625581Y-88069191D01*
X127460831Y-88122722D01*
X127306490Y-88201362D01*
X127233499Y-88254394D01*
X127166351Y-88303180D01*
X127166349Y-88303182D01*
X127166348Y-88303182D01*
X127043867Y-88425663D01*
X127043867Y-88425664D01*
X127043865Y-88425666D01*
X127043863Y-88425669D01*
X126942047Y-88565805D01*
X126863407Y-88720146D01*
X126809876Y-88884896D01*
X126792026Y-88997598D01*
X126782779Y-89055983D01*
X39875500Y-89055983D01*
X39875500Y-86515983D01*
X126782779Y-86515983D01*
X126782779Y-86689205D01*
X126790956Y-86740833D01*
X126809047Y-86855059D01*
X126809877Y-86860295D01*
X126863406Y-87025039D01*
X126942047Y-87179382D01*
X127043865Y-87319522D01*
X127166351Y-87442008D01*
X127306491Y-87543826D01*
X127460834Y-87622467D01*
X127625578Y-87675996D01*
X127796668Y-87703094D01*
X127796669Y-87703094D01*
X127969889Y-87703094D01*
X127969890Y-87703094D01*
X128140980Y-87675996D01*
X128305724Y-87622467D01*
X128460067Y-87543826D01*
X128600207Y-87442008D01*
X128722693Y-87319522D01*
X128824511Y-87179382D01*
X128903152Y-87025039D01*
X128956681Y-86860295D01*
X128983779Y-86689205D01*
X128983779Y-86515983D01*
X152182779Y-86515983D01*
X152182779Y-86689205D01*
X152190956Y-86740833D01*
X152209047Y-86855059D01*
X152209877Y-86860295D01*
X152263406Y-87025039D01*
X152342047Y-87179382D01*
X152443865Y-87319522D01*
X152566351Y-87442008D01*
X152706491Y-87543826D01*
X152860834Y-87622467D01*
X153025578Y-87675996D01*
X153196668Y-87703094D01*
X153196669Y-87703094D01*
X153369889Y-87703094D01*
X153369890Y-87703094D01*
X153540980Y-87675996D01*
X153705724Y-87622467D01*
X153860067Y-87543826D01*
X154000207Y-87442008D01*
X154122693Y-87319522D01*
X154224511Y-87179382D01*
X154303152Y-87025039D01*
X154356681Y-86860295D01*
X154383779Y-86689205D01*
X154383779Y-86515983D01*
X154356681Y-86344893D01*
X154303152Y-86180149D01*
X154224511Y-86025806D01*
X154122693Y-85885666D01*
X154000207Y-85763180D01*
X153860067Y-85661362D01*
X153705724Y-85582721D01*
X153540980Y-85529192D01*
X153540978Y-85529191D01*
X153540977Y-85529191D01*
X153409550Y-85508375D01*
X153369890Y-85502094D01*
X153196668Y-85502094D01*
X153157007Y-85508375D01*
X153025581Y-85529191D01*
X152860831Y-85582722D01*
X152706490Y-85661362D01*
X152634336Y-85713786D01*
X152566351Y-85763180D01*
X152566349Y-85763182D01*
X152566348Y-85763182D01*
X152443867Y-85885663D01*
X152443867Y-85885664D01*
X152443865Y-85885666D01*
X152400138Y-85945850D01*
X152342047Y-86025805D01*
X152263407Y-86180146D01*
X152209876Y-86344896D01*
X152199277Y-86411819D01*
X152182779Y-86515983D01*
X128983779Y-86515983D01*
X128956681Y-86344893D01*
X128903152Y-86180149D01*
X128824511Y-86025806D01*
X128722693Y-85885666D01*
X128600207Y-85763180D01*
X128460067Y-85661362D01*
X128305724Y-85582721D01*
X128140980Y-85529192D01*
X128140978Y-85529191D01*
X128140977Y-85529191D01*
X128009550Y-85508375D01*
X127969890Y-85502094D01*
X127796668Y-85502094D01*
X127757007Y-85508375D01*
X127625581Y-85529191D01*
X127460831Y-85582722D01*
X127306490Y-85661362D01*
X127234336Y-85713786D01*
X127166351Y-85763180D01*
X127166349Y-85763182D01*
X127166348Y-85763182D01*
X127043867Y-85885663D01*
X127043867Y-85885664D01*
X127043865Y-85885666D01*
X127000138Y-85945850D01*
X126942047Y-86025805D01*
X126863407Y-86180146D01*
X126809876Y-86344896D01*
X126799277Y-86411819D01*
X126782779Y-86515983D01*
X39875500Y-86515983D01*
X39875500Y-86450566D01*
X39875500Y-86450565D01*
X39875500Y-86450564D01*
X39849911Y-86355063D01*
X39800475Y-86269437D01*
X39230563Y-85699526D01*
X39230562Y-85699525D01*
X39144938Y-85650090D01*
X39097186Y-85637295D01*
X39085099Y-85634056D01*
X39085095Y-85634054D01*
X39049436Y-85624500D01*
X39049435Y-85624500D01*
X24549436Y-85624500D01*
X24450564Y-85624500D01*
X24355061Y-85650089D01*
X24269438Y-85699525D01*
X24269435Y-85699527D01*
X23199526Y-86769436D01*
X23150091Y-86855059D01*
X23150091Y-86855060D01*
X23150090Y-86855062D01*
X23124500Y-86950565D01*
X23124500Y-86950567D01*
X23124500Y-110404192D01*
X23104815Y-110471231D01*
X23088181Y-110491873D01*
X22994726Y-110585327D01*
X22994723Y-110585331D01*
X22923538Y-110691866D01*
X22923533Y-110691875D01*
X22874499Y-110810255D01*
X22874497Y-110810261D01*
X22849500Y-110935928D01*
X22849500Y-110935931D01*
X22849500Y-111064069D01*
X22849500Y-111064071D01*
X22849499Y-111064071D01*
X21500500Y-111064071D01*
X21500500Y-83975983D01*
X126782779Y-83975983D01*
X126782779Y-84149205D01*
X126809877Y-84320295D01*
X126863406Y-84485039D01*
X126942047Y-84639382D01*
X127043865Y-84779522D01*
X127166351Y-84902008D01*
X127306491Y-85003826D01*
X127460834Y-85082467D01*
X127625578Y-85135996D01*
X127796668Y-85163094D01*
X127796669Y-85163094D01*
X127969889Y-85163094D01*
X127969890Y-85163094D01*
X128140980Y-85135996D01*
X128305724Y-85082467D01*
X128460067Y-85003826D01*
X128600207Y-84902008D01*
X128722693Y-84779522D01*
X128824511Y-84639382D01*
X128903152Y-84485039D01*
X128956681Y-84320295D01*
X128983779Y-84149205D01*
X128983779Y-83975983D01*
X152182779Y-83975983D01*
X152182779Y-84149205D01*
X152209877Y-84320295D01*
X152263406Y-84485039D01*
X152342047Y-84639382D01*
X152443865Y-84779522D01*
X152566351Y-84902008D01*
X152706491Y-85003826D01*
X152860834Y-85082467D01*
X153025578Y-85135996D01*
X153196668Y-85163094D01*
X153196669Y-85163094D01*
X153369889Y-85163094D01*
X153369890Y-85163094D01*
X153540980Y-85135996D01*
X153705724Y-85082467D01*
X153860067Y-85003826D01*
X154000207Y-84902008D01*
X154122693Y-84779522D01*
X154224511Y-84639382D01*
X154303152Y-84485039D01*
X154356681Y-84320295D01*
X154383779Y-84149205D01*
X154383779Y-83975983D01*
X154356681Y-83804893D01*
X154303152Y-83640149D01*
X154224511Y-83485806D01*
X154122693Y-83345666D01*
X154000207Y-83223180D01*
X153860067Y-83121362D01*
X153705724Y-83042721D01*
X153540980Y-82989192D01*
X153540978Y-82989191D01*
X153540977Y-82989191D01*
X153409550Y-82968375D01*
X153369890Y-82962094D01*
X153196668Y-82962094D01*
X153157007Y-82968375D01*
X153025581Y-82989191D01*
X152860831Y-83042722D01*
X152706490Y-83121362D01*
X152626535Y-83179453D01*
X152566351Y-83223180D01*
X152566349Y-83223182D01*
X152566348Y-83223182D01*
X152443867Y-83345663D01*
X152443867Y-83345664D01*
X152443865Y-83345666D01*
X152400138Y-83405850D01*
X152342047Y-83485805D01*
X152263407Y-83640146D01*
X152209876Y-83804896D01*
X152182779Y-83975983D01*
X128983779Y-83975983D01*
X128956681Y-83804893D01*
X128903152Y-83640149D01*
X128824511Y-83485806D01*
X128722693Y-83345666D01*
X128600207Y-83223180D01*
X128460067Y-83121362D01*
X128305724Y-83042721D01*
X128140980Y-82989192D01*
X128140978Y-82989191D01*
X128140977Y-82989191D01*
X128009550Y-82968375D01*
X127969890Y-82962094D01*
X127796668Y-82962094D01*
X127757007Y-82968375D01*
X127625581Y-82989191D01*
X127460831Y-83042722D01*
X127306490Y-83121362D01*
X127226535Y-83179453D01*
X127166351Y-83223180D01*
X127166349Y-83223182D01*
X127166348Y-83223182D01*
X127043867Y-83345663D01*
X127043867Y-83345664D01*
X127043865Y-83345666D01*
X127000138Y-83405850D01*
X126942047Y-83485805D01*
X126863407Y-83640146D01*
X126809876Y-83804896D01*
X126782779Y-83975983D01*
X21500500Y-83975983D01*
X21500500Y-81435983D01*
X126782779Y-81435983D01*
X126782779Y-81609205D01*
X126809877Y-81780295D01*
X126863406Y-81945039D01*
X126942047Y-82099382D01*
X127043865Y-82239522D01*
X127166351Y-82362008D01*
X127306491Y-82463826D01*
X127460834Y-82542467D01*
X127625578Y-82595996D01*
X127796668Y-82623094D01*
X127796669Y-82623094D01*
X127969889Y-82623094D01*
X127969890Y-82623094D01*
X128140980Y-82595996D01*
X128305724Y-82542467D01*
X128460067Y-82463826D01*
X128600207Y-82362008D01*
X128722693Y-82239522D01*
X128824511Y-82099382D01*
X128903152Y-81945039D01*
X128956681Y-81780295D01*
X128983779Y-81609205D01*
X128983779Y-81435983D01*
X152182779Y-81435983D01*
X152182779Y-81609205D01*
X152209877Y-81780295D01*
X152263406Y-81945039D01*
X152342047Y-82099382D01*
X152443865Y-82239522D01*
X152566351Y-82362008D01*
X152706491Y-82463826D01*
X152860834Y-82542467D01*
X153025578Y-82595996D01*
X153196668Y-82623094D01*
X153196669Y-82623094D01*
X153369889Y-82623094D01*
X153369890Y-82623094D01*
X153540980Y-82595996D01*
X153705724Y-82542467D01*
X153860067Y-82463826D01*
X154000207Y-82362008D01*
X154122693Y-82239522D01*
X154224511Y-82099382D01*
X154303152Y-81945039D01*
X154356681Y-81780295D01*
X154383779Y-81609205D01*
X154383779Y-81435983D01*
X154356681Y-81264893D01*
X154303152Y-81100149D01*
X154224511Y-80945806D01*
X154122693Y-80805666D01*
X154000207Y-80683180D01*
X153860067Y-80581362D01*
X153705724Y-80502721D01*
X153540980Y-80449192D01*
X153540978Y-80449191D01*
X153540977Y-80449191D01*
X153409550Y-80428375D01*
X153369890Y-80422094D01*
X153196668Y-80422094D01*
X153157007Y-80428375D01*
X153025581Y-80449191D01*
X152860831Y-80502722D01*
X152706490Y-80581362D01*
X152626535Y-80639453D01*
X152566351Y-80683180D01*
X152566349Y-80683182D01*
X152566348Y-80683182D01*
X152443867Y-80805663D01*
X152443867Y-80805664D01*
X152443865Y-80805666D01*
X152400138Y-80865850D01*
X152342047Y-80945805D01*
X152263407Y-81100146D01*
X152209876Y-81264896D01*
X152182779Y-81435983D01*
X128983779Y-81435983D01*
X128956681Y-81264893D01*
X128903152Y-81100149D01*
X128824511Y-80945806D01*
X128722693Y-80805666D01*
X128600207Y-80683180D01*
X128460067Y-80581362D01*
X128305724Y-80502721D01*
X128140980Y-80449192D01*
X128140978Y-80449191D01*
X128140977Y-80449191D01*
X128009550Y-80428375D01*
X127969890Y-80422094D01*
X127796668Y-80422094D01*
X127757007Y-80428375D01*
X127625581Y-80449191D01*
X127460831Y-80502722D01*
X127306490Y-80581362D01*
X127226535Y-80639453D01*
X127166351Y-80683180D01*
X127166349Y-80683182D01*
X127166348Y-80683182D01*
X127043867Y-80805663D01*
X127043867Y-80805664D01*
X127043865Y-80805666D01*
X127000138Y-80865850D01*
X126942047Y-80945805D01*
X126863407Y-81100146D01*
X126809876Y-81264896D01*
X126782779Y-81435983D01*
X21500500Y-81435983D01*
X21500500Y-78125836D01*
X21520185Y-78058797D01*
X21572989Y-78013042D01*
X21624861Y-78001837D01*
X24026363Y-78008901D01*
G37*
%TD.AperFunction*%
%TD*%
M02*
