%TF.GenerationSoftware,KiCad,Pcbnew,9.0.2+dfsg-1*%
%TF.CreationDate,2026-01-13T19:23:52+00:00*%
%TF.ProjectId,spectrum_one_v0.1.0,73706563-7472-4756-9d5f-6f6e655f7630,rev?*%
%TF.SameCoordinates,Original*%
%TF.FileFunction,Legend,Top*%
%TF.FilePolarity,Positive*%
%FSLAX46Y46*%
G04 Gerber Fmt 4.6, Leading zero omitted, Abs format (unit mm)*
G04 Created by KiCad (PCBNEW 9.0.2+dfsg-1) date 2026-01-13 19:23:52*
%MOMM*%
%LPD*%
G01*
G04 APERTURE LIST*
G04 Aperture macros list*
%AMRoundRect*
0 Rectangle with rounded corners*
0 $1 Rounding radius*
0 $2 $3 $4 $5 $6 $7 $8 $9 X,Y pos of 4 corners*
0 Add a 4 corners polygon primitive as box body*
4,1,4,$2,$3,$4,$5,$6,$7,$8,$9,$2,$3,0*
0 Add four circle primitives for the rounded corners*
1,1,$1+$1,$2,$3*
1,1,$1+$1,$4,$5*
1,1,$1+$1,$6,$7*
1,1,$1+$1,$8,$9*
0 Add four rect primitives between the rounded corners*
20,1,$1+$1,$2,$3,$4,$5,0*
20,1,$1+$1,$4,$5,$6,$7,0*
20,1,$1+$1,$6,$7,$8,$9,0*
20,1,$1+$1,$8,$9,$2,$3,0*%
G04 Aperture macros list end*
%ADD10C,0.009258*%
%ADD11C,0.050000*%
%ADD12C,0.150000*%
%ADD13C,0.240000*%
%ADD14C,0.100000*%
%ADD15C,0.120000*%
%ADD16C,3.200000*%
%ADD17C,2.000000*%
%ADD18C,1.600000*%
%ADD19RoundRect,0.250000X-0.725000X0.600000X-0.725000X-0.600000X0.725000X-0.600000X0.725000X0.600000X0*%
%ADD20O,1.950000X1.700000*%
%ADD21R,1.700000X1.700000*%
%ADD22C,1.700000*%
%ADD23R,2.032000X2.032000*%
%ADD24C,2.032000*%
G04 APERTURE END LIST*
D10*
X47102919Y-78677244D02*
X47103278Y-78962569D01*
X47246711Y-78972268D01*
X47388516Y-78988612D01*
X47528500Y-79011474D01*
X47666468Y-79040731D01*
X47802225Y-79076256D01*
X47935577Y-79117924D01*
X48066330Y-79165610D01*
X48194290Y-79219188D01*
X48319262Y-79278534D01*
X48441052Y-79343521D01*
X48559465Y-79414026D01*
X48674307Y-79489921D01*
X48785385Y-79571083D01*
X48892502Y-79657386D01*
X48995466Y-79748705D01*
X49094082Y-79844913D01*
X49188155Y-79945887D01*
X49277491Y-80051500D01*
X49361896Y-80161628D01*
X49441175Y-80276145D01*
X49515134Y-80394926D01*
X49583579Y-80517846D01*
X49646315Y-80644779D01*
X49703148Y-80775599D01*
X49753884Y-80910183D01*
X49798328Y-81048404D01*
X49836286Y-81190137D01*
X49867564Y-81335257D01*
X49891967Y-81483639D01*
X49909300Y-81635157D01*
X49919371Y-81789686D01*
X49921983Y-81947101D01*
X49917812Y-82149103D01*
X49893865Y-82364556D01*
X49849461Y-82590032D01*
X49783921Y-82822102D01*
X49696566Y-83057339D01*
X49586717Y-83292313D01*
X49523144Y-83408631D01*
X49453692Y-83523597D01*
X49378277Y-83636784D01*
X49296814Y-83747762D01*
X49209217Y-83856104D01*
X49115402Y-83961381D01*
X49015283Y-84063163D01*
X48908776Y-84161024D01*
X48795796Y-84254533D01*
X48676258Y-84343264D01*
X48550076Y-84426786D01*
X48417167Y-84504672D01*
X48277445Y-84576492D01*
X48130824Y-84641820D01*
X47977221Y-84700225D01*
X47816550Y-84751280D01*
X47648726Y-84794555D01*
X47473664Y-84829623D01*
X47291280Y-84856055D01*
X47101488Y-84873422D01*
X47094020Y-85156558D01*
X46869185Y-85154263D01*
X46866905Y-84874146D01*
X46686968Y-84857150D01*
X46513351Y-84831886D01*
X46346016Y-84798701D01*
X46184924Y-84757945D01*
X46030036Y-84709964D01*
X45881314Y-84655106D01*
X45738719Y-84593719D01*
X45602213Y-84526151D01*
X45471757Y-84452749D01*
X45347312Y-84373861D01*
X45228841Y-84289835D01*
X45116303Y-84201018D01*
X45009662Y-84107758D01*
X44908878Y-84010403D01*
X44813912Y-83909301D01*
X44724727Y-83804799D01*
X44641283Y-83697245D01*
X44563542Y-83586986D01*
X44491466Y-83474372D01*
X44425015Y-83359748D01*
X44308836Y-83125864D01*
X44214698Y-82888118D01*
X44142292Y-82649290D01*
X44091309Y-82412163D01*
X44061440Y-82179518D01*
X44055015Y-82019726D01*
X44294627Y-82019726D01*
X44304525Y-82169049D01*
X44321423Y-82314532D01*
X44345077Y-82456126D01*
X44375243Y-82593780D01*
X44411677Y-82727442D01*
X44454136Y-82857061D01*
X44502375Y-82982587D01*
X44556151Y-83103968D01*
X44615220Y-83221154D01*
X44679338Y-83334094D01*
X44748262Y-83442736D01*
X44821747Y-83547030D01*
X44899550Y-83646925D01*
X44981426Y-83742370D01*
X45067133Y-83833313D01*
X45156426Y-83919704D01*
X45249061Y-84001493D01*
X45344795Y-84078627D01*
X45443384Y-84151056D01*
X45544584Y-84218730D01*
X45648151Y-84281596D01*
X45753841Y-84339605D01*
X45861411Y-84392705D01*
X45970616Y-84440845D01*
X46081214Y-84483975D01*
X46192959Y-84522042D01*
X46305608Y-84554998D01*
X46418918Y-84582789D01*
X46532645Y-84605366D01*
X46646544Y-84622678D01*
X46760373Y-84634673D01*
X46873886Y-84641301D01*
X46873886Y-84636003D01*
X47096098Y-84636003D01*
X47230895Y-84628955D01*
X47363749Y-84614872D01*
X47494508Y-84593976D01*
X47623020Y-84566490D01*
X47749131Y-84532637D01*
X47872690Y-84492638D01*
X47993542Y-84446716D01*
X48111535Y-84395095D01*
X48226517Y-84337997D01*
X48338335Y-84275644D01*
X48446836Y-84208259D01*
X48551867Y-84136064D01*
X48653276Y-84059283D01*
X48750909Y-83978137D01*
X48844614Y-83892850D01*
X48934238Y-83803643D01*
X49019629Y-83710741D01*
X49100633Y-83614364D01*
X49177098Y-83514737D01*
X49248872Y-83412081D01*
X49315800Y-83306618D01*
X49377732Y-83198573D01*
X49434513Y-83088167D01*
X49485991Y-82975622D01*
X49532013Y-82861162D01*
X49572427Y-82745010D01*
X49607079Y-82627386D01*
X49635818Y-82508515D01*
X49658490Y-82388619D01*
X49674942Y-82267921D01*
X49685022Y-82146643D01*
X49688577Y-82025007D01*
X49089803Y-82029768D01*
X49017785Y-82028188D01*
X48948137Y-82025008D01*
X48881381Y-82019894D01*
X48818038Y-82012511D01*
X48758632Y-82002524D01*
X48703684Y-81989599D01*
X48653716Y-81973401D01*
X48630763Y-81963969D01*
X48609251Y-81953594D01*
X48584760Y-81939196D01*
X48561662Y-81923578D01*
X48539884Y-81906852D01*
X48519354Y-81889127D01*
X48500000Y-81870516D01*
X48481749Y-81851127D01*
X48464528Y-81831072D01*
X48448267Y-81810461D01*
X48432891Y-81789405D01*
X48418329Y-81768013D01*
X48391357Y-81724667D01*
X48366772Y-81681307D01*
X48343994Y-81638816D01*
X48301546Y-81559978D01*
X48280717Y-81525399D01*
X48270149Y-81509706D01*
X48259381Y-81495225D01*
X48248341Y-81482066D01*
X48236958Y-81470339D01*
X48225157Y-81460156D01*
X48212868Y-81451627D01*
X48200018Y-81444862D01*
X48186534Y-81439971D01*
X48172344Y-81437066D01*
X48157376Y-81436256D01*
X48157376Y-81436257D01*
X48155384Y-81436311D01*
X48153377Y-81436402D01*
X48151356Y-81436530D01*
X48149320Y-81436696D01*
X48147270Y-81436899D01*
X48145204Y-81437141D01*
X48143124Y-81437421D01*
X48141028Y-81437739D01*
X48108521Y-81450817D01*
X48078264Y-81470867D01*
X48050056Y-81497421D01*
X48023694Y-81530008D01*
X47998974Y-81568161D01*
X47975696Y-81611410D01*
X47932650Y-81711320D01*
X47892936Y-81825986D01*
X47854933Y-81951654D01*
X47777579Y-82220989D01*
X47734986Y-82357150D01*
X47687623Y-82489304D01*
X47633868Y-82613698D01*
X47604087Y-82671813D01*
X47572101Y-82726580D01*
X47537707Y-82777531D01*
X47500702Y-82824196D01*
X47460883Y-82866107D01*
X47418049Y-82902794D01*
X47371997Y-82933789D01*
X47322523Y-82958622D01*
X47269426Y-82976825D01*
X47212503Y-82987927D01*
X47098738Y-82977349D01*
X47096098Y-84636003D01*
X46873886Y-84636003D01*
X46873886Y-82858303D01*
X46826583Y-82794520D01*
X46783351Y-82728742D01*
X46743923Y-82661168D01*
X46708033Y-82591992D01*
X46675413Y-82521412D01*
X46645798Y-82449624D01*
X46618920Y-82376824D01*
X46594513Y-82303210D01*
X46572310Y-82228977D01*
X46552045Y-82154323D01*
X46516260Y-82004535D01*
X46485025Y-81855417D01*
X46456207Y-81708542D01*
X46415970Y-81505582D01*
X46395403Y-81408253D01*
X46374015Y-81314500D01*
X46351416Y-81224930D01*
X46327214Y-81140148D01*
X46314390Y-81099742D01*
X46301018Y-81060761D01*
X46287050Y-81023280D01*
X46272436Y-80987376D01*
X46257129Y-80953123D01*
X46241078Y-80920598D01*
X46224236Y-80889876D01*
X46206552Y-80861033D01*
X46187979Y-80834146D01*
X46168467Y-80809289D01*
X46147968Y-80786539D01*
X46126432Y-80765972D01*
X46103811Y-80747662D01*
X46080056Y-80731687D01*
X46055117Y-80718121D01*
X46028947Y-80707041D01*
X46001495Y-80698522D01*
X45972714Y-80692641D01*
X45942553Y-80689472D01*
X45910966Y-80689092D01*
X45910965Y-80689092D01*
X45867053Y-80702939D01*
X45826262Y-80720907D01*
X45788394Y-80742748D01*
X45753252Y-80768212D01*
X45720640Y-80797052D01*
X45690359Y-80829018D01*
X45662212Y-80863863D01*
X45636002Y-80901337D01*
X45611532Y-80941191D01*
X45588605Y-80983177D01*
X45546587Y-81072552D01*
X45508371Y-81167470D01*
X45472377Y-81265943D01*
X45400745Y-81465597D01*
X45361950Y-81562800D01*
X45319062Y-81655600D01*
X45295591Y-81699728D01*
X45270505Y-81742010D01*
X45243607Y-81782196D01*
X45214700Y-81820038D01*
X45183585Y-81855288D01*
X45150067Y-81887697D01*
X45113947Y-81917016D01*
X45075029Y-81942997D01*
X45053826Y-81955039D01*
X45032255Y-81965983D01*
X44988072Y-81984766D01*
X44942610Y-81999728D01*
X44896000Y-82011248D01*
X44848372Y-82019708D01*
X44799857Y-82025490D01*
X44750586Y-82028972D01*
X44700688Y-82030538D01*
X44294627Y-82019726D01*
X44055015Y-82019726D01*
X44052378Y-81954137D01*
X44057564Y-81800154D01*
X44286706Y-81800154D01*
X44381356Y-81801004D01*
X44472849Y-81803011D01*
X44561240Y-81804483D01*
X44646586Y-81803729D01*
X44688134Y-81801987D01*
X44728941Y-81799055D01*
X44769015Y-81794720D01*
X44808362Y-81788771D01*
X44846990Y-81780996D01*
X44884904Y-81771183D01*
X44922113Y-81759122D01*
X44958624Y-81744601D01*
X44978339Y-81730071D01*
X44997142Y-81713647D01*
X45015089Y-81695425D01*
X45032240Y-81675501D01*
X45064378Y-81630930D01*
X45094014Y-81580702D01*
X45121607Y-81525584D01*
X45147617Y-81466345D01*
X45196721Y-81338568D01*
X45244997Y-81203513D01*
X45296115Y-81067320D01*
X45323888Y-81000714D01*
X45353748Y-80936127D01*
X45386154Y-80874325D01*
X45421566Y-80816076D01*
X45443415Y-80783835D01*
X45466220Y-80752947D01*
X45489920Y-80723447D01*
X45514456Y-80695372D01*
X45539769Y-80668755D01*
X45565800Y-80643633D01*
X45592489Y-80620041D01*
X45619776Y-80598014D01*
X45647603Y-80577587D01*
X45675910Y-80558797D01*
X45704637Y-80541678D01*
X45733725Y-80526265D01*
X45763115Y-80512595D01*
X45792747Y-80500702D01*
X45822562Y-80490622D01*
X45852501Y-80482390D01*
X45882504Y-80476042D01*
X45912511Y-80471613D01*
X45942464Y-80469138D01*
X45972302Y-80468652D01*
X46001967Y-80470192D01*
X46031399Y-80473792D01*
X46060538Y-80479488D01*
X46089326Y-80487315D01*
X46117703Y-80497309D01*
X46145609Y-80509505D01*
X46172985Y-80523937D01*
X46199772Y-80540643D01*
X46225910Y-80559656D01*
X46251340Y-80581013D01*
X46276002Y-80604749D01*
X46299837Y-80630899D01*
X46334430Y-80670048D01*
X46366745Y-80711539D01*
X46396900Y-80755243D01*
X46425015Y-80801030D01*
X46475603Y-80898338D01*
X46519463Y-81002426D01*
X46557549Y-81112258D01*
X46590818Y-81226799D01*
X46620224Y-81345013D01*
X46646721Y-81465864D01*
X46742725Y-81954919D01*
X46769004Y-82073417D01*
X46798104Y-82188337D01*
X46830980Y-82298643D01*
X46868587Y-82403299D01*
X46868587Y-79202378D01*
X47098738Y-79202378D01*
X47098739Y-82752496D01*
X47151912Y-82757391D01*
X47165154Y-82758304D01*
X47178320Y-82758763D01*
X47191384Y-82758603D01*
X47204317Y-82757662D01*
X47217092Y-82755773D01*
X47223411Y-82754422D01*
X47229681Y-82752773D01*
X47235898Y-82750805D01*
X47242059Y-82748497D01*
X47248159Y-82745830D01*
X47254195Y-82742781D01*
X47260165Y-82739332D01*
X47266065Y-82735460D01*
X47271891Y-82731146D01*
X47277639Y-82726370D01*
X47283307Y-82721110D01*
X47288891Y-82715346D01*
X47294388Y-82709057D01*
X47299794Y-82702223D01*
X47348349Y-82630433D01*
X47391867Y-82555392D01*
X47430960Y-82477578D01*
X47466241Y-82397465D01*
X47498325Y-82315528D01*
X47527825Y-82232243D01*
X47581525Y-82063529D01*
X47632250Y-81895126D01*
X47684907Y-81730835D01*
X47713494Y-81651420D01*
X47744404Y-81574459D01*
X47778251Y-81500427D01*
X47815649Y-81429800D01*
X47834382Y-81403871D01*
X47857981Y-81375138D01*
X47886087Y-81344951D01*
X47918341Y-81314663D01*
X47954383Y-81285624D01*
X47993854Y-81259186D01*
X48014763Y-81247364D01*
X48036395Y-81236699D01*
X48058705Y-81227360D01*
X48081648Y-81219515D01*
X48105178Y-81213334D01*
X48129251Y-81208986D01*
X48153823Y-81206639D01*
X48178847Y-81206462D01*
X48204280Y-81208624D01*
X48230076Y-81213295D01*
X48256191Y-81220642D01*
X48282579Y-81230835D01*
X48309196Y-81244043D01*
X48335997Y-81260434D01*
X48362937Y-81280179D01*
X48389970Y-81303444D01*
X48417052Y-81330400D01*
X48444139Y-81361215D01*
X48471185Y-81396059D01*
X48498145Y-81435099D01*
X48507294Y-81448464D01*
X48515955Y-81462241D01*
X48532073Y-81490814D01*
X48547020Y-81520378D01*
X48561316Y-81550493D01*
X48590029Y-81610620D01*
X48605487Y-81639752D01*
X48613718Y-81653893D01*
X48622371Y-81667677D01*
X48631510Y-81681049D01*
X48641201Y-81693955D01*
X48651508Y-81706339D01*
X48662497Y-81718146D01*
X48674233Y-81729322D01*
X48686779Y-81739811D01*
X48700202Y-81749559D01*
X48714566Y-81758511D01*
X48729936Y-81766611D01*
X48746378Y-81773804D01*
X48763955Y-81780037D01*
X48782734Y-81785253D01*
X48802778Y-81789398D01*
X48824154Y-81792417D01*
X48846925Y-81794254D01*
X48871158Y-81794856D01*
X49688577Y-81797513D01*
X49682861Y-81680610D01*
X49671305Y-81563728D01*
X49654006Y-81447095D01*
X49631063Y-81330940D01*
X49602575Y-81215493D01*
X49568641Y-81100983D01*
X49529360Y-80987637D01*
X49484831Y-80875686D01*
X49435152Y-80765359D01*
X49380423Y-80656883D01*
X49320742Y-80550489D01*
X49256208Y-80446404D01*
X49186921Y-80344859D01*
X49112979Y-80246081D01*
X49034480Y-80150300D01*
X48951524Y-80057745D01*
X48864210Y-79968645D01*
X48772637Y-79883228D01*
X48676903Y-79801724D01*
X48577107Y-79724361D01*
X48473349Y-79651369D01*
X48365726Y-79582976D01*
X48254339Y-79519412D01*
X48139285Y-79460904D01*
X48020664Y-79407683D01*
X47898574Y-79359977D01*
X47773115Y-79318015D01*
X47644386Y-79282026D01*
X47512484Y-79252239D01*
X47377510Y-79228882D01*
X47239562Y-79212186D01*
X47098738Y-79202378D01*
X46868587Y-79202378D01*
X46694270Y-79209206D01*
X46507925Y-79233398D01*
X46312500Y-79275677D01*
X46110943Y-79336766D01*
X45906200Y-79417388D01*
X45701219Y-79518265D01*
X45498947Y-79640121D01*
X45399748Y-79709142D01*
X45302332Y-79783679D01*
X45207066Y-79863821D01*
X45114320Y-79949661D01*
X45024461Y-80041287D01*
X44937859Y-80138790D01*
X44854881Y-80242262D01*
X44775895Y-80351791D01*
X44701272Y-80467468D01*
X44631378Y-80589385D01*
X44566582Y-80717630D01*
X44507253Y-80852295D01*
X44453759Y-80993470D01*
X44406468Y-81141244D01*
X44365749Y-81295710D01*
X44331970Y-81456956D01*
X44305499Y-81625074D01*
X44286706Y-81800154D01*
X44057564Y-81800154D01*
X44057588Y-81799445D01*
X44069205Y-81647416D01*
X44087125Y-81498180D01*
X44111241Y-81351866D01*
X44141446Y-81208605D01*
X44177636Y-81068527D01*
X44219703Y-80931761D01*
X44267542Y-80798437D01*
X44321047Y-80668685D01*
X44380111Y-80542636D01*
X44444629Y-80420419D01*
X44514495Y-80302165D01*
X44589602Y-80188002D01*
X44669844Y-80078062D01*
X44755116Y-79972474D01*
X44845311Y-79871367D01*
X44940324Y-79774873D01*
X45040048Y-79683120D01*
X45144377Y-79596240D01*
X45253205Y-79514361D01*
X45366427Y-79437614D01*
X45483935Y-79366129D01*
X45605625Y-79300035D01*
X45731389Y-79239463D01*
X45861123Y-79184543D01*
X45994719Y-79135404D01*
X46132073Y-79092177D01*
X46273077Y-79054991D01*
X46417626Y-79023976D01*
X46565613Y-78999263D01*
X46716934Y-78980981D01*
X46871481Y-78969261D01*
X46878009Y-78676992D01*
X47102919Y-78677244D01*
G36*
X47102919Y-78677244D02*
G01*
X47103278Y-78962569D01*
X47246711Y-78972268D01*
X47388516Y-78988612D01*
X47528500Y-79011474D01*
X47666468Y-79040731D01*
X47802225Y-79076256D01*
X47935577Y-79117924D01*
X48066330Y-79165610D01*
X48194290Y-79219188D01*
X48319262Y-79278534D01*
X48441052Y-79343521D01*
X48559465Y-79414026D01*
X48674307Y-79489921D01*
X48785385Y-79571083D01*
X48892502Y-79657386D01*
X48995466Y-79748705D01*
X49094082Y-79844913D01*
X49188155Y-79945887D01*
X49277491Y-80051500D01*
X49361896Y-80161628D01*
X49441175Y-80276145D01*
X49515134Y-80394926D01*
X49583579Y-80517846D01*
X49646315Y-80644779D01*
X49703148Y-80775599D01*
X49753884Y-80910183D01*
X49798328Y-81048404D01*
X49836286Y-81190137D01*
X49867564Y-81335257D01*
X49891967Y-81483639D01*
X49909300Y-81635157D01*
X49919371Y-81789686D01*
X49921983Y-81947101D01*
X49917812Y-82149103D01*
X49893865Y-82364556D01*
X49849461Y-82590032D01*
X49783921Y-82822102D01*
X49696566Y-83057339D01*
X49586717Y-83292313D01*
X49523144Y-83408631D01*
X49453692Y-83523597D01*
X49378277Y-83636784D01*
X49296814Y-83747762D01*
X49209217Y-83856104D01*
X49115402Y-83961381D01*
X49015283Y-84063163D01*
X48908776Y-84161024D01*
X48795796Y-84254533D01*
X48676258Y-84343264D01*
X48550076Y-84426786D01*
X48417167Y-84504672D01*
X48277445Y-84576492D01*
X48130824Y-84641820D01*
X47977221Y-84700225D01*
X47816550Y-84751280D01*
X47648726Y-84794555D01*
X47473664Y-84829623D01*
X47291280Y-84856055D01*
X47101488Y-84873422D01*
X47094020Y-85156558D01*
X46869185Y-85154263D01*
X46866905Y-84874146D01*
X46686968Y-84857150D01*
X46513351Y-84831886D01*
X46346016Y-84798701D01*
X46184924Y-84757945D01*
X46030036Y-84709964D01*
X45881314Y-84655106D01*
X45738719Y-84593719D01*
X45602213Y-84526151D01*
X45471757Y-84452749D01*
X45347312Y-84373861D01*
X45228841Y-84289835D01*
X45116303Y-84201018D01*
X45009662Y-84107758D01*
X44908878Y-84010403D01*
X44813912Y-83909301D01*
X44724727Y-83804799D01*
X44641283Y-83697245D01*
X44563542Y-83586986D01*
X44491466Y-83474372D01*
X44425015Y-83359748D01*
X44308836Y-83125864D01*
X44214698Y-82888118D01*
X44142292Y-82649290D01*
X44091309Y-82412163D01*
X44061440Y-82179518D01*
X44055015Y-82019726D01*
X44294627Y-82019726D01*
X44304525Y-82169049D01*
X44321423Y-82314532D01*
X44345077Y-82456126D01*
X44375243Y-82593780D01*
X44411677Y-82727442D01*
X44454136Y-82857061D01*
X44502375Y-82982587D01*
X44556151Y-83103968D01*
X44615220Y-83221154D01*
X44679338Y-83334094D01*
X44748262Y-83442736D01*
X44821747Y-83547030D01*
X44899550Y-83646925D01*
X44981426Y-83742370D01*
X45067133Y-83833313D01*
X45156426Y-83919704D01*
X45249061Y-84001493D01*
X45344795Y-84078627D01*
X45443384Y-84151056D01*
X45544584Y-84218730D01*
X45648151Y-84281596D01*
X45753841Y-84339605D01*
X45861411Y-84392705D01*
X45970616Y-84440845D01*
X46081214Y-84483975D01*
X46192959Y-84522042D01*
X46305608Y-84554998D01*
X46418918Y-84582789D01*
X46532645Y-84605366D01*
X46646544Y-84622678D01*
X46760373Y-84634673D01*
X46873886Y-84641301D01*
X46873886Y-84636003D01*
X47096098Y-84636003D01*
X47230895Y-84628955D01*
X47363749Y-84614872D01*
X47494508Y-84593976D01*
X47623020Y-84566490D01*
X47749131Y-84532637D01*
X47872690Y-84492638D01*
X47993542Y-84446716D01*
X48111535Y-84395095D01*
X48226517Y-84337997D01*
X48338335Y-84275644D01*
X48446836Y-84208259D01*
X48551867Y-84136064D01*
X48653276Y-84059283D01*
X48750909Y-83978137D01*
X48844614Y-83892850D01*
X48934238Y-83803643D01*
X49019629Y-83710741D01*
X49100633Y-83614364D01*
X49177098Y-83514737D01*
X49248872Y-83412081D01*
X49315800Y-83306618D01*
X49377732Y-83198573D01*
X49434513Y-83088167D01*
X49485991Y-82975622D01*
X49532013Y-82861162D01*
X49572427Y-82745010D01*
X49607079Y-82627386D01*
X49635818Y-82508515D01*
X49658490Y-82388619D01*
X49674942Y-82267921D01*
X49685022Y-82146643D01*
X49688577Y-82025007D01*
X49089803Y-82029768D01*
X49017785Y-82028188D01*
X48948137Y-82025008D01*
X48881381Y-82019894D01*
X48818038Y-82012511D01*
X48758632Y-82002524D01*
X48703684Y-81989599D01*
X48653716Y-81973401D01*
X48630763Y-81963969D01*
X48609251Y-81953594D01*
X48584760Y-81939196D01*
X48561662Y-81923578D01*
X48539884Y-81906852D01*
X48519354Y-81889127D01*
X48500000Y-81870516D01*
X48481749Y-81851127D01*
X48464528Y-81831072D01*
X48448267Y-81810461D01*
X48432891Y-81789405D01*
X48418329Y-81768013D01*
X48391357Y-81724667D01*
X48366772Y-81681307D01*
X48343994Y-81638816D01*
X48301546Y-81559978D01*
X48280717Y-81525399D01*
X48270149Y-81509706D01*
X48259381Y-81495225D01*
X48248341Y-81482066D01*
X48236958Y-81470339D01*
X48225157Y-81460156D01*
X48212868Y-81451627D01*
X48200018Y-81444862D01*
X48186534Y-81439971D01*
X48172344Y-81437066D01*
X48157376Y-81436256D01*
X48157376Y-81436257D01*
X48155384Y-81436311D01*
X48153377Y-81436402D01*
X48151356Y-81436530D01*
X48149320Y-81436696D01*
X48147270Y-81436899D01*
X48145204Y-81437141D01*
X48143124Y-81437421D01*
X48141028Y-81437739D01*
X48108521Y-81450817D01*
X48078264Y-81470867D01*
X48050056Y-81497421D01*
X48023694Y-81530008D01*
X47998974Y-81568161D01*
X47975696Y-81611410D01*
X47932650Y-81711320D01*
X47892936Y-81825986D01*
X47854933Y-81951654D01*
X47777579Y-82220989D01*
X47734986Y-82357150D01*
X47687623Y-82489304D01*
X47633868Y-82613698D01*
X47604087Y-82671813D01*
X47572101Y-82726580D01*
X47537707Y-82777531D01*
X47500702Y-82824196D01*
X47460883Y-82866107D01*
X47418049Y-82902794D01*
X47371997Y-82933789D01*
X47322523Y-82958622D01*
X47269426Y-82976825D01*
X47212503Y-82987927D01*
X47098738Y-82977349D01*
X47096098Y-84636003D01*
X46873886Y-84636003D01*
X46873886Y-82858303D01*
X46826583Y-82794520D01*
X46783351Y-82728742D01*
X46743923Y-82661168D01*
X46708033Y-82591992D01*
X46675413Y-82521412D01*
X46645798Y-82449624D01*
X46618920Y-82376824D01*
X46594513Y-82303210D01*
X46572310Y-82228977D01*
X46552045Y-82154323D01*
X46516260Y-82004535D01*
X46485025Y-81855417D01*
X46456207Y-81708542D01*
X46415970Y-81505582D01*
X46395403Y-81408253D01*
X46374015Y-81314500D01*
X46351416Y-81224930D01*
X46327214Y-81140148D01*
X46314390Y-81099742D01*
X46301018Y-81060761D01*
X46287050Y-81023280D01*
X46272436Y-80987376D01*
X46257129Y-80953123D01*
X46241078Y-80920598D01*
X46224236Y-80889876D01*
X46206552Y-80861033D01*
X46187979Y-80834146D01*
X46168467Y-80809289D01*
X46147968Y-80786539D01*
X46126432Y-80765972D01*
X46103811Y-80747662D01*
X46080056Y-80731687D01*
X46055117Y-80718121D01*
X46028947Y-80707041D01*
X46001495Y-80698522D01*
X45972714Y-80692641D01*
X45942553Y-80689472D01*
X45910966Y-80689092D01*
X45910965Y-80689092D01*
X45867053Y-80702939D01*
X45826262Y-80720907D01*
X45788394Y-80742748D01*
X45753252Y-80768212D01*
X45720640Y-80797052D01*
X45690359Y-80829018D01*
X45662212Y-80863863D01*
X45636002Y-80901337D01*
X45611532Y-80941191D01*
X45588605Y-80983177D01*
X45546587Y-81072552D01*
X45508371Y-81167470D01*
X45472377Y-81265943D01*
X45400745Y-81465597D01*
X45361950Y-81562800D01*
X45319062Y-81655600D01*
X45295591Y-81699728D01*
X45270505Y-81742010D01*
X45243607Y-81782196D01*
X45214700Y-81820038D01*
X45183585Y-81855288D01*
X45150067Y-81887697D01*
X45113947Y-81917016D01*
X45075029Y-81942997D01*
X45053826Y-81955039D01*
X45032255Y-81965983D01*
X44988072Y-81984766D01*
X44942610Y-81999728D01*
X44896000Y-82011248D01*
X44848372Y-82019708D01*
X44799857Y-82025490D01*
X44750586Y-82028972D01*
X44700688Y-82030538D01*
X44294627Y-82019726D01*
X44055015Y-82019726D01*
X44052378Y-81954137D01*
X44057564Y-81800154D01*
X44286706Y-81800154D01*
X44381356Y-81801004D01*
X44472849Y-81803011D01*
X44561240Y-81804483D01*
X44646586Y-81803729D01*
X44688134Y-81801987D01*
X44728941Y-81799055D01*
X44769015Y-81794720D01*
X44808362Y-81788771D01*
X44846990Y-81780996D01*
X44884904Y-81771183D01*
X44922113Y-81759122D01*
X44958624Y-81744601D01*
X44978339Y-81730071D01*
X44997142Y-81713647D01*
X45015089Y-81695425D01*
X45032240Y-81675501D01*
X45064378Y-81630930D01*
X45094014Y-81580702D01*
X45121607Y-81525584D01*
X45147617Y-81466345D01*
X45196721Y-81338568D01*
X45244997Y-81203513D01*
X45296115Y-81067320D01*
X45323888Y-81000714D01*
X45353748Y-80936127D01*
X45386154Y-80874325D01*
X45421566Y-80816076D01*
X45443415Y-80783835D01*
X45466220Y-80752947D01*
X45489920Y-80723447D01*
X45514456Y-80695372D01*
X45539769Y-80668755D01*
X45565800Y-80643633D01*
X45592489Y-80620041D01*
X45619776Y-80598014D01*
X45647603Y-80577587D01*
X45675910Y-80558797D01*
X45704637Y-80541678D01*
X45733725Y-80526265D01*
X45763115Y-80512595D01*
X45792747Y-80500702D01*
X45822562Y-80490622D01*
X45852501Y-80482390D01*
X45882504Y-80476042D01*
X45912511Y-80471613D01*
X45942464Y-80469138D01*
X45972302Y-80468652D01*
X46001967Y-80470192D01*
X46031399Y-80473792D01*
X46060538Y-80479488D01*
X46089326Y-80487315D01*
X46117703Y-80497309D01*
X46145609Y-80509505D01*
X46172985Y-80523937D01*
X46199772Y-80540643D01*
X46225910Y-80559656D01*
X46251340Y-80581013D01*
X46276002Y-80604749D01*
X46299837Y-80630899D01*
X46334430Y-80670048D01*
X46366745Y-80711539D01*
X46396900Y-80755243D01*
X46425015Y-80801030D01*
X46475603Y-80898338D01*
X46519463Y-81002426D01*
X46557549Y-81112258D01*
X46590818Y-81226799D01*
X46620224Y-81345013D01*
X46646721Y-81465864D01*
X46742725Y-81954919D01*
X46769004Y-82073417D01*
X46798104Y-82188337D01*
X46830980Y-82298643D01*
X46868587Y-82403299D01*
X46868587Y-79202378D01*
X47098738Y-79202378D01*
X47098739Y-82752496D01*
X47151912Y-82757391D01*
X47165154Y-82758304D01*
X47178320Y-82758763D01*
X47191384Y-82758603D01*
X47204317Y-82757662D01*
X47217092Y-82755773D01*
X47223411Y-82754422D01*
X47229681Y-82752773D01*
X47235898Y-82750805D01*
X47242059Y-82748497D01*
X47248159Y-82745830D01*
X47254195Y-82742781D01*
X47260165Y-82739332D01*
X47266065Y-82735460D01*
X47271891Y-82731146D01*
X47277639Y-82726370D01*
X47283307Y-82721110D01*
X47288891Y-82715346D01*
X47294388Y-82709057D01*
X47299794Y-82702223D01*
X47348349Y-82630433D01*
X47391867Y-82555392D01*
X47430960Y-82477578D01*
X47466241Y-82397465D01*
X47498325Y-82315528D01*
X47527825Y-82232243D01*
X47581525Y-82063529D01*
X47632250Y-81895126D01*
X47684907Y-81730835D01*
X47713494Y-81651420D01*
X47744404Y-81574459D01*
X47778251Y-81500427D01*
X47815649Y-81429800D01*
X47834382Y-81403871D01*
X47857981Y-81375138D01*
X47886087Y-81344951D01*
X47918341Y-81314663D01*
X47954383Y-81285624D01*
X47993854Y-81259186D01*
X48014763Y-81247364D01*
X48036395Y-81236699D01*
X48058705Y-81227360D01*
X48081648Y-81219515D01*
X48105178Y-81213334D01*
X48129251Y-81208986D01*
X48153823Y-81206639D01*
X48178847Y-81206462D01*
X48204280Y-81208624D01*
X48230076Y-81213295D01*
X48256191Y-81220642D01*
X48282579Y-81230835D01*
X48309196Y-81244043D01*
X48335997Y-81260434D01*
X48362937Y-81280179D01*
X48389970Y-81303444D01*
X48417052Y-81330400D01*
X48444139Y-81361215D01*
X48471185Y-81396059D01*
X48498145Y-81435099D01*
X48507294Y-81448464D01*
X48515955Y-81462241D01*
X48532073Y-81490814D01*
X48547020Y-81520378D01*
X48561316Y-81550493D01*
X48590029Y-81610620D01*
X48605487Y-81639752D01*
X48613718Y-81653893D01*
X48622371Y-81667677D01*
X48631510Y-81681049D01*
X48641201Y-81693955D01*
X48651508Y-81706339D01*
X48662497Y-81718146D01*
X48674233Y-81729322D01*
X48686779Y-81739811D01*
X48700202Y-81749559D01*
X48714566Y-81758511D01*
X48729936Y-81766611D01*
X48746378Y-81773804D01*
X48763955Y-81780037D01*
X48782734Y-81785253D01*
X48802778Y-81789398D01*
X48824154Y-81792417D01*
X48846925Y-81794254D01*
X48871158Y-81794856D01*
X49688577Y-81797513D01*
X49682861Y-81680610D01*
X49671305Y-81563728D01*
X49654006Y-81447095D01*
X49631063Y-81330940D01*
X49602575Y-81215493D01*
X49568641Y-81100983D01*
X49529360Y-80987637D01*
X49484831Y-80875686D01*
X49435152Y-80765359D01*
X49380423Y-80656883D01*
X49320742Y-80550489D01*
X49256208Y-80446404D01*
X49186921Y-80344859D01*
X49112979Y-80246081D01*
X49034480Y-80150300D01*
X48951524Y-80057745D01*
X48864210Y-79968645D01*
X48772637Y-79883228D01*
X48676903Y-79801724D01*
X48577107Y-79724361D01*
X48473349Y-79651369D01*
X48365726Y-79582976D01*
X48254339Y-79519412D01*
X48139285Y-79460904D01*
X48020664Y-79407683D01*
X47898574Y-79359977D01*
X47773115Y-79318015D01*
X47644386Y-79282026D01*
X47512484Y-79252239D01*
X47377510Y-79228882D01*
X47239562Y-79212186D01*
X47098738Y-79202378D01*
X46868587Y-79202378D01*
X46694270Y-79209206D01*
X46507925Y-79233398D01*
X46312500Y-79275677D01*
X46110943Y-79336766D01*
X45906200Y-79417388D01*
X45701219Y-79518265D01*
X45498947Y-79640121D01*
X45399748Y-79709142D01*
X45302332Y-79783679D01*
X45207066Y-79863821D01*
X45114320Y-79949661D01*
X45024461Y-80041287D01*
X44937859Y-80138790D01*
X44854881Y-80242262D01*
X44775895Y-80351791D01*
X44701272Y-80467468D01*
X44631378Y-80589385D01*
X44566582Y-80717630D01*
X44507253Y-80852295D01*
X44453759Y-80993470D01*
X44406468Y-81141244D01*
X44365749Y-81295710D01*
X44331970Y-81456956D01*
X44305499Y-81625074D01*
X44286706Y-81800154D01*
X44057564Y-81800154D01*
X44057588Y-81799445D01*
X44069205Y-81647416D01*
X44087125Y-81498180D01*
X44111241Y-81351866D01*
X44141446Y-81208605D01*
X44177636Y-81068527D01*
X44219703Y-80931761D01*
X44267542Y-80798437D01*
X44321047Y-80668685D01*
X44380111Y-80542636D01*
X44444629Y-80420419D01*
X44514495Y-80302165D01*
X44589602Y-80188002D01*
X44669844Y-80078062D01*
X44755116Y-79972474D01*
X44845311Y-79871367D01*
X44940324Y-79774873D01*
X45040048Y-79683120D01*
X45144377Y-79596240D01*
X45253205Y-79514361D01*
X45366427Y-79437614D01*
X45483935Y-79366129D01*
X45605625Y-79300035D01*
X45731389Y-79239463D01*
X45861123Y-79184543D01*
X45994719Y-79135404D01*
X46132073Y-79092177D01*
X46273077Y-79054991D01*
X46417626Y-79023976D01*
X46565613Y-78999263D01*
X46716934Y-78980981D01*
X46871481Y-78969261D01*
X46878009Y-78676992D01*
X47102919Y-78677244D01*
G37*
D11*
X41000000Y-89000000D02*
X121000000Y-89000000D01*
X121000000Y-125000000D01*
X41000000Y-125000000D01*
X41000000Y-89000000D01*
D12*
X65000000Y-98500000D02*
X90500000Y-98500000D01*
X90500000Y-101500000D01*
X65000000Y-101500000D01*
X65000000Y-103500000D01*
X49925238Y-100000000D01*
X65000000Y-96500000D01*
X65000000Y-98500000D01*
X22143851Y-97109910D02*
X22315280Y-97167052D01*
X22315280Y-97167052D02*
X22600994Y-97167052D01*
X22600994Y-97167052D02*
X22715280Y-97109910D01*
X22715280Y-97109910D02*
X22772422Y-97052767D01*
X22772422Y-97052767D02*
X22829565Y-96938481D01*
X22829565Y-96938481D02*
X22829565Y-96824195D01*
X22829565Y-96824195D02*
X22772422Y-96709910D01*
X22772422Y-96709910D02*
X22715280Y-96652767D01*
X22715280Y-96652767D02*
X22600994Y-96595624D01*
X22600994Y-96595624D02*
X22372422Y-96538481D01*
X22372422Y-96538481D02*
X22258137Y-96481338D01*
X22258137Y-96481338D02*
X22200994Y-96424195D01*
X22200994Y-96424195D02*
X22143851Y-96309910D01*
X22143851Y-96309910D02*
X22143851Y-96195624D01*
X22143851Y-96195624D02*
X22200994Y-96081338D01*
X22200994Y-96081338D02*
X22258137Y-96024195D01*
X22258137Y-96024195D02*
X22372422Y-95967052D01*
X22372422Y-95967052D02*
X22658137Y-95967052D01*
X22658137Y-95967052D02*
X22829565Y-96024195D01*
X23343851Y-97167052D02*
X23343851Y-95967052D01*
X23343851Y-95967052D02*
X23629565Y-95967052D01*
X23629565Y-95967052D02*
X23800994Y-96024195D01*
X23800994Y-96024195D02*
X23915279Y-96138481D01*
X23915279Y-96138481D02*
X23972422Y-96252767D01*
X23972422Y-96252767D02*
X24029565Y-96481338D01*
X24029565Y-96481338D02*
X24029565Y-96652767D01*
X24029565Y-96652767D02*
X23972422Y-96881338D01*
X23972422Y-96881338D02*
X23915279Y-96995624D01*
X23915279Y-96995624D02*
X23800994Y-97109910D01*
X23800994Y-97109910D02*
X23629565Y-97167052D01*
X23629565Y-97167052D02*
X23343851Y-97167052D01*
X24486708Y-96824195D02*
X25058137Y-96824195D01*
X24372422Y-97167052D02*
X24772422Y-95967052D01*
X24772422Y-95967052D02*
X25172422Y-97167052D01*
D13*
G36*
X25009802Y-82992373D02*
G01*
X24919346Y-82987267D01*
X24835137Y-82972327D01*
X24756351Y-82947897D01*
X24681419Y-82913727D01*
X24614307Y-82871693D01*
X24554265Y-82821647D01*
X24501505Y-82764001D01*
X24457179Y-82699971D01*
X24420981Y-82628940D01*
X24394822Y-82553614D01*
X24378829Y-82472625D01*
X24373354Y-82385014D01*
X24378831Y-82297356D01*
X24394826Y-82216368D01*
X24420981Y-82141089D01*
X24457217Y-82070090D01*
X24501708Y-82006060D01*
X24554778Y-81948382D01*
X24615134Y-81898313D01*
X24682425Y-81856282D01*
X24757377Y-81822132D01*
X24836163Y-81797702D01*
X24920372Y-81782762D01*
X25010828Y-81777656D01*
X25111540Y-81783790D01*
X25203307Y-81801589D01*
X25287360Y-81830486D01*
X25365826Y-81871434D01*
X25434527Y-81922865D01*
X25494429Y-81985311D01*
X25320259Y-82146804D01*
X25255743Y-82085971D01*
X25186023Y-82043197D01*
X25109158Y-82017028D01*
X25023870Y-82008099D01*
X24943938Y-82015098D01*
X24872928Y-82035356D01*
X24808641Y-82068539D01*
X24754007Y-82112879D01*
X24709594Y-82167538D01*
X24675971Y-82232387D01*
X24655390Y-82304118D01*
X24648274Y-82385014D01*
X24655390Y-82465911D01*
X24675971Y-82537642D01*
X24709594Y-82602491D01*
X24754007Y-82657150D01*
X24808641Y-82701490D01*
X24872928Y-82734673D01*
X24943935Y-82754876D01*
X25023870Y-82761857D01*
X25109162Y-82752945D01*
X25186023Y-82726832D01*
X25255666Y-82683850D01*
X25320259Y-82622125D01*
X25494429Y-82783692D01*
X25434599Y-82845805D01*
X25365897Y-82897328D01*
X25287360Y-82938737D01*
X25203259Y-82968058D01*
X25111169Y-82986136D01*
X25009802Y-82992373D01*
G37*
G36*
X26001917Y-82985339D02*
G01*
X25927437Y-82980312D01*
X25860888Y-82965820D01*
X25801076Y-82942401D01*
X25747168Y-82908684D01*
X25701735Y-82864653D01*
X25664055Y-82809118D01*
X25637759Y-82746959D01*
X25620835Y-82671353D01*
X25614743Y-82579481D01*
X25614743Y-82069428D01*
X25876620Y-82069428D01*
X25876620Y-82540353D01*
X25882938Y-82614722D01*
X25899658Y-82668494D01*
X25924687Y-82706756D01*
X25959962Y-82735414D01*
X26004071Y-82753164D01*
X26059656Y-82759512D01*
X26117968Y-82752751D01*
X26167660Y-82733280D01*
X26209207Y-82700625D01*
X26241812Y-82652753D01*
X26261599Y-82594130D01*
X26268923Y-82516100D01*
X26268923Y-82069428D01*
X26530873Y-82069428D01*
X26530873Y-82972590D01*
X26281306Y-82972590D01*
X26281306Y-82723535D01*
X26328201Y-82796735D01*
X26292092Y-82854403D01*
X26247511Y-82901006D01*
X26193745Y-82937712D01*
X26133695Y-82964076D01*
X26070061Y-82979952D01*
X26001917Y-82985339D01*
G37*
G36*
X26774725Y-82972590D02*
G01*
X26774725Y-82069428D01*
X27024219Y-82069428D01*
X27024219Y-82325224D01*
X26989781Y-82251365D01*
X27022156Y-82191952D01*
X27064762Y-82143917D01*
X27118522Y-82105918D01*
X27179591Y-82079424D01*
X27251259Y-82062685D01*
X27335629Y-82056752D01*
X27335629Y-82298259D01*
X27304708Y-82294742D01*
X27276937Y-82293570D01*
X27206770Y-82300962D01*
X27149500Y-82321770D01*
X27102328Y-82355339D01*
X27075085Y-82388047D01*
X27054655Y-82429398D01*
X27041417Y-82481349D01*
X27036602Y-82546435D01*
X27036602Y-82972590D01*
X26774725Y-82972590D01*
G37*
G36*
X27492213Y-82972590D02*
G01*
X27492213Y-82069428D01*
X27741707Y-82069428D01*
X27741707Y-82325224D01*
X27707269Y-82251365D01*
X27739644Y-82191952D01*
X27782250Y-82143917D01*
X27836009Y-82105918D01*
X27897079Y-82079424D01*
X27968747Y-82062685D01*
X28053117Y-82056752D01*
X28053117Y-82298259D01*
X28022196Y-82294742D01*
X27994425Y-82293570D01*
X27924258Y-82300962D01*
X27866987Y-82321770D01*
X27819816Y-82355339D01*
X27792573Y-82388047D01*
X27772143Y-82429398D01*
X27758905Y-82481349D01*
X27754090Y-82546435D01*
X27754090Y-82972590D01*
X27492213Y-82972590D01*
G37*
G36*
X28648752Y-82985339D02*
G01*
X28547022Y-82978250D01*
X28457428Y-82957931D01*
X28378082Y-82925255D01*
X28305773Y-82879559D01*
X28246299Y-82824660D01*
X28198344Y-82759952D01*
X28163248Y-82687435D01*
X28141917Y-82608209D01*
X28134596Y-82520716D01*
X28141809Y-82432232D01*
X28162745Y-82352707D01*
X28197025Y-82280527D01*
X28243820Y-82215653D01*
X28300695Y-82161124D01*
X28368630Y-82116176D01*
X28443476Y-82083547D01*
X28525307Y-82063608D01*
X28615559Y-82056752D01*
X28702751Y-82063238D01*
X28782081Y-82082118D01*
X28854868Y-82113026D01*
X28920917Y-82155927D01*
X28976781Y-82209272D01*
X29023323Y-82274006D01*
X29057033Y-82346253D01*
X29078026Y-82429108D01*
X29085385Y-82524746D01*
X29084212Y-82559111D01*
X29081355Y-82594502D01*
X28347234Y-82594502D01*
X28347234Y-82441874D01*
X28942723Y-82441874D01*
X28841533Y-82487523D01*
X28834790Y-82420749D01*
X28813616Y-82365158D01*
X28779212Y-82318274D01*
X28734408Y-82283092D01*
X28680928Y-82261158D01*
X28616805Y-82253490D01*
X28552616Y-82261131D01*
X28498396Y-82283092D01*
X28453137Y-82318456D01*
X28419188Y-82365670D01*
X28398468Y-82421899D01*
X28391124Y-82490527D01*
X28391124Y-82531414D01*
X28399559Y-82601936D01*
X28423731Y-82661033D01*
X28462975Y-82710075D01*
X28516201Y-82746763D01*
X28579596Y-82769001D01*
X28656445Y-82776878D01*
X28725569Y-82771131D01*
X28782621Y-82755042D01*
X28834341Y-82727867D01*
X28883298Y-82688437D01*
X29022663Y-82839599D01*
X28977529Y-82883016D01*
X28925529Y-82919117D01*
X28865859Y-82948116D01*
X28802383Y-82968247D01*
X28730441Y-82980903D01*
X28648752Y-82985339D01*
G37*
G36*
X29261313Y-82972590D02*
G01*
X29261313Y-82069428D01*
X29510807Y-82069428D01*
X29510807Y-82319875D01*
X29463986Y-82244624D01*
X29501308Y-82187951D01*
X29547413Y-82141650D01*
X29603131Y-82104746D01*
X29665076Y-82078460D01*
X29733323Y-82062322D01*
X29809101Y-82056752D01*
X29879952Y-82061673D01*
X29943726Y-82075912D01*
X30001515Y-82099031D01*
X30053622Y-82132031D01*
X30097962Y-82175113D01*
X30135165Y-82229456D01*
X30161254Y-82290183D01*
X30178100Y-82364667D01*
X30184184Y-82455869D01*
X30184184Y-82972590D01*
X29922234Y-82972590D01*
X29922234Y-82494997D01*
X29915998Y-82423866D01*
X29899391Y-82371854D01*
X29874314Y-82334310D01*
X29839253Y-82306205D01*
X29795315Y-82288756D01*
X29739858Y-82282506D01*
X29679472Y-82289255D01*
X29627457Y-82308737D01*
X29583898Y-82341422D01*
X29550594Y-82388458D01*
X29530654Y-82446537D01*
X29523190Y-82525918D01*
X29523190Y-82972590D01*
X29261313Y-82972590D01*
G37*
G36*
X30974652Y-82972590D02*
G01*
X30974652Y-82796588D01*
X30958898Y-82756947D01*
X30958898Y-82442021D01*
X30952717Y-82387995D01*
X30935455Y-82345268D01*
X30907607Y-82311229D01*
X30870592Y-82286956D01*
X30819499Y-82270879D01*
X30749851Y-82264847D01*
X30679214Y-82270394D01*
X30608727Y-82287195D01*
X30542854Y-82314167D01*
X30489512Y-82348158D01*
X30395943Y-82165855D01*
X30476014Y-82119699D01*
X30574289Y-82084669D01*
X30679099Y-82063730D01*
X30785681Y-82056752D01*
X30890048Y-82063726D01*
X30976413Y-82083156D01*
X31047846Y-82113441D01*
X31106836Y-82153912D01*
X31154486Y-82206095D01*
X31189816Y-82271773D01*
X31212539Y-82353967D01*
X31220776Y-82456749D01*
X31220776Y-82972590D01*
X30974652Y-82972590D01*
G37*
G36*
X30700172Y-82985339D02*
G01*
X30630619Y-82981057D01*
X30570802Y-82968946D01*
X30519261Y-82949802D01*
X30471850Y-82922435D01*
X30433662Y-82889944D01*
X30403563Y-82852129D01*
X30381397Y-82809207D01*
X30368040Y-82762841D01*
X30363483Y-82712105D01*
X30368013Y-82660030D01*
X30381147Y-82613563D01*
X30402684Y-82571640D01*
X30432627Y-82535474D01*
X30473522Y-82503781D01*
X30527541Y-82476606D01*
X30585676Y-82458546D01*
X30659036Y-82446564D01*
X30750730Y-82442167D01*
X30989746Y-82442167D01*
X30989746Y-82594795D01*
X30779820Y-82594795D01*
X30717993Y-82599071D01*
X30677674Y-82609804D01*
X30652618Y-82624763D01*
X30627018Y-82658729D01*
X30618399Y-82701407D01*
X30622806Y-82732214D01*
X30635594Y-82758019D01*
X30657381Y-82780102D01*
X30684936Y-82795835D01*
X30720054Y-82805997D01*
X30764725Y-82809704D01*
X30827965Y-82801888D01*
X30883208Y-82779076D01*
X30914674Y-82755471D01*
X30939775Y-82725099D01*
X30958898Y-82686899D01*
X30998466Y-82808532D01*
X30974282Y-82861892D01*
X30940051Y-82905277D01*
X30894931Y-82940056D01*
X30842658Y-82964212D01*
X30778610Y-82979740D01*
X30700172Y-82985339D01*
G37*
G36*
X31458326Y-82972590D02*
G01*
X31458326Y-82069428D01*
X31707820Y-82069428D01*
X31707820Y-82325224D01*
X31673382Y-82251365D01*
X31705757Y-82191952D01*
X31748363Y-82143917D01*
X31802122Y-82105918D01*
X31863192Y-82079424D01*
X31934860Y-82062685D01*
X32019230Y-82056752D01*
X32019230Y-82298259D01*
X31988309Y-82294742D01*
X31960538Y-82293570D01*
X31890371Y-82300962D01*
X31833101Y-82321770D01*
X31785929Y-82355339D01*
X31758686Y-82388047D01*
X31738256Y-82429398D01*
X31725018Y-82481349D01*
X31720203Y-82546435D01*
X31720203Y-82972590D01*
X31458326Y-82972590D01*
G37*
G36*
X32175814Y-82972590D02*
G01*
X32175814Y-82069428D01*
X32437691Y-82069428D01*
X32437691Y-82972590D01*
X32175814Y-82972590D01*
G37*
G36*
X32306240Y-81943912D02*
G01*
X32259435Y-81938913D01*
X32220641Y-81924739D01*
X32188124Y-81901707D01*
X32162805Y-81871168D01*
X32147874Y-81836852D01*
X32142768Y-81797439D01*
X32147872Y-81758075D01*
X32162801Y-81723783D01*
X32188124Y-81693245D01*
X32220641Y-81670213D01*
X32259435Y-81656040D01*
X32306240Y-81651040D01*
X32353210Y-81655800D01*
X32391981Y-81669235D01*
X32424282Y-81690901D01*
X32449569Y-81720009D01*
X32464550Y-81753475D01*
X32469711Y-81792750D01*
X32464583Y-81834213D01*
X32449717Y-81869788D01*
X32424795Y-81900901D01*
X32392515Y-81924342D01*
X32353614Y-81938797D01*
X32306240Y-81943912D01*
G37*
G36*
X33173790Y-82972590D02*
G01*
X33173790Y-81797439D01*
X33446365Y-81797439D01*
X33446365Y-82750426D01*
X34034600Y-82750426D01*
X34034600Y-82972590D01*
X33173790Y-82972590D01*
G37*
G36*
X34729739Y-82972590D02*
G01*
X34729739Y-82796588D01*
X34713986Y-82756947D01*
X34713986Y-82442021D01*
X34707804Y-82387995D01*
X34690542Y-82345268D01*
X34662695Y-82311229D01*
X34625679Y-82286956D01*
X34574586Y-82270879D01*
X34504938Y-82264847D01*
X34434301Y-82270394D01*
X34363815Y-82287195D01*
X34297941Y-82314167D01*
X34244600Y-82348158D01*
X34151030Y-82165855D01*
X34231102Y-82119699D01*
X34329376Y-82084669D01*
X34434186Y-82063730D01*
X34540769Y-82056752D01*
X34645136Y-82063726D01*
X34731501Y-82083156D01*
X34802933Y-82113441D01*
X34861924Y-82153912D01*
X34909573Y-82206095D01*
X34944903Y-82271773D01*
X34967626Y-82353967D01*
X34975863Y-82456749D01*
X34975863Y-82972590D01*
X34729739Y-82972590D01*
G37*
G36*
X34455259Y-82985339D02*
G01*
X34385706Y-82981057D01*
X34325889Y-82968946D01*
X34274348Y-82949802D01*
X34226937Y-82922435D01*
X34188749Y-82889944D01*
X34158651Y-82852129D01*
X34136484Y-82809207D01*
X34123128Y-82762841D01*
X34118570Y-82712105D01*
X34123101Y-82660030D01*
X34136235Y-82613563D01*
X34157771Y-82571640D01*
X34187715Y-82535474D01*
X34228609Y-82503781D01*
X34282628Y-82476606D01*
X34340763Y-82458546D01*
X34414123Y-82446564D01*
X34505817Y-82442167D01*
X34744833Y-82442167D01*
X34744833Y-82594795D01*
X34534907Y-82594795D01*
X34473081Y-82599071D01*
X34432762Y-82609804D01*
X34407705Y-82624763D01*
X34382105Y-82658729D01*
X34373487Y-82701407D01*
X34377893Y-82732214D01*
X34390681Y-82758019D01*
X34412468Y-82780102D01*
X34440023Y-82795835D01*
X34475141Y-82805997D01*
X34519813Y-82809704D01*
X34583052Y-82801888D01*
X34638295Y-82779076D01*
X34669761Y-82755471D01*
X34694862Y-82725099D01*
X34713986Y-82686899D01*
X34753553Y-82808532D01*
X34729370Y-82861892D01*
X34695138Y-82905277D01*
X34650018Y-82940056D01*
X34597745Y-82964212D01*
X34533697Y-82979740D01*
X34455259Y-82985339D01*
G37*
G36*
X35475291Y-82167226D02*
G01*
X35494570Y-82145424D01*
X35546878Y-82106944D01*
X35606156Y-82079471D01*
X35672125Y-82062594D01*
X35746180Y-82056752D01*
X35829956Y-82063319D01*
X35906074Y-82082446D01*
X35975891Y-82113832D01*
X36038926Y-82157027D01*
X36092391Y-82210430D01*
X36137018Y-82275032D01*
X36169356Y-82346601D01*
X36189431Y-82427852D01*
X36196442Y-82520716D01*
X36189433Y-82613580D01*
X36169358Y-82694857D01*
X36137018Y-82766473D01*
X36092410Y-82831053D01*
X36038944Y-82884561D01*
X35975891Y-82927966D01*
X35906058Y-82959519D01*
X35829942Y-82978741D01*
X35746180Y-82985339D01*
X35668956Y-82979452D01*
X35601609Y-82962614D01*
X35542482Y-82935513D01*
X35490615Y-82897126D01*
X35462907Y-82865130D01*
X35462907Y-82972590D01*
X35213413Y-82972590D01*
X35213413Y-82520716D01*
X35470601Y-82520716D01*
X35478634Y-82594090D01*
X35501376Y-82654512D01*
X35537872Y-82705021D01*
X35584027Y-82741121D01*
X35638559Y-82763268D01*
X35701118Y-82770869D01*
X35763613Y-82763270D01*
X35818134Y-82741121D01*
X35864335Y-82705013D01*
X35900786Y-82654512D01*
X35923528Y-82594090D01*
X35931561Y-82520716D01*
X35923445Y-82445980D01*
X35900786Y-82386407D01*
X35864418Y-82336877D01*
X35818134Y-82300971D01*
X35763608Y-82278766D01*
X35701118Y-82271148D01*
X35638563Y-82278768D01*
X35584027Y-82300971D01*
X35537788Y-82336868D01*
X35501376Y-82386407D01*
X35478716Y-82445980D01*
X35470601Y-82520716D01*
X35213413Y-82520716D01*
X35213413Y-81726878D01*
X35475291Y-81726878D01*
X35475291Y-82167226D01*
G37*
G36*
X25106809Y-83822025D02*
G01*
X25218816Y-83846672D01*
X25318501Y-83886346D01*
X25388364Y-83927046D01*
X25449119Y-83974484D01*
X25501587Y-84028854D01*
X25546306Y-84090631D01*
X25581462Y-84157736D01*
X25606998Y-84231151D01*
X25622773Y-84311857D01*
X25628225Y-84401014D01*
X25622785Y-84489807D01*
X25607029Y-84570360D01*
X25581495Y-84643806D01*
X25546306Y-84711105D01*
X25501574Y-84773030D01*
X25449099Y-84827506D01*
X25388347Y-84875016D01*
X25318501Y-84915756D01*
X25218820Y-84955389D01*
X25106812Y-84980012D01*
X24980273Y-84988590D01*
X24446700Y-84988590D01*
X24446700Y-84765767D01*
X24719275Y-84765767D01*
X24967524Y-84765767D01*
X25044739Y-84760475D01*
X25112103Y-84745375D01*
X25171149Y-84721217D01*
X25224688Y-84687097D01*
X25269122Y-84645061D01*
X25305312Y-84594455D01*
X25331432Y-84537856D01*
X25347599Y-84473876D01*
X25353232Y-84401014D01*
X25347553Y-84326974D01*
X25331345Y-84262755D01*
X25305312Y-84206695D01*
X25269177Y-84156640D01*
X25224750Y-84114882D01*
X25171149Y-84080812D01*
X25112098Y-84056613D01*
X25044735Y-84041489D01*
X24967524Y-84036189D01*
X24719275Y-84036189D01*
X24719275Y-84765767D01*
X24446700Y-84765767D01*
X24446700Y-83813439D01*
X24980273Y-83813439D01*
X25106809Y-83822025D01*
G37*
G36*
X26262988Y-85001339D02*
G01*
X26161257Y-84994250D01*
X26071664Y-84973931D01*
X25992318Y-84941255D01*
X25920009Y-84895559D01*
X25860535Y-84840660D01*
X25812579Y-84775952D01*
X25777484Y-84703435D01*
X25756153Y-84624209D01*
X25748832Y-84536716D01*
X25756045Y-84448232D01*
X25776981Y-84368707D01*
X25811261Y-84296527D01*
X25858055Y-84231653D01*
X25914930Y-84177124D01*
X25982866Y-84132176D01*
X26057712Y-84099547D01*
X26139543Y-84079608D01*
X26229795Y-84072752D01*
X26316987Y-84079238D01*
X26396317Y-84098118D01*
X26469104Y-84129026D01*
X26535153Y-84171927D01*
X26591017Y-84225272D01*
X26637559Y-84290006D01*
X26671269Y-84362253D01*
X26692262Y-84445108D01*
X26699621Y-84540746D01*
X26698448Y-84575111D01*
X26695591Y-84610502D01*
X25961470Y-84610502D01*
X25961470Y-84457874D01*
X26556958Y-84457874D01*
X26455769Y-84503523D01*
X26449026Y-84436749D01*
X26427852Y-84381158D01*
X26393447Y-84334274D01*
X26348644Y-84299092D01*
X26295164Y-84277158D01*
X26231041Y-84269490D01*
X26166852Y-84277131D01*
X26112632Y-84299092D01*
X26067373Y-84334456D01*
X26033424Y-84381670D01*
X26012704Y-84437899D01*
X26005360Y-84506527D01*
X26005360Y-84547414D01*
X26013795Y-84617936D01*
X26037967Y-84677033D01*
X26077211Y-84726075D01*
X26130437Y-84762763D01*
X26193832Y-84785001D01*
X26270681Y-84792878D01*
X26339805Y-84787131D01*
X26396857Y-84771042D01*
X26448577Y-84743867D01*
X26497534Y-84704437D01*
X26636899Y-84855599D01*
X26591765Y-84899016D01*
X26539765Y-84935117D01*
X26480095Y-84964116D01*
X26416619Y-84984247D01*
X26344677Y-84996903D01*
X26262988Y-85001339D01*
G37*
G36*
X27178092Y-85001339D02*
G01*
X27065091Y-84994351D01*
X26957028Y-84973642D01*
X26857081Y-84940777D01*
X26787108Y-84904619D01*
X26874963Y-84717260D01*
X26940418Y-84751408D01*
X27021288Y-84779762D01*
X27106388Y-84797704D01*
X27189523Y-84803576D01*
X27272653Y-84797019D01*
X27317677Y-84781740D01*
X27339394Y-84764658D01*
X27351595Y-84744901D01*
X27355706Y-84721437D01*
X27348463Y-84694142D01*
X27326104Y-84673809D01*
X27293762Y-84660042D01*
X27247995Y-84648897D01*
X27141236Y-84632264D01*
X27024366Y-84609622D01*
X26967790Y-84591403D01*
X26917241Y-84566831D01*
X26873532Y-84533580D01*
X26839132Y-84489968D01*
X26817595Y-84436499D01*
X26809603Y-84363352D01*
X26815249Y-84308225D01*
X26831794Y-84258424D01*
X26859429Y-84212703D01*
X26896204Y-84173324D01*
X26943347Y-84139061D01*
X27002604Y-84109975D01*
X27065869Y-84090039D01*
X27140079Y-84077289D01*
X27227039Y-84072752D01*
X27320626Y-84077708D01*
X27415790Y-84092756D01*
X27505979Y-84118111D01*
X27575085Y-84150275D01*
X27487157Y-84337633D01*
X27420633Y-84304732D01*
X27355779Y-84284804D01*
X27290174Y-84274011D01*
X27227991Y-84270516D01*
X27146259Y-84277464D01*
X27099397Y-84294109D01*
X27076032Y-84312252D01*
X27063321Y-84331814D01*
X27059171Y-84353680D01*
X27066498Y-84382840D01*
X27088699Y-84404165D01*
X27121136Y-84418768D01*
X27166808Y-84430910D01*
X27273640Y-84448569D01*
X27390144Y-84471576D01*
X27446437Y-84489847D01*
X27496903Y-84514148D01*
X27540667Y-84546923D01*
X27575011Y-84590058D01*
X27596613Y-84642907D01*
X27604614Y-84715062D01*
X27598978Y-84768850D01*
X27582397Y-84817785D01*
X27554568Y-84863073D01*
X27517681Y-84901873D01*
X27469938Y-84935764D01*
X27409415Y-84964629D01*
X27344970Y-84984218D01*
X27268531Y-84996829D01*
X27178092Y-85001339D01*
G37*
G36*
X27766547Y-84988590D02*
G01*
X27766547Y-84085428D01*
X28028424Y-84085428D01*
X28028424Y-84988590D01*
X27766547Y-84988590D01*
G37*
G36*
X27896972Y-83959912D02*
G01*
X27850168Y-83954913D01*
X27811374Y-83940739D01*
X27778857Y-83917707D01*
X27753538Y-83887168D01*
X27738607Y-83852852D01*
X27733501Y-83813439D01*
X27738605Y-83774075D01*
X27753534Y-83739783D01*
X27778857Y-83709245D01*
X27811374Y-83686213D01*
X27850168Y-83672040D01*
X27896972Y-83667040D01*
X27943942Y-83671800D01*
X27982714Y-83685235D01*
X28015015Y-83706901D01*
X28040302Y-83736009D01*
X28055283Y-83769475D01*
X28060444Y-83808750D01*
X28055315Y-83850213D01*
X28040450Y-83885788D01*
X28015528Y-83916901D01*
X27983248Y-83940342D01*
X27944347Y-83954797D01*
X27896972Y-83959912D01*
G37*
G36*
X28731220Y-84078168D02*
G01*
X28797964Y-84093713D01*
X28857213Y-84118767D01*
X28910074Y-84154471D01*
X28953860Y-84200199D01*
X28953860Y-84085428D01*
X29203354Y-84085428D01*
X29203354Y-84838014D01*
X29197132Y-84940858D01*
X29179758Y-85026813D01*
X29152692Y-85098561D01*
X29116706Y-85158350D01*
X29071829Y-85207895D01*
X29018096Y-85248668D01*
X28955228Y-85281391D01*
X28881812Y-85305896D01*
X28796088Y-85321501D01*
X28696013Y-85327037D01*
X28569902Y-85319167D01*
X28449963Y-85295896D01*
X28373031Y-85270893D01*
X28307595Y-85240040D01*
X28252199Y-85203719D01*
X28356540Y-85015114D01*
X28419814Y-85056351D01*
X28501913Y-85089999D01*
X28590045Y-85111031D01*
X28676669Y-85117916D01*
X28747244Y-85113215D01*
X28802505Y-85100437D01*
X28845445Y-85081046D01*
X28878462Y-85055707D01*
X28912012Y-85010355D01*
X28933557Y-84950246D01*
X28941477Y-84870840D01*
X28941477Y-84829296D01*
X28910110Y-84862254D01*
X28857213Y-84898464D01*
X28797918Y-84923972D01*
X28731178Y-84939781D01*
X28655566Y-84945285D01*
X28573664Y-84939052D01*
X28498315Y-84920811D01*
X28428347Y-84890770D01*
X28364628Y-84849394D01*
X28310637Y-84798764D01*
X28265535Y-84738143D01*
X28232401Y-84670450D01*
X28212016Y-84594409D01*
X28204938Y-84508213D01*
X28469820Y-84508213D01*
X28477695Y-84571060D01*
X28500448Y-84624423D01*
X28536792Y-84668971D01*
X28585371Y-84702825D01*
X28642340Y-84723691D01*
X28707663Y-84730889D01*
X28774327Y-84723623D01*
X28830762Y-84702825D01*
X28878658Y-84669008D01*
X28914586Y-84624423D01*
X28937060Y-84571083D01*
X28944847Y-84508213D01*
X28937032Y-84444813D01*
X28914586Y-84391636D01*
X28878646Y-84347478D01*
X28830762Y-84314406D01*
X28774375Y-84294216D01*
X28707663Y-84287148D01*
X28642294Y-84294150D01*
X28585371Y-84314406D01*
X28536804Y-84347514D01*
X28500448Y-84391636D01*
X28477723Y-84444836D01*
X28469820Y-84508213D01*
X28204938Y-84508213D01*
X28212017Y-84421968D01*
X28232403Y-84345903D01*
X28265535Y-84278209D01*
X28310669Y-84217650D01*
X28364659Y-84167324D01*
X28428347Y-84126461D01*
X28498272Y-84096879D01*
X28573627Y-84078899D01*
X28655566Y-84072752D01*
X28731220Y-84078168D01*
G37*
G36*
X29447719Y-84988590D02*
G01*
X29447719Y-84085428D01*
X29697213Y-84085428D01*
X29697213Y-84335875D01*
X29650392Y-84260624D01*
X29687714Y-84203951D01*
X29733819Y-84157650D01*
X29789537Y-84120746D01*
X29851482Y-84094460D01*
X29919730Y-84078322D01*
X29995507Y-84072752D01*
X30066358Y-84077673D01*
X30130132Y-84091912D01*
X30187921Y-84115031D01*
X30240028Y-84148031D01*
X30284369Y-84191113D01*
X30321571Y-84245456D01*
X30347661Y-84306183D01*
X30364507Y-84380667D01*
X30370591Y-84471869D01*
X30370591Y-84988590D01*
X30108640Y-84988590D01*
X30108640Y-84510997D01*
X30102404Y-84439866D01*
X30085797Y-84387854D01*
X30060720Y-84350310D01*
X30025659Y-84322205D01*
X29981721Y-84304756D01*
X29926264Y-84298506D01*
X29865879Y-84305255D01*
X29813863Y-84324737D01*
X29770304Y-84357422D01*
X29737000Y-84404458D01*
X29717060Y-84462537D01*
X29709596Y-84541918D01*
X29709596Y-84988590D01*
X29447719Y-84988590D01*
G37*
G36*
X31061480Y-85001339D02*
G01*
X30959750Y-84994250D01*
X30870157Y-84973931D01*
X30790810Y-84941255D01*
X30718502Y-84895559D01*
X30659027Y-84840660D01*
X30611072Y-84775952D01*
X30575977Y-84703435D01*
X30554646Y-84624209D01*
X30547325Y-84536716D01*
X30554538Y-84448232D01*
X30575474Y-84368707D01*
X30609753Y-84296527D01*
X30656548Y-84231653D01*
X30713423Y-84177124D01*
X30781358Y-84132176D01*
X30856204Y-84099547D01*
X30938036Y-84079608D01*
X31028288Y-84072752D01*
X31115480Y-84079238D01*
X31194809Y-84098118D01*
X31267597Y-84129026D01*
X31333645Y-84171927D01*
X31389509Y-84225272D01*
X31436051Y-84290006D01*
X31469762Y-84362253D01*
X31490754Y-84445108D01*
X31498113Y-84540746D01*
X31496941Y-84575111D01*
X31494083Y-84610502D01*
X30759963Y-84610502D01*
X30759963Y-84457874D01*
X31355451Y-84457874D01*
X31254261Y-84503523D01*
X31247519Y-84436749D01*
X31226344Y-84381158D01*
X31191940Y-84334274D01*
X31147136Y-84299092D01*
X31093656Y-84277158D01*
X31029533Y-84269490D01*
X30965345Y-84277131D01*
X30911124Y-84299092D01*
X30865866Y-84334456D01*
X30831917Y-84381670D01*
X30811196Y-84437899D01*
X30803853Y-84506527D01*
X30803853Y-84547414D01*
X30812288Y-84617936D01*
X30836459Y-84677033D01*
X30875704Y-84726075D01*
X30928930Y-84762763D01*
X30992325Y-84785001D01*
X31069174Y-84792878D01*
X31138298Y-84787131D01*
X31195350Y-84771042D01*
X31247070Y-84743867D01*
X31296027Y-84704437D01*
X31435392Y-84855599D01*
X31390258Y-84899016D01*
X31338258Y-84935117D01*
X31278588Y-84964116D01*
X31215112Y-84984247D01*
X31143170Y-84996903D01*
X31061480Y-85001339D01*
G37*
G36*
X32593469Y-84988590D02*
G01*
X32343975Y-84988590D01*
X32343975Y-84881416D01*
X32316641Y-84913179D01*
X32265280Y-84951513D01*
X32206693Y-84978530D01*
X32139133Y-84995408D01*
X32060776Y-85001339D01*
X31978078Y-84994782D01*
X31902199Y-84975598D01*
X31831871Y-84943966D01*
X31768306Y-84900514D01*
X31714560Y-84847000D01*
X31669865Y-84782473D01*
X31637524Y-84710857D01*
X31617450Y-84629580D01*
X31610441Y-84536716D01*
X31875395Y-84536716D01*
X31883428Y-84610090D01*
X31906170Y-84670512D01*
X31942608Y-84721018D01*
X31988748Y-84757121D01*
X32043280Y-84779268D01*
X32105838Y-84786869D01*
X32168397Y-84779268D01*
X32222928Y-84757121D01*
X32269069Y-84721018D01*
X32305507Y-84670512D01*
X32328249Y-84610090D01*
X32336281Y-84536716D01*
X32328166Y-84461980D01*
X32305507Y-84402407D01*
X32269152Y-84352871D01*
X32222928Y-84316971D01*
X32168393Y-84294768D01*
X32105838Y-84287148D01*
X32043284Y-84294768D01*
X31988748Y-84316971D01*
X31942524Y-84352871D01*
X31906170Y-84402407D01*
X31883510Y-84461980D01*
X31875395Y-84536716D01*
X31610441Y-84536716D01*
X31617451Y-84443852D01*
X31637527Y-84362601D01*
X31669865Y-84291032D01*
X31714578Y-84226484D01*
X31768324Y-84173074D01*
X31831871Y-84129832D01*
X31902182Y-84098368D01*
X31978064Y-84079278D01*
X32060776Y-84072752D01*
X32135905Y-84078636D01*
X32202099Y-84095551D01*
X32260884Y-84122944D01*
X32312691Y-84161369D01*
X32331592Y-84182864D01*
X32331592Y-83742878D01*
X32593469Y-83742878D01*
X32593469Y-84988590D01*
G37*
G36*
X33310664Y-84988590D02*
G01*
X33310664Y-84085428D01*
X33572541Y-84085428D01*
X33572541Y-84988590D01*
X33310664Y-84988590D01*
G37*
G36*
X33441090Y-83959912D02*
G01*
X33394285Y-83954913D01*
X33355491Y-83940739D01*
X33322974Y-83917707D01*
X33297655Y-83887168D01*
X33282724Y-83852852D01*
X33277618Y-83813439D01*
X33282722Y-83774075D01*
X33297651Y-83739783D01*
X33322974Y-83709245D01*
X33355491Y-83686213D01*
X33394285Y-83672040D01*
X33441090Y-83667040D01*
X33488060Y-83671800D01*
X33526831Y-83685235D01*
X33559132Y-83706901D01*
X33584419Y-83736009D01*
X33599400Y-83769475D01*
X33604561Y-83808750D01*
X33599433Y-83850213D01*
X33584567Y-83885788D01*
X33559645Y-83916901D01*
X33527365Y-83940342D01*
X33488464Y-83954797D01*
X33441090Y-83959912D01*
G37*
G36*
X33815954Y-84988590D02*
G01*
X33815954Y-84085428D01*
X34065448Y-84085428D01*
X34065448Y-84335875D01*
X34018626Y-84260624D01*
X34055948Y-84203951D01*
X34102054Y-84157650D01*
X34157771Y-84120746D01*
X34219717Y-84094460D01*
X34287964Y-84078322D01*
X34363741Y-84072752D01*
X34434593Y-84077673D01*
X34498366Y-84091912D01*
X34556156Y-84115031D01*
X34608262Y-84148031D01*
X34652603Y-84191113D01*
X34689806Y-84245456D01*
X34715895Y-84306183D01*
X34732741Y-84380667D01*
X34738825Y-84471869D01*
X34738825Y-84988590D01*
X34476875Y-84988590D01*
X34476875Y-84510997D01*
X34470638Y-84439866D01*
X34454032Y-84387854D01*
X34428954Y-84350310D01*
X34393894Y-84322205D01*
X34349956Y-84304756D01*
X34294499Y-84298506D01*
X34234113Y-84305255D01*
X34182098Y-84324737D01*
X34138539Y-84357422D01*
X34105235Y-84404458D01*
X34085295Y-84462537D01*
X34077831Y-84541918D01*
X34077831Y-84988590D01*
X33815954Y-84988590D01*
G37*
G36*
X35469282Y-84988590D02*
G01*
X35469282Y-83813439D01*
X36356616Y-83813439D01*
X36356616Y-84032232D01*
X35739219Y-84032232D01*
X35739219Y-84769797D01*
X36379478Y-84769797D01*
X36379478Y-84988590D01*
X35469282Y-84988590D01*
G37*
G36*
X35719436Y-84497808D02*
G01*
X35719436Y-84286342D01*
X36285762Y-84286342D01*
X36285762Y-84497808D01*
X35719436Y-84497808D01*
G37*
G36*
X36578047Y-84988590D02*
G01*
X36578047Y-84085428D01*
X36827541Y-84085428D01*
X36827541Y-84335875D01*
X36780720Y-84260624D01*
X36818042Y-84203951D01*
X36864147Y-84157650D01*
X36919865Y-84120746D01*
X36981810Y-84094460D01*
X37050058Y-84078322D01*
X37125835Y-84072752D01*
X37196686Y-84077673D01*
X37260460Y-84091912D01*
X37318249Y-84115031D01*
X37370356Y-84148031D01*
X37414697Y-84191113D01*
X37451899Y-84245456D01*
X37477989Y-84306183D01*
X37494834Y-84380667D01*
X37500919Y-84471869D01*
X37500919Y-84988590D01*
X37238968Y-84988590D01*
X37238968Y-84510997D01*
X37232732Y-84439866D01*
X37216125Y-84387854D01*
X37191048Y-84350310D01*
X37155987Y-84322205D01*
X37112049Y-84304756D01*
X37056592Y-84298506D01*
X36996207Y-84305255D01*
X36944191Y-84324737D01*
X36900632Y-84357422D01*
X36867328Y-84404458D01*
X36847388Y-84462537D01*
X36839924Y-84541918D01*
X36839924Y-84988590D01*
X36578047Y-84988590D01*
G37*
G36*
X38203934Y-84078168D02*
G01*
X38270678Y-84093713D01*
X38329928Y-84118767D01*
X38382789Y-84154471D01*
X38426575Y-84200200D01*
X38426575Y-84085428D01*
X38676069Y-84085428D01*
X38676069Y-84838014D01*
X38669847Y-84940858D01*
X38652472Y-85026813D01*
X38625406Y-85098561D01*
X38589420Y-85158350D01*
X38544544Y-85207895D01*
X38490810Y-85248668D01*
X38427943Y-85281391D01*
X38354527Y-85305896D01*
X38268802Y-85321501D01*
X38168727Y-85327037D01*
X38042616Y-85319167D01*
X37922677Y-85295896D01*
X37845746Y-85270893D01*
X37780309Y-85240040D01*
X37724914Y-85203719D01*
X37829254Y-85015114D01*
X37892528Y-85056351D01*
X37974628Y-85089999D01*
X38062760Y-85111031D01*
X38149383Y-85117916D01*
X38219958Y-85113215D01*
X38275220Y-85100437D01*
X38318160Y-85081046D01*
X38351177Y-85055707D01*
X38384727Y-85010355D01*
X38406271Y-84950246D01*
X38414191Y-84870840D01*
X38414191Y-84829296D01*
X38382825Y-84862254D01*
X38329928Y-84898464D01*
X38270632Y-84923972D01*
X38203892Y-84939781D01*
X38128281Y-84945285D01*
X38046379Y-84939052D01*
X37971030Y-84920811D01*
X37901062Y-84890770D01*
X37837343Y-84849394D01*
X37783352Y-84798764D01*
X37738249Y-84738143D01*
X37705116Y-84670450D01*
X37684730Y-84594409D01*
X37677653Y-84508213D01*
X37942534Y-84508213D01*
X37950409Y-84571060D01*
X37973162Y-84624423D01*
X38009507Y-84668971D01*
X38058085Y-84702825D01*
X38115054Y-84723691D01*
X38180378Y-84730889D01*
X38247042Y-84723623D01*
X38303476Y-84702825D01*
X38351373Y-84669008D01*
X38387300Y-84624423D01*
X38409775Y-84571083D01*
X38417562Y-84508213D01*
X38409747Y-84444813D01*
X38387300Y-84391636D01*
X38351360Y-84347478D01*
X38303476Y-84314406D01*
X38247090Y-84294216D01*
X38180378Y-84287148D01*
X38115009Y-84294150D01*
X38058085Y-84314406D01*
X38009518Y-84347514D01*
X37973162Y-84391636D01*
X37950438Y-84444836D01*
X37942534Y-84508213D01*
X37677653Y-84508213D01*
X37684732Y-84421968D01*
X37705118Y-84345903D01*
X37738249Y-84278209D01*
X37783384Y-84217650D01*
X37837373Y-84167324D01*
X37901062Y-84126461D01*
X37970987Y-84096879D01*
X38046341Y-84078899D01*
X38128281Y-84072752D01*
X38203934Y-84078168D01*
G37*
G36*
X38920434Y-84988590D02*
G01*
X38920434Y-83742878D01*
X39182311Y-83742878D01*
X39182311Y-84988590D01*
X38920434Y-84988590D01*
G37*
G36*
X39978420Y-84988590D02*
G01*
X39978420Y-84812588D01*
X39962667Y-84772947D01*
X39962667Y-84458021D01*
X39956485Y-84403995D01*
X39939223Y-84361268D01*
X39911376Y-84327229D01*
X39874360Y-84302956D01*
X39823267Y-84286879D01*
X39753619Y-84280847D01*
X39682982Y-84286394D01*
X39612496Y-84303195D01*
X39546622Y-84330167D01*
X39493281Y-84364158D01*
X39399711Y-84181855D01*
X39479783Y-84135699D01*
X39578057Y-84100669D01*
X39682867Y-84079730D01*
X39789450Y-84072752D01*
X39893817Y-84079726D01*
X39980182Y-84099156D01*
X40051614Y-84129441D01*
X40110605Y-84169912D01*
X40158255Y-84222095D01*
X40193585Y-84287773D01*
X40216308Y-84369967D01*
X40224544Y-84472749D01*
X40224544Y-84988590D01*
X39978420Y-84988590D01*
G37*
G36*
X39703940Y-85001339D02*
G01*
X39634387Y-84997057D01*
X39574570Y-84984946D01*
X39523030Y-84965802D01*
X39475618Y-84938435D01*
X39437430Y-84905944D01*
X39407332Y-84868129D01*
X39385165Y-84825207D01*
X39371809Y-84778841D01*
X39367251Y-84728105D01*
X39371782Y-84676030D01*
X39384916Y-84629563D01*
X39406452Y-84587640D01*
X39436396Y-84551474D01*
X39477290Y-84519781D01*
X39531309Y-84492606D01*
X39589444Y-84474546D01*
X39662804Y-84462564D01*
X39754499Y-84458167D01*
X39993515Y-84458167D01*
X39993515Y-84610795D01*
X39783588Y-84610795D01*
X39721762Y-84615071D01*
X39681443Y-84625804D01*
X39656386Y-84640763D01*
X39630786Y-84674729D01*
X39622168Y-84717407D01*
X39626574Y-84748214D01*
X39639362Y-84774019D01*
X39661149Y-84796102D01*
X39688704Y-84811835D01*
X39723822Y-84821997D01*
X39768494Y-84825704D01*
X39831733Y-84817888D01*
X39886976Y-84795076D01*
X39918442Y-84771471D01*
X39943543Y-84741099D01*
X39962667Y-84702899D01*
X40002234Y-84824532D01*
X39978051Y-84877892D01*
X39943819Y-84921277D01*
X39898699Y-84956056D01*
X39846426Y-84980212D01*
X39782378Y-84995740D01*
X39703940Y-85001339D01*
G37*
G36*
X40462094Y-84988590D02*
G01*
X40462094Y-84085428D01*
X40711589Y-84085428D01*
X40711589Y-84335875D01*
X40664767Y-84260624D01*
X40702089Y-84203951D01*
X40748194Y-84157650D01*
X40803912Y-84120746D01*
X40865858Y-84094460D01*
X40934105Y-84078322D01*
X41009882Y-84072752D01*
X41080733Y-84077673D01*
X41144507Y-84091912D01*
X41202297Y-84115031D01*
X41254403Y-84148031D01*
X41298744Y-84191113D01*
X41335947Y-84245456D01*
X41362036Y-84306183D01*
X41378882Y-84380667D01*
X41384966Y-84471869D01*
X41384966Y-84988590D01*
X41123016Y-84988590D01*
X41123016Y-84510997D01*
X41116779Y-84439866D01*
X41100173Y-84387854D01*
X41075095Y-84350310D01*
X41040035Y-84322205D01*
X40996097Y-84304756D01*
X40940639Y-84298506D01*
X40880254Y-84305255D01*
X40828239Y-84324737D01*
X40784680Y-84357422D01*
X40751376Y-84404458D01*
X40731436Y-84462537D01*
X40723972Y-84541918D01*
X40723972Y-84988590D01*
X40462094Y-84988590D01*
G37*
G36*
X42548026Y-84988590D02*
G01*
X42298532Y-84988590D01*
X42298532Y-84881416D01*
X42271198Y-84913179D01*
X42219837Y-84951513D01*
X42161250Y-84978530D01*
X42093690Y-84995408D01*
X42015332Y-85001339D01*
X41932635Y-84994782D01*
X41856755Y-84975598D01*
X41786428Y-84943966D01*
X41722863Y-84900514D01*
X41669117Y-84847000D01*
X41624422Y-84782473D01*
X41592081Y-84710857D01*
X41572007Y-84629580D01*
X41564997Y-84536716D01*
X41829952Y-84536716D01*
X41837985Y-84610090D01*
X41860727Y-84670512D01*
X41897164Y-84721018D01*
X41943305Y-84757121D01*
X41997837Y-84779268D01*
X42060395Y-84786869D01*
X42122954Y-84779268D01*
X42177485Y-84757121D01*
X42223626Y-84721018D01*
X42260064Y-84670512D01*
X42282805Y-84610090D01*
X42290838Y-84536716D01*
X42282723Y-84461980D01*
X42260064Y-84402407D01*
X42223709Y-84352871D01*
X42177485Y-84316971D01*
X42122950Y-84294768D01*
X42060395Y-84287148D01*
X41997841Y-84294768D01*
X41943305Y-84316971D01*
X41897081Y-84352871D01*
X41860727Y-84402407D01*
X41838067Y-84461980D01*
X41829952Y-84536716D01*
X41564997Y-84536716D01*
X41572008Y-84443852D01*
X41592084Y-84362601D01*
X41624422Y-84291032D01*
X41669135Y-84226484D01*
X41722881Y-84173074D01*
X41786428Y-84129832D01*
X41856739Y-84098368D01*
X41932621Y-84079278D01*
X42015332Y-84072752D01*
X42090461Y-84078636D01*
X42156656Y-84095551D01*
X42215441Y-84122944D01*
X42267248Y-84161369D01*
X42286149Y-84182864D01*
X42286149Y-83742878D01*
X42548026Y-83742878D01*
X42548026Y-84988590D01*
G37*
D12*
X22828784Y-90906836D02*
X22714499Y-90849693D01*
X22714499Y-90849693D02*
X22543070Y-90849693D01*
X22543070Y-90849693D02*
X22371641Y-90906836D01*
X22371641Y-90906836D02*
X22257356Y-91021122D01*
X22257356Y-91021122D02*
X22200213Y-91135408D01*
X22200213Y-91135408D02*
X22143070Y-91363979D01*
X22143070Y-91363979D02*
X22143070Y-91535408D01*
X22143070Y-91535408D02*
X22200213Y-91763979D01*
X22200213Y-91763979D02*
X22257356Y-91878265D01*
X22257356Y-91878265D02*
X22371641Y-91992551D01*
X22371641Y-91992551D02*
X22543070Y-92049693D01*
X22543070Y-92049693D02*
X22657356Y-92049693D01*
X22657356Y-92049693D02*
X22828784Y-91992551D01*
X22828784Y-91992551D02*
X22885927Y-91935408D01*
X22885927Y-91935408D02*
X22885927Y-91535408D01*
X22885927Y-91535408D02*
X22657356Y-91535408D01*
X23400213Y-92049693D02*
X23400213Y-90849693D01*
X23400213Y-90849693D02*
X24085927Y-92049693D01*
X24085927Y-92049693D02*
X24085927Y-90849693D01*
X24657356Y-92049693D02*
X24657356Y-90849693D01*
X24657356Y-90849693D02*
X24943070Y-90849693D01*
X24943070Y-90849693D02*
X25114499Y-90906836D01*
X25114499Y-90906836D02*
X25228784Y-91021122D01*
X25228784Y-91021122D02*
X25285927Y-91135408D01*
X25285927Y-91135408D02*
X25343070Y-91363979D01*
X25343070Y-91363979D02*
X25343070Y-91535408D01*
X25343070Y-91535408D02*
X25285927Y-91763979D01*
X25285927Y-91763979D02*
X25228784Y-91878265D01*
X25228784Y-91878265D02*
X25114499Y-91992551D01*
X25114499Y-91992551D02*
X24943070Y-92049693D01*
X24943070Y-92049693D02*
X24657356Y-92049693D01*
X22146334Y-99566107D02*
X22317763Y-99623249D01*
X22317763Y-99623249D02*
X22603477Y-99623249D01*
X22603477Y-99623249D02*
X22717763Y-99566107D01*
X22717763Y-99566107D02*
X22774905Y-99508964D01*
X22774905Y-99508964D02*
X22832048Y-99394678D01*
X22832048Y-99394678D02*
X22832048Y-99280392D01*
X22832048Y-99280392D02*
X22774905Y-99166107D01*
X22774905Y-99166107D02*
X22717763Y-99108964D01*
X22717763Y-99108964D02*
X22603477Y-99051821D01*
X22603477Y-99051821D02*
X22374905Y-98994678D01*
X22374905Y-98994678D02*
X22260620Y-98937535D01*
X22260620Y-98937535D02*
X22203477Y-98880392D01*
X22203477Y-98880392D02*
X22146334Y-98766107D01*
X22146334Y-98766107D02*
X22146334Y-98651821D01*
X22146334Y-98651821D02*
X22203477Y-98537535D01*
X22203477Y-98537535D02*
X22260620Y-98480392D01*
X22260620Y-98480392D02*
X22374905Y-98423249D01*
X22374905Y-98423249D02*
X22660620Y-98423249D01*
X22660620Y-98423249D02*
X22832048Y-98480392D01*
X24032048Y-99508964D02*
X23974905Y-99566107D01*
X23974905Y-99566107D02*
X23803477Y-99623249D01*
X23803477Y-99623249D02*
X23689191Y-99623249D01*
X23689191Y-99623249D02*
X23517762Y-99566107D01*
X23517762Y-99566107D02*
X23403477Y-99451821D01*
X23403477Y-99451821D02*
X23346334Y-99337535D01*
X23346334Y-99337535D02*
X23289191Y-99108964D01*
X23289191Y-99108964D02*
X23289191Y-98937535D01*
X23289191Y-98937535D02*
X23346334Y-98708964D01*
X23346334Y-98708964D02*
X23403477Y-98594678D01*
X23403477Y-98594678D02*
X23517762Y-98480392D01*
X23517762Y-98480392D02*
X23689191Y-98423249D01*
X23689191Y-98423249D02*
X23803477Y-98423249D01*
X23803477Y-98423249D02*
X23974905Y-98480392D01*
X23974905Y-98480392D02*
X24032048Y-98537535D01*
X25117762Y-99623249D02*
X24546334Y-99623249D01*
X24546334Y-99623249D02*
X24546334Y-98423249D01*
X67455826Y-97345342D02*
X66884398Y-97345342D01*
X66884398Y-97345342D02*
X66884398Y-96145342D01*
X68541541Y-97231057D02*
X68484398Y-97288200D01*
X68484398Y-97288200D02*
X68312970Y-97345342D01*
X68312970Y-97345342D02*
X68198684Y-97345342D01*
X68198684Y-97345342D02*
X68027255Y-97288200D01*
X68027255Y-97288200D02*
X67912970Y-97173914D01*
X67912970Y-97173914D02*
X67855827Y-97059628D01*
X67855827Y-97059628D02*
X67798684Y-96831057D01*
X67798684Y-96831057D02*
X67798684Y-96659628D01*
X67798684Y-96659628D02*
X67855827Y-96431057D01*
X67855827Y-96431057D02*
X67912970Y-96316771D01*
X67912970Y-96316771D02*
X68027255Y-96202485D01*
X68027255Y-96202485D02*
X68198684Y-96145342D01*
X68198684Y-96145342D02*
X68312970Y-96145342D01*
X68312970Y-96145342D02*
X68484398Y-96202485D01*
X68484398Y-96202485D02*
X68541541Y-96259628D01*
X69055827Y-97345342D02*
X69055827Y-96145342D01*
X69055827Y-96145342D02*
X69341541Y-96145342D01*
X69341541Y-96145342D02*
X69512970Y-96202485D01*
X69512970Y-96202485D02*
X69627255Y-96316771D01*
X69627255Y-96316771D02*
X69684398Y-96431057D01*
X69684398Y-96431057D02*
X69741541Y-96659628D01*
X69741541Y-96659628D02*
X69741541Y-96831057D01*
X69741541Y-96831057D02*
X69684398Y-97059628D01*
X69684398Y-97059628D02*
X69627255Y-97173914D01*
X69627255Y-97173914D02*
X69512970Y-97288200D01*
X69512970Y-97288200D02*
X69341541Y-97345342D01*
X69341541Y-97345342D02*
X69055827Y-97345342D01*
X71570113Y-96716771D02*
X71741541Y-96773914D01*
X71741541Y-96773914D02*
X71798684Y-96831057D01*
X71798684Y-96831057D02*
X71855827Y-96945342D01*
X71855827Y-96945342D02*
X71855827Y-97116771D01*
X71855827Y-97116771D02*
X71798684Y-97231057D01*
X71798684Y-97231057D02*
X71741541Y-97288200D01*
X71741541Y-97288200D02*
X71627256Y-97345342D01*
X71627256Y-97345342D02*
X71170113Y-97345342D01*
X71170113Y-97345342D02*
X71170113Y-96145342D01*
X71170113Y-96145342D02*
X71570113Y-96145342D01*
X71570113Y-96145342D02*
X71684399Y-96202485D01*
X71684399Y-96202485D02*
X71741541Y-96259628D01*
X71741541Y-96259628D02*
X71798684Y-96373914D01*
X71798684Y-96373914D02*
X71798684Y-96488200D01*
X71798684Y-96488200D02*
X71741541Y-96602485D01*
X71741541Y-96602485D02*
X71684399Y-96659628D01*
X71684399Y-96659628D02*
X71570113Y-96716771D01*
X71570113Y-96716771D02*
X71170113Y-96716771D01*
X72312970Y-97002485D02*
X72884399Y-97002485D01*
X72198684Y-97345342D02*
X72598684Y-96145342D01*
X72598684Y-96145342D02*
X72998684Y-97345342D01*
X74084398Y-97231057D02*
X74027255Y-97288200D01*
X74027255Y-97288200D02*
X73855827Y-97345342D01*
X73855827Y-97345342D02*
X73741541Y-97345342D01*
X73741541Y-97345342D02*
X73570112Y-97288200D01*
X73570112Y-97288200D02*
X73455827Y-97173914D01*
X73455827Y-97173914D02*
X73398684Y-97059628D01*
X73398684Y-97059628D02*
X73341541Y-96831057D01*
X73341541Y-96831057D02*
X73341541Y-96659628D01*
X73341541Y-96659628D02*
X73398684Y-96431057D01*
X73398684Y-96431057D02*
X73455827Y-96316771D01*
X73455827Y-96316771D02*
X73570112Y-96202485D01*
X73570112Y-96202485D02*
X73741541Y-96145342D01*
X73741541Y-96145342D02*
X73855827Y-96145342D01*
X73855827Y-96145342D02*
X74027255Y-96202485D01*
X74027255Y-96202485D02*
X74084398Y-96259628D01*
X74598684Y-97345342D02*
X74598684Y-96145342D01*
X75284398Y-97345342D02*
X74770112Y-96659628D01*
X75284398Y-96145342D02*
X74598684Y-96831057D01*
X75798684Y-97345342D02*
X75798684Y-96145342D01*
X75798684Y-96145342D02*
X76255827Y-96145342D01*
X76255827Y-96145342D02*
X76370112Y-96202485D01*
X76370112Y-96202485D02*
X76427255Y-96259628D01*
X76427255Y-96259628D02*
X76484398Y-96373914D01*
X76484398Y-96373914D02*
X76484398Y-96545342D01*
X76484398Y-96545342D02*
X76427255Y-96659628D01*
X76427255Y-96659628D02*
X76370112Y-96716771D01*
X76370112Y-96716771D02*
X76255827Y-96773914D01*
X76255827Y-96773914D02*
X75798684Y-96773914D01*
X76941541Y-97002485D02*
X77512970Y-97002485D01*
X76827255Y-97345342D02*
X77227255Y-96145342D01*
X77227255Y-96145342D02*
X77627255Y-97345342D01*
X78712969Y-97231057D02*
X78655826Y-97288200D01*
X78655826Y-97288200D02*
X78484398Y-97345342D01*
X78484398Y-97345342D02*
X78370112Y-97345342D01*
X78370112Y-97345342D02*
X78198683Y-97288200D01*
X78198683Y-97288200D02*
X78084398Y-97173914D01*
X78084398Y-97173914D02*
X78027255Y-97059628D01*
X78027255Y-97059628D02*
X77970112Y-96831057D01*
X77970112Y-96831057D02*
X77970112Y-96659628D01*
X77970112Y-96659628D02*
X78027255Y-96431057D01*
X78027255Y-96431057D02*
X78084398Y-96316771D01*
X78084398Y-96316771D02*
X78198683Y-96202485D01*
X78198683Y-96202485D02*
X78370112Y-96145342D01*
X78370112Y-96145342D02*
X78484398Y-96145342D01*
X78484398Y-96145342D02*
X78655826Y-96202485D01*
X78655826Y-96202485D02*
X78712969Y-96259628D01*
X79227255Y-97345342D02*
X79227255Y-96145342D01*
X79912969Y-97345342D02*
X79398683Y-96659628D01*
X79912969Y-96145342D02*
X79227255Y-96831057D01*
X81170112Y-96145342D02*
X81855827Y-96145342D01*
X81512969Y-97345342D02*
X81512969Y-96145342D01*
X82255827Y-97345342D02*
X82255827Y-96145342D01*
X82255827Y-96716771D02*
X82941541Y-96716771D01*
X82941541Y-97345342D02*
X82941541Y-96145342D01*
X83512970Y-97345342D02*
X83512970Y-96145342D01*
X84027256Y-97288200D02*
X84198685Y-97345342D01*
X84198685Y-97345342D02*
X84484399Y-97345342D01*
X84484399Y-97345342D02*
X84598685Y-97288200D01*
X84598685Y-97288200D02*
X84655827Y-97231057D01*
X84655827Y-97231057D02*
X84712970Y-97116771D01*
X84712970Y-97116771D02*
X84712970Y-97002485D01*
X84712970Y-97002485D02*
X84655827Y-96888200D01*
X84655827Y-96888200D02*
X84598685Y-96831057D01*
X84598685Y-96831057D02*
X84484399Y-96773914D01*
X84484399Y-96773914D02*
X84255827Y-96716771D01*
X84255827Y-96716771D02*
X84141542Y-96659628D01*
X84141542Y-96659628D02*
X84084399Y-96602485D01*
X84084399Y-96602485D02*
X84027256Y-96488200D01*
X84027256Y-96488200D02*
X84027256Y-96373914D01*
X84027256Y-96373914D02*
X84084399Y-96259628D01*
X84084399Y-96259628D02*
X84141542Y-96202485D01*
X84141542Y-96202485D02*
X84255827Y-96145342D01*
X84255827Y-96145342D02*
X84541542Y-96145342D01*
X84541542Y-96145342D02*
X84712970Y-96202485D01*
X86027256Y-96145342D02*
X86312970Y-97345342D01*
X86312970Y-97345342D02*
X86541542Y-96488200D01*
X86541542Y-96488200D02*
X86770113Y-97345342D01*
X86770113Y-97345342D02*
X87055828Y-96145342D01*
X87455828Y-97002485D02*
X88027257Y-97002485D01*
X87341542Y-97345342D02*
X87741542Y-96145342D01*
X87741542Y-96145342D02*
X88141542Y-97345342D01*
X88770113Y-96773914D02*
X88770113Y-97345342D01*
X88370113Y-96145342D02*
X88770113Y-96773914D01*
X88770113Y-96773914D02*
X89170113Y-96145342D01*
X22148937Y-93535669D02*
X22548937Y-94735669D01*
X22548937Y-94735669D02*
X22948937Y-93535669D01*
X24034651Y-94621384D02*
X23977508Y-94678527D01*
X23977508Y-94678527D02*
X23806080Y-94735669D01*
X23806080Y-94735669D02*
X23691794Y-94735669D01*
X23691794Y-94735669D02*
X23520365Y-94678527D01*
X23520365Y-94678527D02*
X23406080Y-94564241D01*
X23406080Y-94564241D02*
X23348937Y-94449955D01*
X23348937Y-94449955D02*
X23291794Y-94221384D01*
X23291794Y-94221384D02*
X23291794Y-94049955D01*
X23291794Y-94049955D02*
X23348937Y-93821384D01*
X23348937Y-93821384D02*
X23406080Y-93707098D01*
X23406080Y-93707098D02*
X23520365Y-93592812D01*
X23520365Y-93592812D02*
X23691794Y-93535669D01*
X23691794Y-93535669D02*
X23806080Y-93535669D01*
X23806080Y-93535669D02*
X23977508Y-93592812D01*
X23977508Y-93592812D02*
X24034651Y-93649955D01*
X25234651Y-94621384D02*
X25177508Y-94678527D01*
X25177508Y-94678527D02*
X25006080Y-94735669D01*
X25006080Y-94735669D02*
X24891794Y-94735669D01*
X24891794Y-94735669D02*
X24720365Y-94678527D01*
X24720365Y-94678527D02*
X24606080Y-94564241D01*
X24606080Y-94564241D02*
X24548937Y-94449955D01*
X24548937Y-94449955D02*
X24491794Y-94221384D01*
X24491794Y-94221384D02*
X24491794Y-94049955D01*
X24491794Y-94049955D02*
X24548937Y-93821384D01*
X24548937Y-93821384D02*
X24606080Y-93707098D01*
X24606080Y-93707098D02*
X24720365Y-93592812D01*
X24720365Y-93592812D02*
X24891794Y-93535669D01*
X24891794Y-93535669D02*
X25006080Y-93535669D01*
X25006080Y-93535669D02*
X25177508Y-93592812D01*
X25177508Y-93592812D02*
X25234651Y-93649955D01*
X72455826Y-103845342D02*
X71884398Y-103845342D01*
X71884398Y-103845342D02*
X71884398Y-102645342D01*
X73541541Y-103731057D02*
X73484398Y-103788200D01*
X73484398Y-103788200D02*
X73312970Y-103845342D01*
X73312970Y-103845342D02*
X73198684Y-103845342D01*
X73198684Y-103845342D02*
X73027255Y-103788200D01*
X73027255Y-103788200D02*
X72912970Y-103673914D01*
X72912970Y-103673914D02*
X72855827Y-103559628D01*
X72855827Y-103559628D02*
X72798684Y-103331057D01*
X72798684Y-103331057D02*
X72798684Y-103159628D01*
X72798684Y-103159628D02*
X72855827Y-102931057D01*
X72855827Y-102931057D02*
X72912970Y-102816771D01*
X72912970Y-102816771D02*
X73027255Y-102702485D01*
X73027255Y-102702485D02*
X73198684Y-102645342D01*
X73198684Y-102645342D02*
X73312970Y-102645342D01*
X73312970Y-102645342D02*
X73484398Y-102702485D01*
X73484398Y-102702485D02*
X73541541Y-102759628D01*
X74055827Y-103845342D02*
X74055827Y-102645342D01*
X74055827Y-102645342D02*
X74341541Y-102645342D01*
X74341541Y-102645342D02*
X74512970Y-102702485D01*
X74512970Y-102702485D02*
X74627255Y-102816771D01*
X74627255Y-102816771D02*
X74684398Y-102931057D01*
X74684398Y-102931057D02*
X74741541Y-103159628D01*
X74741541Y-103159628D02*
X74741541Y-103331057D01*
X74741541Y-103331057D02*
X74684398Y-103559628D01*
X74684398Y-103559628D02*
X74627255Y-103673914D01*
X74627255Y-103673914D02*
X74512970Y-103788200D01*
X74512970Y-103788200D02*
X74341541Y-103845342D01*
X74341541Y-103845342D02*
X74055827Y-103845342D01*
X75884398Y-103845342D02*
X75198684Y-103845342D01*
X75541541Y-103845342D02*
X75541541Y-102645342D01*
X75541541Y-102645342D02*
X75427255Y-102816771D01*
X75427255Y-102816771D02*
X75312970Y-102931057D01*
X75312970Y-102931057D02*
X75198684Y-102988200D01*
X76912970Y-102645342D02*
X76684398Y-102645342D01*
X76684398Y-102645342D02*
X76570112Y-102702485D01*
X76570112Y-102702485D02*
X76512970Y-102759628D01*
X76512970Y-102759628D02*
X76398684Y-102931057D01*
X76398684Y-102931057D02*
X76341541Y-103159628D01*
X76341541Y-103159628D02*
X76341541Y-103616771D01*
X76341541Y-103616771D02*
X76398684Y-103731057D01*
X76398684Y-103731057D02*
X76455827Y-103788200D01*
X76455827Y-103788200D02*
X76570112Y-103845342D01*
X76570112Y-103845342D02*
X76798684Y-103845342D01*
X76798684Y-103845342D02*
X76912970Y-103788200D01*
X76912970Y-103788200D02*
X76970112Y-103731057D01*
X76970112Y-103731057D02*
X77027255Y-103616771D01*
X77027255Y-103616771D02*
X77027255Y-103331057D01*
X77027255Y-103331057D02*
X76970112Y-103216771D01*
X76970112Y-103216771D02*
X76912970Y-103159628D01*
X76912970Y-103159628D02*
X76798684Y-103102485D01*
X76798684Y-103102485D02*
X76570112Y-103102485D01*
X76570112Y-103102485D02*
X76455827Y-103159628D01*
X76455827Y-103159628D02*
X76398684Y-103216771D01*
X76398684Y-103216771D02*
X76341541Y-103331057D01*
X77770112Y-102645342D02*
X77884398Y-102645342D01*
X77884398Y-102645342D02*
X77998684Y-102702485D01*
X77998684Y-102702485D02*
X78055827Y-102759628D01*
X78055827Y-102759628D02*
X78112969Y-102873914D01*
X78112969Y-102873914D02*
X78170112Y-103102485D01*
X78170112Y-103102485D02*
X78170112Y-103388200D01*
X78170112Y-103388200D02*
X78112969Y-103616771D01*
X78112969Y-103616771D02*
X78055827Y-103731057D01*
X78055827Y-103731057D02*
X77998684Y-103788200D01*
X77998684Y-103788200D02*
X77884398Y-103845342D01*
X77884398Y-103845342D02*
X77770112Y-103845342D01*
X77770112Y-103845342D02*
X77655827Y-103788200D01*
X77655827Y-103788200D02*
X77598684Y-103731057D01*
X77598684Y-103731057D02*
X77541541Y-103616771D01*
X77541541Y-103616771D02*
X77484398Y-103388200D01*
X77484398Y-103388200D02*
X77484398Y-103102485D01*
X77484398Y-103102485D02*
X77541541Y-102873914D01*
X77541541Y-102873914D02*
X77598684Y-102759628D01*
X77598684Y-102759628D02*
X77655827Y-102702485D01*
X77655827Y-102702485D02*
X77770112Y-102645342D01*
X78627255Y-102759628D02*
X78684398Y-102702485D01*
X78684398Y-102702485D02*
X78798684Y-102645342D01*
X78798684Y-102645342D02*
X79084398Y-102645342D01*
X79084398Y-102645342D02*
X79198684Y-102702485D01*
X79198684Y-102702485D02*
X79255826Y-102759628D01*
X79255826Y-102759628D02*
X79312969Y-102873914D01*
X79312969Y-102873914D02*
X79312969Y-102988200D01*
X79312969Y-102988200D02*
X79255826Y-103159628D01*
X79255826Y-103159628D02*
X78570112Y-103845342D01*
X78570112Y-103845342D02*
X79312969Y-103845342D01*
X80741541Y-103845342D02*
X80741541Y-102645342D01*
X81255827Y-102759628D02*
X81312970Y-102702485D01*
X81312970Y-102702485D02*
X81427256Y-102645342D01*
X81427256Y-102645342D02*
X81712970Y-102645342D01*
X81712970Y-102645342D02*
X81827256Y-102702485D01*
X81827256Y-102702485D02*
X81884398Y-102759628D01*
X81884398Y-102759628D02*
X81941541Y-102873914D01*
X81941541Y-102873914D02*
X81941541Y-102988200D01*
X81941541Y-102988200D02*
X81884398Y-103159628D01*
X81884398Y-103159628D02*
X81198684Y-103845342D01*
X81198684Y-103845342D02*
X81941541Y-103845342D01*
X83141541Y-103731057D02*
X83084398Y-103788200D01*
X83084398Y-103788200D02*
X82912970Y-103845342D01*
X82912970Y-103845342D02*
X82798684Y-103845342D01*
X82798684Y-103845342D02*
X82627255Y-103788200D01*
X82627255Y-103788200D02*
X82512970Y-103673914D01*
X82512970Y-103673914D02*
X82455827Y-103559628D01*
X82455827Y-103559628D02*
X82398684Y-103331057D01*
X82398684Y-103331057D02*
X82398684Y-103159628D01*
X82398684Y-103159628D02*
X82455827Y-102931057D01*
X82455827Y-102931057D02*
X82512970Y-102816771D01*
X82512970Y-102816771D02*
X82627255Y-102702485D01*
X82627255Y-102702485D02*
X82798684Y-102645342D01*
X82798684Y-102645342D02*
X82912970Y-102645342D01*
X82912970Y-102645342D02*
X83084398Y-102702485D01*
X83084398Y-102702485D02*
X83141541Y-102759628D01*
D14*
X105333333Y-138357419D02*
X104761905Y-138357419D01*
X105047619Y-138357419D02*
X105047619Y-137357419D01*
X105047619Y-137357419D02*
X104952381Y-137500276D01*
X104952381Y-137500276D02*
X104857143Y-137595514D01*
X104857143Y-137595514D02*
X104761905Y-137643133D01*
X105666667Y-137357419D02*
X106333333Y-137357419D01*
X106333333Y-137357419D02*
X105904762Y-138357419D01*
X106904762Y-137357419D02*
X107000000Y-137357419D01*
X107000000Y-137357419D02*
X107095238Y-137405038D01*
X107095238Y-137405038D02*
X107142857Y-137452657D01*
X107142857Y-137452657D02*
X107190476Y-137547895D01*
X107190476Y-137547895D02*
X107238095Y-137738371D01*
X107238095Y-137738371D02*
X107238095Y-137976466D01*
X107238095Y-137976466D02*
X107190476Y-138166942D01*
X107190476Y-138166942D02*
X107142857Y-138262180D01*
X107142857Y-138262180D02*
X107095238Y-138309800D01*
X107095238Y-138309800D02*
X107000000Y-138357419D01*
X107000000Y-138357419D02*
X106904762Y-138357419D01*
X106904762Y-138357419D02*
X106809524Y-138309800D01*
X106809524Y-138309800D02*
X106761905Y-138262180D01*
X106761905Y-138262180D02*
X106714286Y-138166942D01*
X106714286Y-138166942D02*
X106666667Y-137976466D01*
X106666667Y-137976466D02*
X106666667Y-137738371D01*
X106666667Y-137738371D02*
X106714286Y-137547895D01*
X106714286Y-137547895D02*
X106761905Y-137452657D01*
X106761905Y-137452657D02*
X106809524Y-137405038D01*
X106809524Y-137405038D02*
X106904762Y-137357419D01*
X191000000Y-130500000D02*
X191000000Y-139586420D01*
X21000000Y-139586420D02*
X21000000Y-130500000D01*
X191000000Y-139000000D02*
X21000000Y-139000000D01*
X191000000Y-139000000D02*
X189873496Y-139586421D01*
X191000000Y-139000000D02*
X189873496Y-138413579D01*
X21000000Y-139000000D02*
X22126504Y-138413579D01*
X21000000Y-139000000D02*
X22126504Y-139586421D01*
X200357419Y-102202380D02*
X200357419Y-102678570D01*
X200357419Y-102678570D02*
X200833609Y-102726189D01*
X200833609Y-102726189D02*
X200785990Y-102678570D01*
X200785990Y-102678570D02*
X200738371Y-102583332D01*
X200738371Y-102583332D02*
X200738371Y-102345237D01*
X200738371Y-102345237D02*
X200785990Y-102249999D01*
X200785990Y-102249999D02*
X200833609Y-102202380D01*
X200833609Y-102202380D02*
X200928847Y-102154761D01*
X200928847Y-102154761D02*
X201166942Y-102154761D01*
X201166942Y-102154761D02*
X201262180Y-102202380D01*
X201262180Y-102202380D02*
X201309800Y-102249999D01*
X201309800Y-102249999D02*
X201357419Y-102345237D01*
X201357419Y-102345237D02*
X201357419Y-102583332D01*
X201357419Y-102583332D02*
X201309800Y-102678570D01*
X201309800Y-102678570D02*
X201262180Y-102726189D01*
X200357419Y-101821427D02*
X200357419Y-101154761D01*
X200357419Y-101154761D02*
X201357419Y-101583332D01*
X201262180Y-100773808D02*
X201309800Y-100726189D01*
X201309800Y-100726189D02*
X201357419Y-100773808D01*
X201357419Y-100773808D02*
X201309800Y-100821427D01*
X201309800Y-100821427D02*
X201262180Y-100773808D01*
X201262180Y-100773808D02*
X201357419Y-100773808D01*
X200357419Y-99821428D02*
X200357419Y-100297618D01*
X200357419Y-100297618D02*
X200833609Y-100345237D01*
X200833609Y-100345237D02*
X200785990Y-100297618D01*
X200785990Y-100297618D02*
X200738371Y-100202380D01*
X200738371Y-100202380D02*
X200738371Y-99964285D01*
X200738371Y-99964285D02*
X200785990Y-99869047D01*
X200785990Y-99869047D02*
X200833609Y-99821428D01*
X200833609Y-99821428D02*
X200928847Y-99773809D01*
X200928847Y-99773809D02*
X201166942Y-99773809D01*
X201166942Y-99773809D02*
X201262180Y-99821428D01*
X201262180Y-99821428D02*
X201309800Y-99869047D01*
X201309800Y-99869047D02*
X201357419Y-99964285D01*
X201357419Y-99964285D02*
X201357419Y-100202380D01*
X201357419Y-100202380D02*
X201309800Y-100297618D01*
X201309800Y-100297618D02*
X201262180Y-100345237D01*
X191500000Y-72500000D02*
X202586420Y-72500000D01*
X202586420Y-130000000D02*
X191500000Y-130000000D01*
X202000000Y-72500000D02*
X202000000Y-130000000D01*
X202000000Y-72500000D02*
X202586421Y-73626504D01*
X202000000Y-72500000D02*
X201413579Y-73626504D01*
X202000000Y-130000000D02*
X201413579Y-128873496D01*
X202000000Y-130000000D02*
X202586421Y-128873496D01*
D12*
X29393689Y-116990200D02*
X29565118Y-117047342D01*
X29565118Y-117047342D02*
X29850832Y-117047342D01*
X29850832Y-117047342D02*
X29965118Y-116990200D01*
X29965118Y-116990200D02*
X30022260Y-116933057D01*
X30022260Y-116933057D02*
X30079403Y-116818771D01*
X30079403Y-116818771D02*
X30079403Y-116704485D01*
X30079403Y-116704485D02*
X30022260Y-116590200D01*
X30022260Y-116590200D02*
X29965118Y-116533057D01*
X29965118Y-116533057D02*
X29850832Y-116475914D01*
X29850832Y-116475914D02*
X29622260Y-116418771D01*
X29622260Y-116418771D02*
X29507975Y-116361628D01*
X29507975Y-116361628D02*
X29450832Y-116304485D01*
X29450832Y-116304485D02*
X29393689Y-116190200D01*
X29393689Y-116190200D02*
X29393689Y-116075914D01*
X29393689Y-116075914D02*
X29450832Y-115961628D01*
X29450832Y-115961628D02*
X29507975Y-115904485D01*
X29507975Y-115904485D02*
X29622260Y-115847342D01*
X29622260Y-115847342D02*
X29907975Y-115847342D01*
X29907975Y-115847342D02*
X30079403Y-115904485D01*
X30479403Y-115847342D02*
X30765117Y-117047342D01*
X30765117Y-117047342D02*
X30993689Y-116190200D01*
X30993689Y-116190200D02*
X31222260Y-117047342D01*
X31222260Y-117047342D02*
X31507975Y-115847342D01*
X32593689Y-117047342D02*
X31907975Y-117047342D01*
X32250832Y-117047342D02*
X32250832Y-115847342D01*
X32250832Y-115847342D02*
X32136546Y-116018771D01*
X32136546Y-116018771D02*
X32022261Y-116133057D01*
X32022261Y-116133057D02*
X31907975Y-116190200D01*
X36447115Y-92970375D02*
X36504258Y-93027518D01*
X36504258Y-93027518D02*
X36561400Y-93198946D01*
X36561400Y-93198946D02*
X36561400Y-93313232D01*
X36561400Y-93313232D02*
X36504258Y-93484661D01*
X36504258Y-93484661D02*
X36389972Y-93598946D01*
X36389972Y-93598946D02*
X36275686Y-93656089D01*
X36275686Y-93656089D02*
X36047115Y-93713232D01*
X36047115Y-93713232D02*
X35875686Y-93713232D01*
X35875686Y-93713232D02*
X35647115Y-93656089D01*
X35647115Y-93656089D02*
X35532829Y-93598946D01*
X35532829Y-93598946D02*
X35418543Y-93484661D01*
X35418543Y-93484661D02*
X35361400Y-93313232D01*
X35361400Y-93313232D02*
X35361400Y-93198946D01*
X35361400Y-93198946D02*
X35418543Y-93027518D01*
X35418543Y-93027518D02*
X35475686Y-92970375D01*
X36561400Y-91827518D02*
X36561400Y-92513232D01*
X36561400Y-92170375D02*
X35361400Y-92170375D01*
X35361400Y-92170375D02*
X35532829Y-92284661D01*
X35532829Y-92284661D02*
X35647115Y-92398946D01*
X35647115Y-92398946D02*
X35704258Y-92513232D01*
X164610000Y-99047342D02*
X164210000Y-98475914D01*
X163924286Y-99047342D02*
X163924286Y-97847342D01*
X163924286Y-97847342D02*
X164381429Y-97847342D01*
X164381429Y-97847342D02*
X164495714Y-97904485D01*
X164495714Y-97904485D02*
X164552857Y-97961628D01*
X164552857Y-97961628D02*
X164610000Y-98075914D01*
X164610000Y-98075914D02*
X164610000Y-98247342D01*
X164610000Y-98247342D02*
X164552857Y-98361628D01*
X164552857Y-98361628D02*
X164495714Y-98418771D01*
X164495714Y-98418771D02*
X164381429Y-98475914D01*
X164381429Y-98475914D02*
X163924286Y-98475914D01*
X165010000Y-97847342D02*
X165752857Y-97847342D01*
X165752857Y-97847342D02*
X165352857Y-98304485D01*
X165352857Y-98304485D02*
X165524286Y-98304485D01*
X165524286Y-98304485D02*
X165638572Y-98361628D01*
X165638572Y-98361628D02*
X165695714Y-98418771D01*
X165695714Y-98418771D02*
X165752857Y-98533057D01*
X165752857Y-98533057D02*
X165752857Y-98818771D01*
X165752857Y-98818771D02*
X165695714Y-98933057D01*
X165695714Y-98933057D02*
X165638572Y-98990200D01*
X165638572Y-98990200D02*
X165524286Y-99047342D01*
X165524286Y-99047342D02*
X165181429Y-99047342D01*
X165181429Y-99047342D02*
X165067143Y-98990200D01*
X165067143Y-98990200D02*
X165010000Y-98933057D01*
X29100000Y-102847342D02*
X29100000Y-103704485D01*
X29100000Y-103704485D02*
X29042857Y-103875914D01*
X29042857Y-103875914D02*
X28928571Y-103990200D01*
X28928571Y-103990200D02*
X28757143Y-104047342D01*
X28757143Y-104047342D02*
X28642857Y-104047342D01*
X30300000Y-104047342D02*
X29614286Y-104047342D01*
X29957143Y-104047342D02*
X29957143Y-102847342D01*
X29957143Y-102847342D02*
X29842857Y-103018771D01*
X29842857Y-103018771D02*
X29728572Y-103133057D01*
X29728572Y-103133057D02*
X29614286Y-103190200D01*
X164610000Y-104047342D02*
X164210000Y-103475914D01*
X163924286Y-104047342D02*
X163924286Y-102847342D01*
X163924286Y-102847342D02*
X164381429Y-102847342D01*
X164381429Y-102847342D02*
X164495714Y-102904485D01*
X164495714Y-102904485D02*
X164552857Y-102961628D01*
X164552857Y-102961628D02*
X164610000Y-103075914D01*
X164610000Y-103075914D02*
X164610000Y-103247342D01*
X164610000Y-103247342D02*
X164552857Y-103361628D01*
X164552857Y-103361628D02*
X164495714Y-103418771D01*
X164495714Y-103418771D02*
X164381429Y-103475914D01*
X164381429Y-103475914D02*
X163924286Y-103475914D01*
X165067143Y-102961628D02*
X165124286Y-102904485D01*
X165124286Y-102904485D02*
X165238572Y-102847342D01*
X165238572Y-102847342D02*
X165524286Y-102847342D01*
X165524286Y-102847342D02*
X165638572Y-102904485D01*
X165638572Y-102904485D02*
X165695714Y-102961628D01*
X165695714Y-102961628D02*
X165752857Y-103075914D01*
X165752857Y-103075914D02*
X165752857Y-103190200D01*
X165752857Y-103190200D02*
X165695714Y-103361628D01*
X165695714Y-103361628D02*
X165010000Y-104047342D01*
X165010000Y-104047342D02*
X165752857Y-104047342D01*
X179918571Y-109047342D02*
X179518571Y-108475914D01*
X179232857Y-109047342D02*
X179232857Y-107847342D01*
X179232857Y-107847342D02*
X179690000Y-107847342D01*
X179690000Y-107847342D02*
X179804285Y-107904485D01*
X179804285Y-107904485D02*
X179861428Y-107961628D01*
X179861428Y-107961628D02*
X179918571Y-108075914D01*
X179918571Y-108075914D02*
X179918571Y-108247342D01*
X179918571Y-108247342D02*
X179861428Y-108361628D01*
X179861428Y-108361628D02*
X179804285Y-108418771D01*
X179804285Y-108418771D02*
X179690000Y-108475914D01*
X179690000Y-108475914D02*
X179232857Y-108475914D01*
X181061428Y-109047342D02*
X180375714Y-109047342D01*
X180718571Y-109047342D02*
X180718571Y-107847342D01*
X180718571Y-107847342D02*
X180604285Y-108018771D01*
X180604285Y-108018771D02*
X180490000Y-108133057D01*
X180490000Y-108133057D02*
X180375714Y-108190200D01*
X181804285Y-107847342D02*
X181918571Y-107847342D01*
X181918571Y-107847342D02*
X182032857Y-107904485D01*
X182032857Y-107904485D02*
X182090000Y-107961628D01*
X182090000Y-107961628D02*
X182147142Y-108075914D01*
X182147142Y-108075914D02*
X182204285Y-108304485D01*
X182204285Y-108304485D02*
X182204285Y-108590200D01*
X182204285Y-108590200D02*
X182147142Y-108818771D01*
X182147142Y-108818771D02*
X182090000Y-108933057D01*
X182090000Y-108933057D02*
X182032857Y-108990200D01*
X182032857Y-108990200D02*
X181918571Y-109047342D01*
X181918571Y-109047342D02*
X181804285Y-109047342D01*
X181804285Y-109047342D02*
X181690000Y-108990200D01*
X181690000Y-108990200D02*
X181632857Y-108933057D01*
X181632857Y-108933057D02*
X181575714Y-108818771D01*
X181575714Y-108818771D02*
X181518571Y-108590200D01*
X181518571Y-108590200D02*
X181518571Y-108304485D01*
X181518571Y-108304485D02*
X181575714Y-108075914D01*
X181575714Y-108075914D02*
X181632857Y-107961628D01*
X181632857Y-107961628D02*
X181690000Y-107904485D01*
X181690000Y-107904485D02*
X181804285Y-107847342D01*
X164610000Y-109047342D02*
X164210000Y-108475914D01*
X163924286Y-109047342D02*
X163924286Y-107847342D01*
X163924286Y-107847342D02*
X164381429Y-107847342D01*
X164381429Y-107847342D02*
X164495714Y-107904485D01*
X164495714Y-107904485D02*
X164552857Y-107961628D01*
X164552857Y-107961628D02*
X164610000Y-108075914D01*
X164610000Y-108075914D02*
X164610000Y-108247342D01*
X164610000Y-108247342D02*
X164552857Y-108361628D01*
X164552857Y-108361628D02*
X164495714Y-108418771D01*
X164495714Y-108418771D02*
X164381429Y-108475914D01*
X164381429Y-108475914D02*
X163924286Y-108475914D01*
X165752857Y-109047342D02*
X165067143Y-109047342D01*
X165410000Y-109047342D02*
X165410000Y-107847342D01*
X165410000Y-107847342D02*
X165295714Y-108018771D01*
X165295714Y-108018771D02*
X165181429Y-108133057D01*
X165181429Y-108133057D02*
X165067143Y-108190200D01*
X180490000Y-99047342D02*
X180090000Y-98475914D01*
X179804286Y-99047342D02*
X179804286Y-97847342D01*
X179804286Y-97847342D02*
X180261429Y-97847342D01*
X180261429Y-97847342D02*
X180375714Y-97904485D01*
X180375714Y-97904485D02*
X180432857Y-97961628D01*
X180432857Y-97961628D02*
X180490000Y-98075914D01*
X180490000Y-98075914D02*
X180490000Y-98247342D01*
X180490000Y-98247342D02*
X180432857Y-98361628D01*
X180432857Y-98361628D02*
X180375714Y-98418771D01*
X180375714Y-98418771D02*
X180261429Y-98475914D01*
X180261429Y-98475914D02*
X179804286Y-98475914D01*
X181175714Y-98361628D02*
X181061429Y-98304485D01*
X181061429Y-98304485D02*
X181004286Y-98247342D01*
X181004286Y-98247342D02*
X180947143Y-98133057D01*
X180947143Y-98133057D02*
X180947143Y-98075914D01*
X180947143Y-98075914D02*
X181004286Y-97961628D01*
X181004286Y-97961628D02*
X181061429Y-97904485D01*
X181061429Y-97904485D02*
X181175714Y-97847342D01*
X181175714Y-97847342D02*
X181404286Y-97847342D01*
X181404286Y-97847342D02*
X181518572Y-97904485D01*
X181518572Y-97904485D02*
X181575714Y-97961628D01*
X181575714Y-97961628D02*
X181632857Y-98075914D01*
X181632857Y-98075914D02*
X181632857Y-98133057D01*
X181632857Y-98133057D02*
X181575714Y-98247342D01*
X181575714Y-98247342D02*
X181518572Y-98304485D01*
X181518572Y-98304485D02*
X181404286Y-98361628D01*
X181404286Y-98361628D02*
X181175714Y-98361628D01*
X181175714Y-98361628D02*
X181061429Y-98418771D01*
X181061429Y-98418771D02*
X181004286Y-98475914D01*
X181004286Y-98475914D02*
X180947143Y-98590200D01*
X180947143Y-98590200D02*
X180947143Y-98818771D01*
X180947143Y-98818771D02*
X181004286Y-98933057D01*
X181004286Y-98933057D02*
X181061429Y-98990200D01*
X181061429Y-98990200D02*
X181175714Y-99047342D01*
X181175714Y-99047342D02*
X181404286Y-99047342D01*
X181404286Y-99047342D02*
X181518572Y-98990200D01*
X181518572Y-98990200D02*
X181575714Y-98933057D01*
X181575714Y-98933057D02*
X181632857Y-98818771D01*
X181632857Y-98818771D02*
X181632857Y-98590200D01*
X181632857Y-98590200D02*
X181575714Y-98475914D01*
X181575714Y-98475914D02*
X181518572Y-98418771D01*
X181518572Y-98418771D02*
X181404286Y-98361628D01*
X138066584Y-94750529D02*
X138466584Y-94750529D01*
X138638012Y-95379100D02*
X138066584Y-95379100D01*
X138066584Y-95379100D02*
X138066584Y-94179100D01*
X138066584Y-94179100D02*
X138638012Y-94179100D01*
X139095155Y-95321958D02*
X139266584Y-95379100D01*
X139266584Y-95379100D02*
X139552298Y-95379100D01*
X139552298Y-95379100D02*
X139666584Y-95321958D01*
X139666584Y-95321958D02*
X139723726Y-95264815D01*
X139723726Y-95264815D02*
X139780869Y-95150529D01*
X139780869Y-95150529D02*
X139780869Y-95036243D01*
X139780869Y-95036243D02*
X139723726Y-94921958D01*
X139723726Y-94921958D02*
X139666584Y-94864815D01*
X139666584Y-94864815D02*
X139552298Y-94807672D01*
X139552298Y-94807672D02*
X139323726Y-94750529D01*
X139323726Y-94750529D02*
X139209441Y-94693386D01*
X139209441Y-94693386D02*
X139152298Y-94636243D01*
X139152298Y-94636243D02*
X139095155Y-94521958D01*
X139095155Y-94521958D02*
X139095155Y-94407672D01*
X139095155Y-94407672D02*
X139152298Y-94293386D01*
X139152298Y-94293386D02*
X139209441Y-94236243D01*
X139209441Y-94236243D02*
X139323726Y-94179100D01*
X139323726Y-94179100D02*
X139609441Y-94179100D01*
X139609441Y-94179100D02*
X139780869Y-94236243D01*
X140295155Y-95379100D02*
X140295155Y-94179100D01*
X140295155Y-94179100D02*
X140752298Y-94179100D01*
X140752298Y-94179100D02*
X140866583Y-94236243D01*
X140866583Y-94236243D02*
X140923726Y-94293386D01*
X140923726Y-94293386D02*
X140980869Y-94407672D01*
X140980869Y-94407672D02*
X140980869Y-94579100D01*
X140980869Y-94579100D02*
X140923726Y-94693386D01*
X140923726Y-94693386D02*
X140866583Y-94750529D01*
X140866583Y-94750529D02*
X140752298Y-94807672D01*
X140752298Y-94807672D02*
X140295155Y-94807672D01*
X141380869Y-94179100D02*
X142123726Y-94179100D01*
X142123726Y-94179100D02*
X141723726Y-94636243D01*
X141723726Y-94636243D02*
X141895155Y-94636243D01*
X141895155Y-94636243D02*
X142009441Y-94693386D01*
X142009441Y-94693386D02*
X142066583Y-94750529D01*
X142066583Y-94750529D02*
X142123726Y-94864815D01*
X142123726Y-94864815D02*
X142123726Y-95150529D01*
X142123726Y-95150529D02*
X142066583Y-95264815D01*
X142066583Y-95264815D02*
X142009441Y-95321958D01*
X142009441Y-95321958D02*
X141895155Y-95379100D01*
X141895155Y-95379100D02*
X141552298Y-95379100D01*
X141552298Y-95379100D02*
X141438012Y-95321958D01*
X141438012Y-95321958D02*
X141380869Y-95264815D01*
X142580869Y-94293386D02*
X142638012Y-94236243D01*
X142638012Y-94236243D02*
X142752298Y-94179100D01*
X142752298Y-94179100D02*
X143038012Y-94179100D01*
X143038012Y-94179100D02*
X143152298Y-94236243D01*
X143152298Y-94236243D02*
X143209440Y-94293386D01*
X143209440Y-94293386D02*
X143266583Y-94407672D01*
X143266583Y-94407672D02*
X143266583Y-94521958D01*
X143266583Y-94521958D02*
X143209440Y-94693386D01*
X143209440Y-94693386D02*
X142523726Y-95379100D01*
X142523726Y-95379100D02*
X143266583Y-95379100D01*
X147531680Y-113993961D02*
X148274537Y-113993961D01*
X148274537Y-113993961D02*
X147874537Y-114451104D01*
X147874537Y-114451104D02*
X148045966Y-114451104D01*
X148045966Y-114451104D02*
X148160252Y-114508247D01*
X148160252Y-114508247D02*
X148217394Y-114565390D01*
X148217394Y-114565390D02*
X148274537Y-114679676D01*
X148274537Y-114679676D02*
X148274537Y-114965390D01*
X148274537Y-114965390D02*
X148217394Y-115079676D01*
X148217394Y-115079676D02*
X148160252Y-115136819D01*
X148160252Y-115136819D02*
X148045966Y-115193961D01*
X148045966Y-115193961D02*
X147703109Y-115193961D01*
X147703109Y-115193961D02*
X147588823Y-115136819D01*
X147588823Y-115136819D02*
X147531680Y-115079676D01*
X148617394Y-113993961D02*
X149017394Y-115193961D01*
X149017394Y-115193961D02*
X149417394Y-113993961D01*
X149703108Y-113993961D02*
X150445965Y-113993961D01*
X150445965Y-113993961D02*
X150045965Y-114451104D01*
X150045965Y-114451104D02*
X150217394Y-114451104D01*
X150217394Y-114451104D02*
X150331680Y-114508247D01*
X150331680Y-114508247D02*
X150388822Y-114565390D01*
X150388822Y-114565390D02*
X150445965Y-114679676D01*
X150445965Y-114679676D02*
X150445965Y-114965390D01*
X150445965Y-114965390D02*
X150388822Y-115079676D01*
X150388822Y-115079676D02*
X150331680Y-115136819D01*
X150331680Y-115136819D02*
X150217394Y-115193961D01*
X150217394Y-115193961D02*
X149874537Y-115193961D01*
X149874537Y-115193961D02*
X149760251Y-115136819D01*
X149760251Y-115136819D02*
X149703108Y-115079676D01*
X135249150Y-127181403D02*
X135249150Y-128152832D01*
X135249150Y-128152832D02*
X135306293Y-128267118D01*
X135306293Y-128267118D02*
X135363436Y-128324261D01*
X135363436Y-128324261D02*
X135477721Y-128381403D01*
X135477721Y-128381403D02*
X135706293Y-128381403D01*
X135706293Y-128381403D02*
X135820578Y-128324261D01*
X135820578Y-128324261D02*
X135877721Y-128267118D01*
X135877721Y-128267118D02*
X135934864Y-128152832D01*
X135934864Y-128152832D02*
X135934864Y-127181403D01*
X136449150Y-128324261D02*
X136620579Y-128381403D01*
X136620579Y-128381403D02*
X136906293Y-128381403D01*
X136906293Y-128381403D02*
X137020579Y-128324261D01*
X137020579Y-128324261D02*
X137077721Y-128267118D01*
X137077721Y-128267118D02*
X137134864Y-128152832D01*
X137134864Y-128152832D02*
X137134864Y-128038546D01*
X137134864Y-128038546D02*
X137077721Y-127924261D01*
X137077721Y-127924261D02*
X137020579Y-127867118D01*
X137020579Y-127867118D02*
X136906293Y-127809975D01*
X136906293Y-127809975D02*
X136677721Y-127752832D01*
X136677721Y-127752832D02*
X136563436Y-127695689D01*
X136563436Y-127695689D02*
X136506293Y-127638546D01*
X136506293Y-127638546D02*
X136449150Y-127524261D01*
X136449150Y-127524261D02*
X136449150Y-127409975D01*
X136449150Y-127409975D02*
X136506293Y-127295689D01*
X136506293Y-127295689D02*
X136563436Y-127238546D01*
X136563436Y-127238546D02*
X136677721Y-127181403D01*
X136677721Y-127181403D02*
X136963436Y-127181403D01*
X136963436Y-127181403D02*
X137134864Y-127238546D01*
X138049150Y-127752832D02*
X138220578Y-127809975D01*
X138220578Y-127809975D02*
X138277721Y-127867118D01*
X138277721Y-127867118D02*
X138334864Y-127981403D01*
X138334864Y-127981403D02*
X138334864Y-128152832D01*
X138334864Y-128152832D02*
X138277721Y-128267118D01*
X138277721Y-128267118D02*
X138220578Y-128324261D01*
X138220578Y-128324261D02*
X138106293Y-128381403D01*
X138106293Y-128381403D02*
X137649150Y-128381403D01*
X137649150Y-128381403D02*
X137649150Y-127181403D01*
X137649150Y-127181403D02*
X138049150Y-127181403D01*
X138049150Y-127181403D02*
X138163436Y-127238546D01*
X138163436Y-127238546D02*
X138220578Y-127295689D01*
X138220578Y-127295689D02*
X138277721Y-127409975D01*
X138277721Y-127409975D02*
X138277721Y-127524261D01*
X138277721Y-127524261D02*
X138220578Y-127638546D01*
X138220578Y-127638546D02*
X138163436Y-127695689D01*
X138163436Y-127695689D02*
X138049150Y-127752832D01*
X138049150Y-127752832D02*
X137649150Y-127752832D01*
X140449150Y-128267118D02*
X140392007Y-128324261D01*
X140392007Y-128324261D02*
X140220579Y-128381403D01*
X140220579Y-128381403D02*
X140106293Y-128381403D01*
X140106293Y-128381403D02*
X139934864Y-128324261D01*
X139934864Y-128324261D02*
X139820579Y-128209975D01*
X139820579Y-128209975D02*
X139763436Y-128095689D01*
X139763436Y-128095689D02*
X139706293Y-127867118D01*
X139706293Y-127867118D02*
X139706293Y-127695689D01*
X139706293Y-127695689D02*
X139763436Y-127467118D01*
X139763436Y-127467118D02*
X139820579Y-127352832D01*
X139820579Y-127352832D02*
X139934864Y-127238546D01*
X139934864Y-127238546D02*
X140106293Y-127181403D01*
X140106293Y-127181403D02*
X140220579Y-127181403D01*
X140220579Y-127181403D02*
X140392007Y-127238546D01*
X140392007Y-127238546D02*
X140449150Y-127295689D01*
X141877722Y-128381403D02*
X141877722Y-127181403D01*
X141877722Y-127181403D02*
X142334865Y-127181403D01*
X142334865Y-127181403D02*
X142449150Y-127238546D01*
X142449150Y-127238546D02*
X142506293Y-127295689D01*
X142506293Y-127295689D02*
X142563436Y-127409975D01*
X142563436Y-127409975D02*
X142563436Y-127581403D01*
X142563436Y-127581403D02*
X142506293Y-127695689D01*
X142506293Y-127695689D02*
X142449150Y-127752832D01*
X142449150Y-127752832D02*
X142334865Y-127809975D01*
X142334865Y-127809975D02*
X141877722Y-127809975D01*
X143306293Y-127181403D02*
X143534865Y-127181403D01*
X143534865Y-127181403D02*
X143649150Y-127238546D01*
X143649150Y-127238546D02*
X143763436Y-127352832D01*
X143763436Y-127352832D02*
X143820579Y-127581403D01*
X143820579Y-127581403D02*
X143820579Y-127981403D01*
X143820579Y-127981403D02*
X143763436Y-128209975D01*
X143763436Y-128209975D02*
X143649150Y-128324261D01*
X143649150Y-128324261D02*
X143534865Y-128381403D01*
X143534865Y-128381403D02*
X143306293Y-128381403D01*
X143306293Y-128381403D02*
X143192008Y-128324261D01*
X143192008Y-128324261D02*
X143077722Y-128209975D01*
X143077722Y-128209975D02*
X143020579Y-127981403D01*
X143020579Y-127981403D02*
X143020579Y-127581403D01*
X143020579Y-127581403D02*
X143077722Y-127352832D01*
X143077722Y-127352832D02*
X143192008Y-127238546D01*
X143192008Y-127238546D02*
X143306293Y-127181403D01*
X145020579Y-128381403D02*
X144620579Y-127809975D01*
X144334865Y-128381403D02*
X144334865Y-127181403D01*
X144334865Y-127181403D02*
X144792008Y-127181403D01*
X144792008Y-127181403D02*
X144906293Y-127238546D01*
X144906293Y-127238546D02*
X144963436Y-127295689D01*
X144963436Y-127295689D02*
X145020579Y-127409975D01*
X145020579Y-127409975D02*
X145020579Y-127581403D01*
X145020579Y-127581403D02*
X144963436Y-127695689D01*
X144963436Y-127695689D02*
X144906293Y-127752832D01*
X144906293Y-127752832D02*
X144792008Y-127809975D01*
X144792008Y-127809975D02*
X144334865Y-127809975D01*
X145363436Y-127181403D02*
X146049151Y-127181403D01*
X145706293Y-128381403D02*
X145706293Y-127181403D01*
X130656005Y-78839760D02*
X131056005Y-78839760D01*
X131227433Y-79468331D02*
X130656005Y-79468331D01*
X130656005Y-79468331D02*
X130656005Y-78268331D01*
X130656005Y-78268331D02*
X131227433Y-78268331D01*
X131741719Y-79468331D02*
X131741719Y-78268331D01*
X131741719Y-78268331D02*
X132427433Y-79468331D01*
X132427433Y-79468331D02*
X132427433Y-78268331D01*
X180490000Y-89022630D02*
X180090000Y-88451202D01*
X179804286Y-89022630D02*
X179804286Y-87822630D01*
X179804286Y-87822630D02*
X180261429Y-87822630D01*
X180261429Y-87822630D02*
X180375714Y-87879773D01*
X180375714Y-87879773D02*
X180432857Y-87936916D01*
X180432857Y-87936916D02*
X180490000Y-88051202D01*
X180490000Y-88051202D02*
X180490000Y-88222630D01*
X180490000Y-88222630D02*
X180432857Y-88336916D01*
X180432857Y-88336916D02*
X180375714Y-88394059D01*
X180375714Y-88394059D02*
X180261429Y-88451202D01*
X180261429Y-88451202D02*
X179804286Y-88451202D01*
X181518572Y-87822630D02*
X181290000Y-87822630D01*
X181290000Y-87822630D02*
X181175714Y-87879773D01*
X181175714Y-87879773D02*
X181118572Y-87936916D01*
X181118572Y-87936916D02*
X181004286Y-88108345D01*
X181004286Y-88108345D02*
X180947143Y-88336916D01*
X180947143Y-88336916D02*
X180947143Y-88794059D01*
X180947143Y-88794059D02*
X181004286Y-88908345D01*
X181004286Y-88908345D02*
X181061429Y-88965488D01*
X181061429Y-88965488D02*
X181175714Y-89022630D01*
X181175714Y-89022630D02*
X181404286Y-89022630D01*
X181404286Y-89022630D02*
X181518572Y-88965488D01*
X181518572Y-88965488D02*
X181575714Y-88908345D01*
X181575714Y-88908345D02*
X181632857Y-88794059D01*
X181632857Y-88794059D02*
X181632857Y-88508345D01*
X181632857Y-88508345D02*
X181575714Y-88394059D01*
X181575714Y-88394059D02*
X181518572Y-88336916D01*
X181518572Y-88336916D02*
X181404286Y-88279773D01*
X181404286Y-88279773D02*
X181175714Y-88279773D01*
X181175714Y-88279773D02*
X181061429Y-88336916D01*
X181061429Y-88336916D02*
X181004286Y-88394059D01*
X181004286Y-88394059D02*
X180947143Y-88508345D01*
X180490000Y-94047342D02*
X180090000Y-93475914D01*
X179804286Y-94047342D02*
X179804286Y-92847342D01*
X179804286Y-92847342D02*
X180261429Y-92847342D01*
X180261429Y-92847342D02*
X180375714Y-92904485D01*
X180375714Y-92904485D02*
X180432857Y-92961628D01*
X180432857Y-92961628D02*
X180490000Y-93075914D01*
X180490000Y-93075914D02*
X180490000Y-93247342D01*
X180490000Y-93247342D02*
X180432857Y-93361628D01*
X180432857Y-93361628D02*
X180375714Y-93418771D01*
X180375714Y-93418771D02*
X180261429Y-93475914D01*
X180261429Y-93475914D02*
X179804286Y-93475914D01*
X180890000Y-92847342D02*
X181690000Y-92847342D01*
X181690000Y-92847342D02*
X181175714Y-94047342D01*
X180490000Y-104047342D02*
X180090000Y-103475914D01*
X179804286Y-104047342D02*
X179804286Y-102847342D01*
X179804286Y-102847342D02*
X180261429Y-102847342D01*
X180261429Y-102847342D02*
X180375714Y-102904485D01*
X180375714Y-102904485D02*
X180432857Y-102961628D01*
X180432857Y-102961628D02*
X180490000Y-103075914D01*
X180490000Y-103075914D02*
X180490000Y-103247342D01*
X180490000Y-103247342D02*
X180432857Y-103361628D01*
X180432857Y-103361628D02*
X180375714Y-103418771D01*
X180375714Y-103418771D02*
X180261429Y-103475914D01*
X180261429Y-103475914D02*
X179804286Y-103475914D01*
X181061429Y-104047342D02*
X181290000Y-104047342D01*
X181290000Y-104047342D02*
X181404286Y-103990200D01*
X181404286Y-103990200D02*
X181461429Y-103933057D01*
X181461429Y-103933057D02*
X181575714Y-103761628D01*
X181575714Y-103761628D02*
X181632857Y-103533057D01*
X181632857Y-103533057D02*
X181632857Y-103075914D01*
X181632857Y-103075914D02*
X181575714Y-102961628D01*
X181575714Y-102961628D02*
X181518572Y-102904485D01*
X181518572Y-102904485D02*
X181404286Y-102847342D01*
X181404286Y-102847342D02*
X181175714Y-102847342D01*
X181175714Y-102847342D02*
X181061429Y-102904485D01*
X181061429Y-102904485D02*
X181004286Y-102961628D01*
X181004286Y-102961628D02*
X180947143Y-103075914D01*
X180947143Y-103075914D02*
X180947143Y-103361628D01*
X180947143Y-103361628D02*
X181004286Y-103475914D01*
X181004286Y-103475914D02*
X181061429Y-103533057D01*
X181061429Y-103533057D02*
X181175714Y-103590200D01*
X181175714Y-103590200D02*
X181404286Y-103590200D01*
X181404286Y-103590200D02*
X181518572Y-103533057D01*
X181518572Y-103533057D02*
X181575714Y-103475914D01*
X181575714Y-103475914D02*
X181632857Y-103361628D01*
X164610000Y-94047342D02*
X164210000Y-93475914D01*
X163924286Y-94047342D02*
X163924286Y-92847342D01*
X163924286Y-92847342D02*
X164381429Y-92847342D01*
X164381429Y-92847342D02*
X164495714Y-92904485D01*
X164495714Y-92904485D02*
X164552857Y-92961628D01*
X164552857Y-92961628D02*
X164610000Y-93075914D01*
X164610000Y-93075914D02*
X164610000Y-93247342D01*
X164610000Y-93247342D02*
X164552857Y-93361628D01*
X164552857Y-93361628D02*
X164495714Y-93418771D01*
X164495714Y-93418771D02*
X164381429Y-93475914D01*
X164381429Y-93475914D02*
X163924286Y-93475914D01*
X165638572Y-93247342D02*
X165638572Y-94047342D01*
X165352857Y-92790200D02*
X165067143Y-93647342D01*
X165067143Y-93647342D02*
X165810000Y-93647342D01*
X166485714Y-118547342D02*
X165800000Y-118547342D01*
X166142857Y-118547342D02*
X166142857Y-117347342D01*
X166142857Y-117347342D02*
X166028571Y-117518771D01*
X166028571Y-117518771D02*
X165914286Y-117633057D01*
X165914286Y-117633057D02*
X165800000Y-117690200D01*
X167228571Y-117347342D02*
X167342857Y-117347342D01*
X167342857Y-117347342D02*
X167457143Y-117404485D01*
X167457143Y-117404485D02*
X167514286Y-117461628D01*
X167514286Y-117461628D02*
X167571428Y-117575914D01*
X167571428Y-117575914D02*
X167628571Y-117804485D01*
X167628571Y-117804485D02*
X167628571Y-118090200D01*
X167628571Y-118090200D02*
X167571428Y-118318771D01*
X167571428Y-118318771D02*
X167514286Y-118433057D01*
X167514286Y-118433057D02*
X167457143Y-118490200D01*
X167457143Y-118490200D02*
X167342857Y-118547342D01*
X167342857Y-118547342D02*
X167228571Y-118547342D01*
X167228571Y-118547342D02*
X167114286Y-118490200D01*
X167114286Y-118490200D02*
X167057143Y-118433057D01*
X167057143Y-118433057D02*
X167000000Y-118318771D01*
X167000000Y-118318771D02*
X166942857Y-118090200D01*
X166942857Y-118090200D02*
X166942857Y-117804485D01*
X166942857Y-117804485D02*
X167000000Y-117575914D01*
X167000000Y-117575914D02*
X167057143Y-117461628D01*
X167057143Y-117461628D02*
X167114286Y-117404485D01*
X167114286Y-117404485D02*
X167228571Y-117347342D01*
X169628571Y-118547342D02*
X169057143Y-118547342D01*
X169057143Y-118547342D02*
X169057143Y-117347342D01*
X170028572Y-117918771D02*
X170428572Y-117918771D01*
X170600000Y-118547342D02*
X170028572Y-118547342D01*
X170028572Y-118547342D02*
X170028572Y-117347342D01*
X170028572Y-117347342D02*
X170600000Y-117347342D01*
X171114286Y-118547342D02*
X171114286Y-117347342D01*
X171114286Y-117347342D02*
X171400000Y-117347342D01*
X171400000Y-117347342D02*
X171571429Y-117404485D01*
X171571429Y-117404485D02*
X171685714Y-117518771D01*
X171685714Y-117518771D02*
X171742857Y-117633057D01*
X171742857Y-117633057D02*
X171800000Y-117861628D01*
X171800000Y-117861628D02*
X171800000Y-118033057D01*
X171800000Y-118033057D02*
X171742857Y-118261628D01*
X171742857Y-118261628D02*
X171685714Y-118375914D01*
X171685714Y-118375914D02*
X171571429Y-118490200D01*
X171571429Y-118490200D02*
X171400000Y-118547342D01*
X171400000Y-118547342D02*
X171114286Y-118547342D01*
X173171429Y-118204485D02*
X173742858Y-118204485D01*
X173057143Y-118547342D02*
X173457143Y-117347342D01*
X173457143Y-117347342D02*
X173857143Y-118547342D01*
X174942857Y-118547342D02*
X174542857Y-117975914D01*
X174257143Y-118547342D02*
X174257143Y-117347342D01*
X174257143Y-117347342D02*
X174714286Y-117347342D01*
X174714286Y-117347342D02*
X174828571Y-117404485D01*
X174828571Y-117404485D02*
X174885714Y-117461628D01*
X174885714Y-117461628D02*
X174942857Y-117575914D01*
X174942857Y-117575914D02*
X174942857Y-117747342D01*
X174942857Y-117747342D02*
X174885714Y-117861628D01*
X174885714Y-117861628D02*
X174828571Y-117918771D01*
X174828571Y-117918771D02*
X174714286Y-117975914D01*
X174714286Y-117975914D02*
X174257143Y-117975914D01*
X176142857Y-118547342D02*
X175742857Y-117975914D01*
X175457143Y-118547342D02*
X175457143Y-117347342D01*
X175457143Y-117347342D02*
X175914286Y-117347342D01*
X175914286Y-117347342D02*
X176028571Y-117404485D01*
X176028571Y-117404485D02*
X176085714Y-117461628D01*
X176085714Y-117461628D02*
X176142857Y-117575914D01*
X176142857Y-117575914D02*
X176142857Y-117747342D01*
X176142857Y-117747342D02*
X176085714Y-117861628D01*
X176085714Y-117861628D02*
X176028571Y-117918771D01*
X176028571Y-117918771D02*
X175914286Y-117975914D01*
X175914286Y-117975914D02*
X175457143Y-117975914D01*
X176600000Y-118204485D02*
X177171429Y-118204485D01*
X176485714Y-118547342D02*
X176885714Y-117347342D01*
X176885714Y-117347342D02*
X177285714Y-118547342D01*
X177914285Y-117975914D02*
X177914285Y-118547342D01*
X177514285Y-117347342D02*
X177914285Y-117975914D01*
X177914285Y-117975914D02*
X178314285Y-117347342D01*
X164610000Y-89047342D02*
X164210000Y-88475914D01*
X163924286Y-89047342D02*
X163924286Y-87847342D01*
X163924286Y-87847342D02*
X164381429Y-87847342D01*
X164381429Y-87847342D02*
X164495714Y-87904485D01*
X164495714Y-87904485D02*
X164552857Y-87961628D01*
X164552857Y-87961628D02*
X164610000Y-88075914D01*
X164610000Y-88075914D02*
X164610000Y-88247342D01*
X164610000Y-88247342D02*
X164552857Y-88361628D01*
X164552857Y-88361628D02*
X164495714Y-88418771D01*
X164495714Y-88418771D02*
X164381429Y-88475914D01*
X164381429Y-88475914D02*
X163924286Y-88475914D01*
X165695714Y-87847342D02*
X165124286Y-87847342D01*
X165124286Y-87847342D02*
X165067143Y-88418771D01*
X165067143Y-88418771D02*
X165124286Y-88361628D01*
X165124286Y-88361628D02*
X165238572Y-88304485D01*
X165238572Y-88304485D02*
X165524286Y-88304485D01*
X165524286Y-88304485D02*
X165638572Y-88361628D01*
X165638572Y-88361628D02*
X165695714Y-88418771D01*
X165695714Y-88418771D02*
X165752857Y-88533057D01*
X165752857Y-88533057D02*
X165752857Y-88818771D01*
X165752857Y-88818771D02*
X165695714Y-88933057D01*
X165695714Y-88933057D02*
X165638572Y-88990200D01*
X165638572Y-88990200D02*
X165524286Y-89047342D01*
X165524286Y-89047342D02*
X165238572Y-89047342D01*
X165238572Y-89047342D02*
X165124286Y-88990200D01*
X165124286Y-88990200D02*
X165067143Y-88933057D01*
D15*
%TO.C,SW1*%
X27493689Y-120505522D02*
X27493689Y-122005522D01*
X28743689Y-124505522D02*
X33243689Y-124505522D01*
X33243689Y-118005522D02*
X28743689Y-118005522D01*
X34493689Y-122005522D02*
X34493689Y-120505522D01*
%TO.C,C1*%
X33027772Y-92070829D02*
X33027772Y-93600829D01*
X34867772Y-92070829D02*
X34867772Y-93600829D01*
%TO.C,R3*%
X161540000Y-97130000D02*
X168080000Y-97130000D01*
X161540000Y-97460000D02*
X161540000Y-97130000D01*
X161540000Y-99540000D02*
X161540000Y-99870000D01*
X161540000Y-99870000D02*
X168080000Y-99870000D01*
X168080000Y-97130000D02*
X168080000Y-97460000D01*
X168080000Y-99870000D02*
X168080000Y-99540000D01*
D12*
%TO.C,J1*%
X26490000Y-89026209D02*
X26490000Y-101646209D01*
D15*
X26490000Y-101646209D02*
X32460000Y-101646209D01*
X27250000Y-89786209D02*
X27250000Y-95336209D01*
X27250000Y-100886209D02*
X27250000Y-95336209D01*
X30200000Y-89036209D02*
X30200000Y-89786209D01*
X30200000Y-89786209D02*
X27250000Y-89786209D01*
X30200000Y-100886209D02*
X27250000Y-100886209D01*
X30200000Y-101636209D02*
X30200000Y-100886209D01*
X31700000Y-89036209D02*
X31700000Y-90836209D01*
X31700000Y-90836209D02*
X32450000Y-90836209D01*
X31700000Y-92336209D02*
X31700000Y-98336209D01*
X31700000Y-98336209D02*
X32450000Y-98336209D01*
X31700000Y-99836209D02*
X31700000Y-101636209D01*
X31700000Y-101636209D02*
X32450000Y-101636209D01*
X32450000Y-89036209D02*
X31700000Y-89036209D01*
X32450000Y-90836209D02*
X32450000Y-89036209D01*
X32450000Y-92336209D02*
X31700000Y-92336209D01*
X32450000Y-98336209D02*
X32450000Y-92336209D01*
X32450000Y-99836209D02*
X31700000Y-99836209D01*
X32450000Y-101636209D02*
X32450000Y-99836209D01*
X32460000Y-89026209D02*
X26490000Y-89026209D01*
X32460000Y-101646209D02*
X32460000Y-89026209D01*
X32750000Y-88736209D02*
X31500000Y-88736209D01*
X32750000Y-89986209D02*
X32750000Y-88736209D01*
%TO.C,R2*%
X161540000Y-102130000D02*
X168080000Y-102130000D01*
X161540000Y-102460000D02*
X161540000Y-102130000D01*
X161540000Y-104540000D02*
X161540000Y-104870000D01*
X161540000Y-104870000D02*
X168080000Y-104870000D01*
X168080000Y-102130000D02*
X168080000Y-102460000D01*
X168080000Y-104870000D02*
X168080000Y-104540000D01*
%TO.C,R10*%
X177420000Y-107130000D02*
X177420000Y-107460000D01*
X177420000Y-109870000D02*
X177420000Y-109540000D01*
X183960000Y-107130000D02*
X177420000Y-107130000D01*
X183960000Y-107460000D02*
X183960000Y-107130000D01*
X183960000Y-109540000D02*
X183960000Y-109870000D01*
X183960000Y-109870000D02*
X177420000Y-109870000D01*
%TO.C,R1*%
X161540000Y-107130000D02*
X168080000Y-107130000D01*
X161540000Y-107460000D02*
X161540000Y-107130000D01*
X161540000Y-109540000D02*
X161540000Y-109870000D01*
X161540000Y-109870000D02*
X168080000Y-109870000D01*
X168080000Y-107130000D02*
X168080000Y-107460000D01*
X168080000Y-109870000D02*
X168080000Y-109540000D01*
%TO.C,R8*%
X177420000Y-97130000D02*
X177420000Y-97460000D01*
X177420000Y-99870000D02*
X177420000Y-99540000D01*
X183960000Y-97130000D02*
X177420000Y-97130000D01*
X183960000Y-97460000D02*
X183960000Y-97130000D01*
X183960000Y-99540000D02*
X183960000Y-99870000D01*
X183960000Y-99870000D02*
X177420000Y-99870000D01*
%TO.C,ESP32*%
X126553279Y-80252594D02*
X126553279Y-115872594D01*
X126553279Y-80252594D02*
X129213279Y-80252594D01*
X126553279Y-115872594D02*
X129213279Y-115872594D01*
X127883279Y-77652594D02*
X129213279Y-77652594D01*
D14*
X129213279Y-77652594D02*
X127883279Y-77652594D01*
D15*
X129213279Y-77652594D02*
X129213279Y-78982594D01*
X129213279Y-80252594D02*
X129213279Y-115872594D01*
X151953279Y-115872594D02*
X154613279Y-115872594D01*
X151953310Y-77712594D02*
X151953279Y-115872594D01*
X151953310Y-77712594D02*
X154613310Y-77712594D01*
X154613310Y-77712594D02*
X154613279Y-115872594D01*
D12*
X126083279Y-72982594D02*
X155083279Y-72982594D01*
X155083279Y-124982594D01*
X126083279Y-124982594D01*
X126083279Y-72982594D01*
X143125068Y-109462594D02*
X145665068Y-109462594D01*
X140585068Y-114542594D01*
X135505068Y-109462594D01*
X138045068Y-109462594D01*
X138045068Y-96762594D01*
X143125068Y-96762594D01*
X143125068Y-109462594D01*
D15*
%TO.C,R6*%
X177420000Y-87130000D02*
X177420000Y-87460000D01*
X177420000Y-89870000D02*
X177420000Y-89540000D01*
X183960000Y-87130000D02*
X177420000Y-87130000D01*
X183960000Y-87460000D02*
X183960000Y-87130000D01*
X183960000Y-89540000D02*
X183960000Y-89870000D01*
X183960000Y-89870000D02*
X177420000Y-89870000D01*
%TO.C,R7*%
X177420000Y-92130000D02*
X177420000Y-92460000D01*
X177420000Y-94870000D02*
X177420000Y-94540000D01*
X183960000Y-92130000D02*
X177420000Y-92130000D01*
X183960000Y-92460000D02*
X183960000Y-92130000D01*
X183960000Y-94540000D02*
X183960000Y-94870000D01*
X183960000Y-94870000D02*
X177420000Y-94870000D01*
%TO.C,R9*%
X177420000Y-102130000D02*
X177420000Y-102460000D01*
X177420000Y-104870000D02*
X177420000Y-104540000D01*
X183960000Y-102130000D02*
X177420000Y-102130000D01*
X183960000Y-102460000D02*
X183960000Y-102130000D01*
X183960000Y-104540000D02*
X183960000Y-104870000D01*
X183960000Y-104870000D02*
X177420000Y-104870000D01*
%TO.C,R4*%
X161540000Y-92130000D02*
X168080000Y-92130000D01*
X161540000Y-92460000D02*
X161540000Y-92130000D01*
X161540000Y-94540000D02*
X161540000Y-94870000D01*
X161540000Y-94870000D02*
X168080000Y-94870000D01*
X168080000Y-92130000D02*
X168080000Y-92460000D01*
X168080000Y-94870000D02*
X168080000Y-94540000D01*
%TO.C,10 LED ARRAY*%
X159600000Y-123500000D02*
X159600000Y-125200000D01*
X159600000Y-125200000D02*
X161300000Y-125200000D01*
X159890000Y-114470000D02*
X185570000Y-114470000D01*
X159890000Y-124910000D02*
X159890000Y-114470000D01*
X185570000Y-114470000D02*
X185570000Y-124910000D01*
X185570000Y-124910000D02*
X159890000Y-124910000D01*
%TO.C,R5*%
X161540000Y-87130000D02*
X168080000Y-87130000D01*
X161540000Y-87460000D02*
X161540000Y-87130000D01*
X161540000Y-89540000D02*
X161540000Y-89870000D01*
X161540000Y-89870000D02*
X168080000Y-89870000D01*
X168080000Y-87130000D02*
X168080000Y-87460000D01*
X168080000Y-89870000D02*
X168080000Y-89540000D01*
%TD*%
%LPC*%
D16*
%TO.C,REF\u002A\u002A*%
X43500000Y-91500000D03*
%TD*%
D17*
%TO.C,SW1*%
X27743689Y-119005522D03*
X34243689Y-119005522D03*
X27743689Y-123505522D03*
X34243689Y-123505522D03*
%TD*%
D16*
%TO.C,REF\u002A\u002A*%
X118500000Y-122500000D03*
%TD*%
D18*
%TO.C,C1*%
X33947772Y-91585829D03*
X33947772Y-94085829D03*
%TD*%
D16*
%TO.C,REF\u002A\u002A*%
X26000000Y-78000000D03*
%TD*%
D18*
%TO.C,R3*%
X161000000Y-98500000D03*
X168620000Y-98500000D03*
%TD*%
D19*
%TO.C,J1*%
X30000000Y-91586209D03*
D20*
X30000000Y-94086209D03*
X30000000Y-96586209D03*
X30000000Y-99086209D03*
%TD*%
D18*
%TO.C,R2*%
X161000000Y-103500000D03*
X168620000Y-103500000D03*
%TD*%
%TO.C,R10*%
X184500000Y-108500000D03*
X176880000Y-108500000D03*
%TD*%
%TO.C,R1*%
X161000000Y-108500000D03*
X168620000Y-108500000D03*
%TD*%
D16*
%TO.C,REF\u002A\u002A*%
X71413282Y-122500000D03*
%TD*%
D18*
%TO.C,R8*%
X184500000Y-98500000D03*
X176880000Y-98500000D03*
%TD*%
D21*
%TO.C,ESP32*%
X127883279Y-78982594D03*
D22*
X127883279Y-81522594D03*
X127883279Y-84062594D03*
X127883279Y-86602594D03*
X127883279Y-89142594D03*
X127883279Y-91682594D03*
X127883279Y-94222594D03*
X127883279Y-96762594D03*
X127883279Y-99302594D03*
X127883279Y-101842594D03*
X127883279Y-104382594D03*
X127883279Y-106922594D03*
X127883279Y-109462594D03*
X127883279Y-112002594D03*
X127883279Y-114542594D03*
X153283279Y-78982594D03*
X153283279Y-81522594D03*
X153283279Y-84062594D03*
X153283279Y-86602594D03*
X153283279Y-89142594D03*
X153283279Y-91682594D03*
X153283279Y-94222594D03*
X153283279Y-96762594D03*
X153283279Y-99302594D03*
X153283279Y-101842594D03*
X153283279Y-104382594D03*
X153283279Y-106922594D03*
X153283279Y-109462594D03*
X153283279Y-112002594D03*
X153283279Y-114542594D03*
%TD*%
D18*
%TO.C,R6*%
X184500000Y-88500000D03*
X176880000Y-88500000D03*
%TD*%
D16*
%TO.C,REF\u002A\u002A*%
X140500000Y-122500000D03*
%TD*%
D18*
%TO.C,R7*%
X184500000Y-93500000D03*
X176880000Y-93500000D03*
%TD*%
%TO.C,R9*%
X184500000Y-103500000D03*
X176880000Y-103500000D03*
%TD*%
D16*
%TO.C,REF\u002A\u002A*%
X186000000Y-78000000D03*
%TD*%
%TO.C,REF\u002A\u002A*%
X118500000Y-91500000D03*
%TD*%
D18*
%TO.C,R4*%
X161000000Y-93500000D03*
X168620000Y-93500000D03*
%TD*%
D23*
%TO.C,10 LED ARRAY*%
X161300000Y-123500000D03*
D24*
X163840000Y-123500000D03*
X166380000Y-123500000D03*
X168920000Y-123500000D03*
X171460000Y-123500000D03*
X174000000Y-123500000D03*
X176540000Y-123500000D03*
X179080000Y-123500000D03*
X181620000Y-123500000D03*
X184160000Y-123500000D03*
X184160000Y-115880000D03*
X181620000Y-115880000D03*
X179080000Y-115880000D03*
X176540000Y-115880000D03*
X174000000Y-115880000D03*
X171460000Y-115880000D03*
X168920000Y-115880000D03*
X166380000Y-115880000D03*
X163840000Y-115880000D03*
X161300000Y-115880000D03*
%TD*%
D18*
%TO.C,R5*%
X161000000Y-88500000D03*
X168620000Y-88500000D03*
%TD*%
D16*
%TO.C,REF\u002A\u002A*%
X43500000Y-122500000D03*
%TD*%
%LPD*%
M02*
